<svg xmlns="http://www.w3.org/2000/svg" width="141.187" height="25.804" viewBox="0 0 141.187 25.804">
  <g id="Adobe" transform="translate(0)">
    <path id="Path_266" data-name="Path 266" d="M-361.41,358.46a5.891,5.891,0,0,0,2.85.807,8.526,8.526,0,0,0,1.2-.077,2.229,2.229,0,0,0,1.964-1.668,2.267,2.267,0,0,0-.886-2.519,8.816,8.816,0,0,0-1.813-1,10.037,10.037,0,0,1-1.936-1.012,3,3,0,0,1-1.292-3.147,2.873,2.873,0,0,1,2.306-2.357,6.256,6.256,0,0,1,3.558.127c.518.163.514.213.432,1.05a7.187,7.187,0,0,0-2.21-.508,9.617,9.617,0,0,0-1.309.063,2.052,2.052,0,0,0-1.831,1.5,2.174,2.174,0,0,0,.8,2.437,9.414,9.414,0,0,0,2.02,1.081,9.954,9.954,0,0,1,1.733.927,3.084,3.084,0,0,1,1.393,3.215,3.009,3.009,0,0,1-2.286,2.531,6.17,6.17,0,0,1-4.179-.223C-361.425,359.477-361.665,359.166-361.41,358.46Z" transform="translate(389.057 -334.43)" fill="#fff"/>
    <path id="Path_267" data-name="Path 267" d="M-324.655,360.638a4.073,4.073,0,0,1-3.257.971,2.53,2.53,0,0,1-2.309-2.012,4.829,4.829,0,0,1-.167-1.077c-.019-1.788-.015-3.577-.011-5.366,0-.238-.081-.521.254-.645.368-.137.641.072.646.576.015,1.533,0,3.066.007,4.6a5.074,5.074,0,0,0,.137,1.41,2.089,2.089,0,0,0,2.229,1.7,3.243,3.243,0,0,0,1.671-.456,1.553,1.553,0,0,0,.859-1.5c-.054-1.713-.017-3.43-.017-5.146,0-.219,0-.439,0-.657,0-.343.118-.564.5-.555.416.01.437.3.442.607,0,.182,0,.365,0,.548q.026,3.612.053,7.226c0,.246.1.544-.266.614-.329.063-.573-.04-.617-.425A2.23,2.23,0,0,0-324.655,360.638Z" transform="translate(380.102 -335.923)" fill="#fff"/>
    <path id="Path_268" data-name="Path 268" d="M-291.284,353.463a4.237,4.237,0,0,1,3.1-1.206,2.6,2.6,0,0,1,2.641,2.17,6.085,6.085,0,0,1,.145,1.3c.016,1.606.006,3.212.006,4.817q0,.219-.006.438c-.006.318-.172.456-.487.441a.376.376,0,0,1-.405-.408c-.006-.219-.006-.438-.006-.657q0-2.025,0-4.051c0-.292.008-.585-.02-.875a2.269,2.269,0,0,0-1.579-2.258,3.345,3.345,0,0,0-3.315,1.218,1.663,1.663,0,0,0-.141.956c-.006,1.715.006,3.431-.011,5.146,0,.355.2.911-.447.909s-.42-.57-.425-.911c-.036-2.481-.045-4.963-.065-7.444,0-.251-.075-.536.276-.616s.545.1.6.449C-291.4,353.024-291.358,353.16-291.284,353.463Z" transform="translate(369.131 -335.86)" fill="#fff"/>
    <path id="Path_269" data-name="Path 269" d="M-231.829,353.309c.305-.015.461-.243.668-.382a3.906,3.906,0,0,1,2.821-.632,2.492,2.492,0,0,1,2.155,1.777,4.1,4.1,0,0,1,.238,1.287q.011,2.685.013,5.371c0,.243.061.521-.248.659-.348.156-.645-.078-.651-.58-.016-1.461,0-2.923-.011-4.384a7.833,7.833,0,0,0-.089-1.418,2.086,2.086,0,0,0-2.493-1.886,3.368,3.368,0,0,0-2.2,1.1,1.258,1.258,0,0,0-.276,1.017q0,2.356,0,4.713c0,.219.011.439,0,.657-.021.34.123.808-.455.8-.6,0-.421-.494-.424-.816-.027-2.484-.038-4.968-.05-7.453,0-.275-.12-.635.3-.707.438-.075.559.228.6.594A1.132,1.132,0,0,0-231.829,353.309Z" transform="translate(352.015 -335.86)" fill="#fff"/>
    <path id="Path_270" data-name="Path 270" d="M-239.019,348.691a9.874,9.874,0,0,1-.009,2.046c0,.474.182.662.644.642.364-.016.729,0,1.093.006.285.006.5.1.485.441-.015.275-.194.368-.432.384-.182.012-.365.01-.547.01-1.4,0-1.257-.1-1.26,1.327,0,1.494-.013,2.988,0,4.481.015,1.413.349,1.7,1.792,1.61.2-.013.453-.144.533.171a.49.49,0,0,1-.328.607,1.926,1.926,0,0,1-2.853-1.534c-.121-1.154-.063-2.328-.076-3.493-.009-.837-.017-1.676,0-2.514.011-.456-.147-.688-.627-.657a3.163,3.163,0,0,1-.544-.028c-.222-.024-.3-.184-.3-.382s.078-.416.282-.388c1.41.191,1.206-.828,1.27-1.654C-239.851,349.228-239.914,348.6-239.019,348.691Z" transform="translate(354.488 -334.832)" fill="#fff"/>
    <path id="Path_271" data-name="Path 271" d="M-334.682,333.476c0-.956,0-1.743,0-2.531,0-.368.07-.639.532-.642s.518.273.517.639c-.006,1.239.008,2.478-.009,3.717,0,.295.15.682-.3.827a1.04,1.04,0,0,1-1.28-.506c-.381-.7-.73-1.426-1.105-2.134a1.608,1.608,0,0,0-.6-.815c0,1.01,0,1.928,0,2.846,0,.292.021.59-.408.627-.488.041-.644-.188-.639-.641.011-1.239,0-2.479.008-3.718,0-.305-.117-.681.328-.822a1.188,1.188,0,0,1,1.343.412c.357.634.674,1.291,1.012,1.937A1.672,1.672,0,0,0-334.682,333.476Z" transform="translate(382.282 -329.53)" fill="#fff"/>
    <path id="Path_272" data-name="Path 272" d="M-316.523,348.691c0,.749.022,1.4-.007,2.054-.022.485.187.656.643.637.365-.016.731,0,1.1,0,.236,0,.429.07.451.355.025.326-.14.465-.45.468-.073,0-.146,0-.219.006-1.545.088-1.545.088-1.545,1.6,0,1.425-.017,2.85.006,4.274.021,1.339.411,1.668,1.747,1.567.231-.017.54-.2.612.2.066.366-.184.528-.5.6-1.349.306-2.723.059-2.748-1.946-.022-1.753-.009-3.507-.015-5.26,0-.926-.006-.934-.906-1.025-.306-.031-.6-.026-.583-.456.018-.36.28-.355.543-.385.936-.106.935-.112.973-1.082.011-.292.027-.583.041-.875C-317.357,348.883-317.1,348.613-316.523,348.691Z" transform="translate(376.799 -334.831)" fill="#fff"/>
    <path id="Path_273" data-name="Path 273" d="M-334.441,352.433c0,1.787-.008,3.574,0,5.361,0,.881.019.889.917,1.168.185.058.349.088.364.318a.433.433,0,0,1-.333.487,1.356,1.356,0,0,1-1.8-.963,4.263,4.263,0,0,1-.071-.978q-.006-5.361,0-10.723c0-.219,0-.437.014-.656.012-.266.167-.38.424-.379.241,0,.439.07.459.348.019.254.021.51.021.765Q-334.44,349.807-334.441,352.433Z" transform="translate(381.527 -334.08)" fill="#fff"/>
    <path id="Path_274" data-name="Path 274" d="M-206.682,353.6c.47-.331.866-.652,1.3-.9a3.767,3.767,0,0,1,1.018-.385c.254-.061.613-.209.728.21.124.45-.089.662-.55.719a3.058,3.058,0,0,0-1.241.409,2.23,2.23,0,0,0-1.307,2.194c.095,1.456.016,2.922.011,4.383,0,.256,0,.512-.015.767-.019.316-.209.444-.513.429a.4.4,0,0,1-.427-.4c-.013-.145-.013-.292-.014-.438q-.029-3.781-.056-7.562c0-.3-.041-.606.4-.615.391-.008.495.227.506.558a2.288,2.288,0,0,0,.03.327A2.22,2.22,0,0,0-206.682,353.6Z" transform="translate(344.786 -335.857)" fill="#fff"/>
    <path id="Path_275" data-name="Path 275" d="M-247.162,353.656a9.856,9.856,0,0,1,1.575-1.065,6.2,6.2,0,0,1,.828-.274c.3-.055.688-.205.76.318.061.441-.209.552-.58.607a3.568,3.568,0,0,0-1.43.521,2.151,2.151,0,0,0-1.137,2.072c.074,1.493,0,2.993,0,4.49,0,.219,0,.438-.01.657-.015.3-.162.469-.485.446a.407.407,0,0,1-.424-.4c-.013-.145-.009-.292-.011-.438q-.026-3.779-.051-7.558c0-.3-.047-.609.4-.609.385,0,.494.228.5.562C-247.22,353.157-247.193,353.331-247.162,353.656Z" transform="translate(356.414 -335.861)" fill="#fff"/>
    <path id="Path_276" data-name="Path 276" d="M-322.77,332.953c0-.657.013-1.315-.005-1.971-.011-.436.1-.686.606-.667.729.028,1.461.01,2.191.009.358,0,.518.174.543.531.034.456-.268.438-.565.442-.365,0-.731.012-1.1,0-.348-.011-.544.092-.553.486-.009.414.135.612.568.588.328-.018.657.007.986,0,.384-.009.5.193.5.545s-.208.427-.5.428c-.329,0-.658.016-.986.005-.422-.014-.574.18-.572.595s.13.612.565.594.877,0,1.315,0c.235,0,.454.052.423.356-.024.245,0,.578-.349.59-.911.03-1.824.03-2.735.014-.365-.006-.332-.326-.335-.573C-322.775,334.267-322.77,333.61-322.77,332.953Z" transform="translate(377.904 -329.544)" fill="#fff"/>
    <path id="Path_277" data-name="Path 277" d="M-328.748,334.536c.919,0,1.565,0,2.211,0,.221,0,.461.018.451.328s-.036.633-.433.639c-1.1.018-2.193.009-3.289,0-.283,0-.355-.2-.364-.444a1.5,1.5,0,0,1,.447-.97c.664-.864,1.326-1.731,2.074-2.707a9.932,9.932,0,0,0-1.8-.1c-.251-.023-.635.148-.65-.337-.015-.464.228-.647.68-.632.511.017,1.023,0,1.535,0,.4,0,.805-.019,1.206.008.469.031.651.295.485.725a2.864,2.864,0,0,1-.415.634C-327.264,332.562-327.921,333.433-328.748,334.536Z" transform="translate(380.034 -329.544)" fill="#fff"/>
    <path id="Path_278" data-name="Path 278" d="M-309.388,357.044q0,1.746,0,3.492a5.382,5.382,0,0,1-.031.652.333.333,0,0,1-.377.305c-.226,0-.454-.028-.5-.3a4.423,4.423,0,0,1-.03-.652q0-3.546,0-7.093a3.909,3.909,0,0,1,.027-.652c.046-.268.268-.311.5-.3.194.009.359.083.383.3a6.048,6.048,0,0,1,.028.652Q-309.385,355.244-309.388,357.044Z" transform="translate(374.32 -335.928)" fill="#fff"/>
    <path id="Path_279" data-name="Path 279" d="M-309.883,347.387a.617.617,0,0,1,.6.634.608.608,0,0,1-.668.669.575.575,0,0,1-.555-.667A.63.63,0,0,1-309.883,347.387Z" transform="translate(374.372 -334.459)" fill="#fff"/>
    <path id="Path_280" data-name="Path 280" d="M-264.76,351.15a3.77,3.77,0,0,0-3.437-3.533,15.449,15.449,0,0,0-3.057-.053c-.9.035-.91.041-.914.913-.007,1.787,0,3.575,0,5.363q0,2.736,0,5.472c0,.037,0,.073,0,.11,0,.3,0,.605.415.633.5.034.493-.312.493-.654,0-1.022-.006-2.043,0-3.065.008-.843.016-.865.834-.843a8.633,8.633,0,0,0,2.71-.268A3.824,3.824,0,0,0-264.76,351.15Zm-3.068,3.226a9.075,9.075,0,0,1-2.935.231c-.378-.012-.5-.211-.5-.558.007-.876,0-1.752,0-2.628h0c0-.766-.012-1.533,0-2.3s.027-.775.819-.8a6.6,6.6,0,0,1,2.8.319,2.836,2.836,0,0,1,1.932,2.876A2.894,2.894,0,0,1-267.827,354.376Z" transform="translate(363.335 -334.496)" fill="#fff"/>
    <path id="Path_281" data-name="Path 281" d="M-341.84,354.605a3.6,3.6,0,0,0-3.069-2.314,3.74,3.74,0,0,0-3.795,1.653,5.385,5.385,0,0,0-.409,5.228,3.77,3.77,0,0,0,3.8,2.415,3.791,3.791,0,0,0,3.558-2.607,5.551,5.551,0,0,0,.37-2.1A5.257,5.257,0,0,0-341.84,354.605Zm-.681,3.847a3,3,0,0,1-2.867,2.287,3.135,3.135,0,0,1-2.985-2.168,3.758,3.758,0,0,1-.266-1.6,4.391,4.391,0,0,1,.414-2.134,2.872,2.872,0,0,1,2.9-1.742,2.823,2.823,0,0,1,2.7,2.027A5.041,5.041,0,0,1-342.521,358.453Z" transform="translate(385.626 -335.862)" fill="#fff"/>
    <path id="Path_282" data-name="Path 282" d="M-298.662,354.632a3.6,3.6,0,0,0-3.051-2.337,3.779,3.779,0,0,0-3.752,1.532,5.57,5.57,0,0,0-.009,6.177,3.961,3.961,0,0,0,5.958.464,5.283,5.283,0,0,0,1.316-3.95A4.988,4.988,0,0,0-298.662,354.632Zm-.8,4.121a2.849,2.849,0,0,1-2.423,1.953,2.915,2.915,0,0,1-2.913-1.353,4.766,4.766,0,0,1,.145-5.162,2.992,2.992,0,0,1,4.974.429,4.764,4.764,0,0,1,.556,2.39A4.216,4.216,0,0,1-299.463,358.753Z" transform="translate(373.191 -335.861)" fill="#fff"/>
    <path id="Path_283" data-name="Path 283" d="M-218.953,356.735c.84.025,1.681.007,2.52.007v-.021c.877,0,1.754-.013,2.63.005.514.011.69-.209.712-.717a3.479,3.479,0,0,0-2.3-3.595,3.67,3.67,0,0,0-4.229,1.476,5.61,5.61,0,0,0-.829,3.452c.165,3.362,2.728,4.938,6.017,3.963a1.149,1.149,0,0,0,.65-.375.451.451,0,0,0,.032-.513c-.092-.154-.246-.1-.386-.048a5.4,5.4,0,0,1-2.151.325,3.252,3.252,0,0,1-3.258-3.29C-219.562,356.952-219.455,356.721-218.953,356.735Zm2.232-3.686a2.547,2.547,0,0,1,2.7,2.411c.009.365-.108.544-.487.543-1.634,0-3.269,0-4.908,0C-219.257,354.2-218.25,353.127-216.72,353.049Z" transform="translate(348.448 -335.854)" fill="#fff"/>
    <path id="Path_284" data-name="Path 284" d="M-254.066,355.321a4.079,4.079,0,0,0-.258-1.281,2.384,2.384,0,0,0-1.748-1.653,5.335,5.335,0,0,0-3.119.2c-.414.144-.584.407-.34.951a6.444,6.444,0,0,1,2.385-.432,2.045,2.045,0,0,1,2.172,2c.091.772.007.876-.775.876a7.319,7.319,0,0,0-3.01.4,2.435,2.435,0,0,0-1.7,2.727,2.568,2.568,0,0,0,2.109,2.343,6.056,6.056,0,0,0,3.746-.392.782.782,0,0,0,.553-.822C-254.075,358.6-254.064,356.962-254.066,355.321Zm-.893,3.307c0,.146,0,.291,0,.437,0,1.451-.043,1.5-1.465,1.683a4.155,4.155,0,0,1-1.628-.11,1.876,1.876,0,0,1-1.527-1.763,1.71,1.71,0,0,1,1.279-1.819,5.963,5.963,0,0,1,2.8-.273c.4.048.574.224.543.64C-254.984,357.823-254.959,358.226-254.959,358.628Z" transform="translate(359.968 -335.857)" fill="#fff"/>
    <path id="Path_285" data-name="Path 285" d="M-357.149,333.059a.8.8,0,0,1-.069-.862,1.26,1.26,0,0,0-1-1.811,7.194,7.194,0,0,0-1.846-.112c-.493,0-.735.181-.707.712.033.617.008,1.237.008,1.855h0c0,.691,0,1.383,0,2.074,0,.33.087.585.469.594a7.51,7.51,0,0,0,2.173-.1A1.462,1.462,0,0,0-357.149,333.059Zm-1.915-1.844c.419.019.828.08.867.6.036.494-.307.587-.733.544-.435.046-.755-.043-.746-.611C-359.671,331.3-359.445,331.2-359.064,331.214Zm.043,3.395c-.463.021-.667-.146-.657-.626.013-.609.1-.728.668-.726.621,0,.983.221,1.01.612C-357.971,334.306-358.373,334.579-359.02,334.609Z" transform="translate(388.843 -329.531)" fill="#fff"/>
    <path id="Path_286" data-name="Path 286" d="M-344.12,330.165a2.548,2.548,0,0,0-2.593,2.64,2.485,2.485,0,0,0,2.438,2.76,2.5,2.5,0,0,0,2.544-2.675A2.527,2.527,0,0,0-344.12,330.165Zm1.077,3.565a1.168,1.168,0,0,1-1.047.821,1.19,1.19,0,0,1-1.242-.7,2.138,2.138,0,0,1-.116-1.686,1.216,1.216,0,0,1,1.258-.978,1.259,1.259,0,0,1,1.233,1.148c.032.177.034.36.058.632A4.008,4.008,0,0,1-343.043,333.73Z" transform="translate(384.796 -329.501)" fill="#fff"/>
    <path id="Path_287" data-name="Path 287" d="M-350.212,333.968c-.262-.375-.408-.63.041-1.078a1.429,1.429,0,0,0-.752-2.5,7.246,7.246,0,0,0-1.954-.1c-.48.006-.61.239-.6.684.02,1.309.014,2.618,0,3.927,0,.386.1.621.543.619.429,0,.581-.2.563-.6-.014-.29,0-.582,0-.872,0-.187.017-.374.238-.431a.437.437,0,0,1,.488.158c.224.33.416.681.628,1.019.5.8.526.809,1.626.58A5.264,5.264,0,0,0-350.212,333.968Zm-1.644-1.351c-.511.073-.533-.274-.533-.678s.025-.718.564-.7c.629.021,1.037.3,1,.748C-350.861,332.395-351.22,332.623-351.856,332.618Z" transform="translate(386.745 -329.531)" fill="#fff"/>
    <g id="Group_412" data-name="Group 412" transform="translate(0 0)">
      <path id="Path_338" data-name="Path 338" d="M-380.609,330.045h1.389l-.043.246h-.26a.747.747,0,0,1-.217-.029v.449c0,.159-.043.318-.043.477s-.043.318-.043.405h-.347v-.405c0-.159.043-.318.043-.477s.043-.376.043-.449h-.347a.627.627,0,0,0-.174.029v-.246Zm1.562,0h.477a1.885,1.885,0,0,0,.043.217c0,.073.086.2.13.362,0,.043.044.159.044.246a1.7,1.7,0,0,0,.13.318,2.957,2.957,0,0,1,.13-.362c.043-.115.13-.289.174-.405a1.946,1.946,0,0,0,.13-.376h.521v.492c0,.174-.043.405-.043.564v.492h-.347v-.723c0-.13.043-.246.043-.333v-.159l-.477,1.215h-.348c0-.087-.086-.246-.086-.362-.043-.2-.13-.362-.13-.405a3.1,3.1,0,0,0-.13-.4v.4c0,.116-.043.275-.043.405v.362h-.347c0-.16.043-.362.043-.536,0-.145.043-.347.043-.521s.044-.318.044-.492Zm-16.691,24.631h-.926l-.362-1.3h-1.707l-.362,1.3h-.9l1.577-5.757h1.013Zm-1.548-2.242-.607-2.169-.564,2.169Zm4.874,2.242h-.781v-.592a1.068,1.068,0,0,1-.463.506,1.146,1.146,0,0,1-.506.188,1.1,1.1,0,0,1-.867-.579,2.691,2.691,0,0,1-.376-1.591,3.449,3.449,0,0,1,.333-1.663,1.149,1.149,0,0,1,.955-.563,1.2,1.2,0,0,1,.9.607V348.92h.81v5.756Zm-2.2-2.169a3.106,3.106,0,0,0,.13,1,.659.659,0,0,0,.535.434.657.657,0,0,0,.492-.289,2.05,2.05,0,0,0,.231-1.013,2.262,2.262,0,0,0-.2-1.071.628.628,0,0,0-.521-.361.708.708,0,0,0-.477.318,1.972,1.972,0,0,0-.188.983Zm2.863,0a2.837,2.837,0,0,1,.174-1.027,1.826,1.826,0,0,1,.564-.781,1.441,1.441,0,0,1,.84-.318,1.39,1.39,0,0,1,1.142.607,2.843,2.843,0,0,1,.463,1.62,2.522,2.522,0,0,1-.463,1.548,1.427,1.427,0,0,1-1.142.622,1.586,1.586,0,0,1-.81-.26,1.735,1.735,0,0,1-.592-.753,3.434,3.434,0,0,1-.174-1.2v-.058Zm.81.1a1.991,1.991,0,0,0,.174.983.716.716,0,0,0,.564.347.67.67,0,0,0,.535-.347,1.791,1.791,0,0,0,.231-.983,1.906,1.906,0,0,0-.231-1.013.664.664,0,0,0-.535-.39.628.628,0,0,0-.521.361,2.28,2.28,0,0,0-.217,1.042Zm3.009,2.068V348.92h.81v2.069a1.091,1.091,0,0,1,.882-.607,1.166,1.166,0,0,1,.94.564,2.908,2.908,0,0,1,.391,1.62,2.919,2.919,0,0,1-.391,1.634,1.184,1.184,0,0,1-.9.579,1.207,1.207,0,0,1-.521-.188.935.935,0,0,1-.419-.506v.592Zm.81-2.169a3.038,3.038,0,0,0,.145,1,.7.7,0,0,0,.579.434.609.609,0,0,0,.477-.289,1.977,1.977,0,0,0,.2-1.013,2.273,2.273,0,0,0-.2-1.071.63.63,0,0,0-.521-.361.652.652,0,0,0-.477.318,1.962,1.962,0,0,0-.2.983Zm4.671.868.81.13a1.7,1.7,0,0,1-.491.955,1.521,1.521,0,0,1-.882.318,1.333,1.333,0,0,1-1.172-.694,3.034,3.034,0,0,1-.289-1.446,3.027,3.027,0,0,1,.376-1.649,1.255,1.255,0,0,1,1.041-.607,1.208,1.208,0,0,1,1.056.607,3.622,3.622,0,0,1,.434,1.91h-2.1a1.248,1.248,0,0,0,.188.795.557.557,0,0,0,.463.246.359.359,0,0,0,.333-.13,1.966,1.966,0,0,0,.231-.434Zm.073-1.157a1.6,1.6,0,0,0-.2-.738.569.569,0,0,0-.449-.275.54.54,0,0,0-.448.318,1.09,1.09,0,0,0-.189.694Z" transform="translate(400.135 -329.467)" fill="#fff"/>
      <path id="Path_339" data-name="Path 339" d="M-400.193,329.233h6.942l-6.942,16.908Zm11.672,0h7.029v16.691Zm-2.285,6.465,3.833,10.139h-2.373l-1.634-3.21h-2.6Z" transform="translate(400.193 -329.233)" fill="#fff"/>
    </g>
  </g>
</svg>
