<svg xmlns="http://www.w3.org/2000/svg" width="114" height="36" viewBox="0 0 114 36">
  <path id="Airbnb" d="M33.29,25.5c-.179-.438-.348-.9-.527-1.293l-.83-1.878L31.9,22.3c-2.467-5.4-5.1-10.883-7.894-16.279l-.112-.225c-.28-.528-.561-1.113-.852-1.653a10.714,10.714,0,0,0-1.278-1.979,5.933,5.933,0,0,0-9.194,0,13.7,13.7,0,0,0-1.278,1.979c-.28.585-.561,1.158-.852,1.686l-.112.225C7.58,11.449,4.9,16.936,2.433,22.332l-.067.067c-.247.585-.538,1.192-.819,1.844-.179.394-.359.821-.538,1.293A7.634,7.634,0,0,0,9.082,35.913a9.378,9.378,0,0,0,3.566-1.237,18.147,18.147,0,0,0,4.429-3.732,19.149,19.149,0,0,0,4.429,3.744,9.378,9.378,0,0,0,4.507,1.293,7.62,7.62,0,0,0,7.568-6.554,6.694,6.694,0,0,0-.292-3.935Zm-16.1,1.866a17.942,17.942,0,0,1-3.61-6.689,5.86,5.86,0,0,1-.112-2.2,3.5,3.5,0,0,1,.583-1.506,3.8,3.8,0,0,1,3.139-1.585,3.7,3.7,0,0,1,3.139,1.574,3.506,3.506,0,0,1,.572,1.518,5.754,5.754,0,0,1-.112,2.2A18.4,18.4,0,0,1,17.189,27.369Zm14.285,1.664a5.349,5.349,0,0,1-3.252,4.216,5.45,5.45,0,0,1-2.713.36,7.008,7.008,0,0,1-2.713-.944,17.551,17.551,0,0,1-4.07-3.485,20.487,20.487,0,0,0,4.317-7.96,8.839,8.839,0,0,0,.179-3.069,6.227,6.227,0,0,0-.964-2.473,6.005,6.005,0,0,0-5.034-2.563,6.121,6.121,0,0,0-5.046,2.552,5.833,5.833,0,0,0-.953,2.485,7.42,7.42,0,0,0,.179,3.069A20.935,20.935,0,0,0,15.72,29.2a16.08,16.08,0,0,1-4.07,3.508,7.042,7.042,0,0,1-2.713.933,5.34,5.34,0,0,1-5.965-4.576A5.94,5.94,0,0,1,3.3,26.256c.112-.36.28-.72.46-1.147.247-.585.538-1.192.819-1.8l.045-.079c2.422-5.363,5.068-10.838,7.815-16.2l.112-.225c.28-.54.561-1.113.852-1.653A7.256,7.256,0,0,1,14.408,3.58a3.717,3.717,0,0,1,5.707,0,7.707,7.707,0,0,1,1.009,1.574c.28.54.561,1.124.852,1.653l.112.225c2.736,5.363,5.382,10.838,7.849,16.2l.034.034c.292.585.538,1.237.818,1.8.179.438.359.787.471,1.158A8.439,8.439,0,0,1,31.473,29.033Zm15.608-1.911a5.623,5.623,0,0,1-4.429-2.057,7.376,7.376,0,0,1-1.794-5.037,7.838,7.838,0,0,1,1.861-5.149,5.936,5.936,0,0,1,4.575-2.091,4.817,4.817,0,0,1,4.149,2.159l.112-1.765h3.274V26.762H51.543l-.112-1.979a5.064,5.064,0,0,1-4.35,2.338Zm.852-3.238a3.312,3.312,0,0,0,1.76-.506A4.216,4.216,0,0,0,50.9,21.972a4.593,4.593,0,0,0,.426-2.024,3.849,3.849,0,0,0-1.648-3.418,3.3,3.3,0,0,0-3.5,0,4.216,4.216,0,0,0-1.211,1.405,4.519,4.519,0,0,0-.426,2.024A3.849,3.849,0,0,0,46.2,23.378,3.236,3.236,0,0,0,47.933,23.884Zm12.5-14.368a1.979,1.979,0,0,1-.247,1.046,2.011,2.011,0,0,1-1.783.967,2.129,2.129,0,0,1-1.043-.247,2.065,2.065,0,0,1-.751-.72,2.051,2.051,0,0,1-.247-1.046,2.032,2.032,0,0,1,.247-1.046,1.783,1.783,0,0,1,.751-.72,2.11,2.11,0,0,1,1.043-.259,2.062,2.062,0,0,1,1.794.967A2.254,2.254,0,0,1,60.435,9.516Zm-3.812,17.2V13.158h3.566V26.739H56.611Zm13.1-10.006v.045a2.581,2.581,0,0,0-.561-.146,2.9,2.9,0,0,0-.617-.045,2.718,2.718,0,0,0-2.242.9,3.824,3.824,0,0,0-.785,2.6v6.667H61.937V13.147h3.285l.112,2.057a4.076,4.076,0,0,1,1.39-1.664,3.469,3.469,0,0,1,2.029-.562,3.538,3.538,0,0,1,.718.067,1.836,1.836,0,0,1,.247.067Zm1.435,10.006V7.582h3.566V14.89a5.5,5.5,0,0,1,8.611-.079,7.375,7.375,0,0,1,1.794,5.048,7.838,7.838,0,0,1-1.861,5.149A5.936,5.936,0,0,1,78.688,27.1,4.817,4.817,0,0,1,74.54,24.94l-.112,1.765-3.274.034Zm6.9-2.833a3.3,3.3,0,0,0,1.749-.506,4.216,4.216,0,0,0,1.211-1.405,4.443,4.443,0,0,0,.426-2.024,4.427,4.427,0,0,0-.426-2.012A4.214,4.214,0,0,0,79.8,16.531a3.3,3.3,0,0,0-3.5,0,4.246,4.246,0,0,0-1.222,1.405,4.519,4.519,0,0,0-.426,2.024A3.849,3.849,0,0,0,76.3,23.378,3.246,3.246,0,0,0,78.049,23.884Zm8.42,2.844V13.147h3.285l.112,1.765a4.437,4.437,0,0,1,3.969-2.125A4.6,4.6,0,0,1,98.12,15.53a7.448,7.448,0,0,1,.605,3.092v8.14H95.148V19.094a3.559,3.559,0,0,0-.639-2.237,2.126,2.126,0,0,0-1.749-.832,2.711,2.711,0,0,0-1.424.36,2.8,2.8,0,0,0-.964,1.045,3.041,3.041,0,0,0-.359,1.518v7.78Zm14.038,0V7.571h3.577v7.308a5.232,5.232,0,0,1,4.182-2.125,5.622,5.622,0,0,1,4.429,2.057,7.4,7.4,0,0,1,1.783,5.037A7.827,7.827,0,0,1,112.617,25a5.936,5.936,0,0,1-4.575,2.091,4.818,4.818,0,0,1-4.149-2.159l-.1,1.765Zm6.929-2.844a3.246,3.246,0,0,0,1.749-.506,4.247,4.247,0,0,0,1.222-1.405,4.6,4.6,0,0,0,.426-2.024,3.848,3.848,0,0,0-1.648-3.418,3.3,3.3,0,0,0-3.5,0,4.217,4.217,0,0,0-1.211,1.405,4.089,4.089,0,0,0-.426,2.024,3.849,3.849,0,0,0,1.648,3.418A3.152,3.152,0,0,0,107.437,23.884Z" transform="translate(-0.481 0.02)" fill="#ff385c"/>
</svg>
