<svg xmlns="http://www.w3.org/2000/svg" width="16" height="16" viewBox="0 0 16 16">
  <path id="categories" d="M14.04,8.28v4.48a1.28,1.28,0,0,1-1.28,1.28H8.28A1.28,1.28,0,0,1,7,12.76V8.28A1.28,1.28,0,0,1,8.28,7h4.48A1.28,1.28,0,0,1,14.04,8.28ZM21.72,7H17.24a1.28,1.28,0,0,0-1.28,1.28v4.48a1.28,1.28,0,0,0,1.28,1.28h4.48A1.28,1.28,0,0,0,23,12.76V8.28A1.28,1.28,0,0,0,21.72,7Zm-8.96,8.96H8.28A1.28,1.28,0,0,0,7,17.24v4.48A1.28,1.28,0,0,0,8.28,23h4.48a1.28,1.28,0,0,0,1.28-1.28V17.24A1.28,1.28,0,0,0,12.76,15.96Zm6.72,0A3.52,3.52,0,1,0,23,19.48a3.52,3.52,0,0,0-3.52-3.52Z" transform="translate(-7 -7)" fill="#0c0"/>
</svg>
