<svg id="design" xmlns="http://www.w3.org/2000/svg" width="42" height="42" viewBox="0 0 42 42">
  <g id="Group_299" data-name="Group 299">
    <g id="Group_298" data-name="Group 298">
      <path id="Path_232" data-name="Path 232" d="M40.77,0H35.848a1.23,1.23,0,0,0-1.23,1.23v1.23H24.48a3.691,3.691,0,0,0-6.96,0H7.383V1.23A1.23,1.23,0,0,0,6.152,0H1.23A1.23,1.23,0,0,0,0,1.23V6.152a1.23,1.23,0,0,0,1.23,1.23H6.152a1.23,1.23,0,0,0,1.23-1.23V4.905H12.5a16.166,16.166,0,0,0-7.462,12.6,3.69,3.69,0,1,0,2.466.024,13.739,13.739,0,0,1,10.19-12.2,3.689,3.689,0,0,0,6.612,0,13.739,13.739,0,0,1,10.19,12.2,3.693,3.693,0,1,0,2.466-.025A16.137,16.137,0,0,0,29.5,4.922h5.117v1.23a1.23,1.23,0,0,0,1.23,1.23H40.77A1.23,1.23,0,0,0,42,6.152V1.23A1.23,1.23,0,0,0,40.77,0ZM4.922,4.922H2.461V2.461H4.922ZM6.234,22.23A1.23,1.23,0,1,1,7.465,21,1.232,1.232,0,0,1,6.234,22.23ZM21,4.922a1.23,1.23,0,1,1,1.23-1.23A1.232,1.232,0,0,1,21,4.922ZM35.766,19.77A1.23,1.23,0,1,1,34.535,21,1.232,1.232,0,0,1,35.766,19.77ZM39.539,4.922H37.078V2.461h2.461Z" fill="#0c0"/>
    </g>
  </g>
  <g id="Group_301" data-name="Group 301" transform="translate(9.926 9.927)">
    <g id="Group_300" data-name="Group 300">
      <path id="Path_233" data-name="Path 233" d="M142.942,136.323,133.1,121.557v0l-.011-.015c-.017-.025-.035-.048-.053-.071a1.23,1.23,0,0,0-1.97.071l-.011.015v0l-9.844,14.766a1.23,1.23,0,0,0,.154,1.553,15.589,15.589,0,0,1,4.443,9.1,6.345,6.345,0,0,0-.55.5,6.237,6.237,0,0,0-1.792,4.381,1.231,1.231,0,0,0,1.23,1.23h14.766a1.231,1.231,0,0,0,1.23-1.23,6.237,6.237,0,0,0-1.792-4.381,6.342,6.342,0,0,0-.551-.5,15.587,15.587,0,0,1,4.443-9.1A1.23,1.23,0,0,0,142.942,136.323Zm-10.867-.548a1.23,1.23,0,1,1-1.23,1.23A1.232,1.232,0,0,1,132.074,135.775Zm-5.943,14.848a3.759,3.759,0,0,1,3.482-2.543h4.922a3.759,3.759,0,0,1,3.482,2.543Zm9.9-4.817a6.045,6.045,0,0,0-1.5-.187h-4.922a6.042,6.042,0,0,0-1.5.187,18.056,18.056,0,0,0-4.319-8.933l7.046-10.569v7.222a3.691,3.691,0,1,0,2.461,0V126.3l7.046,10.569A18.053,18.053,0,0,0,136.032,145.806Z" transform="translate(-121 -121.01)" fill="#0c0"/>
    </g>
  </g>
</svg>
