<svg id="DigitalOcean" xmlns="http://www.w3.org/2000/svg" width="116.188" height="19.577" viewBox="0 0 116.188 19.577">
  <g id="Group_409" data-name="Group 409" transform="translate(0 0)">
    <g id="Group_408" data-name="Group 408">
      <g id="Group_407" data-name="Group 407">
        <g id="Group_406" data-name="Group 406">
          <g id="Group_405" data-name="Group 405">
            <path id="Path_323" data-name="Path 323" d="M-454.79,32.95v-3.8a6.027,6.027,0,0,0,5.6-8.211,5.743,5.743,0,0,0-3.388-3.388,6.027,6.027,0,0,0-8.211,5.6h0l-3.8.019a9.836,9.836,0,0,1,12.916-9.314,9.428,9.428,0,0,1,6.177,6.177A9.825,9.825,0,0,1-454.79,32.95Z" transform="translate(464.589 -13.373)" fill="#fff"/>
          </g>
          <path id="Path_324" data-name="Path 324" d="M-445.937,46.851h-3.776V43.075h3.776Z" transform="translate(455.735 -31.051)" fill="#fff"/>
          <path id="Path_325" data-name="Path 325" d="M-453.983,55.307h-2.9V52.4h2.9Z" transform="translate(460.006 -36.602)" fill="#fff"/>
          <path id="Path_326" data-name="Path 326" d="M-460.475,48.815h-2.44v-2.44h2.44Z" transform="translate(463.593 -33.015)" fill="#fff"/>
        </g>
      </g>
    </g>
  </g>
  <g id="Group_410" data-name="Group 410" transform="translate(27.169 4.298)">
    <path id="Path_327" data-name="Path 327" d="M-389.791,25.6a7.161,7.161,0,0,0-4.144-1.181h-3.544V35.671h3.544a6.784,6.784,0,0,0,4.144-1.239,4.163,4.163,0,0,0,1.433-1.8,6.614,6.614,0,0,0,.5-2.653,6.585,6.585,0,0,0-.5-2.633A4.107,4.107,0,0,0-389.791,25.6Zm-5.616.736h1.123a5.883,5.883,0,0,1,3.04.716,3.175,3.175,0,0,1,1.3,2.924,3.407,3.407,0,0,1-1.3,3.06h0a5.486,5.486,0,0,1-3.021.736h-1.142Z" transform="translate(397.479 -24.246)" fill="#fff"/>
    <path id="Path_328" data-name="Path 328" d="M-369.4,24.133a1.183,1.183,0,0,0-.872.349,1.188,1.188,0,0,0-.368.852,1.129,1.129,0,0,0,.368.871,1.2,1.2,0,0,0,.872.368,1.128,1.128,0,0,0,.871-.368,1.232,1.232,0,0,0,.368-.871,1.061,1.061,0,0,0-.368-.852A1.213,1.213,0,0,0-369.4,24.133Z" transform="translate(381.508 -24.075)" fill="#fff"/>
    <rect id="Rectangle_617" data-name="Rectangle 617" width="1.995" height="7.94" transform="translate(11.077 3.524)" fill="#fff"/>
    <path id="Path_329" data-name="Path 329" d="M-355.766,33.069a2.979,2.979,0,0,0-1.995-.852,3.665,3.665,0,0,0-2.73,1.123,3.934,3.934,0,0,0-1.065,2.847,4.028,4.028,0,0,0,1.065,2.846,3.663,3.663,0,0,0,2.73,1.123,3.1,3.1,0,0,0,1.975-.639v.174a2.124,2.124,0,0,1-.523,1.529,1.947,1.947,0,0,1-1.433.523,2.541,2.541,0,0,1-2.208-1.317l-1.355,1.3.039.058a4.859,4.859,0,0,0,1.336,1.2,4.009,4.009,0,0,0,2.227.581,3.824,3.824,0,0,0,2.846-1.084,3.9,3.9,0,0,0,1.065-2.886V32.411h-1.956v.659Zm-.523,4.686a1.743,1.743,0,0,1-1.375.581,1.675,1.675,0,0,1-1.355-.581,2.239,2.239,0,0,1-.523-1.549,2.291,2.291,0,0,1,.523-1.569,1.745,1.745,0,0,1,1.355-.6,1.7,1.7,0,0,1,1.375.6,2.291,2.291,0,0,1,.523,1.569A2.336,2.336,0,0,1-356.289,37.755Z" transform="translate(376.099 -28.886)" fill="#fff"/>
    <rect id="Rectangle_618" data-name="Rectangle 618" width="1.995" height="7.94" transform="translate(23.993 3.524)" fill="#fff"/>
    <path id="Path_330" data-name="Path 330" d="M-337.5,24.133a1.183,1.183,0,0,0-.872.349,1.188,1.188,0,0,0-.368.852,1.128,1.128,0,0,0,.368.871,1.2,1.2,0,0,0,.872.368,1.128,1.128,0,0,0,.871-.368,1.232,1.232,0,0,0,.368-.871,1.061,1.061,0,0,0-.368-.852A1.213,1.213,0,0,0-337.5,24.133Z" transform="translate(362.52 -24.075)" fill="#fff"/>
    <path id="Path_331" data-name="Path 331" d="M-327.031,27.386h-1.956v2.149h-1.143v1.821h1.143v3.292a3.143,3.143,0,0,0,.619,2.188,2.909,2.909,0,0,0,2.15.639c.329,0,.658-.019.968-.039h.1v-1.82l-.678.039a1.266,1.266,0,0,1-.949-.252,1.655,1.655,0,0,1-.232-1.046v-3h1.859V29.535h-1.859V27.386Z" transform="translate(357.395 -26.011)" fill="#fff"/>
    <rect id="Rectangle_619" data-name="Rectangle 619" width="1.995" height="11.251" transform="translate(41.576 0.193)" fill="#fff"/>
    <path id="Path_332" data-name="Path 332" d="M-249.055,37.5a4.719,4.719,0,0,1-1.007.93h0a1.878,1.878,0,0,1-1.026.271,1.836,1.836,0,0,1-1.452-.658,2.475,2.475,0,0,1-.581-1.685,2.473,2.473,0,0,1,.562-1.665,1.8,1.8,0,0,1,1.433-.659,2.673,2.673,0,0,1,1.9,1.085l1.317-1.259h0a3.916,3.916,0,0,0-3.273-1.646,3.876,3.876,0,0,0-2.827,1.181,4.043,4.043,0,0,0-1.162,2.963,4.076,4.076,0,0,0,1.162,2.963,3.8,3.8,0,0,0,2.827,1.181,3.915,3.915,0,0,0,3.389-1.762Z" transform="translate(312.785 -28.886)" fill="#fff"/>
    <path id="Path_333" data-name="Path 333" d="M-229.391,33.515a3.228,3.228,0,0,0-1.142-.949,3.737,3.737,0,0,0-1.646-.349,3.36,3.36,0,0,0-2.711,1.22,4.589,4.589,0,0,0-1.007,2.982,4.127,4.127,0,0,0,1.1,2.963,3.833,3.833,0,0,0,2.885,1.142,3.924,3.924,0,0,0,3.273-1.627l.038-.058-1.3-1.259h0a4.97,4.97,0,0,1-.445.465,2.216,2.216,0,0,1-.581.426,2.133,2.133,0,0,1-1.007.213,1.876,1.876,0,0,1-1.355-.484,1.72,1.72,0,0,1-.562-1.2h5.287l.019-.736a5.21,5.21,0,0,0-.213-1.472A4.162,4.162,0,0,0-229.391,33.515Zm-4.357,1.859a1.98,1.98,0,0,1,.523-.949,1.416,1.416,0,0,1,1.046-.407,1.433,1.433,0,0,1,1.1.407,1.574,1.574,0,0,1,.406.93h-3.079Z" transform="translate(301.312 -28.886)" fill="#fff"/>
    <path id="Path_334" data-name="Path 334" d="M-209.51,32.991h0a3.657,3.657,0,0,0-2.479-.774,4.213,4.213,0,0,0-1.84.426,3.3,3.3,0,0,0-1.355,1.278l.019.019,1.278,1.22a2.042,2.042,0,0,1,1.878-1.123,1.591,1.591,0,0,1,1.026.329,1.022,1.022,0,0,1,.387.852v.387a4.952,4.952,0,0,0-1.472-.232,3.845,3.845,0,0,0-2.4.7,2.384,2.384,0,0,0-.91,1.975,2.263,2.263,0,0,0,.774,1.8,2.948,2.948,0,0,0,1.917.659,3.342,3.342,0,0,0,2.111-.833v.658h1.956V35.238A2.646,2.646,0,0,0-209.51,32.991Zm-3.544,4.318a1.675,1.675,0,0,1,.949-.232,4.335,4.335,0,0,1,1.51.291v.774a2.4,2.4,0,0,1-1.723.6,1.179,1.179,0,0,1-.794-.232.727.727,0,0,1-.271-.581A.722.722,0,0,1-213.053,37.31Z" transform="translate(289.099 -28.886)" fill="#fff"/>
    <path id="Path_335" data-name="Path 335" d="M-188.756,33.147a2.977,2.977,0,0,0-2.324-.93,2.725,2.725,0,0,0-1.917.678v-.484h-1.956v7.94h1.995v-4.4a2.09,2.09,0,0,1,.426-1.414,1.409,1.409,0,0,1,1.181-.5,1.317,1.317,0,0,1,1.046.445,1.9,1.9,0,0,1,.387,1.24v4.589h1.995v-4.57A3.734,3.734,0,0,0-188.756,33.147Z" transform="translate(276.943 -28.886)" fill="#fff"/>
    <path id="Path_336" data-name="Path 336" d="M-309.577,32.991h0a3.657,3.657,0,0,0-2.479-.774,4.213,4.213,0,0,0-1.84.426,3.293,3.293,0,0,0-1.355,1.278l.019.019,1.278,1.22a2.042,2.042,0,0,1,1.878-1.123,1.59,1.59,0,0,1,1.026.329,1.021,1.021,0,0,1,.387.852v.387a4.954,4.954,0,0,0-1.472-.232,3.845,3.845,0,0,0-2.4.7,2.385,2.385,0,0,0-.91,1.975,2.263,2.263,0,0,0,.775,1.8,2.948,2.948,0,0,0,1.917.659,3.342,3.342,0,0,0,2.111-.833v.658h1.956V35.238A2.76,2.76,0,0,0-309.577,32.991Zm-3.544,4.318a1.677,1.677,0,0,1,.949-.232,4.335,4.335,0,0,1,1.51.291v.774a2.4,2.4,0,0,1-1.723.6,1.179,1.179,0,0,1-.794-.232.726.726,0,0,1-.271-.581A.681.681,0,0,1-313.121,37.31Z" transform="translate(348.656 -28.886)" fill="#fff"/>
    <path id="Path_337" data-name="Path 337" d="M-280.5,35.609a5.814,5.814,0,0,1-5.809-5.809A5.8,5.8,0,0,1-280.5,23.99,5.8,5.8,0,0,1-274.7,29.8,5.814,5.814,0,0,1-280.5,35.609Zm0-9.566a3.76,3.76,0,0,0-3.757,3.757,3.76,3.76,0,0,0,3.757,3.756,3.76,3.76,0,0,0,3.757-3.756A3.76,3.76,0,0,0-280.5,26.043Z" transform="translate(331.318 -23.99)" fill="#fff"/>
  </g>
</svg>
