<svg xmlns="http://www.w3.org/2000/svg" width="12.001" height="6.86" viewBox="0 0 12.001 6.86">
  <g id="down-arrow" transform="translate(-10.123 -15.265)">
    <path id="Path_175" data-name="Path 175" d="M10.375,17.124a.857.857,0,0,1,1.214,0l4.535,4.537,4.536-4.537a.858.858,0,0,1,1.214,1.214L16.731,23.48a.857.857,0,0,1-1.214,0l-5.142-5.142a.857.857,0,0,1,0-1.214Z" transform="translate(0 -1.607)" fill-rule="evenodd"/>
    <path id="Path_259" data-name="Path 259" d="M10.375,23.48a.857.857,0,0,0,1.214,0l4.535-4.537L20.66,23.48a.858.858,0,1,0,1.214-1.214l-5.142-5.142a.857.857,0,0,0-1.214,0l-5.142,5.142a.857.857,0,0,0,0,1.214Z" transform="translate(0 -1.607)" fill-rule="evenodd" opacity="0"/>
  </g>
</svg>
