<svg xmlns="http://www.w3.org/2000/svg" width="42" height="36.6" viewBox="0 0 42 36.6">
  <g id="employees-male-female" transform="translate(0 -32.913)">
    <path id="Path_193" data-name="Path 193" d="M232.289,272.061l-3.659-1.439H215.643l-3.659,1.439a3.542,3.542,0,0,0-2.242,3.438l.444,11.09a1.181,1.181,0,0,0,1.18,1.133h21.541a1.181,1.181,0,0,0,1.18-1.133l.444-11.09A3.542,3.542,0,0,0,232.289,272.061Z" transform="translate(-192.534 -218.209)" fill="#0c0"/>
    <path id="Path_194" data-name="Path 194" d="M341.91,320.77l-.755,12.987h3.234l-.755-12.987Z" transform="translate(-313.17 -264.244)" fill="#0c0"/>
    <path id="Path_195" data-name="Path 195" d="M348.161,301.542h-1.006a.678.678,0,0,1-.678-.678v-1.684h2.361v1.684A.678.678,0,0,1,348.161,301.542Z" transform="translate(-318.056 -244.426)" fill="#0c0"/>
    <path id="Path_197" data-name="Path 197" d="M281.6,32.937a7.636,7.636,0,0,0-4.624,1.771s-2.46,0-2.46,2.952a22.054,22.054,0,0,0,.59,4.7h13.577C289.861,35.87,287.057,32.642,281.6,32.937Z" transform="translate(-251.995 -0.005)" fill="#0c0"/>
    <circle id="Ellipse_2" data-name="Ellipse 2" cx="3.542" cy="3.542" r="3.542" transform="translate(7.083 32.913)" fill="#0c0"/>
    <ellipse id="Ellipse_3" data-name="Ellipse 3" cx="7.084" cy="6.789" rx="7.084" ry="6.789" transform="translate(3.541 35.864)" fill="#0c0"/>
    <g id="Group_280" data-name="Group 280" transform="translate(0 54.409)">
      <path id="Path_210" data-name="Path 210" d="M3.174,342.561l-2.157-2.588A3.533,3.533,0,0,0,0,342.594l.325,7.66a1.181,1.181,0,0,0,1.18,1.131H4.132v-6.178A4.132,4.132,0,0,0,3.174,342.561Z" transform="translate(0 -336.281)" fill="#0c0"/>
      <path id="Path_211" data-name="Path 211" d="M209.651,342.56l2.157-2.588a3.533,3.533,0,0,1,1.014,2.621l-.325,7.66a1.181,1.181,0,0,1-1.18,1.131h-2.625v-6.178A4.132,4.132,0,0,1,209.651,342.56Z" transform="translate(-191.574 -336.28)" fill="#0c0"/>
      <path id="Path_212" data-name="Path 212" d="M74.039,295.138a.59.59,0,0,0-.835,0l-2.854,2.854a.383.383,0,0,1-.542,0l-2.854-2.854a.59.59,0,0,0-.835,0l-1.354,1.354,2.184,3.545a.59.59,0,0,0,.886.139l1.309-1.117a.208.208,0,0,1,.343.158v10.851H70.67V299.218a.208.208,0,0,1,.343-.158l1.309,1.117a.59.59,0,0,0,.886-.139l2.184-3.545Z" transform="translate(-59.454 -294.965)" fill="#0c0"/>
      <path id="Path_213" data-name="Path 213" d="M65.445,401.7h2.186a.678.678,0,0,0,.678-.678v-.415a.678.678,0,0,0-.678-.678H65.445a.678.678,0,0,0-.678.678v.415A.678.678,0,0,0,65.445,401.7Z" transform="translate(-59.454 -391.319)" fill="#0c0"/>
    </g>
    <path id="Path_214" data-name="Path 214" d="M19.127,314.963l-3.185-1.39H5.311l-3.185,1.39A3.542,3.542,0,0,0,0,318.359l.325,7.66a1.181,1.181,0,0,0,1.18,1.131H19.745a1.181,1.181,0,0,0,1.18-1.131l.325-7.66A3.542,3.542,0,0,0,19.127,314.963Z" transform="translate(-0.001 -257.637)" fill="#0c0"/>
    <path id="Union_1" data-name="Union 1" d="M-1508.11-2109.982l-1.167-1.166v-2.609a5.912,5.912,0,0,1-2.849-4.046.574.574,0,0,0-.6-.48,1.179,1.179,0,0,1-.36-.028,1.241,1.241,0,0,1-.912-1.226v-.428a1.248,1.248,0,0,1,.962-1.245,1.167,1.167,0,0,1,.2-.021h.426a1.178,1.178,0,0,0,.8-.312,12.072,12.072,0,0,0,1.944-2.285.589.589,0,0,1,.762-.194,19.407,19.407,0,0,0,6.867,1.592,1.166,1.166,0,0,1,.763.344l.509.509a1.181,1.181,0,0,0,.835.346,3.244,3.244,0,0,1,.338.024,1.233,1.233,0,0,1,.943,1.132v.538a1.241,1.241,0,0,1-.912,1.226,1.172,1.172,0,0,1-.359.028.576.576,0,0,0-.6.48,5.908,5.908,0,0,1-2.849,4.045v2.609l-1.113,1.166Z" transform="translate(1516.952 2165.95)" fill="#fff" stroke="#0c0" stroke-width="1"/>
    <path id="Union_2" data-name="Union 2" d="M-1510.458-2108.687v-6.414a5.9,5.9,0,0,1-1.669-3.145.575.575,0,0,0-.6-.481,1.148,1.148,0,0,1-.36-.027,1.241,1.241,0,0,1-.912-1.226v-.428a1.25,1.25,0,0,1,.962-1.246,1.3,1.3,0,0,1,.2-.021h.426a1.182,1.182,0,0,0,.8-.315,12.426,12.426,0,0,0,1.651-1.856.58.58,0,0,1,.719-.186,12.331,12.331,0,0,0,7.411.644.594.594,0,0,1,.63.292l.778,1.42h.59a1.18,1.18,0,0,1,1.181,1.181v.59a1.181,1.181,0,0,1-1.181,1.181h-.122a.573.573,0,0,0-.571.476,5.9,5.9,0,0,1-1.668,3.145v6.414l-4.129.525Z" transform="translate(1535.928 2163.443)" fill="#fff" stroke="#0c0" stroke-width="1"/>
    <path id="Path_218" data-name="Path 218" d="M288.2,255.6l-4.307-3.769a.59.59,0,0,0-.806.027l-1.38,1.38,2.743,4.115a1.181,1.181,0,0,0,1.817.18Z" transform="translate(-258.602 -200.827)" fill="#0c0"/>
    <path id="Path_219" data-name="Path 219" d="M360.869,255.6l4.307-3.769a.59.59,0,0,1,.806.027l1.38,1.38-2.743,4.115a1.181,1.181,0,0,1-1.817.18Z" transform="translate(-331.267 -200.827)" fill="#0c0"/>
  </g>
</svg>
