<svg xmlns="http://www.w3.org/2000/svg" width="50.652" height="42" viewBox="0 0 50.652 42">
  <g id="employees" transform="translate(0 -43.729)">
    <g id="Group_303" data-name="Group 303" transform="translate(0 62.125)">
      <g id="Group_302" data-name="Group 302">
        <path id="Path_234" data-name="Path 234" d="M43.233,233.486H38.274a7.4,7.4,0,0,0-1.95.262,7.426,7.426,0,0,0-6.616-4.068H20.944a7.426,7.426,0,0,0-6.616,4.068,7.4,7.4,0,0,0-1.95-.262H7.42A7.428,7.428,0,0,0,0,240.906v7.926a4.457,4.457,0,0,0,4.452,4.452H46.2a4.457,4.457,0,0,0,4.452-4.452v-7.926A7.428,7.428,0,0,0,43.233,233.486ZM13.524,237.1v13.216H4.452a1.486,1.486,0,0,1-1.484-1.484v-7.926a4.457,4.457,0,0,1,4.452-4.452h4.958a4.438,4.438,0,0,1,1.164.156C13.532,236.772,13.524,236.935,13.524,237.1ZM34.16,250.316H16.492V237.1a4.457,4.457,0,0,1,4.452-4.452h8.764A4.457,4.457,0,0,1,34.16,237.1Zm13.524-1.484a1.486,1.486,0,0,1-1.484,1.484H37.128V237.1c0-.165-.007-.328-.018-.49a4.442,4.442,0,0,1,1.164-.156h4.958a4.457,4.457,0,0,1,4.452,4.452Z" transform="translate(0 -229.68)" fill="#0c0"/>
      </g>
    </g>
    <g id="Group_305" data-name="Group 305" transform="translate(3.306 51.918)">
      <g id="Group_304" data-name="Group 304">
        <path id="Path_235" data-name="Path 235" d="M40.007,126.5A6.593,6.593,0,1,0,46.6,133.1,6.6,6.6,0,0,0,40.007,126.5Zm0,10.219a3.625,3.625,0,1,1,3.625-3.625A3.629,3.629,0,0,1,40.007,136.723Z" transform="translate(-33.414 -126.504)" fill="#0c0"/>
      </g>
    </g>
    <g id="Group_307" data-name="Group 307" transform="translate(16.518 43.729)">
      <g id="Group_306" data-name="Group 306" transform="translate(0 0)">
        <path id="Path_236" data-name="Path 236" d="M175.771,43.729a8.809,8.809,0,1,0,8.809,8.809A8.819,8.819,0,0,0,175.771,43.729Zm0,14.649a5.841,5.841,0,1,1,5.841-5.841A5.847,5.847,0,0,1,175.771,58.378Z" transform="translate(-166.962 -43.729)" fill="#0c0"/>
      </g>
    </g>
    <g id="Group_309" data-name="Group 309" transform="translate(34.16 51.918)">
      <g id="Group_308" data-name="Group 308">
        <path id="Path_237" data-name="Path 237" d="M351.887,126.5a6.593,6.593,0,1,0,6.593,6.593A6.6,6.6,0,0,0,351.887,126.5Zm0,10.219a3.625,3.625,0,1,1,3.625-3.625A3.63,3.63,0,0,1,351.887,136.723Z" transform="translate(-345.294 -126.504)" fill="#0c0"/>
      </g>
    </g>
  </g>
</svg>
