<svg xmlns="http://www.w3.org/2000/svg" width="39.982" height="42" viewBox="0 0 39.982 42">
  <g id="equality-gender" transform="translate(-12.3 0)">
    <path id="Path_183" data-name="Path 183" d="M34.991,90.707a11.346,11.346,0,1,0-13.506,11.139v3.338H19.747a2.16,2.16,0,0,0,0,4.32h1.738v3.186a2.16,2.16,0,1,0,4.32,0V109.5h1.738a2.16,2.16,0,1,0,0-4.32H25.8v-3.338A11.349,11.349,0,0,0,34.991,90.707ZM23.646,98.062A7.356,7.356,0,1,1,31,90.707,7.355,7.355,0,0,1,23.646,98.062Z" transform="translate(0 -72.85)" fill="#0c0"/>
    <g id="Group_277" data-name="Group 277" transform="translate(18.626 6.51)">
      <path id="Path_184" data-name="Path 184" d="M150.721,446.839h1.385v3.185a2.16,2.16,0,0,1-2.16,2.16h-.059a2.023,2.023,0,0,0,.623-.756,2.458,2.458,0,0,0,.058-.853v-3.331C150.568,447.02,150.5,446.839,150.721,446.839Z" transform="translate(-144.926 -416.694)" fill="#0c0"/>
      <path id="Path_185" data-name="Path 185" d="M163.646,359.035a2.189,2.189,0,0,1-2.2,2.1h-.766a1.458,1.458,0,0,0,1.394-1.613,1.275,1.275,0,0,0-.714-1.121,3.048,3.048,0,0,0-1.37-.288h-1.369a.4.4,0,0,1-.4-.4V354.48a.755.755,0,0,1,.575-.732c.314-.078.658-.169.961-.273v3.338h1.738A2.161,2.161,0,0,1,163.646,359.035Z" transform="translate(-152.57 -330.989)" fill="#0c0"/>
      <path id="Path_186" data-name="Path 186" d="M105.784,90.706a11.348,11.348,0,0,1-7.647,10.728c2.614-1.733,5.423-4.266,5.74-9.41.385-6.255-3.008-10.091-9.217-11.228a26.591,26.591,0,0,0-5.242-.269,11.352,11.352,0,0,1,16.366,10.179Z" transform="translate(-89.418 -79.36)" fill="#0c0"/>
    </g>
    <path id="Path_187" data-name="Path 187" d="M153.677,20.943h-.006a2.21,2.21,0,0,0-2.211,2.21l-4.687-4.687a.607.607,0,0,1-.084-.75,11.625,11.625,0,1,0-3.8,3.8.607.607,0,0,1,.75.084l4.687,4.687a2.209,2.209,0,0,0-2.21,2.211V28.5a2.211,2.211,0,0,0,2.21,2.211h6.212a1.347,1.347,0,0,0,1.347-1.347V23.153A2.211,2.211,0,0,0,153.677,20.943ZM136.79,19.3a7.686,7.686,0,1,1,7.687-7.686A7.686,7.686,0,0,1,136.79,19.3Z" transform="translate(-103.606 0)" fill="#0c0"/>
    <path id="Path_188" data-name="Path 188" d="M151.324,3.179a11.629,11.629,0,0,0-19.043,4.789,10.014,10.014,0,0,1,2.3-3.026,11.657,11.657,0,0,1,16.162-.154,11.116,11.116,0,0,1,3.11,11.75,11.628,11.628,0,0,0-2.532-13.359Z" transform="translate(-110.139 0)" fill="#0c0"/>
    <path id="Path_189" data-name="Path 189" d="M379.528,222.762a.572.572,0,0,0,.072.715l.935.946,1.87,1.892,1.364,1.381c.747.755,1.609,1.009,2.27.089a6.223,6.223,0,0,1,.51-.78c.536-.55,1.442.015,1.449.711v6.773a1.346,1.346,0,0,0,1.3-1.346v-6.211a2.211,2.211,0,0,0-2.211-2.211h-.006a2.21,2.21,0,0,0-2.211,2.21l-4.687-4.687a.6.6,0,0,1-.152-.256Z" transform="translate(-337.019 -203.779)" fill="#0c0"/>
  </g>
</svg>
