<svg xmlns="http://www.w3.org/2000/svg" width="18.667" height="21" viewBox="0 0 18.667 21">
  <g id="family-parental-leave" transform="translate(-28.433)">
    <path id="Path_252" data-name="Path 252" d="M37.767,126.052a4.951,4.951,0,0,0-4.359-2.841,5.086,5.086,0,0,0-4.975,5.347c0,3.554,3.538,6.224,6.663,8.847.49.412,1,.837,1.524,1.285a1.982,1.982,0,0,0,2.564-.008c5.434-4.7,7.917-6.824,7.917-10.124a5.086,5.086,0,0,0-4.974-5.347,4.951,4.951,0,0,0-4.359,2.841Zm0,1.99a1.231,1.231,0,1,1-1.231,1.231A1.232,1.232,0,0,1,37.767,128.043Zm.612,9.709a.743.743,0,0,1-.961,0c-.529-.45-2.068-1.741-2.326-1.959a1.822,1.822,0,0,0,.409-.307,1.846,1.846,0,0,0,.366-2.08,4.315,4.315,0,0,1,3.871.036,1.839,1.839,0,0,0,.8,2.431C39.884,136.448,39.166,137.07,38.378,137.752Zm3.748-13.31a3.857,3.857,0,0,1,3.744,4.117c0,2.017-1.217,3.586-4.028,6.151a.7.7,0,0,1-.879-.034.623.623,0,0,1,.029-.9c2.472-2.246,3.648-3.6,3.648-5.242H43.408c0,.987-.7,1.979-2.84,3.96a5.539,5.539,0,0,0-5.538-.038c-1.8-1.6-2.906-2.833-2.906-3.923H30.894c0,1.636,1.356,3.137,3.7,5.176a.621.621,0,0,1,.038.905.708.708,0,0,1-.887.024c-2.519-2.2-4.08-3.953-4.08-6.082a3.857,3.857,0,0,1,3.744-4.117,3.94,3.94,0,0,1,3.458,2.542,2.461,2.461,0,1,0,1.8,0A3.94,3.94,0,0,1,42.126,124.442Z" transform="translate(0 -118.157)" fill="#0c0"/>
    <path id="Path_253" data-name="Path 253" d="M63.427,0A2.419,2.419,0,0,0,61.68.748,2.508,2.508,0,0,0,60.966,2.5a2.461,2.461,0,0,0,4.923,0A2.508,2.508,0,0,0,65.174.748,2.419,2.419,0,0,0,63.427,0Zm0,3.733A1.232,1.232,0,0,1,62.2,2.5a1.231,1.231,0,1,1,2.461,0A1.232,1.232,0,0,1,63.427,3.733Z" transform="translate(-31.198)" fill="#0c0"/>
    <path id="Path_254" data-name="Path 254" d="M335.889,2.5a2.508,2.508,0,0,0-.714-1.754,2.414,2.414,0,0,0-3.494,0,2.508,2.508,0,0,0-.714,1.754,2.461,2.461,0,0,0,4.923,0Zm-3.692,0a1.231,1.231,0,1,1,2.461,0,1.231,1.231,0,0,1-2.461,0Z" transform="translate(-290.123)" fill="#0c0"/>
  </g>
</svg>
