<svg xmlns="http://www.w3.org/2000/svg" xmlns:xlink="http://www.w3.org/1999/xlink" width="120" height="36" viewBox="0 0 120 36">
  <defs>
    <clipPath id="clip-path">
      <rect id="Rectangle_5" data-name="Rectangle 5" width="120" height="36" transform="translate(0.5)" fill="#fff"/>
    </clipPath>
  </defs>
  <g id="FedEx_Logo" data-name="FedEx Logo" transform="translate(-0.5)" clip-path="url(#clip-path)">
    <path id="Path_11" data-name="Path 11" d="M59.991,30.671,70,19.588,59.991,8.5H70.55l4.957,5.385L80.279,8.5H90.47l-9.96,11.04,10.1,11.13H80l-4.912-5.429-4.865,5.429Z" transform="translate(29.745 4.251)" fill="#f60"/>
    <path id="Path_12" data-name="Path 12" d="M66.546,7.784H55.211v4.97H66.546v7.49H55.211v6.874H66.546v7.805H46.881V0H66.546Z" transform="translate(23.19)" fill="#f60"/>
    <path id="Path_13" data-name="Path 13" d="M61.776,0V14.292h-.091a8.463,8.463,0,0,0-6.794-2.8,11.432,11.432,0,0,0-11,8.486C42.243,14.65,38,11.388,31.712,11.388c-5.107,0-9.14,2.26-11.245,5.942V12.754H9.911V7.785H21.431V0H.5V34.923H9.911V20.243h9.38a13.723,13.723,0,0,0-.429,3.451c0,7.285,5.646,12.4,12.851,12.4,6.059,0,10.052-2.8,12.164-7.916H35.812c-1.091,1.536-1.918,1.992-4.1,1.992A4.81,4.81,0,0,1,27,25.413H43.425c.712,5.786,5.285,10.776,11.56,10.776a8.07,8.07,0,0,0,6.7-3.528h.091v2.261h8.3V0ZM27.265,20.347a4.524,4.524,0,0,1,4.447-3.668A4.3,4.3,0,0,1,36.2,20.347Zm29.477,9.258c-3.058,0-4.958-2.808-4.958-5.741,0-3.135,1.653-6.149,4.958-6.149,3.427,0,4.793,3.014,4.793,6.149C61.534,26.837,60.087,29.605,56.742,29.605Z" fill="#652c8f"/>
  </g>
</svg>
