<svg xmlns="http://www.w3.org/2000/svg" width="34.521" height="42" viewBox="0 0 34.521 42">
  <g id="female-leaders" transform="translate(-1139.557 -2157)">
    <path id="team" d="M41.112,11.611,42.473,15.2a.278.278,0,0,0,.251.183l3.831.187a.284.284,0,0,1,.164.5l-2.989,2.4a.278.278,0,0,0-.1.3l1.006,3.7a.284.284,0,0,1-.429.312L41,20.68a.278.278,0,0,0-.311,0l-3.209,2.1a.284.284,0,0,1-.429-.312l1.006-3.7a.278.278,0,0,0-.1-.3l-2.989-2.4a.284.284,0,0,1,.164-.5l3.831-.187a.278.278,0,0,0,.251-.183l1.361-3.585a.284.284,0,0,1,.53,0Zm-7.419-1.206,2.4,2.157a.674.674,0,0,0,.9-1L34.6,9.4a.674.674,0,0,0-.9,1Zm13.4-1-2.41,2.17a.674.674,0,1,0,.9,1L48,10.405a.674.674,0,0,0-.9-1Zm-5.576-.561a.675.675,0,0,1-1.351,0V6.362a.675.675,0,1,1,1.351,0Z" transform="translate(1115.972 2151.313)" fill="#0c0" fill-rule="evenodd"/>
    <g id="torsos-all-female" transform="translate(1139.557 2175.115)">
      <path id="Path_190" data-name="Path 190" d="M27.874,21.43,22.774,19,20.689,18l.109-.075h2.838a.8.8,0,0,0,.8-.8V15.037h-.007a11.072,11.072,0,0,0-2.4-6.846,5.045,5.045,0,0,0-3.975-2.058,5.118,5.118,0,0,0-4.212,2.388,11.307,11.307,0,0,0-2.13,6.516H11.7V17.13a.8.8,0,0,0,.8.8h2.846c.056.038.113.075.17.112l-2.012.937L8.237,21.427a1.4,1.4,0,0,0-.748,1.158,1.619,1.619,0,0,0-.017.226v5.8a1.319,1.319,0,0,0,1.21,1.407h18.77a1.319,1.319,0,0,0,1.21-1.407v-5.8a1.572,1.572,0,0,0-.211-.8,1.29,1.29,0,0,0-.577-.588Z" transform="translate(-0.807 -6.133)" fill="#0c0"/>
      <path id="Path_191" data-name="Path 191" d="M9.287,18.974v-2.2H9.3a16.562,16.562,0,0,1,2.092-7.78,3.816,3.816,0,0,0-2-.588c-2.415,0-4.37,2.276-4.37,5.084A5.23,5.23,0,0,0,7.387,18L1.463,20.76A1.151,1.151,0,0,0,.85,21.816V26.49a1.065,1.065,0,0,0,.976,1.134H5.741V22.719a3.212,3.212,0,0,1,1.79-2.928l1.755-.816Z" transform="translate(-0.85 -6.118)" fill="#0c0"/>
      <path id="Path_192" data-name="Path 192" d="M34.6,20.828,28.682,18.07a5.231,5.231,0,0,0,2.364-4.514c0-2.809-1.955-5.084-4.37-5.084a3.816,3.816,0,0,0-2,.588,16.55,16.55,0,0,1,2.092,7.78h.01v2.2l1.755.817a3.21,3.21,0,0,1,1.79,2.928v4.905h3.915a1.064,1.064,0,0,0,.976-1.134V21.884a1.151,1.151,0,0,0-.613-1.056Z" transform="translate(-0.697 -6.118)" fill="#0c0"/>
    </g>
  </g>
</svg>
