<svg id="free-training" xmlns="http://www.w3.org/2000/svg" width="21" height="21" viewBox="0 0 21 21">
  <path id="Path_247" data-name="Path 247" d="M19.5,8.192a3.76,3.76,0,0,1-.948-1.026,3.9,3.9,0,0,1-.07-1.465,3.28,3.28,0,0,0-.555-2.625A3.281,3.281,0,0,0,15.3,2.522a3.9,3.9,0,0,1-1.465-.071A3.76,3.76,0,0,1,12.808,1.5,3.325,3.325,0,0,0,10.5,0,3.326,3.326,0,0,0,8.192,1.5a3.76,3.76,0,0,1-1.026.948,3.888,3.888,0,0,1-1.465.07,3.281,3.281,0,0,0-2.625.555A3.279,3.279,0,0,0,2.521,5.7,3.885,3.885,0,0,1,2.45,7.166,3.76,3.76,0,0,1,1.5,8.192,3.326,3.326,0,0,0,0,10.5a3.326,3.326,0,0,0,1.5,2.308,3.76,3.76,0,0,1,.948,1.026,3.9,3.9,0,0,1,.07,1.465,3.281,3.281,0,0,0,.555,2.625,3.275,3.275,0,0,0,2.625.555,3.885,3.885,0,0,1,1.465.071,3.76,3.76,0,0,1,1.026.948A3.326,3.326,0,0,0,10.5,21a3.326,3.326,0,0,0,2.308-1.5,3.76,3.76,0,0,1,1.026-.948,3.882,3.882,0,0,1,1.465-.07,3.277,3.277,0,0,0,2.625-.555,3.282,3.282,0,0,0,.555-2.625,3.885,3.885,0,0,1,.071-1.465,3.76,3.76,0,0,1,.948-1.026A3.325,3.325,0,0,0,21,10.5,3.326,3.326,0,0,0,19.5,8.192Zm-.864,3.628a4.492,4.492,0,0,0-1.3,1.509,4.677,4.677,0,0,0-.168,2.049c.039.637.084,1.36-.173,1.616s-.98.211-1.617.173a4.685,4.685,0,0,0-2.048.167,4.492,4.492,0,0,0-1.509,1.3c-.455.52-.924,1.055-1.322,1.055s-.866-.535-1.32-1.054a4.492,4.492,0,0,0-1.509-1.3,3.222,3.222,0,0,0-1.239-.2c-.269,0-.542.017-.812.033C4.98,17.208,4.258,17.253,4,17s-.213-.979-.173-1.617a4.674,4.674,0,0,0-.167-2.048,4.492,4.492,0,0,0-1.3-1.509c-.517-.455-1.053-.924-1.053-1.322s.536-.866,1.054-1.32a4.492,4.492,0,0,0,1.3-1.509,4.677,4.677,0,0,0,.168-2.049C3.792,4.983,3.747,4.26,4,4s.979-.211,1.617-.173a4.645,4.645,0,0,0,2.048-.167,4.492,4.492,0,0,0,1.509-1.3c.456-.518.925-1.053,1.322-1.053s.866.536,1.32,1.054a4.492,4.492,0,0,0,1.509,1.3,4.676,4.676,0,0,0,2.049.168c.638-.04,1.36-.085,1.616.173s.213.979.173,1.617a4.674,4.674,0,0,0,.167,2.048,4.492,4.492,0,0,0,1.3,1.509c.52.455,1.055.924,1.055,1.322s-.535.866-1.054,1.32Z" fill="#0c0"/>
  <path id="Path_248" data-name="Path 248" d="M7.974,17.085l-.595.278-.28-.6.6-.277a.656.656,0,1,0-.555-1.19l-1.19.555a.656.656,0,0,0-.317.872l.833,1.786L7.3,20.3a.668.668,0,0,0,.791.347.656.656,0,0,0,.4-.9l-.555-1.19.6-.278a.656.656,0,1,0-.555-1.189Z" transform="translate(-1.915 -5.238)" fill="#0c0"/>
  <path id="Path_249" data-name="Path 249" d="M14.552,16.539l-1.178-.713a1.635,1.635,0,0,0-2-2.469l-.893.415a.656.656,0,0,0-.318.873l1.664,3.568a.669.669,0,0,0,.807.343.661.661,0,0,0,.383-.9l-.332-.716,1.181.722a.652.652,0,0,0,.34.1.662.662,0,0,0,.342-1.22Zm-2.369-2.007a.328.328,0,0,1,.027.6l-.3.139-.277-.595.3-.139A.323.323,0,0,1,12.183,14.532Z" transform="translate(-3.474 -4.538)" fill="#0c0"/>
  <path id="Path_250" data-name="Path 250" d="M18.777,14.223l-.6.278-.278-.6.6-.277a.658.658,0,1,0-.556-1.192l-.595.278-.277-.6.595-.277a.656.656,0,0,0-.555-1.189l-1.19.554a.656.656,0,0,0-.317.872l1.665,3.573a.656.656,0,0,0,.872.317l1.19-.555a.657.657,0,0,0-.555-1.192Z" transform="translate(-5.343 -3.643)" fill="#0c0"/>
  <path id="Path_251" data-name="Path 251" d="M23.307,12.107l-.595.278-.278-.6.6-.277a.656.656,0,0,0-.555-1.19l-.595.278-.278-.6.6-.277a.656.656,0,0,0-.555-1.19l-1.19.555a.656.656,0,0,0-.317.872l.833,1.788.831,1.782a.656.656,0,0,0,.872.317l1.19-.555a.656.656,0,1,0-.555-1.189Z" transform="translate(-6.9 -2.914)" fill="#0c0"/>
</svg>
