<svg xmlns="http://www.w3.org/2000/svg" xmlns:xlink="http://www.w3.org/1999/xlink" width="108" height="36" viewBox="0 0 108 36">
  <defs>
    <clipPath id="clip-path">
      <rect id="Rectangle_6" data-name="Rectangle 6" width="108" height="36" transform="translate(0.5)" fill="#fff"/>
    </clipPath>
  </defs>
  <g id="Google_Logo" data-name="Google Logo" transform="translate(-0.5)" clip-path="url(#clip-path)">
    <path id="Path_14" data-name="Path 14" d="M40.173,16.288a8.637,8.637,0,0,1-8.835,8.679,8.68,8.68,0,1,1,0-17.358A8.615,8.615,0,0,1,40.173,16.288Zm-3.867,0a4.975,4.975,0,1,0-9.934,0,4.975,4.975,0,1,0,9.934,0Z" transform="translate(6.287 2.174)" fill="#ea4335"/>
    <path id="Path_15" data-name="Path 15" d="M55,16.288a8.836,8.836,0,1,1-8.835-8.679A8.637,8.637,0,0,1,55,16.288Zm-3.867,0a4.975,4.975,0,1,0-9.934,0,4.975,4.975,0,1,0,9.934,0Z" transform="translate(10.522 2.174)" fill="#fbbc05"/>
    <path id="Path_16" data-name="Path 16" d="M69.027,8.133V23.715c0,6.41-3.836,9.027-8.37,9.027a8.383,8.383,0,0,1-7.806-5.114l3.367-1.381a4.859,4.859,0,0,0,4.435,3.08c2.9,0,4.7-1.765,4.7-5.087V22.991H65.22a6.035,6.035,0,0,1-4.638,1.972,8.681,8.681,0,0,1,0-17.354A6.144,6.144,0,0,1,65.22,9.55h.135V8.137h3.673Zm-3.4,8.186c0-3.056-2.069-5.29-4.7-5.29a5.05,5.05,0,0,0-4.9,5.29,5.013,5.013,0,0,0,4.9,5.228C63.56,21.547,65.629,19.344,65.629,16.319Z" transform="translate(14.756 2.174)" fill="#4285f4"/>
    <path id="Path_17" data-name="Path 17" d="M70.823.913V26.348H67.051V.913Z" transform="translate(19.015 0.261)" fill="#34a853"/>
    <path id="Path_18" data-name="Path 18" d="M84.324,19.145l3,1.972a8.793,8.793,0,0,1-7.338,3.847,8.554,8.554,0,0,1-8.739-8.679,8.3,8.3,0,0,1,8.306-8.679c4.57,0,6.806,3.584,7.536,5.521l.4.986L75.719,18.918a4.488,4.488,0,0,0,4.268,2.63A5.042,5.042,0,0,0,84.324,19.145Zm-9.24-3.123,7.87-3.22a3.417,3.417,0,0,0-3.268-1.839A4.791,4.791,0,0,0,75.084,16.023Z" transform="translate(20.214 2.173)" fill="#ea4335"/>
    <path id="Path_19" data-name="Path 19" d="M14.481,16.163V12.481H27.071a12.021,12.021,0,0,1,.187,2.223,12.057,12.057,0,0,1-3.236,8.613,12.6,12.6,0,0,1-9.537,3.78A13.77,13.77,0,0,1,.611,13.62,13.771,13.771,0,0,1,14.485.143a13.128,13.128,0,0,1,9.371,3.713l-2.636,2.6a9.6,9.6,0,0,0-6.738-2.63,9.794,9.794,0,1,0,0,19.589,9.215,9.215,0,0,0,6.9-2.7,7.582,7.582,0,0,0,2.025-4.559Z" transform="translate(0.032 0.041)" fill="#4285f4"/>
  </g>
</svg>
