<svg xmlns="http://www.w3.org/2000/svg" width="198" height="32" viewBox="0 0 198 32">
  <g id="Hamerle" transform="translate(-809 -1251)">
    <path id="Path_348" data-name="Path 348" d="M66.613,7.487a1.3,1.3,0,0,1,.425-1,1.523,1.523,0,0,1,1.072-.391,1.54,1.54,0,0,1,1.037.323,1.109,1.109,0,0,1,.374.885,1.471,1.471,0,0,1-.417,1.114,1.564,1.564,0,0,1-1.131.4,1.377,1.377,0,0,1-.962-.365,1.243,1.243,0,0,1-.4-.962" transform="translate(785.903 1248.886)" fill="#525255"/>
    <path id="Path_349" data-name="Path 349" d="M76.788,30.38l-6.6-17.994H63.343v1.131L66,13.649,60.423,27.8a10.95,10.95,0,0,1-.579,1.223,3.081,3.081,0,0,1-.7.854,2.915,2.915,0,0,1-.96.527,4.806,4.806,0,0,1-1.342.21v1.052h8.235V30.564q-.473,0-1.026-.013A4.5,4.5,0,0,1,63,30.407a1.925,1.925,0,0,1-.829-.434,1.173,1.173,0,0,1-.329-.908,2.665,2.665,0,0,1,.039-.46,2.884,2.884,0,0,1,.2-.592L63.4,24.645H70.1l2.079,5.761-2.552.157v1.105h9.63V30.538ZM63.974,23.171,66.9,15.754a1.26,1.26,0,0,0,.052.394l2.631,7.023Z" transform="translate(789.29 1246.704)" fill="#525255"/>
    <path id="Path_350" data-name="Path 350" d="M73.488,7.487a1.3,1.3,0,0,1,.425-1,1.477,1.477,0,0,1,1.038-.391,1.6,1.6,0,0,1,1.063.323A1.1,1.1,0,0,1,76.4,7.3a1.468,1.468,0,0,1-.417,1.114,1.54,1.54,0,0,1-1.114.4,1.388,1.388,0,0,1-.986-.365,1.257,1.257,0,0,1-.391-.962" transform="translate(783.519 1248.886)" fill="#525255"/>
    <path id="Path_351" data-name="Path 351" d="M93.456,30.589a7.5,7.5,0,0,0,1.552-.17,1.885,1.885,0,0,0,.895-.461,1.531,1.531,0,0,0,.408-.841A7.9,7.9,0,0,0,96.4,27.8V13.649l-2.868-.132V12.385h6.683l6.946,14.179.21.5,5.894-14.679h7v1.157l-2.921.132v16.7l2.842.185v1.1H110.164v-1.1l2.868-.157V17.647l-5.894,14.179h-1.921L98.06,17.436V27.749a6.6,6.6,0,0,0,.119,1.381,1.506,1.506,0,0,0,.487.854,2.246,2.246,0,0,0,1.052.448,10.138,10.138,0,0,0,1.842.132v1.1h-8.1Z" transform="translate(776.595 1246.704)" fill="#525255"/>
    <path id="Path_352" data-name="Path 352" d="M139.371,30.589a7.5,7.5,0,0,0,1.552-.17,1.885,1.885,0,0,0,.895-.461,1.531,1.531,0,0,0,.408-.841,7.9,7.9,0,0,0,.092-1.315V13.649l-2.868-.132V12.385h6.683l6.945,14.179.211.5,5.893-14.679h7v1.157l-2.921.132v16.7l2.842.185v1.1H156.079v-1.1l2.867-.157V17.647l-5.893,14.179h-1.921l-7.157-14.39V27.749a6.6,6.6,0,0,0,.119,1.381,1.506,1.506,0,0,0,.487.854,2.243,2.243,0,0,0,1.052.448,10.138,10.138,0,0,0,1.842.132v1.1h-8.1Z" transform="translate(760.675 1246.704)" fill="#525255"/>
    <path id="Path_353" data-name="Path 353" d="M185.476,30.564l2.841-.132V13.649l-2.868-.132V12.386h16.076q-.106.975-.132,1.737c-.018.508-.027,1.018-.027,1.526v.592a3.578,3.578,0,0,0,.027.46c.018.14.031.294.04.46s.031.364.065.592h-1.263q-.078-.448-.145-.711a3.5,3.5,0,0,0-.144-.46c-.052-.132-.11-.258-.171-.381s-.146-.281-.251-.474a3.474,3.474,0,0,0-1.566-1.487,7.064,7.064,0,0,0-3.039-.513h-2.262v6.813h1.474a6.311,6.311,0,0,0,1.211-.105,2.453,2.453,0,0,0,.907-.368,2.326,2.326,0,0,0,.657-.711,4.8,4.8,0,0,0,.487-1.157h1c-.036.315-.067.6-.093.854s-.044.5-.053.736-.018.478-.027.724-.013.519-.013.815q0,.922.04,1.566c.027.429.083.952.171,1.565h-1.052a6.17,6.17,0,0,0-.434-1.236,2.341,2.341,0,0,0-.631-.8,2.252,2.252,0,0,0-.947-.422,6.914,6.914,0,0,0-1.382-.119h-1.315v8.366h1.974a12.421,12.421,0,0,0,2.565-.223,3.922,3.922,0,0,0,1.683-.749,3.219,3.219,0,0,0,.973-1.409,8.942,8.942,0,0,0,.461-2.223h1.316q-.157,1.578-.157,3.132c0,.472.008.925.026,1.354s.054.942.1,1.539H185.476Z" transform="translate(744.698 1246.704)" fill="#525255"/>
    <path id="Path_354" data-name="Path 354" d="M215.119,30.563l2.841-.132V13.648l-2.868-.132V12.385h10.761c.578,0,1.088.009,1.526.027a8.742,8.742,0,0,1,1.171.118,5.383,5.383,0,0,1,.934.25,4.778,4.778,0,0,1,.843.42,3.594,3.594,0,0,1,1.421,1.475,5.026,5.026,0,0,1,.5,2.367,4.109,4.109,0,0,1-.409,1.869A5.1,5.1,0,0,1,230.8,20.33a5.977,5.977,0,0,1-1.394,1,10.472,10.472,0,0,1-1.474.632,9.108,9.108,0,0,1,1.842.63,2.336,2.336,0,0,1,.947.9,5,5,0,0,1,.369.736q.157.394.288.763l1.394,3.84a4.687,4.687,0,0,0,.554,1.079,1.875,1.875,0,0,0,1.052.605,2.818,2.818,0,0,0,.342.078c.105.018.224.035.355.054s.293.035.486.051.439.036.736.054V31.9l-2.656-.132q-1.08-.053-1.881-.157a5.772,5.772,0,0,1-1.395-.343,2.8,2.8,0,0,1-1-.656,3.249,3.249,0,0,1-.67-1.106L226.774,24.7q-.263-.63-.461-1.052a1.9,1.9,0,0,0-.474-.656,1.549,1.549,0,0,0-.723-.329,6.164,6.164,0,0,0-1.21-.093H222.3v7.865l3.157.132v1.105H215.119Zm8.551-9.338a5.689,5.689,0,0,0,1.67-.237,3.806,3.806,0,0,0,1.355-.724,3.246,3.246,0,0,0,.895-1.21,4.136,4.136,0,0,0,.316-1.669,4.266,4.266,0,0,0-.751-2.724,2.649,2.649,0,0,0-2.2-.933H222.3v7.5Z" transform="translate(734.419 1246.704)" fill="#525255"/>
    <path id="Path_355" data-name="Path 355" d="M249.513,30.564l2.842-.132V13.649l-2.869-.132V12.386h10.1v1.157l-2.893.132V30.248h3.157q.684,0,1.171-.027a6.912,6.912,0,0,0,.856-.091,4.8,4.8,0,0,0,.684-.171,5.374,5.374,0,0,0,.683-.289A3.138,3.138,0,0,0,264.6,28.42a6.538,6.538,0,0,0,.67-2.276h1.343c-.036.264-.063.5-.08.7s-.031.4-.038.579-.014.378-.014.579v.724c0,.491.009.956.025,1.394s.054.956.107,1.552h-17.1Z" transform="translate(722.493 1246.704)" fill="#525255"/>
    <path id="Path_356" data-name="Path 356" d="M278.351,30.564l2.841-.132V13.649l-2.868-.132V12.386H294.4c-.069.65-.114,1.229-.131,1.737s-.027,1.018-.027,1.526v.592a3.7,3.7,0,0,0,.027.46c.017.14.031.294.039.46s.03.364.066.592h-1.263q-.078-.448-.144-.711a3.409,3.409,0,0,0-.145-.46c-.052-.132-.109-.258-.171-.381s-.144-.281-.249-.474a3.487,3.487,0,0,0-1.566-1.487,7.071,7.071,0,0,0-3.039-.513h-2.264v6.813h1.474a6.3,6.3,0,0,0,1.211-.105,2.436,2.436,0,0,0,.907-.368,2.337,2.337,0,0,0,.658-.711,4.821,4.821,0,0,0,.487-1.157h1c-.036.315-.066.6-.093.854s-.044.5-.053.736-.018.478-.025.724-.013.519-.013.815q0,.922.039,1.566t.171,1.565h-1.052a6.137,6.137,0,0,0-.433-1.236,2.345,2.345,0,0,0-.632-.8,2.238,2.238,0,0,0-.947-.422,6.906,6.906,0,0,0-1.382-.119h-1.316v8.366h1.974a12.416,12.416,0,0,0,2.565-.223,3.921,3.921,0,0,0,1.684-.749,3.236,3.236,0,0,0,.973-1.409,8.972,8.972,0,0,0,.46-2.223h1.316a31.292,31.292,0,0,0-.159,3.132c0,.472.009.925.027,1.354s.053.942.105,1.539H278.351Z" transform="translate(712.494 1246.704)" fill="#525255"/>
    <rect id="Rectangle_622" data-name="Rectangle 622" width="22.754" height="2.21" transform="translate(818.755 1265.896)" fill="#c41415"/>
    <path id="Path_357" data-name="Path 357" d="M0,0V1.715l4.152.114V30.21L.038,30.4V32H14.555V30.286l-4.114-.153V1.867l4.191-.19V0Z" transform="translate(809 1251)" fill="#c41415"/>
    <path id="Path_358" data-name="Path 358" d="M38,23.513V38.442l-4.039.076v1.637h14.4V38.481l-4.075-.154V23.513Z" transform="translate(797.226 1242.844)" fill="#c41415"/>
    <path id="Path_359" data-name="Path 359" d="M33.9,0V1.714l4.077.152V11.884h6.286V1.829l4.077-.152V0Z" transform="translate(797.246 1251)" fill="#c41415"/>
  </g>
</svg>
