<svg xmlns="http://www.w3.org/2000/svg" width="116" height="20" viewBox="0 0 116 20">
  <g id="Handlerbund_Partner" data-name="Handlerbund Partner" transform="translate(-3.24 -4.486)">
    <path id="Path_34" data-name="Path 34" d="M30.674,17.752V13.694H26.461v4.058H25.5V8.885h.959v3.99h4.213V8.885h.959v8.867Z" transform="translate(1.207 0.42)"/>
    <path id="Path_35" data-name="Path 35" d="M39.579,17.753,38.86,15.74h-3.87l-.719,2.012h-.993l3.288-8.867h.788l3.254,8.867ZM35.161,7.93V6.839h.89V7.93Zm1.781,2.319-1.678,4.672h3.322ZM37.8,7.93V6.839h.891V7.93Z" transform="translate(1.647)"/>
    <path id="Path_36" data-name="Path 36" d="M47.867,17.752l-4.726-7.094v7.094h-.959V8.885h.891L47.8,15.979V8.885h.959v8.867Z" transform="translate(2.12 0.42)"/>
    <path id="Path_37" data-name="Path 37" d="M56.258,16.934a3.117,3.117,0,0,1-2.26.818H50.949V8.885H54a3.116,3.116,0,0,1,2.26.818c.925.921.856,2.285.856,3.513C57.148,14.444,57.182,16.013,56.258,16.934Zm-.651-6.548a2.326,2.326,0,0,0-1.747-.648H51.908V16.9H53.86a2.278,2.278,0,0,0,1.747-.648c.617-.648.582-1.944.582-3.035S56.223,11,55.607,10.386Z" transform="translate(2.587 0.42)"/>
    <path id="Path_38" data-name="Path 38" d="M59.135,17.752V8.885h.959V16.9h4.555v.853Z" transform="translate(3.012 0.42)"/>
    <path id="Path_39" data-name="Path 39" d="M66.293,17.752V8.885h5.514v.853H67.217v3.1h3.9v.853h-3.9V16.9h4.555v.853Z" transform="translate(3.398 0.42)"/>
    <path id="Path_40" data-name="Path 40" d="M78.794,17.752,76.773,13.83H74.65v3.922h-.959V8.885h3.425a2.4,2.4,0,0,1,2.637,2.456A2.312,2.312,0,0,1,77.8,13.728l2.123,4.024ZM76.979,9.738H74.615v3.24h2.363a1.627,1.627,0,1,0,0-3.24Z" transform="translate(3.823 0.42)"/>
    <path id="Path_41" data-name="Path 41" d="M85.2,17.752H81.739V8.885H85.1a2.36,2.36,0,0,1,2.637,2.353,2.032,2.032,0,0,1-1.3,1.944A2.109,2.109,0,0,1,87.87,15.3,2.375,2.375,0,0,1,85.2,17.752Zm-.171-8.015H82.7v3.069h2.329c.993,0,1.747-.477,1.747-1.535C86.774,10.181,86.02,9.738,85.027,9.738Zm.1,3.922H82.7V16.9H85.13a1.6,1.6,0,0,0,1.781-1.637A1.577,1.577,0,0,0,85.13,13.66Z" transform="translate(4.255 0.42)"/>
    <path id="Path_42" data-name="Path 42" d="M92.939,17.821a2.907,2.907,0,0,1-3.082-3V8.885h.959v5.866a2.158,2.158,0,1,0,4.315,0V8.885h.959v5.934A2.983,2.983,0,0,1,92.939,17.821Z" transform="translate(4.7 0.423)"/>
    <path id="Path_43" data-name="Path 43" d="M104.035,17.752l-4.726-7.094v7.094H98.35V8.885h.89l4.727,7.094V8.885h.959v8.867Z" transform="translate(5.649 0.42)"/>
    <path id="Path_44" data-name="Path 44" d="M112.7,16.934a3.117,3.117,0,0,1-2.26.818h-3.048V8.885h3.048a3.117,3.117,0,0,1,2.26.818c.925.921.856,2.285.856,3.513C113.591,14.444,113.625,16.013,112.7,16.934Zm-.651-6.548a2.324,2.324,0,0,0-1.746-.648h-1.952V16.9H110.3a2.275,2.275,0,0,0,1.746-.648c.617-.648.583-1.944.583-3.035S112.666,11,112.049,10.386Z" transform="translate(5.649 0.42)"/>
    <path id="Path_45" data-name="Path 45" d="M8.549,4.486A5.452,5.452,0,0,0,3.24,10.062V23.156H15.707a5.452,5.452,0,0,0,5.309-5.576V4.486Zm3.528,3.6c2.26,0,3.391,1.331,3.391,3.058a4.6,4.6,0,0,1-.137,1.151l-.788,3.022H12.625l.753-2.77a3.994,3.994,0,0,0,.137-1.043c0-1.007-.616-1.3-1.439-1.3a3.094,3.094,0,0,0-1.918.719L9.063,9.27A4.12,4.12,0,0,1,12.076,8.083Zm-.411,4.281-.719,2.806a3.99,3.99,0,0,0-.137,1.043c0,1.007.651,1.259,1.438,1.259a3.1,3.1,0,0,0,1.918-.719l1.1,1.655a4.311,4.311,0,0,1-3.014,1.187c-2.26,0-3.391-1.295-3.391-3.058a4.6,4.6,0,0,1,.137-1.151L9.782,12.4Z"/>
    <path id="Path_46" data-name="Path 46" d="M85.609,22.288v1.194H85.1V20.413h1.062a1.091,1.091,0,0,1,.788.239.986.986,0,0,1,0,1.364,1.091,1.091,0,0,1-.788.239h-.548Zm1.1-.921a.542.542,0,0,0-.137-.409.621.621,0,0,0-.479-.136h-.514v1.057h.514C86.5,21.913,86.705,21.709,86.705,21.368Z" transform="translate(4.273 0.97)"/>
    <path id="Path_47" data-name="Path 47" d="M91.226,22.834h-1.3l-.24.648h-.548l1.13-3.035h.582l1.13,3.035h-.548Zm-.137-.375-.514-1.432-.514,1.432Z" transform="translate(4.514 0.97)"/>
    <path id="Path_48" data-name="Path 48" d="M95.747,23.482l-.754-1.228h-.342v1.228h-.514V20.413h1.1a1.1,1.1,0,0,1,.788.273.95.95,0,0,1,.274.682.8.8,0,0,1-.205.58,1.066,1.066,0,0,1-.582.307l.822,1.262h-.582Zm-1.13-1.569h.548c.411,0,.617-.17.617-.546a.542.542,0,0,0-.137-.409.583.583,0,0,0-.445-.136h-.548v1.091Z" transform="translate(5.649 0.97)"/>
    <path id="Path_49" data-name="Path 49" d="M100.439,20.413v.409h-.856v2.66h-.514v-2.66h-.856v-.409Z" transform="translate(5.649 0.97)"/>
    <path id="Path_50" data-name="Path 50" d="M105.063,23.482h-.514l-1.507-2.251v2.251h-.479V20.413h.513l1.507,2.285V20.413h.514v3.069Z" transform="translate(5.649 0.97)"/>
    <path id="Path_51" data-name="Path 51" d="M107.9,20.822v.921h1.13v.375H107.9v.955h1.267v.409h-1.746V20.413h1.746v.409Z" transform="translate(5.649 0.97)"/>
    <path id="Path_52" data-name="Path 52" d="M113.009,23.482l-.754-1.228h-.342v1.228H111.4V20.413h1.1a1.1,1.1,0,0,1,.788.273.951.951,0,0,1,.274.682.8.8,0,0,1-.206.58,1.065,1.065,0,0,1-.582.307l.822,1.262h-.582Zm-1.131-1.569h.548c.411,0,.617-.17.617-.546a.541.541,0,0,0-.137-.409.583.583,0,0,0-.445-.136h-.548v1.091Z" transform="translate(5.649 0.97)"/>
  </g>
</svg>
