<svg id="Handlerbund_Partner" data-name="Handlerbund Partner" xmlns="http://www.w3.org/2000/svg" width="143.862" height="24.804" viewBox="0 0 143.862 24.804">
  <path id="Path_34" data-name="Path 34" d="M31.916,19.882V14.849H26.692v5.033H25.5v-11h1.189v4.949h5.224V8.885h1.189v11Z" transform="translate(3.603 -2.909)" fill="#fff"/>
  <path id="Path_35" data-name="Path 35" d="M41.092,20.374l-.892-2.5H35.4l-.892,2.5H33.277l4.078-11h.977l4.035,11ZM35.613,8.193V6.839h1.1V8.193Zm2.209,2.876L35.74,16.863h4.12Zm1.062-2.876V6.839h1.1V8.193Z" transform="translate(6.017 -3.921)" fill="#fff"/>
  <path id="Path_36" data-name="Path 36" d="M49.233,19.882l-5.862-8.8v8.8H42.182v-11h1.1l5.862,8.8v-8.8h1.189v11Z" transform="translate(8.742 -2.909)" fill="#fff"/>
  <path id="Path_37" data-name="Path 37" d="M57.533,18.867a3.865,3.865,0,0,1-2.8,1.015h-3.78v-11h3.78a3.865,3.865,0,0,1,2.8,1.015c1.147,1.142,1.062,2.834,1.062,4.356C58.637,15.779,58.679,17.725,57.533,18.867Zm-.807-8.121a2.885,2.885,0,0,0-2.166-.8H52.138v8.882h2.421a2.825,2.825,0,0,0,2.166-.8c.765-.8.722-2.411.722-3.764S57.49,11.508,56.726,10.746Z" transform="translate(11.427 -2.909)" fill="#fff"/>
  <path id="Path_38" data-name="Path 38" d="M59.135,19.882v-11h1.189v9.94h5.649v1.057Z" transform="translate(13.92 -2.909)" fill="#fff"/>
  <path id="Path_39" data-name="Path 39" d="M66.293,19.882v-11h6.838V9.943H67.44v3.849h4.842v1.058H67.44v3.976h5.649v1.057Z" transform="translate(16.118 -2.909)" fill="#fff"/>
  <path id="Path_40" data-name="Path 40" d="M80.019,19.882l-2.506-4.864H74.88v4.864H73.691v-11h4.248a2.975,2.975,0,0,1,3.27,3.045,2.868,2.868,0,0,1-2.421,2.961l2.633,4.991Zm-2.251-9.94H74.838v4.018h2.931a1.953,1.953,0,0,0,2.209-1.988A1.964,1.964,0,0,0,77.768,9.943Z" transform="translate(18.422 -2.909)" fill="#fff"/>
  <path id="Path_41" data-name="Path 41" d="M86.029,19.882h-4.29v-11H85.9c1.911,0,3.271,1.1,3.271,2.918a2.52,2.52,0,0,1-1.614,2.411,2.616,2.616,0,0,1,1.784,2.622C89.342,18.825,87.983,19.882,86.029,19.882Zm-.212-9.94H82.929v3.807h2.888c1.232,0,2.166-.592,2.166-1.9C87.983,10.492,87.049,9.943,85.817,9.943Zm.127,4.864H82.929v4.018h3.016a1.986,1.986,0,0,0,2.209-2.03A1.955,1.955,0,0,0,85.944,14.807Z" transform="translate(20.891 -2.909)" fill="#fff"/>
  <path id="Path_42" data-name="Path 42" d="M93.679,19.967a3.606,3.606,0,0,1-3.823-3.722V8.885h1.189V16.16a2.677,2.677,0,1,0,5.352,0V8.885h1.189v7.359A3.7,3.7,0,0,1,93.679,19.967Z" transform="translate(23.392 -2.905)" fill="#fff"/>
  <path id="Path_43" data-name="Path 43" d="M105.4,19.882l-5.861-8.8v8.8H98.35v-11h1.1l5.862,8.8v-8.8h1.189v11Z" transform="translate(26.61 -2.909)" fill="#fff"/>
  <path id="Path_44" data-name="Path 44" d="M113.975,18.867a3.866,3.866,0,0,1-2.8,1.015h-3.78v-11h3.78a3.865,3.865,0,0,1,2.8,1.015c1.147,1.142,1.062,2.834,1.062,4.356C115.08,15.779,115.122,17.725,113.975,18.867Zm-.807-8.121a2.882,2.882,0,0,0-2.165-.8h-2.421v8.882H111a2.822,2.822,0,0,0,2.165-.8c.765-.8.723-2.411.723-3.764S113.933,11.508,113.168,10.746Z" transform="translate(28.782 -2.909)" fill="#fff"/>
  <path id="Path_45" data-name="Path 45" d="M9.824,4.486A6.762,6.762,0,0,0,3.24,11.4V27.64H18.7a6.762,6.762,0,0,0,6.584-6.915V4.486ZM14.2,8.947c2.8,0,4.205,1.651,4.205,3.792a5.7,5.7,0,0,1-.17,1.428l-.977,3.747H14.878l.934-3.435a4.954,4.954,0,0,0,.17-1.294c0-1.249-.765-1.606-1.784-1.606a3.838,3.838,0,0,0-2.379.892l-1.359-2.052A5.11,5.11,0,0,1,14.2,8.947Zm-.51,5.309-.892,3.48a4.948,4.948,0,0,0-.17,1.294c0,1.249.807,1.562,1.784,1.562A3.838,3.838,0,0,0,16.79,19.7l1.359,2.052a5.346,5.346,0,0,1-3.738,1.472c-2.8,0-4.2-1.606-4.2-3.792A5.7,5.7,0,0,1,10.376,18l.977-3.7Z" transform="translate(-3.24 -4.486)" fill="#fff"/>
  <path id="Path_46" data-name="Path 46" d="M85.733,22.739v1.48H85.1V20.413h1.317a1.352,1.352,0,0,1,.977.3,1.223,1.223,0,0,1,0,1.692,1.352,1.352,0,0,1-.977.3h-.68ZM87.092,21.6a.672.672,0,0,0-.17-.507.771.771,0,0,0-.595-.169H85.69v1.311h.637C86.837,22.274,87.092,22.02,87.092,21.6Z" transform="translate(21.719 0.542)" fill="#fff"/>
  <path id="Path_47" data-name="Path 47" d="M91.728,23.407H90.114l-.3.8h-.679l1.4-3.764h.722l1.4,3.764h-.68Zm-.17-.465-.637-1.776-.637,1.776Z" transform="translate(22.989 0.55)" fill="#fff"/>
  <path id="Path_48" data-name="Path 48" d="M96.134,24.219,95.2,22.7h-.425v1.523h-.637V20.413H95.5a1.362,1.362,0,0,1,.977.338,1.178,1.178,0,0,1,.34.846.992.992,0,0,1-.255.719,1.322,1.322,0,0,1-.722.381l1.019,1.565h-.722Zm-1.4-1.946h.68c.51,0,.765-.211.765-.677a.672.672,0,0,0-.17-.507.723.723,0,0,0-.552-.169h-.68v1.354Z" transform="translate(25.598 0.542)" fill="#fff"/>
  <path id="Path_49" data-name="Path 49" d="M100.974,20.413v.507H99.912v3.3h-.637v-3.3H98.213v-.507Z" transform="translate(26.577 0.542)" fill="#fff"/>
  <path id="Path_50" data-name="Path 50" d="M105.663,24.219h-.637l-1.869-2.792v2.792h-.594V20.413h.636l1.869,2.834V20.413h.637v3.807Z" transform="translate(27.622 0.542)" fill="#fff"/>
  <path id="Path_51" data-name="Path 51" d="M108.02,20.92v1.142h1.4v.465h-1.4v1.184h1.571v.508h-2.165V20.413h2.165v.507Z" transform="translate(28.79 0.542)" fill="#fff"/>
  <path id="Path_52" data-name="Path 52" d="M113.4,24.219l-.935-1.523h-.424v1.523H111.4V20.413h1.359a1.366,1.366,0,0,1,.977.338,1.18,1.18,0,0,1,.34.846.993.993,0,0,1-.255.719,1.321,1.321,0,0,1-.722.381l1.019,1.565H113.4Zm-1.4-1.946h.68c.51,0,.765-.211.765-.677a.671.671,0,0,0-.17-.507.723.723,0,0,0-.552-.169h-.68v1.354Z" transform="translate(29.744 0.542)" fill="#fff"/>
</svg>
