<svg xmlns="http://www.w3.org/2000/svg" width="17.839" height="21" viewBox="0 0 17.839 21">
  <g id="health-insurance" transform="translate(-38.542 0)">
    <path id="Path_243" data-name="Path 243" d="M56.36,5.7v-.02c-.01-.524-.019-1.018-.019-1.494a1.309,1.309,0,0,0-1.307-1.307,8.96,8.96,0,0,1-6.661-2.5,1.3,1.3,0,0,0-1.822,0,8.959,8.959,0,0,1-6.66,2.5,1.309,1.309,0,0,0-1.307,1.307c0,.486-.01.985-.02,1.514a22.757,22.757,0,0,0,.925,8.331,10.59,10.59,0,0,0,2.552,3.961,13.334,13.334,0,0,0,4.993,2.94,1.306,1.306,0,0,0,.856,0,13.335,13.335,0,0,0,4.993-2.94,10.59,10.59,0,0,0,2.552-3.961A22.756,22.756,0,0,0,56.36,5.7ZM54.28,13.6c-1.087,2.941-3.31,4.958-6.795,6.166a.076.076,0,0,1-.05,0c-3.484-1.208-5.706-3.224-6.794-6.165a21.47,21.47,0,0,1-.849-7.88c.01-.535.02-1.04.02-1.538A.077.077,0,0,1,39.89,4.1a10.117,10.117,0,0,0,7.518-2.85.076.076,0,0,1,.107,0A10.119,10.119,0,0,0,55.033,4.1a.077.077,0,0,1,.077.077c0,.487.009.988.02,1.517v.02h0A21.467,21.467,0,0,1,54.28,13.6Z" transform="translate(0 0)" fill="#0c0"/>
    <path id="Path_244" data-name="Path 244" d="M156.09,145.442H154.11v-1.98a.615.615,0,0,0-.615-.615H151.04a.615.615,0,0,0-.615.615v1.98h-1.98a.615.615,0,0,0-.615.615v2.455a.615.615,0,0,0,.615.615h1.98v1.98a.615.615,0,0,0,.615.615H153.5a.615.615,0,0,0,.615-.615v-1.98h1.979a.615.615,0,0,0,.615-.615v-2.455A.615.615,0,0,0,156.09,145.442Zm-.615,2.455H153.5a.615.615,0,0,0-.615.615v1.98h-1.225v-1.98a.615.615,0,0,0-.615-.615h-1.98v-1.225h1.98a.615.615,0,0,0,.615-.615v-1.98h1.225v1.98a.615.615,0,0,0,.615.615h1.979V147.9Z" transform="translate(-104.806 -136.989)" fill="#0c0"/>
  </g>
</svg>
