<svg xmlns="http://www.w3.org/2000/svg" width="16" height="16" viewBox="0 0 16 16">
  <g id="info" transform="translate(-3 -3)">
    <path id="Path_266" data-name="Path 266" d="M16.5,15.77a.8.8,0,1,1,1.6,0v4.8a.8.8,0,1,1-1.6,0Z" transform="translate(-6.3 -5.586)"/>
    <path id="Path_267" data-name="Path 267" d="M17.3,9.076a.8.8,0,1,0,.8.8A.8.8,0,0,0,17.3,9.076Z" transform="translate(-6.3 -2.835)"/>
    <path id="Path_268" data-name="Path 268" d="M11,3a8,8,0,1,0,8,8A8,8,0,0,0,11,3ZM4.6,11A6.4,6.4,0,1,0,11,4.6,6.4,6.4,0,0,0,4.6,11Z" fill-rule="evenodd"/>
  </g>
</svg>
