<svg xmlns="http://www.w3.org/2000/svg" width="20.001" height="20" viewBox="0 0 20.001 20">
  <path id="instagram" d="M13,3c-2.716,0-3.056.012-4.123.06a7.359,7.359,0,0,0-2.427.465A5.11,5.11,0,0,0,3.525,6.45a7.373,7.373,0,0,0-.465,2.427C3.011,9.944,3,10.284,3,13s.011,3.056.06,4.123a7.359,7.359,0,0,0,.465,2.427,5.109,5.109,0,0,0,2.925,2.925,7.373,7.373,0,0,0,2.427.465c1.067.048,1.407.06,4.123.06s3.056-.012,4.123-.06a7.359,7.359,0,0,0,2.427-.465,5.109,5.109,0,0,0,2.925-2.925,7.373,7.373,0,0,0,.465-2.427c.048-1.067.06-1.407.06-4.123s-.012-3.056-.06-4.123a7.359,7.359,0,0,0-.465-2.427A5.109,5.109,0,0,0,19.55,3.525a7.373,7.373,0,0,0-2.427-.465C16.056,3.012,15.716,3,13,3m0,1.8c2.67,0,2.986.01,4.04.058A5.556,5.556,0,0,1,18.9,5.2a3.31,3.31,0,0,1,1.9,1.9,5.549,5.549,0,0,1,.344,1.857c.048,1.055.058,1.37.058,4.041s-.01,2.986-.058,4.04A5.591,5.591,0,0,1,20.8,18.9a3.31,3.31,0,0,1-1.9,1.9,5.549,5.549,0,0,1-1.857.344c-1.054.048-1.37.058-4.041.058s-2.987-.01-4.04-.058A5.591,5.591,0,0,1,7.1,20.8a3.31,3.31,0,0,1-1.9-1.9,5.515,5.515,0,0,1-.344-1.857C4.812,15.986,4.8,15.671,4.8,13s.01-2.986.058-4.04A5.556,5.556,0,0,1,5.2,7.1,3.31,3.31,0,0,1,7.1,5.2,5.515,5.515,0,0,1,8.958,4.86C10.014,4.812,10.328,4.8,13,4.8m0,11.531A3.333,3.333,0,1,1,16.333,13,3.333,3.333,0,0,1,13,16.333m0-8.468A5.135,5.135,0,1,0,18.134,13,5.135,5.135,0,0,0,13,7.865m6.538-.2a1.2,1.2,0,1,1-1.2-1.2,1.2,1.2,0,0,1,1.2,1.2" transform="translate(-3 -3)" fill-rule="evenodd"/>
</svg>
