<svg id="java-script" xmlns="http://www.w3.org/2000/svg" width="42" height="42" viewBox="0 0 42 42">
  <g id="Group_282" data-name="Group 282">
    <g id="Group_281" data-name="Group 281">
      <path id="Path_221" data-name="Path 221" d="M0,0,3.5,38.5,21,42l17.5-3.5L42,0ZM35.252,35.581,21,38.43,6.748,35.581,3.831,3.5H38.166Z" fill="#0c0"/>
    </g>
  </g>
  <g id="Group_284" data-name="Group 284" transform="translate(9.415 7)">
    <g id="Group_283" data-name="Group 283">
      <path id="Path_222" data-name="Path 222" d="M98.152,68.265V91.507l-2.5-.5-.316-3.493H91.817l.583,6.412,9.253,1.847V68.265Z" transform="translate(-91.817 -68.265)" fill="#0c0"/>
    </g>
  </g>
  <g id="Group_286" data-name="Group 286" transform="translate(22.75 7)">
    <g id="Group_285" data-name="Group 285">
      <path id="Path_223" data-name="Path 223" d="M233.131,71.765l.318-3.5H221.865v15.75H228.5l-.636,6.993-6,1.2v3.568l9.253-1.847,1.218-13.412h-6.971v-8.75Z" transform="translate(-221.865 -68.265)" fill="#0c0"/>
    </g>
  </g>
</svg>
