<svg xmlns="http://www.w3.org/2000/svg" width="161.6" height="24" viewBox="0 0 161.6 24">
  <g id="Logo" transform="translate(-591 -455)">
    <path id="Path_1" data-name="Path 1" d="M3.881,29.323c.344,1.385,1.759,2.346,3.94,2.346,1.721,0,3.1-.692,3.1-1.885,0-1.615-1.53-2-5.049-3.192C3.192,25.708.935,24.4.935,21.631c0-2.923,2.945-4.731,6.005-4.731,3.94,0,6.349,2.231,6.5,5.038H9.924c-.153-1.423-1.53-2.077-2.869-2.077-1.224,0-2.6.615-2.6,1.808,0,1.346,1.453,1.654,4.934,2.962,3.442,1.154,5.011,2.846,5.011,5.192,0,3.038-2.907,4.808-6.655,4.808C3.651,34.631.706,32.823.4,29.323Z" transform="translate(590.6 444.331)"/>
    <path id="Path_2" data-name="Path 2" d="M41,25.685a9.047,9.047,0,1,1,9.1,8.885A8.854,8.854,0,0,1,41,25.685Zm14.611,0A5.452,5.452,0,0,0,50.1,20.146a5.539,5.539,0,1,0,0,11.077A5.452,5.452,0,0,0,55.611,25.685Z" transform="translate(565.529 444.392)"/>
    <path id="Path_3" data-name="Path 3" d="M215.1,25.685a9.047,9.047,0,1,1,9.1,8.885A8.854,8.854,0,0,1,215.1,25.685Zm14.611,0a5.452,5.452,0,0,0-5.508-5.538,5.539,5.539,0,1,0,5.508,5.538Z" transform="translate(458.02 444.392)"/>
    <path id="Path_4" data-name="Path 4" d="M99.581,25.423H96.1V2.5h3.481Z" transform="translate(531.504 453.192)"/>
    <path id="Path_5" data-name="Path 5" d="M130.426,17.7V34.777h-3.519V30.931a5.4,5.4,0,0,1-2.257,2.923,6.652,6.652,0,0,1-3.71,1.038,6.233,6.233,0,0,1-4.743-1.923,7.756,7.756,0,0,1-1.8-5.462V17.7h3.519v9.423A4.984,4.984,0,0,0,119.1,30.7a4.11,4.11,0,0,0,3.213,1.269,4.48,4.48,0,0,0,3.366-1.346,5.656,5.656,0,0,0,1.262-3.962V17.7Z" transform="translate(520.203 443.839)"/>
    <path id="Path_6" data-name="Path 6" d="M174.259,22.346v3.077h-2.142a5.7,5.7,0,0,1-4.093-1.308,5.9,5.9,0,0,1-1.415-4.385V11.385H164.2V8.346h2.41V2.5h3.519V8.346h4.131v3.038h-4.131v8.423a2.907,2.907,0,0,0,.535,2,2.49,2.49,0,0,0,1.874.538Z" transform="translate(489.451 453.192)"/>
    <rect id="Rectangle_1" data-name="Rectangle 1" width="3.481" height="17.077" transform="translate(666.656 461.539)"/>
    <path id="Path_7" data-name="Path 7" d="M323.1,22.269H335.5v3.154H319.7V22.269C319.7,15.5,332.169,15,332.169,9.5A3.845,3.845,0,0,0,328,5.654c-2.945,0-5.011,1.769-5.011,4.154H319.7c0-4.077,3.519-7.308,8.338-7.308,4.246,0,7.458,2.808,7.458,7.115C335.5,17.346,323.1,17.885,323.1,22.269Z" transform="translate(393.427 453.192)"/>
    <path id="Path_8" data-name="Path 8" d="M284.167,18.782a7.756,7.756,0,0,1,1.8,5.462V34.282h-3.519V24.628a4.885,4.885,0,0,0-1.186-3.538,4.11,4.11,0,0,0-3.213-1.269,4.48,4.48,0,0,0-3.366,1.346,5.489,5.489,0,0,0-1.262,3.923v9.154H269.9V17.205h3.519V20.9a5.882,5.882,0,0,1,2.257-2.962,6.614,6.614,0,0,1,3.672-1.038A6.078,6.078,0,0,1,284.167,18.782Z" transform="translate(424.18 444.333)"/>
    <g id="Group_1" data-name="Group 1" transform="translate(730.454 455.692)">
      <path id="Path_9" data-name="Path 9" d="M373.759,9.923a9.19,9.19,0,0,0-4.628,1.154l.841-5.385h9.715V2.5H367.142l-2.027,13.231h3.328c.688-1.923,2.83-2.769,4.628-2.769a4.557,4.557,0,0,1,4.858,4.769,4.71,4.71,0,0,1-4.9,4.731,4.594,4.594,0,0,1-4.475-2.769H365c.65,3.346,3.557,6.115,8.07,6.115a7.961,7.961,0,0,0,8.185-7.923C381.256,12.962,377.851,9.923,373.759,9.923Z" transform="translate(-365 -2.5)"/>
    </g>
    <g id="Group_2" data-name="Group 2" transform="translate(747.169 455.346)">
      <path id="Path_10" data-name="Path 10" d="M414.131,4.331A2.716,2.716,0,1,1,411.416,1.6,2.734,2.734,0,0,1,414.131,4.331Zm-.612,0a2.142,2.142,0,1,0-2.142,2.154A2.144,2.144,0,0,0,413.519,4.331Zm-1.606.423.574.923H411.8l-.5-.846h-.306v.846h-.574V2.869h1.033a.947.947,0,0,1,1.033.962A.881.881,0,0,1,411.913,4.754Zm0-.885c0-.308-.191-.423-.459-.423h-.459v.808h.459C411.722,4.254,411.913,4.177,411.913,3.869Z" transform="translate(-408.7 -1.6)"/>
    </g>
    <ellipse id="Ellipse_1" data-name="Ellipse 1" cx="2.18" cy="2.192" rx="2.18" ry="2.192" transform="translate(666.235 455)"/>
  </g>
</svg>
