<svg xmlns="http://www.w3.org/2000/svg" width="36.939" height="42" viewBox="0 0 36.939 42">
  <g id="marketing" transform="translate(-30.849)">
    <g id="Group_289" data-name="Group 289" transform="translate(30.849 1.567)">
      <g id="Group_288" data-name="Group 288" transform="translate(0)">
        <path id="Path_227" data-name="Path 227" d="M64.985,34.094,51.067,20.177A3.691,3.691,0,0,0,45.4,24.851l-.019.1a25.75,25.75,0,0,1-7.065,13.2l-6.384,6.384a3.688,3.688,0,0,0,0,5.219L35.41,53.23a3.688,3.688,0,0,0,5.219,0l.87-.87,6.089,6.089a3.69,3.69,0,0,0,5.219-5.219L50.2,50.621l.87-.87a3.688,3.688,0,0,0,0-5.219l-.591-.591a25.754,25.754,0,0,1,9.737-4.159l.1-.02a3.7,3.7,0,0,0,4.673-.449h0A3.7,3.7,0,0,0,64.985,34.094Zm-26.1,17.4a1.23,1.23,0,0,1-1.74,0l-3.479-3.479a1.229,1.229,0,0,1,0-1.74l6.089-6.089L44.979,45.4ZM51.067,54.97a1.23,1.23,0,0,1-1.74,1.74l-6.089-6.089,1.74-1.74Zm-4.349-7.828c.37-.37.923-.936,1.8-1.682l.813.813a1.229,1.229,0,0,1,0,1.74l-.87.87Zm.052-3.427-5.324-5.324a28.17,28.17,0,0,0,5.989-11.408L58.178,37.725A28.169,28.169,0,0,0,46.77,43.714Zm16.474-6.141a1.23,1.23,0,0,1-1.74,0L47.588,23.656a1.23,1.23,0,0,1,1.74-1.74L63.245,35.834A1.232,1.232,0,0,1,63.245,37.573Z" transform="translate(-30.849 -19.098)" fill="#0c0"/>
      </g>
    </g>
    <g id="Group_291" data-name="Group 291" transform="translate(36.79 26.641)">
      <g id="Group_290" data-name="Group 290" transform="translate(0)">
        <path id="Path_228" data-name="Path 228" d="M107.106,325.122a1.23,1.23,0,0,0-1.74,0l-1.74,1.74a1.23,1.23,0,0,0,1.74,1.74l1.74-1.74A1.23,1.23,0,0,0,107.106,325.122Z" transform="translate(-103.266 -324.762)" fill="#0c0"/>
      </g>
    </g>
    <g id="Group_293" data-name="Group 293" transform="translate(55.487)">
      <g id="Group_292" data-name="Group 292">
        <path id="Path_229" data-name="Path 229" d="M332.424,0a1.23,1.23,0,0,0-1.23,1.23V3.69a1.23,1.23,0,0,0,2.46,0V1.23A1.23,1.23,0,0,0,332.424,0Z" transform="translate(-331.194)" fill="#0c0"/>
      </g>
    </g>
    <g id="Group_295" data-name="Group 295" transform="translate(62.868 9.841)">
      <g id="Group_294" data-name="Group 294">
        <path id="Path_230" data-name="Path 230" d="M424.859,119.966H422.4a1.23,1.23,0,0,0,0,2.46h2.46a1.23,1.23,0,0,0,0-2.46Z" transform="translate(-421.169 -119.966)" fill="#0c0"/>
      </g>
    </g>
    <g id="Group_297" data-name="Group 297" transform="translate(60.408 2.46)">
      <g id="Group_296" data-name="Group 296">
        <path id="Path_231" data-name="Path 231" d="M395.738,30.351a1.23,1.23,0,0,0-1.74,0l-2.46,2.46a1.23,1.23,0,0,0,1.74,1.74l2.46-2.46A1.23,1.23,0,0,0,395.738,30.351Z" transform="translate(-391.178 -29.991)" fill="#0c0"/>
      </g>
    </g>
  </g>
</svg>
