<svg id="Maxcluster" xmlns="http://www.w3.org/2000/svg" width="102.609" height="15.577" viewBox="0 0 102.609 15.577">
  <g id="g16" transform="translate(0 0)">
    <path id="path22" d="M-361.01,297.729l-3.681-5.47,3.355-5.327a.243.243,0,0,0,.041-.163.252.252,0,0,0-.244-.264h-2.725c-.223,0-.346.122-.528.427l-1.668,2.806-1.81-2.806c-.183-.264-.3-.427-.528-.427h-3.03a.313.313,0,0,0-.3.3.3.3,0,0,0,.041.122l3.457,5.164-3.559,5.653a.271.271,0,0,0-.041.163.219.219,0,0,0,.224.244h2.725c.223,0,.346-.1.528-.407l1.891-3.172,2.013,3.152c.183.3.3.427.529.427h3.07a.291.291,0,0,0,.285-.285.3.3,0,0,0-.041-.142m-16.134-2.4a11.311,11.311,0,0,1-1.668.122c-1.443,0-1.83-1.057-1.83-2.5v-1.586c0-1.444.387-2.481,1.83-2.481a11.779,11.779,0,0,1,1.668.1Zm2.644-8.642a18.909,18.909,0,0,0-4.311-.529c-3.294,0-5.1,1.911-5.1,5.206v1.586c0,3.294,1.81,5.206,5.1,5.206a18.937,18.937,0,0,0,4.311-.529c.549-.122.63-.264.63-.589v-9.761c0-.325-.081-.468-.63-.589m-15.558-.346h-.386a4.384,4.384,0,0,0-2.786.874,4.382,4.382,0,0,0-2.786-.874h-.406c-2.847,0-4.473,1.322-4.473,4.189v7.178a.444.444,0,0,0,.407.447h2.48a.445.445,0,0,0,.407-.447v-7.178c0-1.159.325-1.484,1.179-1.484h.406c1.017,0,1.139.589,1.139,1.484v7.178a.444.444,0,0,0,.407.447h2.5a.428.428,0,0,0,.387-.447v-7.178c0-.895.122-1.484,1.139-1.484h.386c.853,0,1.2.325,1.2,1.484v7.178a.445.445,0,0,0,.407.447h2.48a.444.444,0,0,0,.407-.447v-7.178c0-2.867-1.647-4.189-4.493-4.189" transform="translate(400.897 -282.579)" fill="#fff"/>
    <path id="path24" d="M-260.216,282.964a13.518,13.518,0,0,0-4.488.589c-.467.163-.629.366-.629.65v10.134a.443.443,0,0,0,.427.427h2.457a.426.426,0,0,0,.407-.427v-8.509a12.237,12.237,0,0,1,1.828-.121c.386,0,.548-.163.548-.386v-1.97c0-.284-.3-.386-.548-.386m-9.951,4.793h-3.7v-.081c0-1.482.752-2.254,1.868-2.254,1.137,0,1.828.752,1.828,2.254Zm-1.808-4.976c-3.228,0-5.138,2.072-5.138,5.341v1.421c0,3.92,2.64,5.22,5.1,5.22a15.517,15.517,0,0,0,4.164-.487c.345-.082.426-.224.426-.548v-1.544c0-.223-.163-.325-.386-.325h-.061c-.812.081-2.619.183-3.9.183a1.94,1.94,0,0,1-2.092-2.214v-.04h6.478c.264,0,.427-.183.427-.488v-1.178c0-3.067-1.686-5.341-5.017-5.341m-6.727.162h-2.782v-2.152a.417.417,0,0,0-.366-.406h-.061l-2.478.426a.437.437,0,0,0-.406.407v10.194c0,2.64,1.341,3.351,3.615,3.351a16.139,16.139,0,0,0,2.437-.183c.264-.04.407-.182.407-.406v-1.564c0-.223-.163-.345-.427-.345h-1.524c-.873,0-1.2-.122-1.2-.833V285.4h2.782a.407.407,0,0,0,.406-.407V283.35a.408.408,0,0,0-.406-.407m-9.792,5.281-2.518-1.442c-.406-.244-.629-.407-.629-.711,0-.467.284-.589,1.076-.589a32.468,32.468,0,0,1,3.371.264h.081c.2,0,.326-.142.326-.387v-1.644a.459.459,0,0,0-.386-.467,13.143,13.143,0,0,0-3.615-.467c-2.8,0-4.163,1.1-4.163,3.148a3.353,3.353,0,0,0,1.808,3.006l2.64,1.523c.569.325.751.549.751.853,0,.528-.223.792-1.2.792-.65,0-2.356-.142-3.452-.284h-.082a.373.373,0,0,0-.386.386v1.645a.46.46,0,0,0,.386.467,15.87,15.87,0,0,0,3.7.447c2.965,0,4.346-1.5,4.346-3.412a3.363,3.363,0,0,0-2.052-3.128m-8.45-5.281h-2.5a.425.425,0,0,0-.406.427v6.235c0,1.929-.609,2.376-1.564,2.376h-.284c-.955,0-1.564-.447-1.564-2.376V283.37a.425.425,0,0,0-.406-.427h-2.5a.409.409,0,0,0-.386.427v6.235c0,4.773,3.574,5.158,4.854,5.158h.284c1.279,0,4.853-.386,4.853-5.158V283.37a.409.409,0,0,0-.386-.427m-11.809-3.757h-2.478a.425.425,0,0,0-.427.406v14.744a.443.443,0,0,0,.427.427h2.478a.409.409,0,0,0,.386-.427V279.593a.39.39,0,0,0-.386-.406m-5.34,3.9a11.2,11.2,0,0,0-2.7-.3c-2.863,0-4.732,1.828-4.732,5.138v1.706c0,3.311,1.868,5.138,4.732,5.138a11.17,11.17,0,0,0,2.7-.3c.3-.081.426-.162.426-.467v-1.807a.365.365,0,0,0-.386-.345h-.04a19.441,19.441,0,0,1-2.478.142c-.914,0-1.665-.549-1.665-2.356V287.92c0-1.808.751-2.356,1.665-2.356a19.434,19.434,0,0,1,2.478.142h.04a.365.365,0,0,0,.386-.346v-1.807c0-.3-.122-.386-.426-.467" transform="translate(362.277 -279.187)" fill="#fff"/>
  </g>
</svg>
