<svg xmlns="http://www.w3.org/2000/svg" xmlns:xlink="http://www.w3.org/1999/xlink" width="168" height="36" viewBox="0 0 168 36">
  <defs>
    <clipPath id="clip-path">
      <rect id="Rectangle_7" data-name="Rectangle 7" width="168" height="36" transform="translate(0.5)" fill="#fff"/>
    </clipPath>
  </defs>
  <g id="Microsoft_Logo" data-name="Microsoft Logo" transform="translate(-0.5)" clip-path="url(#clip-path)">
    <path id="Path_27" data-name="Path 27" d="M47.036,19.177l-1,2.846h-.083a20.252,20.252,0,0,0-.974-2.791L39.61,5.7H34.353V27.27H37.83V13.958c0-.837,0-1.786-.028-2.958-.028-.586-.083-1.033-.111-1.367h.083a13.072,13.072,0,0,0,.5,1.842l6.453,15.74h2.448l6.4-15.879a16.947,16.947,0,0,0,.417-1.7h.083c-.083,1.591-.139,3.014-.167,3.879V27.186h3.7V5.642H52.544Zm14.074-7.451h3.616v15.46H61.111ZM62.946,5.2a2.163,2.163,0,0,0-1.53.614,1.984,1.984,0,0,0-.64,1.507,1.966,1.966,0,0,0,.64,1.479,2.14,2.14,0,0,0,1.53.586,2.214,2.214,0,0,0,1.53-.586,1.966,1.966,0,0,0,.64-1.479,2.072,2.072,0,0,0-.64-1.507A2.026,2.026,0,0,0,62.946,5.2Zm14.6,6.391a10.054,10.054,0,0,0-2.03-.223,8.7,8.7,0,0,0-4.395,1.088,7.278,7.278,0,0,0-2.893,2.986,9.517,9.517,0,0,0-1,4.465,8.3,8.3,0,0,0,.973,3.991,6.679,6.679,0,0,0,2.726,2.763,8,8,0,0,0,3.977.977A8.718,8.718,0,0,0,79.274,26.6l.028-.028V23.223l-.139.112a6.209,6.209,0,0,1-1.752.921,5.343,5.343,0,0,1-1.724.335,4.259,4.259,0,0,1-3.393-1.34A5.158,5.158,0,0,1,71.04,19.6a5.286,5.286,0,0,1,1.279-3.767,4.457,4.457,0,0,1,3.393-1.4A5.906,5.906,0,0,1,79.162,15.6l.139.112V12.172l-.028-.028A8.369,8.369,0,0,0,77.549,11.586Zm11.932-.112a3.808,3.808,0,0,0-2.448.865,5.208,5.208,0,0,0-1.391,2.093h-.028V11.726H82v15.46h3.616v-7.9a5.338,5.338,0,0,1,.89-3.265,2.785,2.785,0,0,1,2.336-1.256,8.9,8.9,0,0,1,1.085.14,2.846,2.846,0,0,1,.862.363l.139.112V11.754l-.083-.028A2.741,2.741,0,0,0,89.482,11.475Zm9.846-.084a7.959,7.959,0,0,0-5.98,2.232,8.329,8.329,0,0,0-2.142,6.084,7.971,7.971,0,0,0,2.114,5.777,8.664,8.664,0,0,0,11.515-.139,8.3,8.3,0,0,0,2.142-6,8.092,8.092,0,0,0-2.03-5.833A7.307,7.307,0,0,0,99.328,11.391Zm2.893,11.888a3.64,3.64,0,0,1-3.032,1.284,3.793,3.793,0,0,1-3.115-1.339,5.525,5.525,0,0,1-1.113-3.712,5.872,5.872,0,0,1,1.113-3.8,3.819,3.819,0,0,1,3.087-1.34,3.693,3.693,0,0,1,3,1.284,5.736,5.736,0,0,1,1.113,3.767A6.472,6.472,0,0,1,102.221,23.279Zm12.823-5.135a8.655,8.655,0,0,1-2.2-1.144,1.587,1.587,0,0,1-.417-1.172,1.3,1.3,0,0,1,.584-1.116,2.673,2.673,0,0,1,1.585-.419,7.179,7.179,0,0,1,1.864.279,4.786,4.786,0,0,1,1.613.754l.139.112v-3.4L118.13,12a10.011,10.011,0,0,0-1.641-.474,11.114,11.114,0,0,0-1.78-.167,6.43,6.43,0,0,0-4.256,1.339,4.131,4.131,0,0,0-1.641,3.4,4.443,4.443,0,0,0,.362,1.9,4.228,4.228,0,0,0,1.113,1.451,9.687,9.687,0,0,0,2.225,1.256c.834.363,1.474.642,1.864.865a3.78,3.78,0,0,1,.835.67,1.59,1.59,0,0,1,.223.865c0,1.033-.779,1.535-2.364,1.535a6.223,6.223,0,0,1-2-.363,7.724,7.724,0,0,1-2.03-1.033l-.139-.112v3.544l.083.028a10.76,10.76,0,0,0,1.947.614,12.389,12.389,0,0,0,2.086.251,6.758,6.758,0,0,0,4.478-1.34,4.278,4.278,0,0,0,1.7-3.516,3.921,3.921,0,0,0-.89-2.651A11.267,11.267,0,0,0,115.043,18.144Zm13.685-6.754a7.959,7.959,0,0,0-5.98,2.232,8.447,8.447,0,0,0-2.142,6.084,7.971,7.971,0,0,0,2.114,5.777,8.663,8.663,0,0,0,11.515-.139,8.3,8.3,0,0,0,2.143-6,8.09,8.09,0,0,0-2.031-5.833A7.306,7.306,0,0,0,128.728,11.391Zm2.866,11.888a3.642,3.642,0,0,1-3.032,1.284,3.755,3.755,0,0,1-3.115-1.339,5.523,5.523,0,0,1-1.113-3.712,5.87,5.87,0,0,1,1.113-3.8,3.817,3.817,0,0,1,3.087-1.34,3.729,3.729,0,0,1,3,1.284,5.738,5.738,0,0,1,1.113,3.767A6.1,6.1,0,0,1,131.593,23.279Zm24.115-8.567V11.726h-3.644V7.149l-.112.028L148.5,8.209l-.083.028v3.488h-5.452V9.772a3.065,3.065,0,0,1,.611-2.037,2.156,2.156,0,0,1,1.7-.67,4.047,4.047,0,0,1,1.614.363l.139.084V4.358l-.084-.028a6.933,6.933,0,0,0-4.923.391A4.83,4.83,0,0,0,140.048,6.7a5.73,5.73,0,0,0-.723,2.874v2.149h-2.531v2.958h2.531v12.5h3.644V14.712h5.452v7.954c0,3.265,1.53,4.912,4.59,4.912a9.48,9.48,0,0,0,1.529-.168,5.012,5.012,0,0,0,1.142-.363l.028-.028V24.033l-.139.112a2.35,2.35,0,0,1-.752.335,2.536,2.536,0,0,1-.723.112A1.924,1.924,0,0,1,152.509,24a3.032,3.032,0,0,1-.5-1.981V14.712Z" transform="translate(12.764 1.558)" fill="#737373"/>
    <path id="Path_28" data-name="Path 28" d="M.5,0H17.55V17.107H.5Z" fill="#f25022"/>
    <path id="Path_29" data-name="Path 29" d="M14.174,0h17.05V17.107H14.174Z" transform="translate(5.156)" fill="#7fba00"/>
    <path id="Path_30" data-name="Path 30" d="M.5,13.645H17.55V30.752H.5Z" transform="translate(0 5.248)" fill="#00a4ef"/>
    <path id="Path_31" data-name="Path 31" d="M14.174,13.645h17.05V30.752H14.174Z" transform="translate(5.156 5.248)" fill="#ffb900"/>
  </g>
</svg>
