<svg id="Node_JS" data-name="Node JS" xmlns="http://www.w3.org/2000/svg" width="54" height="60" viewBox="0 0 54 60">
  <path id="Path_384" data-name="Path 384" d="M27,60a4.956,4.956,0,0,1-2.348-.606l-7.435-4.355c-1.118-.606-.559-.827-.224-.937a13.638,13.638,0,0,0,3.354-1.488.52.52,0,0,1,.559.055l5.7,3.362a.719.719,0,0,0,.671,0L49.584,43.3a.631.631,0,0,0,.335-.606V17.281a.631.631,0,0,0-.335-.606L27.28,4a.719.719,0,0,0-.671,0L4.3,16.674a.689.689,0,0,0-.335.606V42.692A.689.689,0,0,0,4.3,43.3L10.4,46.771c3.3,1.654,5.366-.276,5.366-2.2V19.486a.675.675,0,0,1,.671-.661h2.851a.675.675,0,0,1,.671.661v25.08c0,4.355-2.4,6.89-6.6,6.89-1.286,0-2.292,0-5.143-1.378l-5.87-3.307A4.64,4.64,0,0,1,0,42.747V17.336a4.64,4.64,0,0,1,2.348-4.024L24.652.579a5.051,5.051,0,0,1,4.7,0l22.3,12.733A4.64,4.64,0,0,1,54,17.336V42.747a4.64,4.64,0,0,1-2.348,4.024L29.348,59.5A5.79,5.79,0,0,1,27,60Zm6.876-17.474c-9.783,0-11.8-4.41-11.8-8.158a.675.675,0,0,1,.671-.661h2.907a.571.571,0,0,1,.615.551c.447,2.921,1.733,4.355,7.658,4.355,4.7,0,6.708-1.047,6.708-3.528,0-1.433-.559-2.48-7.882-3.2-6.093-.606-9.894-1.929-9.894-6.725,0-4.465,3.8-7.111,10.174-7.111,7.155,0,10.677,2.425,11.124,7.717a.881.881,0,0,1-.168.5.694.694,0,0,1-.447.22H40.64a.653.653,0,0,1-.615-.5c-.671-3.032-2.4-4.024-6.988-4.024-5.143,0-5.758,1.764-5.758,3.087,0,1.6.727,2.095,7.658,2.977,6.876.882,10.118,2.15,10.118,6.89-.056,4.851-4.081,7.607-11.18,7.607Z" transform="translate(0)" fill="#539e43"/>
</svg>
