<svg xmlns="http://www.w3.org/2000/svg" xmlns:xlink="http://www.w3.org/1999/xlink" width="24" height="22" viewBox="0 0 24 22">
  <defs>
    <linearGradient id="linear-gradient" y1="0.426" x2="1" y2="0.577" gradientUnits="objectBoundingBox">
      <stop offset="0" stop-color="#975edc"/>
      <stop offset="1" stop-color="#3d4dcf"/>
    </linearGradient>
    <linearGradient id="linear-gradient-2" x1="0.685" y1="0.887" x2="0.848" y2="0.116" xlink:href="#linear-gradient"/>
    <linearGradient id="linear-gradient-3" y1="0.5" x2="1" y2="0.5" gradientUnits="objectBoundingBox">
      <stop offset="0" stop-color="#fff"/>
      <stop offset="1" stop-color="#a36ff6"/>
    </linearGradient>
  </defs>
  <g id="oxid-to-shopware6" transform="translate(-489 -5950.224)">
    <g id="shopware-6" transform="translate(499.588 5958.175)">
      <path id="Path_10767" data-name="Path 10767" d="M5.991.047C4-.377.527,2.068.031,5.969c-.431,3.389,3.758,7.379,6.223,7.98,1.258.307,2.9-.024,4.811-1.923,1.2-1.187,1.963-4.134-.67-6.995C8.483,2.954,7.629.4,5.991.047" transform="translate(-0.001 0.001)" fill="url(#linear-gradient)"/>
      <path id="Path_10768" data-name="Path 10768" d="M39.839,30.993a6.325,6.325,0,1,1-6.322-6.129,6.228,6.228,0,0,1,6.322,6.129" transform="translate(-26.428 -24.158)" opacity="0.767" fill="url(#linear-gradient-2)"/>
      <path id="Path_10769" data-name="Path 10769" d="M3.883,2.151,5.5,0H3.027L.613,3.227a3.028,3.028,0,1,0,3.27-1.076M3.027,6.077A1.028,1.028,0,1,1,4.057,5.05a1.029,1.029,0,0,1-1.03,1.028" transform="translate(3.469 2.725)" fill="#fff"/>
    </g>
    <path id="Path_10758" data-name="Path 10758" d="M9.722,3.843l-2.5.338A.53.53,0,1,1,7.078,3.13l.761-.1C5.052.691,1.684,1.2.144,3.172A.08.08,0,0,1,0,3.1C.888.5,4.148-1.123,7.83.927q.531.3,1.049.643L8.789.9A.533.533,0,0,1,9.845.756l.334,2.49a.532.532,0,0,1-.457.6h0Z" transform="matrix(0.966, 0.259, -0.259, 0.966, 497.782, 5950.225)" fill="url(#linear-gradient-3)"/>
    <g id="oxid" transform="translate(489 5954.625)">
      <g id="Group_6228" data-name="Group 6228">
        <path id="Path_10760" data-name="Path 10760" d="M108.26,220.34a8.438,8.438,0,0,1,1.141.047.594.594,0,0,1,.544.469,4.662,4.662,0,0,1,.064.926,4.772,4.772,0,0,1-.064.938.594.594,0,0,1-.544.469,8.249,8.249,0,0,1-1.13.047,8.435,8.435,0,0,1-1.141-.047.594.594,0,0,1-.544-.469,3.366,3.366,0,0,1-.085-.95,4.579,4.579,0,0,1,.064-.915.594.594,0,0,1,.544-.469,8.626,8.626,0,0,1,1.152-.047m0,.739a4.267,4.267,0,0,0-.746.035.256.256,0,0,0-.192.176,2.163,2.163,0,0,0-.043.563,2.656,2.656,0,0,0,.021.364.308.308,0,0,0,.277.246c.117.012.341.023.672.023.309,0,.523-.012.629-.023a.407.407,0,0,0,.235-.082.339.339,0,0,0,.1-.164,1.6,1.6,0,0,0,.021-.364,4.113,4.113,0,0,0-.021-.446.473.473,0,0,0-.064-.211.274.274,0,0,0-.2-.106c-.1-.012-.32-.012-.682-.012m1.845-.7h1.066l.789.985.789-.985h1.077l-1.226,1.4,1.29,1.419h-1.1l-.832-1.009-.832,1.009h-1.12l1.311-1.419-1.216-1.4Zm3.945,0h.81v2.814h-.81Zm1.173,2.814v-2.814h1.845c.331,0,.544,0,.64.012a1.735,1.735,0,0,1,.32.047.647.647,0,0,1,.5.481,1.388,1.388,0,0,1,.053.316c.011.117.011.281.011.516s-.011.446-.021.575a1.678,1.678,0,0,1-.064.352.628.628,0,0,1-.469.458,3.2,3.2,0,0,1-.352.058c-.128.012-.331.012-.618.012h-1.845Zm.768-.715h1.087a3.559,3.559,0,0,0,.437-.023.384.384,0,0,0,.2-.071.3.3,0,0,0,.085-.187,1.9,1.9,0,0,0,.021-.387,3.471,3.471,0,0,0-.021-.4.413.413,0,0,0-.075-.2.311.311,0,0,0-.181-.094,3.714,3.714,0,0,0-.48-.023H115.99Z" transform="translate(-106.5 -220.34)" fill="#fff"/>
        <path id="Path_10761" data-name="Path 10761" d="M204.743,325a.321.321,0,0,0-.1-.27.343.343,0,0,0-.17-.071,2.058,2.058,0,0,0-.32-.023,1.564,1.564,0,0,0-.277.023.262.262,0,0,0-.149.071.359.359,0,0,0-.107.27h1.12Zm.011.387h.192a.365.365,0,0,1-.149.328,1.04,1.04,0,0,1-.512.094,4.151,4.151,0,0,1-.459-.023.513.513,0,0,1-.235-.082.688.688,0,0,1-.181-.551.9.9,0,0,1,.075-.434.387.387,0,0,1,.213-.187,1.47,1.47,0,0,1,.458-.047,2,2,0,0,1,.448.035.36.36,0,0,1,.213.141.674.674,0,0,1,.1.2,2.066,2.066,0,0,1,.032.34h-1.322a.549.549,0,0,0,.085.34.246.246,0,0,0,.17.082,2.606,2.606,0,0,0,.384.023,1.66,1.66,0,0,0,.3-.023.23.23,0,0,0,.139-.071.494.494,0,0,0,.053-.164" transform="translate(-199.976 -320.422)" fill="#ce342c"/>
        <path id="Path_10762" data-name="Path 10762" d="M250.812,324.747h.2v.035a.5.5,0,0,0,.021.152.114.114,0,0,0,.085.07,1.733,1.733,0,0,0,.469.035,2.481,2.481,0,0,0,.341-.012.331.331,0,0,0,.139-.047.166.166,0,0,0,.053-.141.19.19,0,0,0-.064-.164.545.545,0,0,0-.245-.047c-.043,0-.224,0-.544-.012a.9.9,0,0,1-.2-.023.34.34,0,0,1-.128-.058.337.337,0,0,1-.1-.27.347.347,0,0,1,.117-.293.389.389,0,0,1,.2-.071,3.356,3.356,0,0,1,.416-.023,2.069,2.069,0,0,1,.448.035.407.407,0,0,1,.213.129.361.361,0,0,1,.043.094.635.635,0,0,1,.011.164h-.2a.237.237,0,0,0-.032-.152.276.276,0,0,0-.149-.058,2.062,2.062,0,0,0-.32-.023,1.137,1.137,0,0,0-.469.058.182.182,0,0,0-.064.152.135.135,0,0,0,.075.141.728.728,0,0,0,.288.035c.139,0,.32,0,.544.012a.378.378,0,0,1,.288.094.362.362,0,0,1,.085.281.446.446,0,0,1-.032.187.219.219,0,0,1-.107.117.557.557,0,0,1-.2.058,3.772,3.772,0,0,1-.405.012,3.714,3.714,0,0,1-.437-.023.47.47,0,0,1-.213-.071.326.326,0,0,1-.1-.117.51.51,0,0,1-.032-.2c-.011,0,0-.023,0-.058" transform="translate(-245.693 -319.845)" fill="#fff"/>
        <path id="Path_10763" data-name="Path 10763" d="M297.715,324.6a2.318,2.318,0,0,0-.331.012c-.064.012-.107.012-.128.035a.192.192,0,0,0-.075.176.2.2,0,0,0,.085.176,1.723,1.723,0,0,0,.48.035.973.973,0,0,0,.394-.047c.064-.023.1-.082.1-.176a.176.176,0,0,0-.107-.176,1.517,1.517,0,0,0-.416-.035m-.48-.316h-.192v-.058a.279.279,0,0,1,.139-.281,1.317,1.317,0,0,1,.523-.071,1.893,1.893,0,0,1,.437.035.433.433,0,0,1,.213.117.474.474,0,0,1,.085.164,2.071,2.071,0,0,1,.021.329v.692h-.192v-.152h-.011a.335.335,0,0,1-.17.141,1.3,1.3,0,0,1-.373.035,4.014,4.014,0,0,1-.437-.012.339.339,0,0,1-.181-.07.221.221,0,0,1-.085-.117.47.47,0,0,1-.021-.187.675.675,0,0,1,.032-.235.193.193,0,0,1,.128-.117,1.2,1.2,0,0,1,.448-.047,3.715,3.715,0,0,1,.48.023.238.238,0,0,1,.17.117h.021v-.176a.453.453,0,0,0-.053-.246.287.287,0,0,0-.149-.094,2,2,0,0,0-.331-.023,1.378,1.378,0,0,0-.394.035c-.064.023-.085.082-.085.176v.023h-.021Z" transform="translate(-290.24 -319.835)" fill="#fff"/>
      </g>
      <rect id="Rectangle_4862" data-name="Rectangle 4862" width="0.192" height="1.888" transform="translate(8.413 3.471)" fill="#fff"/>
      <g id="Group_6229" data-name="Group 6229" transform="translate(8.776 4.035)">
        <path id="Path_10764" data-name="Path 10764" d="M355.513,325a.321.321,0,0,0-.1-.27.343.343,0,0,0-.17-.071,2.01,2.01,0,0,0-.32-.023,1.564,1.564,0,0,0-.277.023.262.262,0,0,0-.149.071.359.359,0,0,0-.107.27h1.12Zm.011.387h.192a.365.365,0,0,1-.149.328,1.04,1.04,0,0,1-.512.094,4.149,4.149,0,0,1-.458-.023.512.512,0,0,1-.235-.082.688.688,0,0,1-.181-.551.9.9,0,0,1,.075-.434.387.387,0,0,1,.213-.187,1.47,1.47,0,0,1,.458-.047,2,2,0,0,1,.448.035.36.36,0,0,1,.213.141.673.673,0,0,1,.1.2,2.07,2.07,0,0,1,.032.34h-1.322a.549.549,0,0,0,.085.34.246.246,0,0,0,.17.082,2.606,2.606,0,0,0,.384.023,1.661,1.661,0,0,0,.3-.023.23.23,0,0,0,.138-.071.493.493,0,0,0,.053-.164" transform="translate(-354.18 -324.457)" fill="#fff"/>
        <path id="Path_10765" data-name="Path 10765" d="M401.41,324.747h.2v.035a.5.5,0,0,0,.021.152.114.114,0,0,0,.085.07,1.732,1.732,0,0,0,.469.035,2.481,2.481,0,0,0,.341-.012.331.331,0,0,0,.139-.047.166.166,0,0,0,.053-.141.19.19,0,0,0-.064-.164.545.545,0,0,0-.245-.047c-.043,0-.224,0-.544-.012a.9.9,0,0,1-.2-.023.341.341,0,0,1-.128-.058.337.337,0,0,1-.1-.27.347.347,0,0,1,.117-.293.389.389,0,0,1,.2-.071,3.355,3.355,0,0,1,.416-.023,2.069,2.069,0,0,1,.448.035.407.407,0,0,1,.213.129.362.362,0,0,1,.043.094.637.637,0,0,1,.011.164h-.2a.237.237,0,0,0-.032-.152.276.276,0,0,0-.149-.058,2.066,2.066,0,0,0-.32-.023,1.137,1.137,0,0,0-.469.058.182.182,0,0,0-.064.152.135.135,0,0,0,.075.141.728.728,0,0,0,.288.035c.139,0,.32,0,.544.012a.425.425,0,0,1,.3.094.362.362,0,0,1,.085.281.447.447,0,0,1-.032.187.219.219,0,0,1-.107.117.557.557,0,0,1-.2.058,3.772,3.772,0,0,1-.405.012,3.712,3.712,0,0,1-.437-.023.47.47,0,0,1-.213-.071.326.326,0,0,1-.1-.117.51.51,0,0,1-.032-.2c-.011,0-.011-.023-.011-.058" transform="translate(-399.737 -323.88)" fill="#fff"/>
      </g>
    </g>
  </g>
</svg>
