<svg xmlns="http://www.w3.org/2000/svg" xmlns:xlink="http://www.w3.org/1999/xlink" width="291" height="56" viewBox="0 0 291 56">
  <defs>
    <linearGradient id="linear-gradient" x1="0.164" y1="0.5" x2="1" y2="0.5" gradientUnits="objectBoundingBox">
      <stop offset="0" stop-color="#eff7ef"/>
      <stop offset="1" stop-color="#d7def5"/>
    </linearGradient>
  </defs>
  <g id="Group_11408" data-name="Group 11408" transform="translate(-1096 -229)">
    <rect id="Rectangle_6529" data-name="Rectangle 6529" width="291" height="56" rx="12" transform="translate(1096 229)" fill="url(#linear-gradient)"/>
    <g id="Group_11411" data-name="Group 11411" transform="translate(0 3)">
      <g id="Group_11406" data-name="Group 11406" transform="translate(1168 244)">
        <g id="Group_415" data-name="Group 415" transform="translate(0 0)">
          <path id="Path_90" data-name="Path 90" d="M31.666,10.386c-.76-.4-1.121-.769-1.121-1.208,0-.586.543-.989,1.375-.989a4.653,4.653,0,0,1,1.845.4L34.452,6.5a4.335,4.335,0,0,0-2.46-.476c-2.532,0-4.305,1.465-4.305,3.552A3.274,3.274,0,0,0,29.6,12.29c.9.513,1.194.879,1.194,1.391,0,.549-.434,1.025-1.266,1.025a6.617,6.617,0,0,1-2.424-.659l-.724,2.087a5.3,5.3,0,0,0,2.858.732c2.6,0,4.522-1.318,4.522-3.662A3.544,3.544,0,0,0,31.666,10.386ZM42.085,5.956A3.841,3.841,0,0,0,39.01,7.53h-.036L40.1,1.6H37.2L34.343,16.684h2.894l.977-5.163c.362-1.941,1.375-3.149,2.315-3.149.651,0,.9.439.9,1.1a5.457,5.457,0,0,1-.145,1.318l-1.085,5.9H43.1l1.122-6.078a11.383,11.383,0,0,0,.217-1.941C44.473,6.944,43.6,5.956,42.085,5.956Zm8.972,0c-3.509,0-5.825,3.186-5.825,6.774a3.838,3.838,0,0,0,4.016,4.138c3.437,0,5.752-3.112,5.752-6.774A3.775,3.775,0,0,0,51.057,5.956ZM49.646,14.6c-1.013,0-1.411-.842-1.411-1.941,0-1.684.868-4.431,2.46-4.431,1.013,0,1.375.915,1.375,1.794C52.07,11.814,51.166,14.6,49.646,14.6ZM62.489,5.956a3.99,3.99,0,0,0-3.075,1.758h-.036l.181-1.575h-2.6c-.145,1.062-.362,2.71-.579,3.918l-2.026,10.8h2.894l.832-4.357h.072a3.052,3.052,0,0,0,1.7.366c3.437,0,5.68-3.552,5.68-7.14C65.492,7.75,64.624,5.956,62.489,5.956ZM59.7,14.634a1.785,1.785,0,0,1-1.194-.439l.47-2.746c.326-1.868,1.3-3.076,2.315-3.076.9,0,1.158.842,1.158,1.611C62.453,11.924,61.332,14.634,59.7,14.634ZM69.653,1.745a1.67,1.67,0,0,0-1.664,1.684v.037a1.331,1.331,0,0,0,1.23,1.465H69.4a1.631,1.631,0,0,0,1.7-1.575v-.11a1.335,1.335,0,0,0-1.266-1.465A.323.323,0,0,0,69.653,1.745Zm-4.088,14.9h2.894L70.412,6.175h-2.93Zm12.3-10.473H75.839l.109-.476c.181-1.025.76-1.9,1.736-1.9a2.8,2.8,0,0,1,.941.146L79.2,1.635a3.933,3.933,0,0,0-1.592-.256,4.257,4.257,0,0,0-2.858.989,5.586,5.586,0,0,0-1.7,3.332l-.072.476H71.606l-.434,2.234h1.375l-1.556,8.239h2.894l1.556-8.239h2.026Zm7.019,0s-1.809,4.65-2.641,7.214h-.036c-.072-.842-.724-7.214-.724-7.214H78.408l1.773,9.594a.739.739,0,0,1-.072.476,5.4,5.4,0,0,1-1.592,1.794,5.954,5.954,0,0,1-1.664.842l.832,2.49a6.549,6.549,0,0,0,2.858-1.611A19.263,19.263,0,0,0,84.377,13.9l3.545-7.763Z" transform="translate(-26.384 -1.371)"/>
        </g>
      </g>
      <path id="Path_14363" data-name="Path 14363" d="M-63.17-10.119a.453.453,0,0,1-.12.138.263.263,0,0,1-.157.046.439.439,0,0,1-.246-.1q-.142-.1-.354-.231a2.846,2.846,0,0,0-.511-.231,2.2,2.2,0,0,0-.723-.1,2.111,2.111,0,0,0-.7.108,1.509,1.509,0,0,0-.511.292,1.2,1.2,0,0,0-.311.434,1.377,1.377,0,0,0-.1.538,1,1,0,0,0,.182.612,1.564,1.564,0,0,0,.48.415,3.677,3.677,0,0,0,.677.3l.775.262q.4.135.775.3a2.727,2.727,0,0,1,.677.428,1.95,1.95,0,0,1,.48.634,2.109,2.109,0,0,1,.182.923,2.977,2.977,0,0,1-.2,1.086,2.5,2.5,0,0,1-.575.883,2.692,2.692,0,0,1-.929.591,3.418,3.418,0,0,1-1.252.215A3.818,3.818,0,0,1-67.2-2.891a3.668,3.668,0,0,1-1.2-.84l.345-.566a.453.453,0,0,1,.12-.114.281.281,0,0,1,.157-.046.349.349,0,0,1,.182.065q.1.065.231.163t.3.215a2.441,2.441,0,0,0,.378.215,2.562,2.562,0,0,0,.483.163,2.631,2.631,0,0,0,.609.065,2.273,2.273,0,0,0,.757-.117,1.608,1.608,0,0,0,.563-.329,1.426,1.426,0,0,0,.354-.508,1.7,1.7,0,0,0,.123-.658,1.1,1.1,0,0,0-.182-.655,1.5,1.5,0,0,0-.477-.428,3.313,3.313,0,0,0-.677-.292l-.775-.246A8.226,8.226,0,0,1-66.69-7.1a2.5,2.5,0,0,1-.677-.431,1.979,1.979,0,0,1-.477-.662,2.356,2.356,0,0,1-.182-.982,2.336,2.336,0,0,1,.182-.9,2.31,2.31,0,0,1,.529-.775,2.585,2.585,0,0,1,.855-.542,3.122,3.122,0,0,1,1.166-.2,3.708,3.708,0,0,1,1.345.234,3.176,3.176,0,0,1,1.068.677Zm7.606,6.468-.006.972H-61V-11.5h5.434v.972h-4.24V-7.6h3.434v.935H-59.81v3.009Zm4.111-3.575a3.018,3.018,0,0,0,.914-.126,1.872,1.872,0,0,0,.665-.357,1.48,1.48,0,0,0,.4-.551,1.8,1.8,0,0,0,.135-.708,1.409,1.409,0,0,0-.517-1.188,2.511,2.511,0,0,0-1.551-.4h-1.3v3.329Zm4.074,4.548h-1.058a.522.522,0,0,1-.48-.252l-2.289-3.151a.679.679,0,0,0-.225-.212.818.818,0,0,0-.372-.065h-.9v3.68H-53.9V-11.5H-51.4a5.446,5.446,0,0,1,1.446.169,2.76,2.76,0,0,1,1.006.489,1.959,1.959,0,0,1,.588.772,2.581,2.581,0,0,1,.191,1.012,2.538,2.538,0,0,1-.148.874,2.308,2.308,0,0,1-.428.729,2.559,2.559,0,0,1-.683.551,3.382,3.382,0,0,1-.914.345,1.179,1.179,0,0,1,.394.375Zm8.135-8.818-3.594,8.818h-1.071L-47.5-11.5h.954a.4.4,0,0,1,.258.08.492.492,0,0,1,.148.2l2.486,6.222q.08.209.157.455t.138.517q.062-.271.129-.517t.148-.455l2.48-6.222a.45.45,0,0,1,.145-.194A.4.4,0,0,1-40.2-11.5Zm2.357,8.818h-1.194V-11.5h1.194ZM-28.444-4.5a.228.228,0,0,1,.172.08l.474.511a3.773,3.773,0,0,1-1.314.978,4.5,4.5,0,0,1-1.868.351A4.366,4.366,0,0,1-32.7-2.91a3.79,3.79,0,0,1-1.323-.923,4.173,4.173,0,0,1-.849-1.425,5.322,5.322,0,0,1-.3-1.828,5.133,5.133,0,0,1,.314-1.828,4.183,4.183,0,0,1,.883-1.428,3.949,3.949,0,0,1,1.363-.926,4.535,4.535,0,0,1,1.754-.329,4.273,4.273,0,0,1,1.662.3,4.183,4.183,0,0,1,1.268.818l-.394.548a.323.323,0,0,1-.1.1.274.274,0,0,1-.157.04.488.488,0,0,1-.271-.12,4.113,4.113,0,0,0-.418-.268,3.249,3.249,0,0,0-.646-.268,3.264,3.264,0,0,0-.954-.12,3.2,3.2,0,0,0-1.249.237,2.727,2.727,0,0,0-.975.686,3.166,3.166,0,0,0-.637,1.1,4.371,4.371,0,0,0-.228,1.458,4.254,4.254,0,0,0,.237,1.471,3.247,3.247,0,0,0,.646,1.092,2.731,2.731,0,0,0,.966.68,3.076,3.076,0,0,0,1.2.234,4.963,4.963,0,0,0,.711-.046A2.9,2.9,0,0,0-29.61-3.8a2.461,2.461,0,0,0,.5-.249,3.551,3.551,0,0,0,.458-.36A.318.318,0,0,1-28.444-4.5Zm7.471.849-.006.972h-5.434V-11.5h5.434v.972h-4.24V-7.6h3.434v.935h-3.434v3.009Zm6.629-3.514a1.7,1.7,0,0,0,1.271-.418,1.581,1.581,0,0,0,.4-1.145,1.732,1.732,0,0,0-.1-.606A1.209,1.209,0,0,0-13.08-9.8a1.386,1.386,0,0,0-.52-.3,2.363,2.363,0,0,0-.745-.1h-1.169v3.04Zm0-4.443a5.184,5.184,0,0,1,1.585.215,3.014,3.014,0,0,1,1.1.6,2.357,2.357,0,0,1,.637.914,3.143,3.143,0,0,1,.206,1.151,3.269,3.269,0,0,1-.215,1.206,2.466,2.466,0,0,1-.652.942,3.036,3.036,0,0,1-1.1.612,5,5,0,0,1-1.557.218h-1.169v3.071H-17.36v-8.929ZM-5.55-6.07-6.517-8.8q-.086-.215-.182-.5t-.182-.628q-.086.345-.182.637t-.182.508L-8.2-6.07Zm3.1,3.391H-3.883a.631.631,0,0,1-.391-.114A.69.69,0,0,1-4.5-3.085l-.6-1.7H-8.658l-.6,1.7a.7.7,0,0,1-.215.28.591.591,0,0,1-.388.126H-11.31l3.489-8.929h1.889ZM1.17-7.38a2.359,2.359,0,0,0,.775-.114,1.457,1.457,0,0,0,.535-.314,1.22,1.22,0,0,0,.308-.471,1.717,1.717,0,0,0,.1-.591,1.21,1.21,0,0,0-.422-.985A1.975,1.975,0,0,0,1.182-10.2H.222V-7.38ZM5.5-2.679H3.828a.725.725,0,0,1-.677-.357l-1.7-2.738a.718.718,0,0,0-.231-.234A.751.751,0,0,0,.85-6.082H.222v3.4H-1.624v-8.929H1.182a5.767,5.767,0,0,1,1.6.194,3.075,3.075,0,0,1,1.089.538,2.062,2.062,0,0,1,.622.822A2.723,2.723,0,0,1,4.69-9a2.757,2.757,0,0,1-.126.84,2.476,2.476,0,0,1-.366.723,2.64,2.64,0,0,1-.591.578,3.055,3.055,0,0,1-.8.406,1.783,1.783,0,0,1,.332.237,1.624,1.624,0,0,1,.277.329Zm6.985-7.44H9.871v7.44H8.019v-7.44H5.41v-1.489H12.48Zm8.763-1.489v8.929H20.29a.836.836,0,0,1-.363-.071.878.878,0,0,1-.289-.243L15.188-8.654q.018.215.028.425t.009.388v5.163H13.594v-8.929h.972a1.847,1.847,0,0,1,.2.009.444.444,0,0,1,.151.043.584.584,0,0,1,.129.089,1.257,1.257,0,0,1,.135.148l4.48,5.686q-.025-.234-.037-.452T19.613-6.5v-5.108Zm3.729,1.446v2.3h2.978v1.4H24.973v2.345H28.8v1.446H23.114v-8.929H28.8v1.446Zm8,2.782a2.359,2.359,0,0,0,.775-.114,1.457,1.457,0,0,0,.535-.314,1.22,1.22,0,0,0,.308-.471,1.717,1.717,0,0,0,.1-.591,1.21,1.21,0,0,0-.422-.985,1.975,1.975,0,0,0-1.283-.351h-.96V-7.38Zm4.326,4.7H35.631a.725.725,0,0,1-.677-.357l-1.7-2.738a.718.718,0,0,0-.231-.234.751.751,0,0,0-.372-.074h-.628v3.4H30.179v-8.929h2.806a5.767,5.767,0,0,1,1.6.194,3.075,3.075,0,0,1,1.089.538,2.062,2.062,0,0,1,.622.822A2.723,2.723,0,0,1,36.493-9a2.757,2.757,0,0,1-.126.84A2.476,2.476,0,0,1,36-7.442a2.64,2.64,0,0,1-.591.578,3.055,3.055,0,0,1-.8.406,1.783,1.783,0,0,1,.332.237,1.623,1.623,0,0,1,.277.329Z" transform="translate(1307.631 262.063)" fill="#0a1128"/>
    </g>
    <path id="Rectangle_6532" data-name="Rectangle 6532" d="M12,0H56a0,0,0,0,1,0,0V56a0,0,0,0,1,0,0H12A12,12,0,0,1,0,44V12A12,12,0,0,1,12,0Z" transform="translate(1096 229)" fill="#fff"/>
    <g id="shopify" transform="translate(1106.5 237)">
      <path id="Path_10797" data-name="Path 10797" d="M1376.66,2158.36l-3.328,19.933s8.485,1.789,10.848,2.11,5.927-3.947,6.193-4.864.78-14.888.861-15.486-1.171-5.883-1.171-5.883Z" transform="translate(-1370.499 -2145)" fill="#fff"/>
      <g id="shopify_logo" transform="translate(0 0)">
        <path id="Subtraction_1" data-name="Subtraction 1" d="M22.7,40h0L0,35.714c0-.035.07-.555.18-1.419C1.995,20.118,2.957,12.707,3.039,12.266l0-.02c.146-1.026.152-1.066,1.271-1.41l.655-.207c.632-.2,1.662-.523,2.925-.925a20.011,20.011,0,0,1,2.555-6.071C12.064,1.222,14.025,0,16.275,0a2.729,2.729,0,0,1,2.058,1.183h.2c1.824,0,3.226,1.343,4.166,3.99.681-.245,1.172-.393,1.177-.395a1.008,1.008,0,0,1,.323-.051,1.1,1.1,0,0,1,.559.15c.292.244,2.38,2.343,2.4,2.364.026,0,3.04.247,3.186.247a.327.327,0,0,1,.343.3c0,.131,1.925,13.259,3.2,21.946l.01.071c.616,4.2,1.1,7.518,1.1,7.538L22.7,40ZM6.47,27.471,5.44,30.92a7.964,7.964,0,0,0,5.706,2.414h.178c3.371,0,5.636-2.514,5.636-6.255,0-2.918-1.939-4.351-3.5-5.5-.991-.732-1.847-1.365-1.847-2.183,0-.578.244-1.922,2.5-1.922a7.674,7.674,0,0,1,2.942.739l1.47-4.531a5.889,5.889,0,0,0-2.534-.613c-.153,0-.306.007-.456.022-5.523,0-8.039,3.8-8.039,7.34,0,2.487,1.371,3.607,2.58,4.6.957.782,1.783,1.457,1.783,2.646v.1a1.55,1.55,0,0,1-1.528,1.481l-.089,0C8.549,29.245,6.491,27.489,6.47,27.471ZM16.176,1.379c-1.645,0-3.123.947-4.393,2.814A18.113,18.113,0,0,0,9.559,9.261c.6-.212,1.233-.4,1.9-.6.407-.123.824-.249,1.237-.381.8-4.264,2.678-5.97,4.117-6.65A1.016,1.016,0,0,0,16.176,1.379Zm1.472,1.428c-.735.325-2.545,1.457-3.481,4.926.938-.3,1.854-.583,2.741-.854q.622-.19,1.229-.377V6.257a9.182,9.182,0,0,0-.489-3.449Zm1.422-.3a8.353,8.353,0,0,1,.489,3.1v.444c.339-.1.675-.205,1-.31s.64-.207.913-.281C20.867,3.65,20.082,2.682,19.07,2.512Z" fill="#99b856"/>
        <path id="Path_81" data-name="Path 81" d="M22.33,5.886c-.147,0-3.186-.246-3.186-.246s-2.108-2.118-2.4-2.364a.423.423,0,0,0-.294-.148L14.732,38.4l12.3-2.66S22.722,6.378,22.722,6.181A.763.763,0,0,0,22.33,5.886Z" transform="translate(7.964 1.553)" fill="#668946"/>
      </g>
    </g>
  </g>
</svg>
