<svg xmlns="http://www.w3.org/2000/svg" xmlns:xlink="http://www.w3.org/1999/xlink" width="291" height="56" viewBox="0 0 291 56">
  <defs>
    <linearGradient id="linear-gradient" x1="0.164" y1="0.5" x2="1" y2="0.5" gradientUnits="objectBoundingBox">
      <stop offset="0" stop-color="#f5eff7"/>
      <stop offset="1" stop-color="#d7def5"/>
    </linearGradient>
  </defs>
  <g id="Group_11407" data-name="Group 11407" transform="translate(-1096 -329)">
    <rect id="Rectangle_6530" data-name="Rectangle 6530" width="291" height="56" rx="12" transform="translate(1096 329)" fill="url(#linear-gradient)"/>
    <g id="Group_11410" data-name="Group 11410" transform="translate(0 2)">
      <path id="Path_13971" data-name="Path 13971" d="M244.878,278.528l-3.4-4.6a.438.438,0,0,1,.34-.748h1.754a.716.716,0,0,1,.622.288l2.15,3.108,2.207-3.108a.726.726,0,0,1,.623-.288h1.754c.453,0,.566.345.339.69l-3.4,4.6,3.4,4.892c.226.345.113.691-.339.691h-1.7a.621.621,0,0,1-.566-.345l-2.32-3.338-2.433,3.51a.5.5,0,0,1-.453.23h-1.811c-.453,0-.566-.345-.34-.691Zm13.827-5.582a4.863,4.863,0,0,1,4.923,5.006l-.057.748a.465.465,0,0,1-.509.46h-7.243a3.138,3.138,0,0,0,3.056,2.935,4.425,4.425,0,0,0,2.377-.806c.34-.173.509-.288.736,0l.736,1.036c.17.23.283.46-.057.691A5.991,5.991,0,0,1,258.7,284.4a5.406,5.406,0,0,1-5.376-5.7c0-3.165,2.15-5.755,5.376-5.755Zm2.433,4.488a2.5,2.5,0,0,0-2.433-2.417,2.673,2.673,0,0,0-2.716,2.417Zm5.055-3.741a.511.511,0,0,1,.509-.518h.792a.431.431,0,0,1,.453.345l.34.921a5.292,5.292,0,0,1,3.735-1.5c3.282,0,4.471,2.359,4.471,5.179v5.467a.512.512,0,0,1-.509.518h-1.528a.512.512,0,0,1-.509-.518V278.01c0-1.726-.849-2.7-2.207-2.7a3.492,3.492,0,0,0-2.943,1.611v6.618c0,.345-.17.518-.622.518h-1.415a.512.512,0,0,1-.509-.518v-9.841Zm22.881,0a.511.511,0,0,1,.509-.518h.792a.539.539,0,0,1,.453.4l.283.921a3.735,3.735,0,0,1,3.112-1.554c1.019,0,2.263.288,1.981.978l-.622,1.323a.43.43,0,0,1-.622.23,3.175,3.175,0,0,0-.905-.172,2.973,2.973,0,0,0-2.433,1.323v6.906c0,.46-.283.518-.736.518h-1.3a.512.512,0,0,1-.509-.518Zm21.579-4.776a.511.511,0,0,1,.509-.518h1.528a.512.512,0,0,1,.509.518v14.636a.512.512,0,0,1-.509.518h-1.528a.511.511,0,0,1-.509-.518Zm-24.579,4.028h-2.32v-4.028a.511.511,0,0,0-.509-.518h-1.528a.512.512,0,0,0-.509.518v4.028h-2.32a.511.511,0,0,0-.509.518v1.209a.511.511,0,0,0,.509.518h2.32v8.4a.512.512,0,0,0,.509.518h1.528a.511.511,0,0,0,.509-.518v-8.459h2.32a.511.511,0,0,0,.509-.518v-1.209a.5.5,0,0,0-.509-.46Zm20.617.23h-1.245a.511.511,0,0,0-.509.518v.173a4.854,4.854,0,0,0-3-.978,5.734,5.734,0,0,0,0,11.452,4.939,4.939,0,0,0,3-.978v.173a.511.511,0,0,0,.509.518h1.245a.512.512,0,0,0,.509-.518v-9.841a.605.605,0,0,0-.509-.518Zm-4.753,8.8a3.389,3.389,0,0,1,0-6.733,3.142,3.142,0,0,1,3,2.935v.748a3.2,3.2,0,0,1-3,3.05Zm0,0" transform="translate(926.8 78.6)" fill="#010101"/>
      <path id="Path_14364" data-name="Path 14364" d="M-62.961-10.059a.471.471,0,0,1-.125.144.273.273,0,0,1-.163.048.457.457,0,0,1-.256-.109q-.147-.109-.368-.24a2.961,2.961,0,0,0-.531-.24,2.286,2.286,0,0,0-.752-.109,2.2,2.2,0,0,0-.733.112,1.57,1.57,0,0,0-.531.3,1.248,1.248,0,0,0-.323.451,1.432,1.432,0,0,0-.109.56,1.035,1.035,0,0,0,.189.637,1.626,1.626,0,0,0,.5.432,3.825,3.825,0,0,0,.7.31q.394.131.806.272t.806.317a2.836,2.836,0,0,1,.7.445,2.028,2.028,0,0,1,.5.659,2.194,2.194,0,0,1,.189.96,3.1,3.1,0,0,1-.2,1.13,2.6,2.6,0,0,1-.6.918,2.8,2.8,0,0,1-.966.614,3.555,3.555,0,0,1-1.3.224,3.971,3.971,0,0,1-1.626-.323A3.814,3.814,0,0,1-68.4-3.416L-68.042-4a.471.471,0,0,1,.125-.118.292.292,0,0,1,.163-.048.363.363,0,0,1,.189.067q.106.067.24.17t.307.224a2.539,2.539,0,0,0,.394.224,2.664,2.664,0,0,0,.5.17,2.736,2.736,0,0,0,.634.067,2.364,2.364,0,0,0,.787-.122,1.672,1.672,0,0,0,.586-.342,1.483,1.483,0,0,0,.368-.528,1.764,1.764,0,0,0,.128-.685,1.149,1.149,0,0,0-.189-.682,1.565,1.565,0,0,0-.5-.445,3.446,3.446,0,0,0-.7-.3l-.806-.256a8.555,8.555,0,0,1-.806-.3,2.605,2.605,0,0,1-.7-.448,2.059,2.059,0,0,1-.5-.688,2.451,2.451,0,0,1-.189-1.021,2.429,2.429,0,0,1,.189-.941,2.4,2.4,0,0,1,.55-.806,2.689,2.689,0,0,1,.89-.563,3.247,3.247,0,0,1,1.213-.211,3.856,3.856,0,0,1,1.4.243,3.3,3.3,0,0,1,1.11.7Zm7.91,6.726-.006,1.011h-5.651v-9.171h5.651v1.011h-4.41v3.046H-55.9v.973h-3.571v3.13Zm4.275-3.718a3.139,3.139,0,0,0,.95-.131,1.947,1.947,0,0,0,.691-.371,1.54,1.54,0,0,0,.419-.573,1.87,1.87,0,0,0,.141-.736,1.465,1.465,0,0,0-.538-1.235,2.611,2.611,0,0,0-1.613-.416h-1.357v3.462Zm4.237,4.73h-1.1a.543.543,0,0,1-.5-.262l-2.381-3.277a.706.706,0,0,0-.234-.221.851.851,0,0,0-.387-.067h-.941v3.827h-1.235v-9.171h2.592a5.664,5.664,0,0,1,1.5.176,2.87,2.87,0,0,1,1.046.509,2.037,2.037,0,0,1,.611.8,2.684,2.684,0,0,1,.2,1.053,2.639,2.639,0,0,1-.154.909,2.4,2.4,0,0,1-.445.758,2.661,2.661,0,0,1-.71.573,3.517,3.517,0,0,1-.95.358,1.226,1.226,0,0,1,.41.39Zm8.461-9.171-3.738,9.171h-1.114l-3.738-9.171h.992a.413.413,0,0,1,.269.083.512.512,0,0,1,.154.211l2.586,6.47q.083.218.163.474t.144.538q.064-.282.134-.538t.154-.474l2.579-6.47a.468.468,0,0,1,.15-.2.412.412,0,0,1,.272-.093Zm2.451,9.171h-1.242v-9.171h1.242Zm8.781-1.894a.237.237,0,0,1,.179.083l.493.531A3.924,3.924,0,0,1-27.54-2.584a4.676,4.676,0,0,1-1.942.365,4.541,4.541,0,0,1-1.792-.342,3.941,3.941,0,0,1-1.376-.96A4.34,4.34,0,0,1-33.533-5a5.535,5.535,0,0,1-.314-1.9,5.339,5.339,0,0,1,.326-1.9A4.35,4.35,0,0,1-32.6-10.29a4.107,4.107,0,0,1,1.418-.963,4.717,4.717,0,0,1,1.824-.342,4.443,4.443,0,0,1,1.728.314,4.35,4.35,0,0,1,1.318.851l-.41.57a.335.335,0,0,1-.1.106.285.285,0,0,1-.163.042.508.508,0,0,1-.282-.125,4.278,4.278,0,0,0-.435-.278,3.379,3.379,0,0,0-.672-.278,3.4,3.4,0,0,0-.992-.125,3.333,3.333,0,0,0-1.3.246,2.836,2.836,0,0,0-1.014.714,3.292,3.292,0,0,0-.662,1.139A4.546,4.546,0,0,0-32.58-6.9a4.424,4.424,0,0,0,.246,1.53,3.377,3.377,0,0,0,.672,1.136,2.84,2.84,0,0,0,1,.707,3.2,3.2,0,0,0,1.251.243,5.161,5.161,0,0,0,.739-.048,3.018,3.018,0,0,0,.608-.15,2.56,2.56,0,0,0,.518-.259,3.693,3.693,0,0,0,.477-.374A.331.331,0,0,1-26.845-4.216Zm7.77.883-.006,1.011h-5.651v-9.171h5.651v1.011h-4.41v3.046h3.571v.973h-3.571v3.13Zm6.894-3.654a1.764,1.764,0,0,0,1.322-.435,1.644,1.644,0,0,0,.419-1.19,1.8,1.8,0,0,0-.106-.63,1.258,1.258,0,0,0-.32-.486,1.442,1.442,0,0,0-.541-.31,2.457,2.457,0,0,0-.774-.109H-13.4v3.162Zm0-4.621a5.392,5.392,0,0,1,1.648.224,3.134,3.134,0,0,1,1.142.624,2.451,2.451,0,0,1,.662.95,3.269,3.269,0,0,1,.214,1.2,3.4,3.4,0,0,1-.224,1.254,2.565,2.565,0,0,1-.678.979,3.158,3.158,0,0,1-1.146.637,5.2,5.2,0,0,1-1.619.227H-13.4v3.194h-1.92v-9.286Zm9.146,5.76-1-2.842q-.09-.224-.189-.525t-.189-.653q-.09.358-.189.662t-.189.528l-1,2.829ZM.189-2.322H-1.3a.656.656,0,0,1-.406-.118.717.717,0,0,1-.234-.3l-.627-1.773h-3.7L-6.9-2.744a.731.731,0,0,1-.224.291.615.615,0,0,1-.4.131h-1.5L-5.4-11.608h1.965Zm3.763-4.89a2.453,2.453,0,0,0,.806-.118,1.515,1.515,0,0,0,.557-.326,1.268,1.268,0,0,0,.32-.49,1.785,1.785,0,0,0,.1-.614A1.258,1.258,0,0,0,5.3-9.784a2.054,2.054,0,0,0-1.334-.365h-1v2.938Zm4.5,4.89H6.717a.754.754,0,0,1-.7-.371L4.247-5.541a.746.746,0,0,0-.24-.243.781.781,0,0,0-.387-.077H2.967v3.539H1.047v-9.286H3.965a6,6,0,0,1,1.664.2,3.2,3.2,0,0,1,1.133.56,2.145,2.145,0,0,1,.646.854,2.832,2.832,0,0,1,.2,1.091,2.867,2.867,0,0,1-.131.874,2.575,2.575,0,0,1-.381.752,2.745,2.745,0,0,1-.614.6,3.178,3.178,0,0,1-.832.422A1.854,1.854,0,0,1,6-6a1.689,1.689,0,0,1,.288.342Zm7.264-7.738H13v7.738H11.076v-7.738H8.362v-1.549h7.354Zm9.114-1.549v9.286h-.992A.87.87,0,0,1,23.46-2.4a.914.914,0,0,1-.3-.253L18.532-8.536q.019.224.029.442t.01.4v5.37h-1.7v-9.286h1.011a1.922,1.922,0,0,1,.208.01.462.462,0,0,1,.157.045.607.607,0,0,1,.134.093,1.306,1.306,0,0,1,.141.154l4.659,5.914q-.026-.243-.038-.47T23.134-6.3v-5.312Zm3.878,1.5v2.387h3.1v1.453h-3.1v2.438h3.981v1.5H26.775v-9.286h5.914v1.5Zm8.32,2.893a2.453,2.453,0,0,0,.806-.118,1.515,1.515,0,0,0,.557-.326,1.269,1.269,0,0,0,.32-.49,1.785,1.785,0,0,0,.1-.614,1.258,1.258,0,0,0-.438-1.024,2.054,2.054,0,0,0-1.334-.365h-1v2.938Zm4.5,4.89H39.793a.754.754,0,0,1-.7-.371L37.322-5.541a.746.746,0,0,0-.24-.243.781.781,0,0,0-.387-.077h-.653v3.539h-1.92v-9.286h2.918a6,6,0,0,1,1.664.2,3.2,3.2,0,0,1,1.133.56,2.144,2.144,0,0,1,.646.854,2.832,2.832,0,0,1,.2,1.091,2.867,2.867,0,0,1-.131.874,2.575,2.575,0,0,1-.381.752,2.745,2.745,0,0,1-.614.6,3.178,3.178,0,0,1-.832.422A1.854,1.854,0,0,1,39.076-6a1.688,1.688,0,0,1,.288.342Z" transform="translate(1318.48 362.922)" fill="#0a1128"/>
    </g>
    <path id="Rectangle_6531" data-name="Rectangle 6531" d="M12,0H56a0,0,0,0,1,0,0V56a0,0,0,0,1,0,0H12A12,12,0,0,1,0,44V12A12,12,0,0,1,12,0Z" transform="translate(1096 329)" fill="#fff"/>
    <g id="Group_11286" data-name="Group 11286" transform="translate(1108 341)">
      <path id="Path_13972" data-name="Path 13972" d="M60.333,252.829h-.061c-3.16,0-5.894-2.376-7.96-4.386l-2.005-2.01a2.065,2.065,0,1,1,2.916-2.924l2.005,2.01c1.4,1.4,3.4,3.228,5.043,3.228h.122c1.641,0,3.646-1.827,5.043-3.228l2.005-2.01a2.065,2.065,0,1,1,2.916,2.924l-2.005,2.01c-2.127,2.071-4.922,4.386-8.02,4.386Zm0,0" transform="translate(-44.272 -242.9)" fill="#e45fc0"/>
      <path id="Path_13973" data-name="Path 13973" d="M68.6,361.524a1.972,1.972,0,0,1-1.458-.609l-2.005-2.01c-1.4-1.4-3.4-3.228-5.043-3.228h-.122c-1.641,0-3.646,1.827-5.043,3.228l-2.005,2.01a2.065,2.065,0,0,1-2.916-2.924l2.005-2.01c2.066-2.071,4.8-4.447,7.96-4.386h.061c3.16,0,5.894,2.376,7.96,4.386L70,357.991a2.063,2.063,0,0,1,0,2.924,1.757,1.757,0,0,1-1.4.609Zm0,0" transform="translate(-44.033 -329.524)" fill="#00e1e0"/>
      <path id="Path_13974" data-name="Path 13974" d="M24.966,290.659a1.972,1.972,0,0,1-1.458-.609,2.062,2.062,0,0,1,0-2.924l2.005-2.01c1.4-1.4,3.22-3.411,3.22-5.056V280c0-1.645-1.823-3.716-3.22-5.056l-2.005-2.01a2.065,2.065,0,0,1,2.916-2.924l2.005,2.01c2.066,2.071,4.435,4.812,4.375,7.98,0,3.167-2.37,5.909-4.375,7.98l-2.005,2.071a1.882,1.882,0,0,1-1.458.609Zm0,0" transform="translate(-22.9 -264.019)" fill="#455be6"/>
      <path id="Path_13975" data-name="Path 13975" d="M139.834,290.9a1.972,1.972,0,0,1-1.458-.609l-2.005-2.01c-2.066-2.071-4.436-4.812-4.375-7.98,0-3.167,2.37-5.909,4.375-7.98l2.005-2.01a2.065,2.065,0,0,1,2.917,2.924l-2.005,2.01c-1.4,1.4-3.22,3.411-3.22,5.056v.061c0,1.645,1.823,3.716,3.22,5.056l2.005,2.01a2.063,2.063,0,0,1,0,2.924,2.175,2.175,0,0,1-1.458.548Zm0,0" transform="translate(-109.899 -264.258)" fill="#27e7a2"/>
    </g>
  </g>
</svg>
