<svg xmlns="http://www.w3.org/2000/svg" xmlns:xlink="http://www.w3.org/1999/xlink" width="291" height="56" viewBox="0 0 291 56">
  <defs>
    <linearGradient id="linear-gradient" x1="0.164" y1="0.5" x2="1" y2="0.5" gradientUnits="objectBoundingBox">
      <stop offset="0" stop-color="#f7f5ef"/>
      <stop offset="1" stop-color="#d7def5"/>
    </linearGradient>
  </defs>
  <g id="Group_11409" data-name="Group 11409" transform="translate(-1096 -142)">
    <rect id="Rectangle_6459" data-name="Rectangle 6459" width="291" height="56" rx="12" transform="translate(1096 142)" fill="url(#linear-gradient)"/>
    <g id="Group_11412" data-name="Group 11412" transform="translate(0.199 3)">
      <path id="Path_14362" data-name="Path 14362" d="M-65-3.626a2.931,2.931,0,0,0,.88-.117,1.633,1.633,0,0,0,.606-.329,1.277,1.277,0,0,0,.348-.5,1.8,1.8,0,0,0,.111-.643,1.32,1.32,0,0,0-.486-1.08A2.27,2.27,0,0,0-65-6.7h-1.908v3.071Zm-1.908-6.929v3.009h1.575a3.091,3.091,0,0,0,.877-.111,1.767,1.767,0,0,0,.615-.308,1.2,1.2,0,0,0,.36-.477,1.573,1.573,0,0,0,.117-.612,1.35,1.35,0,0,0-.468-1.142,2.379,2.379,0,0,0-1.452-.36Zm1.625-.942a5.377,5.377,0,0,1,1.4.16,2.711,2.711,0,0,1,.966.455,1.771,1.771,0,0,1,.557.723,2.48,2.48,0,0,1,.178.963,1.926,1.926,0,0,1-.1.625,1.874,1.874,0,0,1-.3.557,2.173,2.173,0,0,1-.514.465,2.814,2.814,0,0,1-.729.335,2.663,2.663,0,0,1,1.462.692,1.839,1.839,0,0,1,.489,1.332,2.477,2.477,0,0,1-.206,1.022,2.189,2.189,0,0,1-.6.794,2.81,2.81,0,0,1-.975.514,4.4,4.4,0,0,1-1.317.182H-68.1V-11.5ZM-57.7-7.226a3.018,3.018,0,0,0,.914-.126,1.872,1.872,0,0,0,.665-.357,1.48,1.48,0,0,0,.4-.551,1.8,1.8,0,0,0,.135-.708,1.409,1.409,0,0,0-.517-1.188,2.511,2.511,0,0,0-1.551-.4h-1.3v3.329Zm4.074,4.548h-1.058a.522.522,0,0,1-.48-.252l-2.289-3.151a.678.678,0,0,0-.225-.212.818.818,0,0,0-.372-.065h-.9v3.68H-60.14V-11.5h2.492a5.446,5.446,0,0,1,1.446.169,2.76,2.76,0,0,1,1.006.489,1.959,1.959,0,0,1,.588.772,2.581,2.581,0,0,1,.191,1.012,2.538,2.538,0,0,1-.148.874,2.308,2.308,0,0,1-.428.729,2.559,2.559,0,0,1-.683.551,3.382,3.382,0,0,1-.914.345,1.179,1.179,0,0,1,.394.375Zm9.255-4.406a5.09,5.09,0,0,1-.314,1.818,4.164,4.164,0,0,1-.886,1.425,3.961,3.961,0,0,1-1.375.926,4.638,4.638,0,0,1-1.775.329,4.615,4.615,0,0,1-1.772-.329,3.967,3.967,0,0,1-1.372-.926,4.164,4.164,0,0,1-.886-1.425,5.09,5.09,0,0,1-.314-1.818A5.09,5.09,0,0,1-52.749-8.9a4.2,4.2,0,0,1,.886-1.428,3.982,3.982,0,0,1,1.372-.932,4.577,4.577,0,0,1,1.772-.332,4.6,4.6,0,0,1,1.775.332,3.975,3.975,0,0,1,1.375.932A4.2,4.2,0,0,1-44.681-8.9,5.09,5.09,0,0,1-44.368-7.085Zm-1.225,0a4.482,4.482,0,0,0-.222-1.458,3.085,3.085,0,0,0-.628-1.092,2.724,2.724,0,0,0-.985-.686,3.342,3.342,0,0,0-1.292-.24,3.326,3.326,0,0,0-1.286.24,2.753,2.753,0,0,0-.988.686,3.06,3.06,0,0,0-.631,1.092,4.482,4.482,0,0,0-.222,1.458,4.454,4.454,0,0,0,.222,1.455,3.064,3.064,0,0,0,.631,1.089A2.72,2.72,0,0,0-50-3.857a3.364,3.364,0,0,0,1.286.237,3.381,3.381,0,0,0,1.292-.237,2.692,2.692,0,0,0,.985-.683,3.089,3.089,0,0,0,.628-1.089A4.454,4.454,0,0,0-45.592-7.085ZM-35.518-11.5v8.818h-.6a.513.513,0,0,1-.237-.049.6.6,0,0,1-.188-.166l-5.1-6.646q.012.154.018.3t.006.277v6.283h-1.046V-11.5h.615a.84.84,0,0,1,.135.009.347.347,0,0,1,.1.031.374.374,0,0,1,.086.062.943.943,0,0,1,.092.1l5.1,6.64q-.012-.16-.022-.311t-.009-.286V-11.5Zm8.135.443a.717.717,0,0,1-.123.394L-32.5-3.651h5.04v.972h-6.609v-.468a.5.5,0,0,1,.034-.185,1.047,1.047,0,0,1,.083-.166l5-7.028h-4.886V-11.5h6.449Zm6.966,7.4-.006.972h-5.434V-11.5h5.434v.972h-4.24V-7.6h3.434v.935h-3.434v3.009Zm6.629-3.514a1.7,1.7,0,0,0,1.271-.418,1.581,1.581,0,0,0,.4-1.145,1.732,1.732,0,0,0-.1-.606,1.209,1.209,0,0,0-.308-.468,1.386,1.386,0,0,0-.52-.3,2.363,2.363,0,0,0-.745-.1h-1.169v3.04Zm0-4.443a5.184,5.184,0,0,1,1.585.215,3.014,3.014,0,0,1,1.1.6,2.357,2.357,0,0,1,.637.914,3.143,3.143,0,0,1,.206,1.151,3.269,3.269,0,0,1-.215,1.206,2.466,2.466,0,0,1-.652.942,3.036,3.036,0,0,1-1.1.612,5,5,0,0,1-1.557.218h-1.169v3.071H-16.8v-8.929ZM-4.994-6.07-5.96-8.8q-.086-.215-.182-.5t-.182-.628q-.086.345-.182.637t-.182.508l-.96,2.72Zm3.1,3.391H-3.326a.631.631,0,0,1-.391-.114.69.69,0,0,1-.225-.292l-.6-1.7H-8.1l-.6,1.7a.7.7,0,0,1-.215.28.591.591,0,0,1-.388.126h-1.446l3.489-8.929h1.889Zm3.618-4.7A2.359,2.359,0,0,0,2.5-7.494a1.457,1.457,0,0,0,.535-.314,1.22,1.22,0,0,0,.308-.471,1.716,1.716,0,0,0,.1-.591,1.21,1.21,0,0,0-.422-.985A1.975,1.975,0,0,0,1.738-10.2H.778V-7.38Zm4.326,4.7H4.384a.725.725,0,0,1-.677-.357l-1.7-2.738a.718.718,0,0,0-.231-.234.751.751,0,0,0-.372-.074H.778v3.4H-1.068v-8.929H1.738a5.767,5.767,0,0,1,1.6.194,3.075,3.075,0,0,1,1.089.538,2.062,2.062,0,0,1,.622.822A2.723,2.723,0,0,1,5.246-9a2.757,2.757,0,0,1-.126.84,2.476,2.476,0,0,1-.366.723,2.64,2.64,0,0,1-.591.578,3.055,3.055,0,0,1-.8.406A1.783,1.783,0,0,1,3.7-6.22a1.624,1.624,0,0,1,.277.329Zm6.985-7.44H10.427v7.44H8.575v-7.44H5.966v-1.489h7.071ZM21.8-11.608v8.929h-.954a.836.836,0,0,1-.363-.071.878.878,0,0,1-.289-.243L15.744-8.654q.018.215.028.425t.009.388v5.163H14.151v-8.929h.972a1.847,1.847,0,0,1,.2.009.444.444,0,0,1,.151.043.583.583,0,0,1,.129.089,1.256,1.256,0,0,1,.135.148l4.48,5.686q-.025-.234-.037-.452T20.169-6.5v-5.108Zm3.729,1.446v2.3h2.978v1.4H25.529v2.345h3.828v1.446H23.671v-8.929h5.686v1.446Zm8,2.782a2.359,2.359,0,0,0,.775-.114,1.457,1.457,0,0,0,.535-.314,1.22,1.22,0,0,0,.308-.471,1.716,1.716,0,0,0,.1-.591,1.21,1.21,0,0,0-.422-.985,1.975,1.975,0,0,0-1.283-.351h-.96V-7.38Zm4.326,4.7H36.187a.725.725,0,0,1-.677-.357l-1.7-2.738a.718.718,0,0,0-.231-.234.751.751,0,0,0-.372-.074h-.628v3.4H30.735v-8.929h2.806a5.767,5.767,0,0,1,1.6.194,3.076,3.076,0,0,1,1.089.538,2.062,2.062,0,0,1,.622.822A2.723,2.723,0,0,1,37.049-9a2.757,2.757,0,0,1-.126.84,2.476,2.476,0,0,1-.366.723,2.64,2.64,0,0,1-.591.578,3.055,3.055,0,0,1-.8.406,1.783,1.783,0,0,1,.332.237,1.624,1.624,0,0,1,.277.329Z" transform="translate(1332.946 175.064)" fill="#0a1128"/>
      <path id="Path_14358" data-name="Path 14358" d="M94.484,20.581c3.5,0,5.011,1.564,5.14,5.285l0-.254c.026.382.029.97.01,1.392-.137,3.11-1.795,4.951-4.262,5.028a18.836,18.836,0,0,1-3.365-.186v3.938a.5.5,0,0,1-.553.523H90.385a.519.519,0,0,1-.509-.523V21.843c0-.26.268-.45.632-.612A14.407,14.407,0,0,1,94.484,20.581Zm26.8.131c3.565,0,3.9,2.2,3.9,5.049v5.56a.584.584,0,0,1-.54.576l-.755.069c-.731.046-2.491.069-4.2.069-2.1,0-3.565-.8-3.565-3.18,0-2.1,1.591-3.687,4.457-3.687a8.341,8.341,0,0,1,2.242.347c.048-1.807-.386-2.623-1.783-2.623a11.219,11.219,0,0,0-3.108.543c-.338.076-.555-.148-.627-.469l-.217-.94a.519.519,0,0,1,.362-.669,11.675,11.675,0,0,1,3.83-.643Zm-52.3-4.4a.555.555,0,0,1,.509.521v4.891a5.074,5.074,0,0,1,3.091-1.138c3.024,0,4.132,2.182,4.132,5.168v5.762a.535.535,0,0,1-.507.523H74.92a.519.519,0,0,1-.507-.523V25.7c0-1.8-.739-2.867-2.124-2.867A3.165,3.165,0,0,0,69.5,24.421v7.088a.5.5,0,0,1-.531.523H67.7a.519.519,0,0,1-.509-.523V16.828a.536.536,0,0,1,.507-.521Zm62.947,4.4c1.016,0,2.285.284,1.938,1.019l-.553.93a.455.455,0,0,1-.645.261,3.209,3.209,0,0,0-.893-.206q-.147-.006-.294-.005a4.91,4.91,0,0,0-2.145.275c-.055.034-.154.117-.154.181v8.343c0,.474-.3.523-.739.523h-1.062a.519.519,0,0,1-.507-.523V21.47a.378.378,0,0,1,.1-.258.632.632,0,0,1,.439-.23c.3-.041.56-.065.56-.065.4-.048.972-.12,1.929-.162l.377-.017c.384-.017.787-.026,1.2-.026.1,0,.19,0,.283.007.055,0,.108-.007.164-.007ZM61.6,20.581a5.836,5.836,0,0,1,3.116.806.656.656,0,0,1,.231.806l-.369.758a.492.492,0,0,1-.693.213A5.4,5.4,0,0,0,61.6,22.62c-.922,0-1.472.474-1.472.971,0,.712.873,1.138,1.935,1.613,1.96.854,3.439,1.588,3.439,3.627,0,1.707-1.431,3.2-3.808,3.2a6.071,6.071,0,0,1-3.509-1.116A.45.45,0,0,1,58,30.349l.485-1.019a.467.467,0,0,1,.692-.143,4.865,4.865,0,0,0,2.655.806c.9,0,1.407-.45,1.407-1.068,0-.734-.808-1.209-2.285-1.9-1.639-.758-3-1.659-3-3.461,0-1.375,1.059-2.988,3.642-2.988Zm21.7,0a5.682,5.682,0,0,1,2.162.409,4.482,4.482,0,0,1,1.554,1.164,5.439,5.439,0,0,1,1.011,1.814,7.823,7.823,0,0,1,0,4.688,5.52,5.52,0,0,1-1.013,1.8,4.464,4.464,0,0,1-1.554,1.164,5.91,5.91,0,0,1-4.322,0,4.464,4.464,0,0,1-1.554-1.164,5.432,5.432,0,0,1-1.013-1.805,7.835,7.835,0,0,1,0-4.686,5.443,5.443,0,0,1,1.013-1.814,4.451,4.451,0,0,1,1.554-1.164,5.635,5.635,0,0,1,2.16-.409Zm55.941,0a4.815,4.815,0,0,1,4.87,5.025c0,.191-.022.571-.046.76a.5.5,0,0,1-.485.474h-7.361a3.151,3.151,0,0,0,3.184,2.986,4.065,4.065,0,0,0,2.607-.925c.23-.165.439-.237.623.048l.623,1c.184.237.277.45-.046.734a6,6,0,0,1-3.946,1.353c-3.232,0-5.333-2.608-5.333-5.737,0-3.082,2.1-5.714,5.31-5.714Zm-31.184,0a.448.448,0,0,1,.461.261l2.862,6.613h.048l1.708-6.306c.137-.332.529-.332.808-.332h.968a.412.412,0,0,1,.417.617L112.28,31.747a.486.486,0,0,1-.485.285H111.7a.5.5,0,0,1-.461-.261l-3.255-7.444h-.046l-3.278,7.444a.4.4,0,0,1-.415.261h-.138a.425.425,0,0,1-.439-.285l-3.116-10.311a.394.394,0,0,1,.371-.619h1.383a.473.473,0,0,1,.463.333l1.754,6.282h.046l2.886-6.589a.484.484,0,0,1,.439-.261Zm12.728,6.368c-1.3,0-2.288.693-2.288,1.881,0,1.014.577,1.43,1.733,1.456,1.035.022,2.24.163,2.578-.406V27.344a4.969,4.969,0,0,0-2.023-.4Zm-26.3-4.289a10.664,10.664,0,0,0-2.37.315.127.127,0,0,0-.109.125v6.7c0,.079.058.117.142.144,0,0,.71.086,1.465.146l.285.021a10.216,10.216,0,0,0,1.125.029c1.728-.1,2.326-1.031,2.373-3.139.009-.416.007-.921,0-1.284-.068-2.737-.811-3.055-2.915-3.055Zm-11.246,0c-1.926,0-2.9,1.674-2.9,3.741s.97,3.742,2.9,3.742,2.9-1.676,2.9-3.742S85.165,22.661,83.239,22.661Zm55.955-.065a2.732,2.732,0,0,0-2.862,2.489h5.493A2.549,2.549,0,0,0,139.2,22.6Zm3.649-4.607a1.3,1.3,0,1,1-1.267,1.3,1.281,1.281,0,0,1,1.267-1.3Zm0,.189a1.108,1.108,0,1,0,1.067,1.107,1.088,1.088,0,0,0-1.067-1.107Zm.067.45a.4.4,0,0,1,.4.4.417.417,0,0,1-.27.382l.249.476a.036.036,0,0,1-.031.055h-.137a.039.039,0,0,1-.039-.026l-.239-.488h-.275v.478a.037.037,0,0,1-.034.034h-.12a.034.034,0,0,1-.034-.034V18.664a.035.035,0,0,1,.009-.025.034.034,0,0,1,.025-.011h.5Zm-.015.182h-.324v.456h.324a.231.231,0,0,0,.224-.234.228.228,0,0,0-.222-.223Z" transform="translate(1110.045 140.693)"/>
    </g>
    <path id="Rectangle_6533" data-name="Rectangle 6533" d="M12,0H56a0,0,0,0,1,0,0V56a0,0,0,0,1,0,0H12A12,12,0,0,1,0,44V12A12,12,0,0,1,12,0Z" transform="translate(1096 142)" fill="#fff"/>
    <path id="Path_14357" data-name="Path 14357" d="M31,10A19.938,19.938,0,0,1,44.36,15.122a.286.286,0,0,1-.23.5,34.191,34.191,0,0,0-4.571-.295c-5.827,0-10.555,1.3-13.679,3.76a10.808,10.808,0,0,0-4.257,8.769,11.557,11.557,0,0,0,4.623,9.558c2.749,2.186,6.407,3.6,9.635,4.857a30.76,30.76,0,0,1,7.012,3.355.286.286,0,0,1,0,.461A20,20,0,1,1,31,10ZM39.16,23.079c4.1,0,7.477,1.413,11.652,4.878a.288.288,0,0,1,.1.2,19.963,19.963,0,0,1-1.286,9.139.29.29,0,0,1-.265.182.286.286,0,0,1-.14-.038,54.652,54.652,0,0,0-7.474-3.218c-4.861-1.813-9.058-3.379-9.058-6.814a3.689,3.689,0,0,1,1.483-3.02A8.1,8.1,0,0,1,39.16,23.079Z" transform="translate(1093 140)" fill="#a87761"/>
  </g>
</svg>
