<svg xmlns="http://www.w3.org/2000/svg" width="20.799" height="20.798" viewBox="0 0 20.799 20.798">
  <g id="bxs-phone-call" transform="translate(-4.498 -3)">
    <path id="Path_445" data-name="Path 445" d="M27.158,12.85h2.189A9.64,9.64,0,0,0,19.485,3V5.189A7.416,7.416,0,0,1,27.158,12.85Z" transform="translate(-4.05)" fill="#fff"/>
    <path id="Path_446" data-name="Path 446" d="M15.446,10.048c2.3,0,3.284.982,3.284,3.284h2.189c0-3.531-1.943-5.473-5.473-5.473Zm3.746,5.958a1.1,1.1,0,0,0-1.523.047L15.05,18.747a6.281,6.281,0,0,1-3.2-1.817,6.258,6.258,0,0,1-1.817-3.2l2.692-2.621a1.1,1.1,0,0,0,.047-1.523L8.723,5.136A1.1,1.1,0,0,0,7.2,5.04L4.825,7.078a1.1,1.1,0,0,0-.317.711,16.531,16.531,0,0,0,4.7,11.785,16.575,16.575,0,0,0,11.391,4.7c.221,0,.357-.007.393-.009a1.086,1.086,0,0,0,.709-.318l2.036-2.376a1.1,1.1,0,0,0-.094-1.523l-4.449-4.046Z" transform="translate(0 -0.48)" fill="#fff"/>
  </g>
</svg>
