<svg xmlns="http://www.w3.org/2000/svg" width="72" height="83.135" viewBox="0 0 72 83.135">
  <g id="Group_11338" data-name="Group 11338" transform="translate(-1177 -2861.634)">
    <path id="Path_14242" data-name="Path 14242" d="M188.893,32.969a2.989,2.989,0,0,1,5.569,0l1.963,5.025,5.386.314a2.989,2.989,0,0,1,1.72,5.3l-4.172,3.419,1.366,5.219a2.99,2.99,0,0,1-4.507,3.274l-4.542-2.912-4.541,2.912a2.991,2.991,0,0,1-4.507-3.274L184,47.024,179.824,43.6a2.989,2.989,0,0,1,1.72-5.3l5.386-.314Z" transform="translate(1021.324 2834.625)" fill="none" stroke="#c1ff50" stroke-linecap="round" stroke-linejoin="round" stroke-width="2"/>
    <line id="Line_4231" data-name="Line 4231" x2="10.769" transform="translate(1178 2879.154)" fill="none" stroke="#c1ff50" stroke-linecap="round" stroke-linejoin="round" stroke-width="2"/>
    <line id="Line_4232" data-name="Line 4232" x2="10.769" transform="translate(1237.231 2879.154)" fill="none" stroke="#c1ff50" stroke-linecap="round" stroke-linejoin="round" stroke-width="2"/>
    <line id="Line_4233" data-name="Line 4233" y1="4.038" x2="6.995" transform="translate(1233.985 2863)" fill="none" stroke="#c1ff50" stroke-linecap="round" stroke-linejoin="round" stroke-width="2"/>
    <line id="Line_4234" data-name="Line 4234" x2="6.995" y2="4.038" transform="translate(1185.022 2863)" fill="none" stroke="#c1ff50" stroke-linecap="round" stroke-linejoin="round" stroke-width="2"/>
    <circle id="Ellipse_219" data-name="Ellipse 219" cx="9.846" cy="9.846" r="9.846" transform="translate(1203.154 2903.384)" fill="none" stroke="#fff" stroke-linecap="round" stroke-linejoin="round" stroke-width="2"/>
    <path id="Path_14243" data-name="Path 14243" d="M73.971,213.274a30.458,30.458,0,0,0,43.074,0h0V197.119a5.385,5.385,0,1,1,10.769,0v16.154a10.767,10.767,0,0,1-3.154,7.615l-13,13v9H79.354v-9l-13-13a10.766,10.766,0,0,1-3.154-7.612V197.119a5.385,5.385,0,1,1,10.769,0v16.154S73.971,213.272,73.971,213.274Z" transform="translate(1117.492 2700.881)" fill="none" stroke="#fff" stroke-linecap="round" stroke-linejoin="round" stroke-width="2"/>
  </g>
</svg>
