<svg xmlns="http://www.w3.org/2000/svg" width="72" height="72" viewBox="0 0 72 72">
  <g id="Group_11337" data-name="Group 11337" transform="translate(-897 -3353)">
    <path id="Path_14238" data-name="Path 14238" d="M274.3,50.806a5.932,5.932,0,0,0,8.388,0l8.1-8.1,4.179,4.2a5.932,5.932,0,0,0,10.135-4.176V25.943A5.879,5.879,0,0,0,299.22,20H282.442a5.9,5.9,0,0,0-4.214,10.087l4.2,4.211L274.3,42.417A5.932,5.932,0,0,0,274.3,50.806Z" transform="translate(662.89 3334)" fill="none" stroke="#fff" stroke-linecap="round" stroke-linejoin="round" stroke-width="2"/>
    <path id="Path_14239" data-name="Path 14239" d="M50.806,274.3a5.932,5.932,0,0,1,0,8.388l-8.119,8.119,4.2,4.211a5.9,5.9,0,0,1-4.214,10.087H25.889A5.879,5.879,0,0,1,20,299.167V282.388a5.932,5.932,0,0,1,10.135-4.176l4.179,4.2,8.1-8.1A5.932,5.932,0,0,1,50.806,274.3Z" transform="translate(878 3118.89)" fill="none" stroke="#fff" stroke-linecap="round" stroke-linejoin="round" stroke-width="2"/>
    <path id="Path_14240" data-name="Path 14240" d="M79.729,56h-17.8A5.932,5.932,0,0,0,56,61.932v17.8" transform="translate(847.339 3303.339)" fill="none" stroke="#c1ff50" stroke-linecap="round" stroke-linejoin="round" stroke-width="2"/>
    <path id="Path_14241" data-name="Path 14241" d="M319.729,296v17.8a5.932,5.932,0,0,1-5.932,5.932H296" transform="translate(642.932 3098.933)" fill="none" stroke="#c1ff50" stroke-linecap="round" stroke-linejoin="round" stroke-width="2"/>
  </g>
</svg>
