<svg xmlns="http://www.w3.org/2000/svg" width="62" height="82" viewBox="0 0 62 82">
  <g id="Group_11339" data-name="Group 11339" transform="translate(-1296.333 -3282)">
    <path id="path1230" d="M-163.333,0H-170a16.632,16.632,0,0,0-16.667,16.6v3.651h60V16.6A16.632,16.632,0,0,0-143.333,0H-150" transform="translate(1483.999 3342.751)" fill="none" stroke="#fff" stroke-linecap="round" stroke-linejoin="round" stroke-width="2"/>
    <path id="path1234" d="M-256.666-128.409A18.3,18.3,0,0,0-275-146.666a18.3,18.3,0,0,0-18.333,18.257" transform="translate(1602.332 3444.604)" fill="none" stroke="#fff" stroke-linecap="round" stroke-linejoin="round" stroke-width="2"/>
    <path id="path1238" d="M0,0A18.2,18.2,0,0,0,8.527,15.409a6.655,6.655,0,0,1,3.139,5.619v5.527a6.667,6.667,0,0,0,13.333,0V21.029a6.655,6.655,0,0,1,3.139-5.619A18.2,18.2,0,0,0,36.667,0" transform="translate(1308.999 3316.195)" fill="none" stroke="#fff" stroke-linecap="round" stroke-linejoin="round" stroke-width="2"/>
    <path id="path1242" d="M0,0V4.979a6.667,6.667,0,0,0,13.333,0V0Z" transform="translate(1320.666 3337.772)" fill="none" stroke="#fff" stroke-linecap="round" stroke-linejoin="round" stroke-width="2"/>
    <path id="path1246" d="M0-35.021V-40" transform="translate(1327.333 3323)" fill="none" stroke="#fff" stroke-linecap="round" stroke-linejoin="round" stroke-width="2"/>
    <path id="path1250" d="M-17.5-30.329-20-34.641" transform="translate(1330.666 3322.088)" fill="none" stroke="#fff" stroke-linecap="round" stroke-linejoin="round" stroke-width="2"/>
    <path id="path1254" d="M-30.311-17.51-34.641-20" transform="translate(1333.107 3319.597)" fill="none" stroke="#fff" stroke-linecap="round" stroke-linejoin="round" stroke-width="2"/>
    <path id="path1258" d="M0-17.51,4.33-20" transform="translate(1351.87 3319.597)" fill="none" stroke="#fff" stroke-linecap="round" stroke-linejoin="round" stroke-width="2"/>
    <path id="path1262" d="M0-30.329l2.5-4.312" transform="translate(1341.5 3322.088)" fill="none" stroke="#fff" stroke-linecap="round" stroke-linejoin="round" stroke-width="2"/>
    <path id="path1266" d="M0-116.735v-16.6" transform="translate(1327.333 3454.507)" fill="none" stroke="#fff" stroke-linecap="round" stroke-linejoin="round" stroke-width="2"/>
    <path id="path1270" d="M-70,0l-5,4.979L-80,0" transform="translate(1402.333 3316.195)" fill="none" stroke="#fff" stroke-linecap="round" stroke-linejoin="round" stroke-width="2"/>
  </g>
</svg>
