<svg xmlns="http://www.w3.org/2000/svg" width="82.059" height="64.073" viewBox="0 0 82.059 64.073">
  <g id="Group_11336" data-name="Group 11336" transform="translate(-460.143 -3267.499)">
    <path id="path3921" d="M-75.392-117.645l-4.706,3.411a1.451,1.451,0,0,1-2.238-1.614l1.813-5.5-4.735-3.4a1.441,1.441,0,0,1,.852-2.612h5.844l1.789-5.494a1.456,1.456,0,0,1,2.766,0l1.789,5.494h5.844a1.441,1.441,0,0,1,.852,2.612l-4.735,3.4,1.813,5.5a1.451,1.451,0,0,1-2.238,1.614Z" transform="translate(606.093 3444.449)" fill="none" stroke="#fff" stroke-linecap="round" stroke-linejoin="round" stroke-width="2"/>
    <path id="path3925" d="M-75.392-117.645l4.706,3.411a1.451,1.451,0,0,0,2.238-1.614l-1.813-5.5,4.735-3.4a1.441,1.441,0,0,0-.852-2.612H-72.22l-1.789-5.494a1.456,1.456,0,0,0-2.766,0l-1.789,5.494h-5.844a1.441,1.441,0,0,0-.852,2.612l4.735,3.4-1.813,5.5a1.451,1.451,0,0,0,2.238,1.614Z" transform="translate(547.035 3444.449)" fill="none" stroke="#fff" stroke-linecap="round" stroke-linejoin="round" stroke-width="2"/>
    <path id="path3929" d="M-146.777-229.038l-9.163,6.64a2.824,2.824,0,0,1-4.357-3.143l3.529-10.7-9.218-6.62a2.806,2.806,0,0,1,1.658-5.085h11.377l3.482-10.7a2.836,2.836,0,0,1,5.384,0l3.482,10.7h11.377a2.806,2.806,0,0,1,1.658,5.085l-9.218,6.62,3.529,10.7a2.824,2.824,0,0,1-4.357,3.143Z" transform="translate(647.95 3552.344)" fill="none" stroke="#c1ff50" stroke-linecap="round" stroke-linejoin="round" stroke-width="2"/>
    <path id="path3933" d="M0-44.066v-6.071" transform="translate(501.172 3325.901)" fill="none" stroke="#c1ff50" stroke-linecap="round" stroke-linejoin="round" stroke-width="2"/>
    <path id="path3937" d="M0-62.324,8.648-70.91" transform="translate(517.758 3345.343)" fill="none" stroke="#c1ff50" stroke-linecap="round" stroke-linejoin="round" stroke-width="2"/>
    <path id="path3941" d="M-62.263-62.324-70.91-70.91" transform="translate(546.85 3345.343)" fill="none" stroke="#c1ff50" stroke-linecap="round" stroke-linejoin="round" stroke-width="2"/>
    <path id="path3945" d="M0,0H0" transform="translate(501.182 3268.499)" fill="none" stroke="#c1ff50" stroke-linecap="round" stroke-linejoin="round" stroke-width="2"/>
  </g>
</svg>
