<svg xmlns="http://www.w3.org/2000/svg" width="61" height="54" viewBox="0 0 61 54">
  <g id="React_JS" data-name="React JS" transform="translate(-270 -798)">
    <text id="JS" transform="translate(320 812)" fill="#53c1de" font-size="10" font-family="SourceSansPro-Semibold, Source Sans Pro" font-weight="600"><tspan x="0" y="0">JS</tspan></text>
    <g id="Group_557" data-name="Group 557" transform="translate(-7234.489 -104.73)">
      <path id="Path_381" data-name="Path 381" d="M64.575,32.017q-.934-.325-1.931-.616.164-.676.3-1.333c1.462-7.179.506-12.963-2.758-14.867-3.13-1.826-8.249.078-13.419,4.629q-.746.656-1.494,1.387-.5-.482-.994-.929c-5.418-4.866-10.849-6.917-14.11-5.008-3.127,1.831-4.053,7.268-2.737,14.072q.191.986.444,2.011c-.769.221-1.511.456-2.221.706-6.352,2.24-10.409,5.751-10.409,9.393,0,3.761,4.355,7.534,10.972,9.822q.783.271,1.622.513-.272,1.107-.471,2.167c-1.255,6.686-.275,11.994,2.844,13.814,3.221,1.879,8.628-.052,13.892-4.707q.624-.552,1.252-1.167.813.792,1.622,1.5c5.1,4.439,10.136,6.231,13.251,4.406,3.218-1.885,4.264-7.587,2.906-14.526q-.156-.795-.36-1.622.57-.17,1.116-.353C70.768,49,75.243,45.275,75.243,41.463c0-3.655-4.188-7.19-10.668-9.446Z" transform="translate(7489.246 888.215)" fill="#53c1de"/>
      <path id="Path_382" data-name="Path 382" d="M70.173,55.89q-.492.165-1.008.319a61.23,61.23,0,0,0-3.038-7.689,61.229,61.229,0,0,0,2.92-7.577q.921.269,1.784.569c5.552,1.933,8.939,4.792,8.939,6.995,0,2.346-3.658,5.392-9.6,7.383Zm-2.464,4.94A22.2,22.2,0,0,1,68,68.84c-.357,1.948-1.076,3.248-1.965,3.768-1.891,1.107-5.935-.332-10.3-4.128q-.75-.653-1.509-1.392a60.812,60.812,0,0,0,5.029-6.46,59.2,59.2,0,0,0,8.126-1.267q.184.749.325,1.468ZM42.788,72.416c-1.847.66-3.319.679-4.208.16-1.893-1.1-2.679-5.367-1.606-11.084q.184-.982.438-2.015A59.637,59.637,0,0,0,45.5,60.661,62.988,62.988,0,0,0,50.647,67.1q-.574.561-1.143,1.065a21.67,21.67,0,0,1-6.717,4.253ZM34.133,55.875a21.631,21.631,0,0,1-7-3.761c-1.488-1.289-2.239-2.569-2.239-3.608,0-2.21,3.257-5.029,8.69-6.945.659-.232,1.349-.452,2.065-.657a62.588,62.588,0,0,0,2.924,7.665,63.616,63.616,0,0,0-2.961,7.774q-.766-.223-1.481-.469Zm2.9-19.977c-1.128-5.829-.379-10.227,1.506-11.33,2.007-1.176,6.446.5,11.124,4.7q.449.4.9.84a61.984,61.984,0,0,0-5.111,6.4,61.981,61.981,0,0,0-8.007,1.259q-.234-.953-.412-1.87Zm25.881,6.465q-.891-1.556-1.825-3.035c1.914.245,3.749.57,5.471.967-.517,1.676-1.162,3.429-1.92,5.226q-.816-1.568-1.726-3.158Zm-10.554-10.4a55.289,55.289,0,0,1,3.531,4.312q-1.76-.084-3.559-.085-1.78,0-3.532.084c1.166-1.555,2.36-3,3.561-4.31ZM41.739,42.381q-.89,1.56-1.694,3.138c-.746-1.791-1.385-3.551-1.907-5.252,1.712-.388,3.537-.7,5.44-.945q-.945,1.491-1.839,3.058Zm1.894,15.494a53.982,53.982,0,0,1-5.53-.9c.53-1.731,1.183-3.529,1.945-5.358q.806,1.574,1.7,3.14h0q.912,1.593,1.884,3.117Zm8.8,7.357c-1.215-1.326-2.427-2.793-3.61-4.37q1.723.068,3.51.069,1.834,0,3.622-.081a55.032,55.032,0,0,1-3.522,4.383ZM64.666,51.525a55.4,55.4,0,0,1,2.015,5.339,53.891,53.891,0,0,1-5.6.965q.934-1.5,1.842-3.088.917-1.608,1.74-3.216Zm-3.961,1.921c-.938,1.645-1.9,3.215-2.878,4.7-1.78.129-3.62.2-5.495.2s-3.683-.059-5.432-.174c-1.017-1.5-2-3.077-2.933-4.705h0c-.929-1.624-1.785-3.262-2.56-4.89.775-1.632,1.628-3.272,2.552-4.893h0c.927-1.625,1.9-3.193,2.909-4.685,1.784-.136,3.614-.208,5.463-.208h0c1.858,0,3.69.072,5.474.209.992,1.481,1.961,3.044,2.891,4.669.941,1.644,1.805,3.272,2.587,4.87-.779,1.625-1.642,3.27-2.578,4.913Zm5.288-28.954c2.009,1.172,2.791,5.9,1.528,12.1q-.121.593-.27,1.207a60.753,60.753,0,0,0-8.022-1.282,60.79,60.79,0,0,0-5.072-6.4q.692-.673,1.38-1.28c4.43-3.9,8.57-5.439,10.456-4.339Z" transform="translate(7482.157 881.172)" fill="#fff"/>
      <path id="Path_383" data-name="Path 383" d="M113.4,94.665a5.42,5.42,0,1,1-5.358,5.42,5.389,5.389,0,0,1,5.358-5.42" transform="translate(7421.088 829.594)" fill="#53c1de"/>
    </g>
  </g>
</svg>
