<svg id="relax-chilling-joga" xmlns="http://www.w3.org/2000/svg" width="21" height="21" viewBox="0 0 21 21">
  <path id="Path_255" data-name="Path 255" d="M19.154,187.408a3.159,3.159,0,0,1-3.117-3.117,3.294,3.294,0,0,0-3.29-3.29H8.253a3.294,3.294,0,0,0-3.29,3.29,3.159,3.159,0,0,1-3.117,3.117,1.846,1.846,0,0,0-.339,3.66,2.46,2.46,0,0,0,2.226,3.509H17.309a2.46,2.46,0,0,0,2.223-3.516,1.846,1.846,0,0,0-.377-3.653Zm-11.73,2.719L5.7,189.9a7,7,0,0,0,1.728-1.716Zm3.076,3.219H3.732a1.23,1.23,0,0,1,0-2.461,1.255,1.255,0,0,1,.166.011l9.146,1.225a.615.615,0,0,1-.083,1.225Zm6.809,0H14.7a1.842,1.842,0,0,0-.578-2.048l3.02-.4a1.255,1.255,0,0,1,.166-.011,1.23,1.23,0,0,1,0,2.461Zm-3.732-3.217v-1.95a7,7,0,0,0,1.733,1.719Zm5.578-.261a5.584,5.584,0,0,1-5.578-5.578h-1.23v6l-1.845.246-1.846-.247v-6H7.424a5.584,5.584,0,0,1-5.578,5.578.615.615,0,0,1,0-1.23,4.374,4.374,0,0,0,4.348-4.348,2.062,2.062,0,0,1,2.06-2.06h4.493a2.062,2.062,0,0,1,2.06,2.06,4.374,4.374,0,0,0,4.348,4.348.615.615,0,1,1,0,1.23Z" transform="translate(0 -173.576)" fill="#0c0"/>
  <path id="Path_256" data-name="Path 256" d="M187.152,34.076a3.076,3.076,0,1,0-3.076,3.076A3.08,3.08,0,0,0,187.152,34.076Zm-3.076,1.846a1.846,1.846,0,1,1,1.846-1.846A1.848,1.848,0,0,1,184.076,35.922Z" transform="translate(-173.576 -29.729)" fill="#0c0"/>
  <path id="Path_257" data-name="Path 257" d="M1.846,97.152a1.848,1.848,0,0,0,1.846-1.846V92.23h2.5V91H2.461v2.461H1.846a1.846,1.846,0,0,0,0,3.691Zm0-2.461h.615v.615a.615.615,0,1,1-.615-.615Z" transform="translate(0 -87.268)" fill="#0c0"/>
  <path id="Path_258" data-name="Path 258" d="M363.461,2.5h-.615a1.846,1.846,0,1,0,1.846,1.846V1.23h2.5V0h-3.732Zm0,1.846a.615.615,0,1,1-.615-.615h.615Z" transform="translate(-346.193)" fill="#0c0"/>
</svg>
