<svg xmlns="http://www.w3.org/2000/svg" width="21" height="21" viewBox="0 0 21 21">
  <g id="rising-career" transform="translate(-0.002)">
    <path id="Path_245" data-name="Path 245" d="M25.282,4.541,24.06,3.323,25.3,1.977A.616.616,0,0,0,24.847.945H20.061V.615a.615.615,0,1,0-1.23,0V7.793h-2.22A.615.615,0,0,0,16,8.408V12.6H10.94a.615.615,0,0,0-.615.615v2.83H5.269a.615.615,0,0,0-.615.615v3.721A.615.615,0,0,0,5.269,21H22.386A.615.615,0,0,0,23,20.385V8.408a.615.615,0,0,0-.615-.615H20.061v-2.2h4.786a.616.616,0,0,0,.434-1.051ZM5.884,17.279h4.44V19.77H5.884Zm5.671-3.445H16V19.77h-4.44V13.834ZM21.77,19.77H17.226V9.023H21.77Zm1-15.993.586.585h-3.3V2.175h3.383l-.69.749A.615.615,0,0,0,22.772,3.777Z" transform="translate(-4.462)" fill="#0c0"/>
    <path id="Path_246" data-name="Path 246" d="M.857,67.967a18.15,18.15,0,0,0,5.787-3.9A18.18,18.18,0,0,0,10,59.455l.442.892a.615.615,0,1,0,1.1-.547l-1.011-2.038a.616.616,0,0,0-.678-.329l-2.188.461a.615.615,0,0,0,.126,1.217,7.9,7.9,0,0,0,1.112-.221,16.955,16.955,0,0,1-3.132,4.3,16.925,16.925,0,0,1-5.4,3.642.615.615,0,0,0,.479,1.133Z" transform="translate(0 -55.065)" fill="#0c0"/>
  </g>
</svg>
