<svg xmlns="http://www.w3.org/2000/svg" width="18" height="16" viewBox="0 0 18 16">
  <path id="share" d="M18,5.76a.614.614,0,0,1-.191.45l-5.143,5.12a.643.643,0,0,1-1.095-.45V8.32H9.321q-.984,0-1.763.06A12.843,12.843,0,0,0,6.011,8.6a5.751,5.751,0,0,0-1.336.425,4.73,4.73,0,0,0-1.059.695,3.481,3.481,0,0,0-.8,1.01,5.416,5.416,0,0,0-.487,1.385,8.5,8.5,0,0,0-.176,1.81q0,.55.05,1.23a2.059,2.059,0,0,0,.025.235,2.036,2.036,0,0,1,.025.265.371.371,0,0,1-.085.25.294.294,0,0,1-.236.1.345.345,0,0,1-.281-.17,1.115,1.115,0,0,1-.13-.22q-.06-.13-.135-.3l-.105-.24A11.967,11.967,0,0,1,0,10.56,9.067,9.067,0,0,1,.532,7.23Q2.159,3.2,9.321,3.2h2.25V.64a.614.614,0,0,1,.191-.45.632.632,0,0,1,.9,0l5.143,5.12A.614.614,0,0,1,18,5.76Z" fill="#0c0"/>
</svg>
