<svg id="Shopware" xmlns="http://www.w3.org/2000/svg" width="65.206" height="26.259" viewBox="0 0 65.206 26.259">
  <path id="Subtraction_2" data-name="Subtraction 2" d="M65.206,19.453H0V0H65.206V19.452ZM11.77,3.824A5.9,5.9,0,1,0,15.25,14.472a.131.131,0,0,0,0-.156,8.737,8.737,0,0,0-2-.956l-.076-.029a10.44,10.44,0,0,1-2.85-1.427A3.434,3.434,0,0,1,8.955,9.076,3.2,3.2,0,0,1,10.2,6.483,6.562,6.562,0,0,1,14.24,5.368a11.764,11.764,0,0,1,1.347.078c.054,0,.079-.028.1-.078a.1.1,0,0,0-.026-.079A5.878,5.878,0,0,0,11.77,3.824ZM36.5,7.324a6.609,6.609,0,0,0-1.892.312c-.171.073-.285.15-.285.285v6.407a.233.233,0,0,0,.233.233h.519a.211.211,0,0,0,.04,0,.24.24,0,0,0,.219-.211V12.512a8.03,8.03,0,0,0,1.188.087c.132,0,.264,0,.393-.01,1.188-.026,1.943-.889,2.02-2.309V9.763C38.879,8.054,38.151,7.324,36.5,7.324ZM24.083,5.455a.234.234,0,0,0-.233.234v6.77a.233.233,0,0,0,.233.233h.6a.221.221,0,0,0,.041,0,.24.24,0,0,0,.218-.211V9.19a1.47,1.47,0,0,1,1.253-.727l.068,0c.642,0,1.011.482,1.011,1.322v2.672a.233.233,0,0,0,.233.233h.621a.233.233,0,0,0,.233-.233V9.787c-.03-1.566-.692-2.36-1.969-2.36a2.455,2.455,0,0,0-1.451.52V5.689a.234.234,0,0,0-.233-.234ZM42.728,9.109h.026l1.528,3.424a.262.262,0,0,0,.207.129h.052a.271.271,0,0,0,.233-.129l1.451-4.747a.264.264,0,0,0-.023-.234.219.219,0,0,0-.184-.077H45.55c-.131,0-.311,0-.388.155l-.8,2.9h-.026L42.986,7.5a.266.266,0,0,0-.207-.13H42.7a.263.263,0,0,0-.208.13l-1.373,3.034h-.026l-.828-2.9a.216.216,0,0,0-.207-.155h-.648a.163.163,0,0,0-.039-.005.186.186,0,0,0-.168.16.2.2,0,0,0,.026.129l1.477,4.747a.229.229,0,0,0,.207.129h.078a.218.218,0,0,0,.181-.1L42.727,9.11Zm-22.7,2.174a.23.23,0,0,0-.187.1.025.025,0,0,1-.026.026l-.234.467a.2.2,0,0,0,.078.259,2.927,2.927,0,0,0,1.659.519A1.593,1.593,0,0,0,23.1,11.173c.025-.945-.609-1.281-1.58-1.685-.544-.218-.907-.425-.907-.727,0-.219.24-.441.7-.441a2.66,2.66,0,0,1,1.087.26.258.258,0,0,0,.115.026.211.211,0,0,0,.2-.1l.182-.337a.289.289,0,0,0-.1-.363,2.475,2.475,0,0,0-1.5-.441c-1.175,0-1.711.713-1.711,1.375,0,.848.685,1.261,1.425,1.582.706.314,1.088.548,1.088.882,0,.3-.258.493-.673.493a2.319,2.319,0,0,1-1.244-.363A.291.291,0,0,0,20.025,11.283Zm11.35-3.924a2.868,2.868,0,0,0-1.033.194,2.164,2.164,0,0,0-.726.545,2.423,2.423,0,0,0-.492.829,3.387,3.387,0,0,0,0,2.153,2.371,2.371,0,0,0,.466.83,2.446,2.446,0,0,0,.726.545,2.716,2.716,0,0,0,1.013.194,2.868,2.868,0,0,0,1.033-.194,2.161,2.161,0,0,0,.726-.545,2.371,2.371,0,0,0,.466-.83,3.579,3.579,0,0,0,.026-2.153,2.359,2.359,0,0,0-.466-.829,2.152,2.152,0,0,0-.726-.545A2.716,2.716,0,0,0,31.375,7.359Zm25.714.013a2.511,2.511,0,0,0-2.513,2.619,2.5,2.5,0,0,0,2.513,2.646c.034,0,.068,0,.1,0a2.831,2.831,0,0,0,1.763-.624c.158-.133.1-.239.026-.337l-.285-.467a.157.157,0,0,0-.133-.091.265.265,0,0,0-.152.065,1.918,1.918,0,0,1-1.244.441H57.12a1.488,1.488,0,0,1-1.456-1.376h3.471a.251.251,0,0,0,.233-.207c0-.039.007-.106.013-.169s.013-.129.013-.168a2.259,2.259,0,0,0-2.176-2.334Zm-5.373.18a.326.326,0,0,0-.207.1.2.2,0,0,0-.052.129V12.4a.233.233,0,0,0,.233.233h.493c.191,0,.337-.017.337-.233V8.564a.306.306,0,0,0,.026-.032c.017-.023.035-.046.052-.046a2.371,2.371,0,0,1,1.01-.13h.13a1.078,1.078,0,0,1,.409.1l.005,0a.244.244,0,0,0,.108.026.191.191,0,0,0,.176-.1.026.026,0,0,1,.026-.027l.259-.44a.226.226,0,0,0,.016-.235c-.11-.19-.552-.257-.9-.257h-.208a7.07,7.07,0,0,0-.751.026c-.416.024-.712.05-.907.078a1.518,1.518,0,0,0-.259.026h0ZM48.593,9.472c-1.274,0-2.1.662-2.1,1.686,0,.977.551,1.452,1.684,1.452.8,0,1.632,0,1.994-.026h.337a.277.277,0,0,0,.259-.26V9.757c0-1.277-.138-2.334-1.84-2.334a6.139,6.139,0,0,0-1.813.286.227.227,0,0,0-.149.1.249.249,0,0,0-.032.181v.026l.1.441a.207.207,0,0,0,.065.149.22.22,0,0,0,.154.063.206.206,0,0,0,.04,0h.026a5.468,5.468,0,0,1,1.477-.26c.615,0,.855.342.855,1.219A3.58,3.58,0,0,0,48.593,9.472ZM13.742,7.429a2.476,2.476,0,0,0-1.347.392,1.092,1.092,0,0,0-.44.882c0,1,1.219,1.469,2.63,2.009l.038.015a13.618,13.618,0,0,1,2.2.96h.052c.025,0,.078-.025.078-.053a6.059,6.059,0,0,0,.415-2.152,4.009,4.009,0,0,0-.026-.57.121.121,0,0,0,0-.036.021.021,0,0,0-.023-.016,5.082,5.082,0,0,0-3.446-1.427C13.828,7.43,13.785,7.429,13.742,7.429ZM58.773,6.253a.59.59,0,0,0-.6.6.6.6,0,0,0,.6.6.6.6,0,0,0,0-1.194Zm-9.815,5.6c-.143,0-.295-.008-.442-.017l-.1-.006c-.557,0-.829-.22-.829-.674,0-.52.427-.856,1.087-.856a2.414,2.414,0,0,1,.959.181v1.168C49.545,11.792,49.338,11.854,48.958,11.854Zm-12.2-.095h0a11.413,11.413,0,0,1-1.347-.078c-.026,0-.052-.026-.078-.078V8.491a.056.056,0,0,1,.052-.052A8.208,8.208,0,0,1,36.5,8.284c.955,0,1.347.127,1.373,1.4a2.491,2.491,0,0,1,0,.622C37.843,11.3,37.53,11.71,36.755,11.76Zm-5.454,0c-.834,0-1.373-.672-1.373-1.711,0-.828.361-1.712,1.373-1.712s1.372.884,1.372,1.712C32.673,11.084,32.135,11.755,31.3,11.755ZM58.307,9.447H55.716A1.292,1.292,0,0,1,56.97,8.3c.035,0,.065,0,.093,0h.046a1.206,1.206,0,0,1,1.2,1.141Zm.492-2.1a.506.506,0,1,1,.492-.519A.513.513,0,0,1,58.8,7.343ZM58.643,6.9h.129l.1.233h.078A.026.026,0,0,0,58.98,7.1L58.851,6.9a.194.194,0,0,0,.129-.181.177.177,0,0,0-.181-.181h-.233a.026.026,0,0,0-.026.026l.026.57h.052a.026.026,0,0,0,.026-.026V6.9Z" transform="translate(0 0)" fill="#fff"/>
  <path id="Path_105" data-name="Path 105" d="M16.564,24.677h1.218a2.269,2.269,0,0,1,.414.052.8.8,0,0,1,.337.156.736.736,0,0,1,.233.259,1.042,1.042,0,0,1,.078.389.8.8,0,0,1-.155.493.873.873,0,0,1-.44.285.522.522,0,0,1,.285.078.807.807,0,0,1,.233.182.692.692,0,0,1,.155.259.713.713,0,0,1,.052.337.935.935,0,0,1-.363.726,1.312,1.312,0,0,1-.389.182.963.963,0,0,1-.466.052H16.564Zm.466,1.453h.648a.969.969,0,0,0,.259-.026,1.787,1.787,0,0,0,.207-.078.466.466,0,0,0,.13-.182.758.758,0,0,0,.052-.233.53.53,0,0,0-.466-.519h-.829Zm0,1.608h.7a.715.715,0,0,0,.233-.026l.233-.078a.6.6,0,0,0,.181-.182.553.553,0,0,0,.078-.311.533.533,0,0,0-.207-.467.86.86,0,0,0-.518-.13h-.7Z" transform="translate(-1.373 -1.973)" fill="#fff"/>
  <path id="Path_106" data-name="Path 106" d="M21.718,28.2h-.44v-.363a.66.66,0,0,1-.285.311.769.769,0,0,1-.466.1,1.3,1.3,0,0,1-.311-.052.538.538,0,0,1-.259-.156.672.672,0,0,1-.181-.285,1.042,1.042,0,0,1-.078-.389V25.9h.44V27.27a.558.558,0,0,0,.052.285.465.465,0,0,0,.129.182.418.418,0,0,0,.181.1.506.506,0,0,0,.207.026.917.917,0,0,0,.259-.052.564.564,0,0,0,.207-.13,1.052,1.052,0,0,0,.129-.233,1.515,1.515,0,0,0,.052-.337V25.9h.44Z" transform="translate(-1.562 -2.023)" fill="#fff"/>
  <path id="Path_107" data-name="Path 107" d="M23.741,26.463a.487.487,0,0,0-.181-.156.522.522,0,0,0-.285-.078.437.437,0,0,0-.259.078.148.148,0,0,0-.1.182.185.185,0,0,0,.078.156.544.544,0,0,0,.155.1c0,.052.078.078.13.078a.5.5,0,0,0,.181.026c.1.026.181.052.259.078a.565.565,0,0,1,.207.13.786.786,0,0,1,.13.182.934.934,0,0,1,.052.285.719.719,0,0,1-.078.337.612.612,0,0,1-.207.233,1.124,1.124,0,0,1-.311.13,1.518,1.518,0,0,1-.337.052,1.794,1.794,0,0,1-.518-.078,1.146,1.146,0,0,1-.389-.311L22.6,27.6a1.426,1.426,0,0,0,.233.182.689.689,0,0,0,.311.078.5.5,0,0,0,.181-.026.367.367,0,0,0,.155-.052.2.2,0,0,0,.1-.1.2.2,0,0,0,.052-.13.278.278,0,0,0-.052-.156.543.543,0,0,0-.155-.1.481.481,0,0,0-.181-.052.441.441,0,0,0-.181-.026c-.1-.026-.181-.052-.259-.078a.787.787,0,0,1-.181-.13.349.349,0,0,1-.155-.182.514.514,0,0,1-.052-.285.692.692,0,0,1,.078-.311A1.679,1.679,0,0,1,22.7,26a.958.958,0,0,1,.285-.13,1.15,1.15,0,0,1,.777.052.613.613,0,0,1,.337.285Z" transform="translate(-1.716 -2.02)" fill="#fff"/>
  <path id="Path_108" data-name="Path 108" d="M24.7,24.989a.324.324,0,1,1,.337.311.281.281,0,0,1-.233-.1A.232.232,0,0,1,24.7,24.989Zm.1.856h.44v2.334H24.8Z" transform="translate(-1.855 -1.972)" fill="#fff"/>
  <path id="Path_109" data-name="Path 109" d="M25.989,25.893h.44v.363a.66.66,0,0,1,.285-.311.769.769,0,0,1,.466-.1,1.3,1.3,0,0,1,.311.052.536.536,0,0,1,.259.156.672.672,0,0,1,.181.285,1.042,1.042,0,0,1,.078.389v1.5h-.44v-1.4a.559.559,0,0,0-.052-.285.464.464,0,0,0-.13-.182.417.417,0,0,0-.181-.1A.505.505,0,0,0,27,26.23a.918.918,0,0,0-.259.052.563.563,0,0,0-.207.13,1.053,1.053,0,0,0-.13.233,1.52,1.52,0,0,0-.052.337v1.193h-.44Z" transform="translate(-1.939 -2.021)" fill="#fff"/>
  <path id="Path_110" data-name="Path 110" d="M29.162,27.213a.592.592,0,0,0,.078.285.7.7,0,0,0,.181.208.811.811,0,0,0,.259.13,1.1,1.1,0,0,0,.285.052.6.6,0,0,0,.363-.1,1.36,1.36,0,0,0,.285-.259l.337.259a1.2,1.2,0,0,1-1.036.467,1.05,1.05,0,0,1-.492-.1,1.273,1.273,0,0,1-.389-.259A.978.978,0,0,1,28.8,27.5a1.513,1.513,0,0,1-.078-.493,1.124,1.124,0,0,1,.1-.493.8.8,0,0,1,.259-.389,1.025,1.025,0,0,1,.389-.259,1.515,1.515,0,0,1,.492-.1,1.159,1.159,0,0,1,.518.1,1.262,1.262,0,0,1,.363.285,1.128,1.128,0,0,1,.207.389,1.285,1.285,0,0,1,.052.441v.156Zm1.4-.363a.769.769,0,0,0-.052-.259.544.544,0,0,0-.337-.337,1.1,1.1,0,0,0-.285-.052.929.929,0,0,0-.285.052,1.214,1.214,0,0,0-.233.156,1.436,1.436,0,0,0-.155.208.758.758,0,0,0-.052.233Z" transform="translate(-2.112 -2.018)" fill="#fff"/>
  <path id="Path_111" data-name="Path 111" d="M32.9,26.463a.484.484,0,0,0-.181-.156.522.522,0,0,0-.285-.078.59.59,0,0,0-.285.078.147.147,0,0,0-.1.182.185.185,0,0,0,.078.156.54.54,0,0,0,.155.1.28.28,0,0,0,.181.078.506.506,0,0,0,.181.026c.1.026.181.052.259.078.078.052.155.078.233.13a.792.792,0,0,1,.13.182.935.935,0,0,1,.052.285.718.718,0,0,1-.078.337.612.612,0,0,1-.207.233,1.121,1.121,0,0,1-.311.13,1.516,1.516,0,0,1-.337.052,1.793,1.793,0,0,1-.518-.078,1.146,1.146,0,0,1-.389-.311l.337-.285a1.421,1.421,0,0,0,.233.182.689.689,0,0,0,.311.078.506.506,0,0,0,.181-.026.369.369,0,0,0,.155-.052.2.2,0,0,0,.1-.1.2.2,0,0,0,.052-.13A.279.279,0,0,0,32.8,27.4a.544.544,0,0,0-.155-.1.481.481,0,0,0-.181-.052.441.441,0,0,0-.181-.026c-.1-.026-.181-.052-.259-.078a1.045,1.045,0,0,1-.233-.13.348.348,0,0,1-.155-.182.513.513,0,0,1-.052-.285.691.691,0,0,1,.078-.311A1.678,1.678,0,0,1,31.865,26a.955.955,0,0,1,.285-.13,1.3,1.3,0,0,1,.311-.052,1.208,1.208,0,0,1,.44.078.613.613,0,0,1,.337.285Z" transform="translate(-2.275 -2.02)" fill="#fff"/>
  <path id="Path_112" data-name="Path 112" d="M35.171,26.463a.485.485,0,0,0-.181-.156.522.522,0,0,0-.285-.078.59.59,0,0,0-.285.078.148.148,0,0,0-.1.182.185.185,0,0,0,.078.156.542.542,0,0,0,.155.1.479.479,0,0,0,.181.052.5.5,0,0,0,.181.026c.1.026.181.052.259.078a1.215,1.215,0,0,0,.233.156.788.788,0,0,1,.129.182.932.932,0,0,1,.052.285.718.718,0,0,1-.078.337.612.612,0,0,1-.207.233,1.122,1.122,0,0,1-.311.13,1.517,1.517,0,0,1-.337.052,1.793,1.793,0,0,1-.518-.078,1.147,1.147,0,0,1-.389-.311l.337-.285a1.422,1.422,0,0,0,.233.182.689.689,0,0,0,.311.078.506.506,0,0,0,.181-.026.369.369,0,0,0,.155-.052.2.2,0,0,0,.1-.1.2.2,0,0,0,.052-.13.279.279,0,0,0-.052-.156.544.544,0,0,0-.155-.1.481.481,0,0,0-.181-.052.442.442,0,0,0-.181-.026c-.1-.026-.181-.052-.259-.078a1.048,1.048,0,0,1-.233-.13.349.349,0,0,1-.155-.182.934.934,0,0,1-.052-.285.691.691,0,0,1,.078-.311A1.672,1.672,0,0,1,34.134,26a.955.955,0,0,1,.285-.13,1.3,1.3,0,0,1,.311-.052,1.209,1.209,0,0,1,.44.078.613.613,0,0,1,.337.285Z" transform="translate(-2.412 -2.02)" fill="#fff"/>
  <path id="Path_113" data-name="Path 113" d="M37.8,24.678h1.01a1.992,1.992,0,0,1,.389.052.907.907,0,0,1,.363.156.69.69,0,0,1,.259.285.853.853,0,0,1,.1.441,1.174,1.174,0,0,1-.078.415.824.824,0,0,1-.57.441,1.994,1.994,0,0,1-.389.052h-.751v1.66h-.311Zm.311,1.53h.725a.8.8,0,0,0,.259-.026.918.918,0,0,0,.233-.1.348.348,0,0,0,.155-.182.361.361,0,0,0,.052-.285.523.523,0,0,0-.078-.285.605.605,0,0,0-.181-.182.918.918,0,0,0-.233-.1.968.968,0,0,0-.285-.026h-.725Z" transform="translate(-2.662 -1.973)" fill="#fff"/>
  <path id="Path_114" data-name="Path 114" d="M42.393,27.27v.752a.646.646,0,0,0,.026.208H42.16a1.715,1.715,0,0,1-.026-.363.72.72,0,0,1-.311.311,1.014,1.014,0,0,1-.466.1.972.972,0,0,1-.285-.026.494.494,0,0,1-.259-.13.677.677,0,0,1-.259-.519.649.649,0,0,1,.466-.648,1.942,1.942,0,0,1,.415-.1,2.239,2.239,0,0,1,.389-.026h.337V26.7a.64.64,0,0,0-.207-.415.894.894,0,0,0-.466-.13,1.02,1.02,0,0,0-.7.259l-.181-.208a1.2,1.2,0,0,1,.389-.233,1.465,1.465,0,0,1,.466-.078,1.112,1.112,0,0,1,.648.182.707.707,0,0,1,.233.623Zm-.6-.208a1.7,1.7,0,0,0-.363.026l-.311.078a.612.612,0,0,0-.233.156.39.39,0,0,0-.026.441.313.313,0,0,0,.13.13l.155.078a.44.44,0,0,0,.181.026,1.039,1.039,0,0,0,.389-.078.565.565,0,0,0,.233-.182.813.813,0,0,0,.13-.259,1.066,1.066,0,0,0,.026-.285v-.13Z" transform="translate(-2.826 -2.023)" fill="#fff"/>
  <path id="Path_115" data-name="Path 115" d="M43.283,26.595v-.648h.285v.389A1.785,1.785,0,0,1,43.852,26a.872.872,0,0,1,.44-.13h.078a.1.1,0,0,1,.078.026l-.026.285c-.026,0-.078-.026-.1-.026a1.517,1.517,0,0,0-.337.052.714.714,0,0,0-.233.182.81.81,0,0,0-.13.259,1.3,1.3,0,0,0-.052.311V28.2h-.285Z" transform="translate(-2.982 -2.022)" fill="#fff"/>
  <path id="Path_116" data-name="Path 116" d="M46.085,26.181h-.648v1.478a.275.275,0,0,0,.311.311.5.5,0,0,0,.181-.026c.052-.026.1-.026.155-.052l.026.259a.478.478,0,0,1-.181.052.44.44,0,0,1-.181.026.766.766,0,0,1-.259-.052.466.466,0,0,1-.181-.13.418.418,0,0,1-.1-.182.719.719,0,0,1-.026-.233V26.181h-.518v-.259h.492v-.648h.285v.648h.648Z" transform="translate(-3.07 -1.998)" fill="#fff"/>
  <path id="Path_117" data-name="Path 117" d="M46.687,26.6v-.648h.285v.389H47a.826.826,0,0,1,.777-.441,1.315,1.315,0,0,1,.44.078,1.015,1.015,0,0,1,.259.207.8.8,0,0,1,.13.311,1.716,1.716,0,0,1,.026.363V28.2h-.285V26.881a.884.884,0,0,0-.026-.259l-.078-.233a.349.349,0,0,0-.181-.156.36.36,0,0,0-.285-.052,1.3,1.3,0,0,0-.311.052.593.593,0,0,0-.259.182.619.619,0,0,0-.155.285,1.077,1.077,0,0,0-.052.415v1.141h-.285V26.6Z" transform="translate(-3.199 -2.023)" fill="#fff"/>
  <path id="Path_118" data-name="Path 118" d="M51.541,27.787a1.109,1.109,0,0,1-.415.363,1.35,1.35,0,0,1-.544.1,1.465,1.465,0,0,1-.466-.078.858.858,0,0,1-.363-.259.977.977,0,0,1-.233-.389,1.513,1.513,0,0,1-.078-.493,1.471,1.471,0,0,1,.078-.467,1.088,1.088,0,0,1,.233-.363,1.834,1.834,0,0,1,.363-.259,1.511,1.511,0,0,1,.466-.1,1.014,1.014,0,0,1,.466.1.987.987,0,0,1,.337.233,1.471,1.471,0,0,1,.207.337,1.042,1.042,0,0,1,.078.389v.208H49.779c0,.078.026.156.026.233a.961.961,0,0,0,.13.285.735.735,0,0,0,.259.233.819.819,0,0,0,.415.1.85.85,0,0,0,.44-.1.825.825,0,0,0,.311-.285Zm-.233-.908a.935.935,0,0,0-.052-.285l-.155-.233a.536.536,0,0,0-.259-.156.656.656,0,0,0-.311-.052.674.674,0,0,0-.389.1.734.734,0,0,0-.259.233.811.811,0,0,0-.13.259c-.026.052-.026.1-.052.156Z" transform="translate(-3.37 -2.021)" fill="#fff"/>
  <path id="Path_119" data-name="Path 119" d="M52.387,26.595v-.648h.285v.389A1.781,1.781,0,0,1,52.957,26a.872.872,0,0,1,.44-.13h.078a.1.1,0,0,1,.078.026l-.026.311c-.026,0-.078-.026-.1-.026a1.511,1.511,0,0,0-.337.052.714.714,0,0,0-.233.182.812.812,0,0,0-.129.259,1.3,1.3,0,0,0-.052.311v1.245h-.285Z" transform="translate(-3.533 -2.022)" fill="#fff"/>
</svg>
