<svg xmlns="http://www.w3.org/2000/svg" width="18" height="18.002" viewBox="0 0 18 18.002">
  <g id="Group_11478" data-name="Group 11478" transform="translate(-3998 -1522)">
    <path id="_Tracé_2_8_" d="M16.437,17.99a13.632,13.632,0,0,0-3.158-1.5A15.909,15.909,0,0,1,8.943,14.3a5.176,5.176,0,0,1-2.08-4.3A4.82,4.82,0,0,1,8.778,6.051a9.9,9.9,0,0,1,6.153-1.685,16.246,16.246,0,0,1,2.06.13.125.125,0,0,0,.132-.082.107.107,0,0,0-.033-.147,9,9,0,1,0-6.033,15.689,8.863,8.863,0,0,0,5.35-1.765.153.153,0,0,0,.05-.1A.1.1,0,0,0,16.437,17.99Z" transform="translate(3995.934 1520.047)" fill="#189eff"/>
    <path id="_Tracé_3_8_" d="M173.138,103.046a.1.1,0,0,0-.05-.082,7.809,7.809,0,0,0-5.251-2.193,3.679,3.679,0,0,0-2.25.59,1.648,1.648,0,0,0-.673,1.358c0,1.538,1.9,2.25,4.075,3.075a24.449,24.449,0,0,1,3.37,1.458.108.108,0,0,0,.065.015.065.065,0,0,0,.05-.015.14.14,0,0,0,.083-.083,9.065,9.065,0,0,0,.62-3.288A7.165,7.165,0,0,0,173.138,103.046Z" transform="translate(3842.822 1427.137)" fill="#189eff"/>
  </g>
</svg>
