<svg xmlns="http://www.w3.org/2000/svg" width="68" height="32" viewBox="0 0 68 32">
  <g id="Shopware_Partner" data-name="Shopware Partner" transform="translate(-0.389 0)">
    <path id="Path_91" data-name="Path 91" d="M68.389,0h-68V20.287h68Z" fill="#2a3138"/>
    <path id="Path_92" data-name="Path 92" d="M68.389,20.071h-68V33h68Z" transform="translate(0 -1)" fill="#e9edf0"/>
    <path id="Path_93" data-name="Path 93" d="M23.27,10.184c-.54-.216-.945-.433-.945-.757,0-.243.27-.46.729-.46a2.794,2.794,0,0,1,1.135.27.25.25,0,0,0,.324-.081L24.7,8.8a.3.3,0,0,0-.108-.379,2.586,2.586,0,0,0-1.567-.46c-1.27,0-1.783.784-1.783,1.434,0,.866.675,1.3,1.486,1.65.729.325,1.135.568,1.135.92,0,.3-.243.514-.7.514a2.421,2.421,0,0,1-1.3-.379.252.252,0,0,0-.351.054.026.026,0,0,1-.027.027l-.243.487a.21.21,0,0,0,.081.27,3.043,3.043,0,0,0,1.729.541,1.671,1.671,0,0,0,1.864-1.542C24.945,10.941,24.242,10.59,23.27,10.184Z" transform="translate(-0.437 -0.29)" fill="#e9edf0"/>
    <path id="Path_94" data-name="Path 94" d="M16.293,14.93A9.488,9.488,0,0,0,14.131,13.9a10.937,10.937,0,0,1-2.972-1.488A3.6,3.6,0,0,1,9.728,9.466a3.32,3.32,0,0,1,1.3-2.7A6.8,6.8,0,0,1,15.239,5.6a12.229,12.229,0,0,1,1.4.081c.054,0,.081-.027.108-.081a.1.1,0,0,0-.027-.081,6.156,6.156,0,1,0-.432,9.575.135.135,0,0,0,0-.162Z" fill="#e9edf0"/>
    <path id="Path_95" data-name="Path 95" d="M18.751,9.574c0-.027,0-.054-.027-.054A5.326,5.326,0,0,0,15.13,8.032a2.59,2.59,0,0,0-1.54.406,1.141,1.141,0,0,0-.459.92c0,1.055,1.3,1.542,2.783,2.11a14.4,14.4,0,0,1,2.3,1h.054c.027,0,.081-.027.081-.054a6.375,6.375,0,0,0,.432-2.245A4.18,4.18,0,0,0,18.751,9.574Z" transform="translate(-0.275 -0.281)" fill="#e9edf0"/>
    <path id="Path_96" data-name="Path 96" d="M54.115,13.415a.291.291,0,0,0,.27-.271V10.467c0-1.38-.162-2.434-1.918-2.434a6.424,6.424,0,0,0-1.891.3.249.249,0,0,0-.189.3v.027l.108.46a.229.229,0,0,0,.27.216h.027a5.74,5.74,0,0,1,1.54-.27c.675,0,.892.406.892,1.271a3.785,3.785,0,0,0-1.108-.162c-1.4,0-2.188.757-2.188,1.758,0,1.136.729,1.515,1.756,1.515.838,0,1.7,0,2.08-.027Zm-.918-.974c-.162.271-.757.216-1.27.189-.567,0-.864-.216-.864-.7,0-.568.486-.893,1.135-.893a2.528,2.528,0,0,1,1,.189Z" transform="translate(-1.051 -0.291)" fill="#e9edf0"/>
    <path id="Path_97" data-name="Path 97" d="M63.057,7.978a.622.622,0,1,0-.621-.622A.629.629,0,0,0,63.057,7.978Zm0-1.163a.528.528,0,1,1-.513.541A.537.537,0,0,1,63.057,6.815Z" transform="translate(-1.377 -0.212)" fill="#e9edf0"/>
    <path id="Path_98" data-name="Path 98" d="M62.841,7.653h.054a.026.026,0,0,0,.027-.027V7.409h.135l.108.243h.081a.026.026,0,0,0,.027-.027l-.135-.216a.2.2,0,0,0,.135-.189.185.185,0,0,0-.189-.189h-.243a.026.026,0,0,0-.027.027Zm.081-.54h.162a.108.108,0,0,1,0,.216h-.162Z" transform="translate(-1.377 -0.217)" fill="#e9edf0"/>
    <path id="Path_99" data-name="Path 99" d="M28.45,7.978a2.58,2.58,0,0,0-1.513.541V6.166a.242.242,0,0,0-.243-.243h-.648a.242.242,0,0,0-.243.243v7.06a.242.242,0,0,0,.243.243h.621a.242.242,0,0,0,.27-.216V9.818a1.528,1.528,0,0,1,1.378-.757c.675,0,1.054.514,1.054,1.38v2.786a.242.242,0,0,0,.243.243h.648a.242.242,0,0,0,.243-.243V10.44C30.476,9.006,29.935,7.978,28.45,7.978Z" transform="translate(-0.541 -0.233)" fill="#e9edf0"/>
    <path id="Path_100" data-name="Path 100" d="M41.768,10.494c-.054-1.785-.81-2.543-2.539-2.543a7,7,0,0,0-1.972.325c-.189.081-.3.162-.3.3v6.681a.242.242,0,0,0,.243.243h.54a.242.242,0,0,0,.27-.216v-1.92a8.417,8.417,0,0,0,1.648.081c1.216-.027,2.026-.92,2.107-2.407v-.541Zm-1.108.568c-.027,1-.324,1.461-1.162,1.515a11.888,11.888,0,0,1-1.4-.081q-.041,0-.081-.081V9.168a.058.058,0,0,1,.054-.054,8.571,8.571,0,0,1,1.162-.162c1.027,0,1.4.162,1.432,1.461A2.6,2.6,0,0,1,40.661,11.062Z" transform="translate(-0.78 -0.312)" fill="#e9edf0"/>
    <path id="Path_101" data-name="Path 101" d="M49.306,8.086H48.82c-.135,0-.324,0-.405.162l-.838,3.029H47.55l-1.4-3.165a.275.275,0,0,0-.216-.135h-.081a.276.276,0,0,0-.216.135L44.2,11.278h-.027l-.864-3.029a.226.226,0,0,0-.216-.162h-.675c-.108-.027-.189.054-.216.162a.2.2,0,0,0,.027.135l1.54,4.95a.241.241,0,0,0,.216.135h.081a.227.227,0,0,0,.189-.108l1.621-3.57H45.9l1.594,3.57a.276.276,0,0,0,.216.135h.054a.284.284,0,0,0,.243-.135l1.513-4.95C49.576,8.222,49.5,8.086,49.306,8.086Z" transform="translate(-0.928 -0.29)" fill="#e9edf0"/>
    <path id="Path_102" data-name="Path 102" d="M57.681,8.032h-.216a7.325,7.325,0,0,0-.783.027c-.459.027-.756.054-.946.081a1.567,1.567,0,0,0-.27.027.334.334,0,0,0-.216.108.207.207,0,0,0-.054.135v4.815a.242.242,0,0,0,.243.243h.513c.216,0,.351-.027.351-.243v-4c.027-.027.054-.081.081-.081a2.382,2.382,0,0,1,1.054-.135h.135a1.132,1.132,0,0,1,.432.108.217.217,0,0,0,.3-.081.026.026,0,0,1,.027-.027l.27-.46C58.815,8.168,58.194,8.032,57.681,8.032Z" transform="translate(-1.145 -0.291)" fill="#e9edf0"/>
    <path id="Path_103" data-name="Path 103" d="M61.3,7.978A2.632,2.632,0,0,0,58.68,10.71,2.607,2.607,0,0,0,61.3,13.469a2.967,2.967,0,0,0,1.945-.649c.162-.135.108-.243.027-.352l-.3-.487c-.081-.135-.189-.108-.3-.027a2,2,0,0,1-1.3.46,1.543,1.543,0,0,1-1.567-1.434h3.62a.26.26,0,0,0,.243-.216c0-.081.027-.271.027-.352a2.355,2.355,0,0,0-2.269-2.434Zm-1.432,2.164a1.337,1.337,0,0,1,1.4-1.19,1.259,1.259,0,0,1,1.3,1.19Z" transform="translate(-1.377 -0.29)" fill="#e9edf0"/>
    <path id="Path_104" data-name="Path 104" d="M36.068,9.6a2.478,2.478,0,0,0-.486-.866,2.233,2.233,0,0,0-.757-.568,2.908,2.908,0,0,0-2.134,0,2.232,2.232,0,0,0-.756.568,2.539,2.539,0,0,0-.513.866,3.547,3.547,0,0,0,0,2.245,2.478,2.478,0,0,0,.486.865,2.526,2.526,0,0,0,.756.568,2.908,2.908,0,0,0,2.134,0,2.231,2.231,0,0,0,.757-.568,2.477,2.477,0,0,0,.486-.865A3.745,3.745,0,0,0,36.068,9.6ZM33.69,12.55c-.946,0-1.432-.811-1.432-1.785s.459-1.785,1.432-1.785,1.432.811,1.432,1.785S34.636,12.55,33.69,12.55Z" transform="translate(-0.66 -0.29)" fill="#e9edf0"/>
    <path id="Path_105" data-name="Path 105" d="M16.564,24.677h1.27a2.367,2.367,0,0,1,.432.054.838.838,0,0,1,.351.162.768.768,0,0,1,.243.271,1.087,1.087,0,0,1,.081.406.833.833,0,0,1-.162.514.91.91,0,0,1-.459.3.544.544,0,0,1,.3.081.841.841,0,0,1,.243.189.722.722,0,0,1,.162.271.744.744,0,0,1,.054.352.975.975,0,0,1-.378.757,1.368,1.368,0,0,1-.405.189,1,1,0,0,1-.486.054H16.564Zm.486,1.515h.675a1.01,1.01,0,0,0,.27-.027,1.863,1.863,0,0,0,.216-.081.486.486,0,0,0,.135-.189.791.791,0,0,0,.054-.243.553.553,0,0,0-.486-.541h-.865Zm0,1.677h.729a.746.746,0,0,0,.243-.027l.243-.081a.63.63,0,0,0,.189-.189.577.577,0,0,0,.081-.324.556.556,0,0,0-.216-.487.9.9,0,0,0-.54-.135h-.729Z" transform="translate(-0.333 -1)" fill="#2a3138"/>
    <path id="Path_106" data-name="Path 106" d="M21.805,28.3h-.459v-.379a.688.688,0,0,1-.3.325.8.8,0,0,1-.486.108,1.356,1.356,0,0,1-.324-.054.561.561,0,0,1-.27-.162.7.7,0,0,1-.189-.3,1.087,1.087,0,0,1-.081-.406V25.9h.459v1.434a.582.582,0,0,0,.054.3.485.485,0,0,0,.135.189.436.436,0,0,0,.189.108.527.527,0,0,0,.216.027.957.957,0,0,0,.27-.054.588.588,0,0,0,.216-.135,1.1,1.1,0,0,0,.135-.243,1.58,1.58,0,0,0,.054-.352V25.9h.459Z" transform="translate(-0.396 -1)" fill="#2a3138"/>
    <path id="Path_107" data-name="Path 107" d="M23.8,26.491a.507.507,0,0,0-.189-.162.544.544,0,0,0-.3-.081.456.456,0,0,0-.27.081.154.154,0,0,0-.108.189.193.193,0,0,0,.081.162.568.568,0,0,0,.162.108c0,.054.081.081.135.081a.526.526,0,0,0,.189.027c.108.027.189.054.27.081a.589.589,0,0,1,.216.135.819.819,0,0,1,.135.189.974.974,0,0,1,.054.3.75.75,0,0,1-.081.352.638.638,0,0,1-.216.243,1.172,1.172,0,0,1-.324.135,1.583,1.583,0,0,1-.351.054,1.87,1.87,0,0,1-.54-.081,1.2,1.2,0,0,1-.405-.325l.351-.3a1.487,1.487,0,0,0,.243.189.718.718,0,0,0,.324.081.526.526,0,0,0,.189-.027.383.383,0,0,0,.162-.054.211.211,0,0,0,.108-.108.207.207,0,0,0,.054-.135.29.29,0,0,0-.054-.162.566.566,0,0,0-.162-.108.5.5,0,0,0-.189-.054.46.46,0,0,0-.189-.027c-.108-.027-.189-.054-.27-.081a.821.821,0,0,1-.189-.135.364.364,0,0,1-.162-.189.536.536,0,0,1-.054-.3.721.721,0,0,1,.081-.325A1.751,1.751,0,0,1,22.724,26a1,1,0,0,1,.3-.135,1.2,1.2,0,0,1,.811.054.639.639,0,0,1,.351.3Z" transform="translate(-0.447 -1)" fill="#2a3138"/>
    <path id="Path_108" data-name="Path 108" d="M24.7,25a.338.338,0,1,1,.351.325.293.293,0,0,1-.243-.108A.242.242,0,0,1,24.7,25Zm.108.893h.459V28.33H24.8Z" transform="translate(-0.487 -1)" fill="#2a3138"/>
    <path id="Path_109" data-name="Path 109" d="M25.993,25.9h.459v.379a.688.688,0,0,1,.3-.325.8.8,0,0,1,.486-.108,1.352,1.352,0,0,1,.324.054.559.559,0,0,1,.27.162.7.7,0,0,1,.189.3,1.087,1.087,0,0,1,.081.406V28.33h-.459V26.869a.583.583,0,0,0-.054-.3.484.484,0,0,0-.135-.189.435.435,0,0,0-.189-.108.527.527,0,0,0-.216-.027.957.957,0,0,0-.27.054.587.587,0,0,0-.216.135,1.1,1.1,0,0,0-.135.243,1.585,1.585,0,0,0-.054.352v1.244h-.459Z" transform="translate(-0.523 -1)" fill="#2a3138"/>
    <path id="Path_110" data-name="Path 110" d="M29.181,27.275a.617.617,0,0,0,.081.3.729.729,0,0,0,.189.216.846.846,0,0,0,.27.135,1.149,1.149,0,0,0,.3.054.62.62,0,0,0,.378-.108,1.418,1.418,0,0,0,.3-.271l.351.271a1.25,1.25,0,0,1-1.081.487,1.1,1.1,0,0,1-.513-.108,1.328,1.328,0,0,1-.405-.27,1.019,1.019,0,0,1-.243-.406,1.577,1.577,0,0,1-.081-.514,1.173,1.173,0,0,1,.108-.514.831.831,0,0,1,.27-.406,1.069,1.069,0,0,1,.405-.271,1.58,1.58,0,0,1,.513-.108,1.209,1.209,0,0,1,.54.108,1.316,1.316,0,0,1,.378.3,1.177,1.177,0,0,1,.216.406,1.34,1.34,0,0,1,.054.46v.162Zm1.459-.379a.8.8,0,0,0-.054-.271.567.567,0,0,0-.351-.352,1.146,1.146,0,0,0-.3-.054.969.969,0,0,0-.3.054,1.266,1.266,0,0,0-.243.162,1.5,1.5,0,0,0-.162.216.791.791,0,0,0-.054.243Z" transform="translate(-0.583 -1)" fill="#2a3138"/>
    <path id="Path_111" data-name="Path 111" d="M32.962,26.491a.5.5,0,0,0-.189-.162.544.544,0,0,0-.3-.081.615.615,0,0,0-.3.081.154.154,0,0,0-.108.189.193.193,0,0,0,.081.162.563.563,0,0,0,.162.108.292.292,0,0,0,.189.081.527.527,0,0,0,.189.027c.108.027.189.054.27.081.081.054.162.081.243.135a.825.825,0,0,1,.135.189.975.975,0,0,1,.054.3.749.749,0,0,1-.081.352.638.638,0,0,1-.216.243,1.169,1.169,0,0,1-.324.135,1.581,1.581,0,0,1-.351.054,1.87,1.87,0,0,1-.54-.081,1.2,1.2,0,0,1-.405-.325l.351-.3a1.482,1.482,0,0,0,.243.189.719.719,0,0,0,.324.081.528.528,0,0,0,.189-.027.384.384,0,0,0,.162-.054.211.211,0,0,0,.108-.108.207.207,0,0,0,.054-.135.291.291,0,0,0-.054-.162.568.568,0,0,0-.162-.108A.5.5,0,0,0,32.5,27.3a.46.46,0,0,0-.189-.027c-.108-.027-.189-.054-.27-.081a1.09,1.09,0,0,1-.243-.135.363.363,0,0,1-.162-.189.535.535,0,0,1-.054-.3.72.72,0,0,1,.081-.325A1.75,1.75,0,0,1,31.882,26a1,1,0,0,1,.3-.135,1.351,1.351,0,0,1,.324-.054,1.26,1.26,0,0,1,.459.081.639.639,0,0,1,.351.3Z" transform="translate(-0.635 -1)" fill="#2a3138"/>
    <path id="Path_112" data-name="Path 112" d="M35.232,26.491a.506.506,0,0,0-.189-.162.544.544,0,0,0-.3-.081.615.615,0,0,0-.3.081.154.154,0,0,0-.108.189.193.193,0,0,0,.081.162.565.565,0,0,0,.162.108.5.5,0,0,0,.189.054.526.526,0,0,0,.189.027c.108.027.189.054.27.081a1.267,1.267,0,0,0,.243.162.822.822,0,0,1,.135.189.972.972,0,0,1,.054.3.749.749,0,0,1-.081.352.639.639,0,0,1-.216.243,1.17,1.17,0,0,1-.324.135,1.582,1.582,0,0,1-.351.054,1.87,1.87,0,0,1-.54-.081,1.2,1.2,0,0,1-.405-.325l.351-.3a1.483,1.483,0,0,0,.243.189.719.719,0,0,0,.324.081.528.528,0,0,0,.189-.027.384.384,0,0,0,.162-.054.212.212,0,0,0,.108-.108.207.207,0,0,0,.054-.135.291.291,0,0,0-.054-.162.568.568,0,0,0-.162-.108.5.5,0,0,0-.189-.054.46.46,0,0,0-.189-.027c-.108-.027-.189-.054-.27-.081a1.093,1.093,0,0,1-.243-.135.364.364,0,0,1-.162-.189.975.975,0,0,1-.054-.3.72.72,0,0,1,.081-.325A1.743,1.743,0,0,1,34.151,26a1,1,0,0,1,.3-.135,1.351,1.351,0,0,1,.324-.054,1.261,1.261,0,0,1,.459.081.639.639,0,0,1,.351.3Z" transform="translate(-0.681 -1)" fill="#2a3138"/>
    <path id="Path_113" data-name="Path 113" d="M37.8,24.678h1.054a2.078,2.078,0,0,1,.405.054.946.946,0,0,1,.378.162.719.719,0,0,1,.27.3.889.889,0,0,1,.108.46,1.225,1.225,0,0,1-.081.433.859.859,0,0,1-.594.46,2.08,2.08,0,0,1-.405.054H38.15V28.33h-.324Zm.324,1.6h.756a.831.831,0,0,0,.27-.027.957.957,0,0,0,.243-.108.363.363,0,0,0,.162-.189.376.376,0,0,0,.054-.3.546.546,0,0,0-.081-.3.631.631,0,0,0-.189-.189.957.957,0,0,0-.243-.108,1.009,1.009,0,0,0-.3-.027h-.757Z" transform="translate(-0.767 -1)" fill="#2a3138"/>
    <path id="Path_114" data-name="Path 114" d="M42.472,27.329v.784a.673.673,0,0,0,.027.216h-.27a1.789,1.789,0,0,1-.027-.379.751.751,0,0,1-.324.325,1.058,1.058,0,0,1-.486.108,1.013,1.013,0,0,1-.3-.027.515.515,0,0,1-.27-.135.706.706,0,0,1-.27-.541A.677.677,0,0,1,41.04,27a2.025,2.025,0,0,1,.432-.108,2.335,2.335,0,0,1,.405-.027h.351v-.135a.668.668,0,0,0-.216-.433.933.933,0,0,0-.486-.135,1.064,1.064,0,0,0-.729.271l-.189-.216a1.246,1.246,0,0,1,.405-.243A1.528,1.528,0,0,1,41.5,25.9a1.16,1.16,0,0,1,.675.189.737.737,0,0,1,.243.649Zm-.621-.216a1.778,1.778,0,0,0-.378.027l-.324.081a.638.638,0,0,0-.243.162.407.407,0,0,0-.027.46.327.327,0,0,0,.135.135l.162.081a.459.459,0,0,0,.189.027,1.083,1.083,0,0,0,.405-.081.589.589,0,0,0,.243-.189.847.847,0,0,0,.135-.271,1.112,1.112,0,0,0,.027-.3v-.135Z" transform="translate(-0.82 -1)" fill="#2a3138"/>
    <path id="Path_115" data-name="Path 115" d="M43.283,26.626V25.95h.3v.406a1.861,1.861,0,0,1,.3-.352.91.91,0,0,1,.459-.135h.081a.1.1,0,0,1,.081.027l-.027.3c-.027,0-.081-.027-.108-.027a1.582,1.582,0,0,0-.351.054.745.745,0,0,0-.243.189.844.844,0,0,0-.135.27A1.36,1.36,0,0,0,43.58,27v1.3h-.3Z" transform="translate(-0.867 -1)" fill="#2a3138"/>
    <path id="Path_116" data-name="Path 116" d="M46.146,26.219h-.675v1.542a.287.287,0,0,0,.324.325.526.526,0,0,0,.189-.027c.054-.027.108-.027.162-.054l.027.271a.5.5,0,0,1-.189.054.458.458,0,0,1-.189.027.8.8,0,0,1-.27-.054.486.486,0,0,1-.189-.135.436.436,0,0,1-.108-.189.75.75,0,0,1-.027-.243V26.219h-.54v-.271h.513v-.676h.3v.676h.675Z" transform="translate(-0.898 -1)" fill="#2a3138"/>
    <path id="Path_117" data-name="Path 117" d="M46.687,26.626V25.95h.3v.406h.027a.861.861,0,0,1,.811-.46,1.371,1.371,0,0,1,.459.081,1.059,1.059,0,0,1,.27.216.833.833,0,0,1,.135.325,1.79,1.79,0,0,1,.027.379V28.3h-.3V26.923a.922.922,0,0,0-.027-.271l-.081-.243a.364.364,0,0,0-.189-.162.375.375,0,0,0-.3-.054,1.357,1.357,0,0,0-.324.054.618.618,0,0,0-.27.189.646.646,0,0,0-.162.3,1.123,1.123,0,0,0-.054.433v1.19h-.3V26.626Z" transform="translate(-0.947 -1)" fill="#2a3138"/>
    <path id="Path_118" data-name="Path 118" d="M51.631,27.871a1.157,1.157,0,0,1-.432.379,1.408,1.408,0,0,1-.567.108,1.528,1.528,0,0,1-.486-.081.9.9,0,0,1-.378-.271,1.019,1.019,0,0,1-.243-.406,1.578,1.578,0,0,1-.081-.514,1.534,1.534,0,0,1,.081-.487,1.135,1.135,0,0,1,.243-.379,1.913,1.913,0,0,1,.378-.271,1.576,1.576,0,0,1,.486-.108,1.058,1.058,0,0,1,.486.108,1.029,1.029,0,0,1,.351.243,1.534,1.534,0,0,1,.216.352,1.087,1.087,0,0,1,.081.406v.216H49.794c0,.081.027.162.027.243a1,1,0,0,0,.135.3.766.766,0,0,0,.27.243.854.854,0,0,0,.432.108.887.887,0,0,0,.459-.108.86.86,0,0,0,.324-.3Zm-.243-.947a.975.975,0,0,0-.054-.3l-.162-.243a.559.559,0,0,0-.27-.162.684.684,0,0,0-.324-.054.7.7,0,0,0-.405.108.766.766,0,0,0-.27.243.845.845,0,0,0-.135.271c-.027.054-.027.108-.054.162Z" transform="translate(-1.007 -1)" fill="#2a3138"/>
    <path id="Path_119" data-name="Path 119" d="M52.387,26.626V25.95h.3v.406a1.857,1.857,0,0,1,.3-.352.91.91,0,0,1,.459-.135h.081a.1.1,0,0,1,.081.027l-.027.324c-.027,0-.081-.027-.108-.027a1.576,1.576,0,0,0-.351.054.745.745,0,0,0-.243.189.847.847,0,0,0-.135.271,1.355,1.355,0,0,0-.054.325v1.3h-.3Z" transform="translate(-1.05 -1)" fill="#2a3138"/>
  </g>
</svg>
