<svg xmlns="http://www.w3.org/2000/svg" width="42" height="41.79" viewBox="0 0 42 41.79">
  <g id="shopware-6" transform="translate(0 -1.277)">
    <circle id="Ellipse_4" data-name="Ellipse 4" cx="20.895" cy="20.895" r="20.895" transform="translate(0.21 1.277)" fill="#fff"/>
    <g id="Group_287" data-name="Group 287" transform="translate(0 1.277)">
      <path id="Path_224" data-name="Path 224" d="M32.76,39.372a20.895,20.895,0,1,1,1.867-32.95.447.447,0,0,1-.347.781c-7.342-.862-14.525-.059-19.072,3.471-5.248,4.075-5.747,10.257-2.72,15.7,4.272,7.684,13.73,7.759,20.273,12.248A.454.454,0,0,1,32.76,39.372Z" transform="translate(0 -1.277)" fill="#0c0"/>
      <path id="Path_225" data-name="Path 225" d="M292.913,175.876a20.817,20.817,0,0,1-1.593,8.014,104.919,104.919,0,0,0-13.368-5.665c-2.967-1.113-5.564-4.2-3.833-6.924s6.058-3.215,11.375-1.855a15.248,15.248,0,0,1,6.279,3.842,3.522,3.522,0,0,1,1.139,2.571C292.913,175.866,292.913,175.871,292.913,175.876Z" transform="translate(-251.123 -154.981)" fill="#0c0"/>
    </g>
  </g>
</svg>
