<svg id="Shopify" xmlns="http://www.w3.org/2000/svg" width="67.09" height="25.804" viewBox="0 0 67.09 25.804">
  <g id="Group_415" data-name="Group 415" transform="translate(0 0)">
    <path id="Subtraction_1" data-name="Subtraction 1" d="M12.643,22.2h0L0,19.823c0-.019.039-.308.1-.788C1.111,11.166,1.647,7.053,1.693,6.808l0-.011c.081-.57.085-.592.708-.782L2.768,5.9c.352-.11.926-.29,1.629-.514A11.084,11.084,0,0,1,5.82,2.016,3.907,3.907,0,0,1,9.066,0a1.521,1.521,0,0,1,1.146.656h.11c1.016,0,1.8.745,2.321,2.215.379-.136.653-.218.656-.219a.563.563,0,0,1,.18-.029.614.614,0,0,1,.312.083c.162.136,1.326,1.3,1.338,1.312s1.693.137,1.775.137a.182.182,0,0,1,.191.164c0,.073,1.073,7.359,1.782,12.181l.006.04c.343,2.331.614,4.173.615,4.184L12.644,22.2ZM3.6,15.248l-.574,1.914A4.445,4.445,0,0,0,6.209,18.5h.1c1.878,0,3.14-1.4,3.14-3.472A3.692,3.692,0,0,0,7.5,11.976c-.552-.406-1.029-.757-1.029-1.212,0-.321.136-1.067,1.393-1.067a4.287,4.287,0,0,1,1.639.41l.819-2.515a3.29,3.29,0,0,0-1.412-.34c-.085,0-.171,0-.254.012-3.077,0-4.478,2.112-4.478,4.074a3.031,3.031,0,0,0,1.437,2.551c.533.434.993.809.993,1.469v.054a.862.862,0,0,1-.851.822h-.05A4.2,4.2,0,0,1,3.6,15.248ZM9.011.766A3.009,3.009,0,0,0,6.564,2.328,10.034,10.034,0,0,0,5.325,5.14c.336-.118.687-.223,1.059-.335.227-.068.459-.138.689-.211C7.516,2.227,8.565,1.28,9.367.9A.567.567,0,0,0,9.011.766Zm.82.793A3.839,3.839,0,0,0,7.892,4.292c.523-.168,1.033-.324,1.527-.474l.685-.21V3.473a5.079,5.079,0,0,0-.272-1.914Zm.792-.164A4.621,4.621,0,0,1,10.9,3.117v.246c.189-.054.376-.114.556-.172s.357-.115.509-.156C11.625,2.026,11.187,1.489,10.623,1.394Z" fill="#fff"/>
    <path id="Path_81" data-name="Path 81" d="M18.964,4.658c-.082,0-1.775-.137-1.775-.137s-1.174-1.176-1.338-1.312a.236.236,0,0,0-.164-.082L14.732,22.7l6.854-1.476s-2.4-16.3-2.4-16.4A.425.425,0,0,0,18.964,4.658Z" transform="translate(-2.478 -0.529)" fill="#fff"/>
    <path id="Path_83" data-name="Path 83" d="M34.8,29.514l1.174-6.179c.137-.766.246-1.476.328-2h.492L36.6,22.515h.027a2.527,2.527,0,0,1,2.021-1.285c1.092,0,1.5.957,1.5,1.887,0,1.969-1.338,4.156-3.2,4.156a2.792,2.792,0,0,1-1.147-.246h-.027l-.464,2.515Zm1.092-3.035a1.851,1.851,0,0,0,1.12.328c1.529,0,2.594-2.187,2.594-3.664,0-.684-.273-1.476-1.12-1.476-.819,0-1.912,1.066-2.212,2.816Z" transform="translate(-5.832 -3.738)" fill="#fff"/>
    <path id="Path_84" data-name="Path 84" d="M45.317,27.132c.027-.519.082-1.039.137-1.558h-.027c-.655,1.285-1.393,1.7-2.157,1.7-.874,0-1.42-.738-1.42-1.777,0-1.969,1.42-4.293,3.659-4.293a4.2,4.2,0,0,1,1.174.164l-.628,3.117a10.787,10.787,0,0,0-.246,2.652Zm.792-5.359a1.984,1.984,0,0,0-.683-.109c-1.693,0-2.977,1.859-3,3.718,0,.738.191,1.422.983,1.422.956,0,2.021-1.422,2.294-2.926Z" transform="translate(-7.004 -3.734)" fill="#fff"/>
    <path id="Path_85" data-name="Path 85" d="M48.294,27.132l.737-3.91c.137-.738.218-1.394.273-1.914h.464c-.027.383-.082.766-.164,1.258h.027A2,2,0,0,1,51.3,21.2h.218l-.109.547a.466.466,0,0,0-.191-.027c-.765,0-1.611,1.148-1.857,2.433L48.813,27.1Z" transform="translate(-8.05 -3.734)" fill="#fff"/>
    <path id="Path_86" data-name="Path 86" d="M54.573,19.577l-.3,1.531h1.365l-.109.437H54.163l-.628,3.472a4.106,4.106,0,0,0-.109,1.012.483.483,0,0,0,.519.547,1.06,1.06,0,0,0,.41-.055l.027.41a2.075,2.075,0,0,1-.573.082.866.866,0,0,1-.956-.793v-.164a7.057,7.057,0,0,1,.109-1.066l.655-3.472h-.847l.082-.437H53.7l.246-1.367Z" transform="translate(-8.789 -3.507)" fill="#fff"/>
    <path id="Path_87" data-name="Path 87" d="M56.168,27.132l.765-4.1c.136-.684.218-1.258.273-1.7H57.7l-.164,1.176h.027A2.4,2.4,0,0,1,59.581,21.2a1.3,1.3,0,0,1,1.283,1.476,3.4,3.4,0,0,1-.109.9l-.683,3.582h-.519l.683-3.582a4.456,4.456,0,0,0,.082-.848c0-.6-.246-1.039-.956-1.039a2.769,2.769,0,0,0-2.13,2.379l-.573,3.09Z" transform="translate(-9.397 -3.734)" fill="#fff"/>
    <path id="Path_88" data-name="Path 88" d="M66.249,26.8a2.782,2.782,0,0,1-1.584.437c-1.365,0-1.83-1.066-1.83-2.187,0-1.668,1.174-3.855,2.84-3.855a1.24,1.24,0,0,1,1.365,1.285c0,1.476-1.693,1.887-3.6,1.887a3.7,3.7,0,0,0,.055,1.449,1.242,1.242,0,0,0,1.283.984,2.342,2.342,0,0,0,1.338-.41Zm-.683-5.14c-.9,0-1.693.984-2.048,2.242,1.5,0,2.977-.246,2.977-1.394A.854.854,0,0,0,65.566,21.663Z" transform="translate(-10.499 -3.734)" fill="#fff"/>
    <path id="Path_89" data-name="Path 89" d="M68.233,27.132l.737-3.91c.137-.738.218-1.394.273-1.914h.464c-.027.383-.082.766-.164,1.258h.027A2,2,0,0,1,71.237,21.2h.218l-.109.547a.465.465,0,0,0-.191-.027c-.765,0-1.611,1.148-1.857,2.433L68.752,27.1Z" transform="translate(-11.599 -3.734)" fill="#fff"/>
    <path id="Path_90" data-name="Path 90" d="M30.371,8.1c-.573-.3-.847-.574-.847-.9,0-.437.41-.738,1.038-.738a3.545,3.545,0,0,1,1.393.3L32.474,5.2a3.3,3.3,0,0,0-1.857-.355c-1.912,0-3.25,1.094-3.25,2.652a2.446,2.446,0,0,0,1.447,2.023c.683.383.9.656.9,1.039,0,.41-.328.766-.956.766a5.037,5.037,0,0,1-1.83-.492L26.384,12.4a4.031,4.031,0,0,0,2.157.547c1.966,0,3.413-.984,3.413-2.734A2.649,2.649,0,0,0,30.371,8.1Zm7.865-3.308A2.909,2.909,0,0,0,35.915,5.97h-.027l.847-4.429H34.549L32.392,12.805h2.185l.737-3.855C35.587,7.5,36.351,6.6,37.062,6.6c.492,0,.683.328.683.82a4.032,4.032,0,0,1-.109.984l-.819,4.4H39l.847-4.539a8.411,8.411,0,0,0,.164-1.449C40.038,5.532,39.383,4.794,38.236,4.794Zm6.772,0c-2.649,0-4.4,2.379-4.4,5.058a2.88,2.88,0,0,0,3.031,3.09c2.594,0,4.342-2.324,4.342-5.058A2.832,2.832,0,0,0,45.008,4.794Zm-1.065,6.453c-.765,0-1.065-.629-1.065-1.449,0-1.258.655-3.308,1.857-3.308.765,0,1.038.684,1.038,1.34C45.773,9.169,45.09,11.247,43.943,11.247Zm9.694-6.453a3.015,3.015,0,0,0-2.321,1.312h-.027l.136-1.176H49.459c-.109.793-.273,2.023-.437,2.926l-1.529,8.066h2.185l.628-3.254h.055a2.325,2.325,0,0,0,1.283.273c2.594,0,4.287-2.652,4.287-5.332C55.9,6.134,55.249,4.794,53.637,4.794Zm-2.1,6.48a1.356,1.356,0,0,1-.9-.328L50.989,8.9c.246-1.394.983-2.3,1.748-2.3.683,0,.874.629.874,1.2C53.61,9.251,52.764,11.274,51.535,11.274Zm7.51-9.624a1.254,1.254,0,0,0-1.256,1.258v.027a1,1,0,0,0,.929,1.094h.136a1.226,1.226,0,0,0,1.283-1.176V2.771a1,1,0,0,0-.956-1.094A.246.246,0,0,0,59.044,1.65ZM55.959,12.778h2.185l1.475-7.82H57.406Zm9.285-7.82H63.714L63.8,4.6c.137-.766.573-1.422,1.311-1.422a2.137,2.137,0,0,1,.71.109l.437-1.723a3,3,0,0,0-1.2-.191,3.235,3.235,0,0,0-2.157.738A4.156,4.156,0,0,0,61.611,4.6l-.055.355H60.519l-.328,1.668h1.038l-1.174,6.152H62.24l1.174-6.152h1.529Zm5.3,0s-1.365,3.472-1.994,5.386H68.52c-.055-.629-.546-5.386-.546-5.386H65.653l1.338,7.163a.547.547,0,0,1-.055.355,4.047,4.047,0,0,1-1.2,1.34,4.513,4.513,0,0,1-1.256.629l.628,1.859a4.957,4.957,0,0,0,2.157-1.2,14.373,14.373,0,0,0,2.895-4.375l2.676-5.8Z" transform="translate(-5.745 -0.284)" fill="#fff"/>
  </g>
</svg>
