<svg id="Group_11476" data-name="Group 11476" xmlns="http://www.w3.org/2000/svg" xmlns:xlink="http://www.w3.org/1999/xlink" width="118" height="143.96" viewBox="0 0 118 143.96">
  <defs>
    <linearGradient id="linear-gradient" x1="-0.111" y1="-0.116" x2="1.051" y2="1.111" gradientUnits="objectBoundingBox">
      <stop offset="0" stop-color="#e5d0c6"/>
      <stop offset="0.571" stop-color="#bf8970"/>
      <stop offset="1" stop-color="#cc967c"/>
    </linearGradient>
  </defs>
  <g id="Group_6204" data-name="Group 6204" transform="translate(0 0)">
    <g id="Group_6167" data-name="Group 6167">
      <g id="Rectangle_4810" data-name="Rectangle 4810" transform="translate(0 0.212)" fill="#fefaf8" stroke="#c09884" stroke-width="1">
        <rect width="118" height="143.748" rx="12" stroke="none"/>
        <rect x="0.5" y="0.5" width="117" height="142.748" rx="11.5" fill="none"/>
      </g>
      <path id="Rectangle_4811" data-name="Rectangle 4811" d="M12,0h94a12,12,0,0,1,12,12V60.063a0,0,0,0,1,0,0H0a0,0,0,0,1,0,0V12A12,12,0,0,1,12,0Z" fill="url(#linear-gradient)"/>
      <g id="Group_11405" data-name="Group 11405" transform="translate(14.922 83.885)">
        <path id="Path_10738" data-name="Path 10738" d="M28.429,62.264a2.478,2.478,0,0,0,1.4-2.272,2.764,2.764,0,0,0-3-2.66H23.6a.273.273,0,0,0-.274.274v9.516a.274.274,0,0,0,.274.274h3.385a2.877,2.877,0,0,0,3.14-2.775,2.432,2.432,0,0,0-1.7-2.33ZM24.8,61.7V58.685h1.887a1.4,1.4,0,0,1,1.541,1.481A1.465,1.465,0,0,1,26.686,61.7Zm-.014,4.369V63h2.247a1.472,1.472,0,0,1,1.5,1.51,1.432,1.432,0,0,1-1.5,1.568H24.785Zm8.2,1.05a.275.275,0,0,0,.275.274h.935a.285.285,0,0,0,.275-.274V63.457H36.64l1.887,3.752a.306.306,0,0,0,.3.188h1.08a.273.273,0,0,0,.245-.418l-1.973-3.652a3.19,3.19,0,0,0,2.132-2.918,3.1,3.1,0,0,0-3.14-3.075H33.255a.273.273,0,0,0-.274.273v9.516Zm1.512-4.9V58.728h2.564a1.764,1.764,0,0,1,1.757,1.711,1.787,1.787,0,0,1-1.757,1.781H34.494Zm8.027.157a5.159,5.159,0,1,0,1.5-3.67,5.137,5.137,0,0,0-1.5,3.67Zm1.44,0a3.738,3.738,0,1,1,3.732,3.768A3.809,3.809,0,0,1,43.961,62.379Zm11.645,4.744a.284.284,0,0,0,.274.274h.907a.273.273,0,0,0,.274-.274v-7h.029l6.064,7.218a.445.445,0,0,0,.418.2h.13a.269.269,0,0,0,.274-.257V57.606a.283.283,0,0,0-.274-.273h-.922a.273.273,0,0,0-.274.274v6.8h-.029l-6.049-7a.464.464,0,0,0-.432-.214h-.115a.271.271,0,0,0-.274.259Zm11.044.274H72.7a.273.273,0,0,0,.274-.274V66.3a.273.273,0,0,0-.275-.272h-4.2v-.014l4.667-8.038a.582.582,0,0,0,.1-.372.283.283,0,0,0-.275-.274H67.067a.283.283,0,0,0-.275.274v.834a.284.284,0,0,0,.275.273h4.062v.058l-4.638,7.893a.71.71,0,0,0-.115.46.283.283,0,0,0,.274.273Zm9.062-.274a.274.274,0,0,0,.274.274h5.761a.273.273,0,0,0,.274-.274v-.791a.273.273,0,0,0-.275-.273H77.2v-3.09h3.846a.275.275,0,0,0,.274-.274V61.89a.283.283,0,0,0-.275-.273H77.2V58.685h4.551a.273.273,0,0,0,.274-.274v-.805a.273.273,0,0,0-.275-.273H75.984a.273.273,0,0,0-.272.274Z" transform="translate(-8.015 -57.19)" fill="#a87761" opacity="0.9"/>
        <path id="Path_10739" data-name="Path 10739" d="M11.634,87.169a.373.373,0,0,0,.373.372h2.318a.387.387,0,0,0,.374-.372V82.562h2.062a4.372,4.372,0,1,0-.02-8.744H12.007a.373.373,0,0,0-.373.372V87.169ZM14.7,79.7v-3h1.984a1.4,1.4,0,0,1,1.434,1.451A1.446,1.446,0,0,1,16.682,79.7H14.7Zm6.682,7.842H23.54a.731.731,0,0,0,.707-.471l.707-1.568H30.3L31,87.051c.177.372.334.49.687.49h2.18a.346.346,0,0,0,.334-.51L28.058,73.838a.4.4,0,0,0-.334-.216h-.2a.4.4,0,0,0-.334.216L21.046,87.032a.346.346,0,0,0,.334.51Zm4.753-4.705L27.606,79.6h.02l1.493,3.235Zm10.343,4.333a.373.373,0,0,0,.373.372h2.337a.386.386,0,0,0,.373-.372v-5h1.355l2.612,5.2a.362.362,0,0,0,.314.176h2.612a.371.371,0,0,0,.334-.569L44.1,81.993a4.189,4.189,0,0,0-1.375-8.175H36.848a.373.373,0,0,0-.373.372V87.169ZM39.56,79.68V76.622h2.907a1.443,1.443,0,0,1,1.493,1.49,1.51,1.51,0,0,1-1.493,1.568Zm12.781,7.489a.386.386,0,0,0,.373.372h2.357a.386.386,0,0,0,.373-.372V76.7h2.809a.373.373,0,0,0,.373-.372V74.191a.373.373,0,0,0-.373-.372H49.532a.373.373,0,0,0-.373.372v2.137a.373.373,0,0,0,.373.372h2.809Zm9.072,0a.386.386,0,0,0,.373.372h2.337a.373.373,0,0,0,.373-.372V79.856h.02l7.64,7.665a.631.631,0,0,0,.491.216h.2a.345.345,0,0,0,.373-.353V74.191a.386.386,0,0,0-.373-.372H70.487a.373.373,0,0,0-.373.372v6.96h-.02l-7.542-7.234c-.157-.157-.295-.294-.491-.294h-.295a.369.369,0,0,0-.373.353l.02,13.194Zm15.624,0a.373.373,0,0,0,.373.372h8.131a.373.373,0,0,0,.373-.372V85.032a.373.373,0,0,0-.373-.372H80.1V82.013h4.478a.373.373,0,0,0,.373-.373V79.5a.386.386,0,0,0-.373-.372H80.1V76.7h5.441a.373.373,0,0,0,.373-.372V74.191a.373.373,0,0,0-.373-.372H77.41a.373.373,0,0,0-.373.372V87.169Zm12.075,0a.373.373,0,0,0,.373.372h2.337a.386.386,0,0,0,.373-.372v-5h1.355l2.612,5.2a.362.362,0,0,0,.314.176h2.612a.371.371,0,0,0,.334-.569l-2.691-4.98a4.189,4.189,0,0,0-1.375-8.175H89.485a.373.373,0,0,0-.373.372V87.169ZM92.2,79.68V76.622H95.1a1.443,1.443,0,0,1,1.493,1.49A1.51,1.51,0,0,1,95.1,79.68Z" transform="translate(-11.634 -52.146)" fill="#a87761"/>
      </g>
      <path id="Path_10740" data-name="Path 10740" d="M20.572,10a9.439,9.439,0,0,1,6.4,2.5.141.141,0,0,1,.033.162.137.137,0,0,1-.143.08,16.052,16.052,0,0,0-2.188-.144,10.422,10.422,0,0,0-6.547,1.835,5.314,5.314,0,0,0-2.037,4.28A5.682,5.682,0,0,0,18.3,23.379a17.673,17.673,0,0,0,4.612,2.37,14.6,14.6,0,0,1,3.356,1.637.141.141,0,0,1,0,.225A9.437,9.437,0,0,1,13.8,26.665a9.9,9.9,0,0,1,0-13.807A9.418,9.418,0,0,1,20.573,10Zm41.413,6.333c2.68,0,3.843,1.191,3.941,4.024v-.194c.02.291.022.738.008,1.06-.1,2.368-1.376,3.77-3.268,3.829a14.546,14.546,0,0,1-2.581-.141v3a.385.385,0,0,1-.424.4h-.821a.4.4,0,0,1-.39-.4V17.293c0-.2.206-.343.484-.466A11.12,11.12,0,0,1,61.984,16.333Zm20.555.1c2.734,0,2.993,1.677,2.993,3.844v4.233a.446.446,0,0,1-.414.438L84.54,25c-.56.035-1.91.052-3.221.052-1.608,0-2.734-.613-2.734-2.422,0-1.6,1.22-2.808,3.418-2.808a6.438,6.438,0,0,1,1.719.264c.037-1.376-.3-2-1.367-2a8.658,8.658,0,0,0-2.383.414c-.259.058-.426-.113-.481-.357l-.166-.716a.4.4,0,0,1,.278-.509,9.012,9.012,0,0,1,2.937-.49ZM42.432,13.079a.424.424,0,0,1,.39.4V17.2a3.906,3.906,0,0,1,2.37-.867c2.319,0,3.169,1.661,3.169,3.935v4.388a.408.408,0,0,1-.389.4h-.991a.4.4,0,0,1-.389-.4V20.231c0-1.37-.567-2.183-1.629-2.183a2.429,2.429,0,0,0-2.141,1.209v5.4a.38.38,0,0,1-.407.4h-.973a.4.4,0,0,1-.39-.4V13.475a.409.409,0,0,1,.389-.4ZM90.7,16.432c.779,0,1.752.216,1.486.776l-.424.708a.35.35,0,0,1-.495.2,2.476,2.476,0,0,0-.685-.157q-.113,0-.225,0a3.79,3.79,0,0,0-1.645.209c-.042.026-.118.089-.118.137v6.352c0,.361-.23.4-.567.4h-.814a.4.4,0,0,1-.389-.4V17.009a.286.286,0,0,1,.076-.2.486.486,0,0,1,.337-.175c.232-.031.429-.05.429-.05.31-.037.745-.092,1.48-.123l.289-.013c.295-.013.6-.02.922-.02.075,0,.145,0,.217.005.042,0,.082-.005.126-.005Zm-53.938-.1a4.5,4.5,0,0,1,2.39.614.5.5,0,0,1,.177.614l-.283.577a.379.379,0,0,1-.532.162,4.167,4.167,0,0,0-1.752-.415c-.707,0-1.129.361-1.129.74,0,.542.669.867,1.484,1.228,1.5.651,2.637,1.209,2.637,2.762,0,1.3-1.1,2.437-2.92,2.437a4.677,4.677,0,0,1-2.691-.85.341.341,0,0,1-.141-.432l.372-.776a.359.359,0,0,1,.53-.109,3.749,3.749,0,0,0,2.036.614c.69,0,1.079-.343,1.079-.813,0-.559-.619-.92-1.752-1.444-1.257-.577-2.3-1.263-2.3-2.635,0-1.047.812-2.275,2.793-2.275Zm16.641,0a4.385,4.385,0,0,1,1.658.312,3.435,3.435,0,0,1,1.192.886,4.133,4.133,0,0,1,.775,1.381,5.916,5.916,0,0,1,0,3.569,4.2,4.2,0,0,1-.776,1.373,3.421,3.421,0,0,1-1.192.886,4.563,4.563,0,0,1-3.314,0,3.421,3.421,0,0,1-1.192-.886,4.128,4.128,0,0,1-.776-1.374,5.925,5.925,0,0,1,0-3.568,4.136,4.136,0,0,1,.776-1.381,3.411,3.411,0,0,1,1.192-.886,4.348,4.348,0,0,1,1.656-.312Zm42.9,0a3.678,3.678,0,0,1,3.734,3.826c0,.145-.017.435-.035.579a.385.385,0,0,1-.372.361H93.988a2.408,2.408,0,0,0,2.442,2.274,3.13,3.13,0,0,0,2-.7c.177-.126.337-.181.478.037l.478.758c.141.181.212.343-.035.559a4.625,4.625,0,0,1-3.026,1.03,4.116,4.116,0,0,1-4.089-4.368,4.118,4.118,0,0,1,4.072-4.351Zm-23.914,0a.344.344,0,0,1,.354.2l2.195,5.035h.037l1.309-4.8c.1-.253.406-.253.619-.253h.742c.284,0,.443.216.319.47l-2.336,7.851a.373.373,0,0,1-.372.217h-.071a.381.381,0,0,1-.354-.2l-2.5-5.668H72.3L69.79,24.852a.31.31,0,0,1-.318.2h-.106a.326.326,0,0,1-.337-.217l-2.39-7.851a.3.3,0,0,1,.284-.471h1.061a.363.363,0,0,1,.355.254l1.345,4.783h.035l2.213-5.017a.372.372,0,0,1,.337-.2Zm9.76,4.848c-1,0-1.755.527-1.755,1.432,0,.772.443,1.089,1.329,1.109.794.017,1.718.124,1.977-.309V21.482a3.834,3.834,0,0,0-1.552-.3ZM61.984,17.915a8.232,8.232,0,0,0-1.817.24.1.1,0,0,0-.084.1v5.1c0,.06.045.089.109.11,0,0,.545.065,1.123.111l.219.016a7.889,7.889,0,0,0,.863.022c1.325-.075,1.783-.785,1.82-2.39.007-.317.005-.7,0-.978-.052-2.084-.622-2.326-2.235-2.326Zm-8.624,0c-1.477,0-2.221,1.275-2.221,2.848s.744,2.85,2.221,2.85,2.222-1.276,2.222-2.85S54.838,17.916,53.361,17.916ZM24.478,16.384c1.964,0,3.579.69,5.577,2.381a.141.141,0,0,1,.048.1,9.921,9.921,0,0,1-.615,4.461.139.139,0,0,1-.127.089.135.135,0,0,1-.067-.018,25.892,25.892,0,0,0-3.577-1.571c-2.327-.885-4.335-1.649-4.335-3.326a1.813,1.813,0,0,1,.71-1.474A3.819,3.819,0,0,1,24.478,16.384ZM96.27,17.867a2.09,2.09,0,0,0-2.195,1.9h4.212a1.948,1.948,0,0,0-2.016-1.9Zm2.8-3.508a.987.987,0,1,1-.972.987.979.979,0,0,1,.972-.987Zm0,.144a.843.843,0,1,0,.818.843.831.831,0,0,0-.818-.843Zm.051.343a.305.305,0,0,1,.305.3.317.317,0,0,1-.207.291l.191.363a.027.027,0,0,1-.024.042h-.1a.03.03,0,0,1-.03-.02l-.183-.372h-.211v.364a.028.028,0,0,1-.026.026h-.092a.026.026,0,0,1-.026-.026v-.945a.026.026,0,0,1,.026-.027h.381Zm-.012.139h-.249v.347h.249a.176.176,0,0,0,.172-.178.174.174,0,0,0-.17-.17Z" transform="translate(3.403 10.269)" fill="#fff"/>
    </g>
  </g>
</svg>
