<svg xmlns="http://www.w3.org/2000/svg" xmlns:xlink="http://www.w3.org/1999/xlink" width="24" height="22" viewBox="0 0 24 22">
  <defs>
    <linearGradient id="linear-gradient" y1="0.426" x2="1" y2="0.577" gradientUnits="objectBoundingBox">
      <stop offset="0" stop-color="#975edc"/>
      <stop offset="1" stop-color="#3d4dcf"/>
    </linearGradient>
    <linearGradient id="linear-gradient-2" x1="0.685" y1="0.887" x2="0.848" y2="0.116" xlink:href="#linear-gradient"/>
    <linearGradient id="linear-gradient-3" y1="0.5" x2="1" y2="0.5" gradientUnits="objectBoundingBox">
      <stop offset="0" stop-color="#99b856"/>
      <stop offset="1" stop-color="#a36ff6"/>
    </linearGradient>
  </defs>
  <g id="shopify-to-shopware6" transform="translate(-489 -5950.224)">
    <g id="shopware-6" transform="translate(499.588 5958.175)">
      <path id="Path_10767" data-name="Path 10767" d="M5.991.047C4-.377.527,2.068.031,5.969c-.431,3.389,3.758,7.379,6.223,7.98,1.258.307,2.9-.024,4.811-1.923,1.2-1.187,1.963-4.134-.67-6.995C8.483,2.954,7.629.4,5.991.047" transform="translate(-0.001 0.001)" fill="url(#linear-gradient)"/>
      <path id="Path_10768" data-name="Path 10768" d="M39.839,30.993a6.325,6.325,0,1,1-6.322-6.129,6.228,6.228,0,0,1,6.322,6.129" transform="translate(-26.428 -24.158)" opacity="0.767" fill="url(#linear-gradient-2)"/>
      <path id="Path_10769" data-name="Path 10769" d="M3.883,2.151,5.5,0H3.027L.613,3.227a3.028,3.028,0,1,0,3.27-1.076M3.027,6.077A1.028,1.028,0,1,1,4.057,5.05a1.029,1.029,0,0,1-1.03,1.028" transform="translate(3.469 2.725)" fill="#fff"/>
    </g>
    <path id="Path_10758" data-name="Path 10758" d="M9.722,3.843l-2.5.338A.53.53,0,1,1,7.078,3.13l.761-.1C5.052.691,1.684,1.2.144,3.172A.08.08,0,0,1,0,3.1C.888.5,4.148-1.123,7.83.927q.531.3,1.049.643L8.789.9A.533.533,0,0,1,9.845.756l.334,2.49a.532.532,0,0,1-.457.6h0Z" transform="matrix(0.966, 0.259, -0.259, 0.966, 497.782, 5950.225)" fill="url(#linear-gradient-3)"/>
    <g id="shopify" transform="translate(-143.5 4347.225)">
      <path id="Path_10797" data-name="Path 10797" d="M1374.249,2155.325l-.917,5.494s2.339.493,2.99.581,1.634-1.088,1.707-1.34.215-4.1.237-4.269-.323-1.622-.323-1.622Z" transform="translate(-740.052 -545.642)" fill="#fff"/>
      <g id="shopify_logo" transform="translate(632.5 1606)">
        <path id="Subtraction_1" data-name="Subtraction 1" d="M6.256,11.025h0L0,9.844c0-.01.019-.153.05-.391C.55,5.545.815,3.5.838,3.381V3.376c.04-.283.042-.294.35-.389l.18-.057.806-.255A5.516,5.516,0,0,1,2.88,1,1.932,1.932,0,0,1,4.486,0a.752.752,0,0,1,.567.326h.054c.5,0,.889.37,1.148,1.1.188-.067.323-.108.324-.109A.278.278,0,0,1,6.669,1.3a.3.3,0,0,1,.154.041c.08.067.656.646.662.652s.838.068.878.068a.09.09,0,0,1,.095.081c0,.036.531,3.655.882,6.049l0,.02c.17,1.158.3,2.072.3,2.078l-3.391.733ZM1.783,7.572,1.5,8.523a2.2,2.2,0,0,0,1.573.665h.049A1.557,1.557,0,0,0,4.675,7.464a1.834,1.834,0,0,0-.964-1.517c-.273-.2-.509-.376-.509-.6,0-.159.067-.53.689-.53a2.115,2.115,0,0,1,.811.2L5.107,3.77a1.623,1.623,0,0,0-.7-.169c-.042,0-.084,0-.126.006A2.03,2.03,0,0,0,2.067,5.631,1.506,1.506,0,0,0,2.778,6.9c.264.215.492.4.492.729v.027a.427.427,0,0,1-.421.408H2.824A2.076,2.076,0,0,1,1.783,7.572ZM4.459.38a1.488,1.488,0,0,0-1.211.776,4.993,4.993,0,0,0-.613,1.4c.166-.058.34-.111.524-.166.112-.034.227-.069.341-.1A2.3,2.3,0,0,1,4.635.448.28.28,0,0,0,4.459.38Zm.406.394A1.905,1.905,0,0,0,3.9,2.132c.259-.084.511-.161.755-.235L5,1.792V1.725A2.531,2.531,0,0,0,4.864.774ZM5.256.692a2.3,2.3,0,0,1,.135.855V1.67c.094-.027.186-.057.275-.085s.176-.057.252-.078C5.752,1.006,5.535.739,5.256.692Z" fill="#99b856"/>
        <path id="Path_81" data-name="Path 81" d="M16.826,3.888c-.041,0-.878-.068-.878-.068s-.581-.584-.662-.652a.117.117,0,0,0-.081-.041l-.473,9.722,3.391-.733s-1.189-8.092-1.189-8.147A.21.21,0,0,0,16.826,3.888Z" transform="translate(-8.476 -1.837)" fill="#668946"/>
      </g>
    </g>
  </g>
</svg>
