<svg xmlns="http://www.w3.org/2000/svg" width="78" height="30" viewBox="0 0 78 30">
  <g id="Shopify_Partner" data-name="Shopify Partner" transform="translate(0 -0.107)">
    <path id="Path_80" data-name="Path 80" d="M19.875,5.129a.21.21,0,0,0-.222-.191c-.1,0-2.064-.159-2.064-.159s-1.365-1.367-1.556-1.526a.713.713,0,0,0-.571-.064s-.318.1-.762.254C14.224,2.11,13.43.87,12,.87h-.127A1.765,1.765,0,0,0,10.541.107C7.207.107,5.62,4.271,5.112,6.369c-1.3.413-2.222.7-2.318.731-.73.223-.73.254-.825.922C1.873,8.531,0,23.153,0,23.153l14.7,2.766L22.669,24.2C22.669,24.17,19.875,5.257,19.875,5.129ZM13.906,3.635c-.349.1-.794.254-1.238.381V3.731a5.4,5.4,0,0,0-.318-2C13.112,1.855,13.589,2.682,13.906,3.635ZM11.43,1.919a5.913,5.913,0,0,1,.318,2.225V4.3c-.825.254-1.683.509-2.572.795A4.569,4.569,0,0,1,11.43,1.919ZM10.477,1a.668.668,0,0,1,.413.159C9.81,1.665,8.7,2.9,8.223,5.447c-.7.223-1.4.413-2.032.636C6.731,4.144,8.064,1,10.477,1Z" fill="#95bf47"/>
    <path id="Path_81" data-name="Path 81" d="M19.653,4.907c-.1,0-2.064-.159-2.064-.159s-1.365-1.367-1.556-1.526a.274.274,0,0,0-.19-.1l-1.111,22.76L22.7,24.171S19.907,5.225,19.907,5.1A.494.494,0,0,0,19.653,4.907Z" transform="translate(-0.486)" fill="#5e8e3e"/>
    <path id="Path_82" data-name="Path 82" d="M12,9.326l-.953,2.924a4.953,4.953,0,0,0-1.9-.477c-1.556,0-1.619.985-1.619,1.24,0,1.335,3.461,1.844,3.461,4.959,0,2.479-1.556,4.037-3.651,4.037a5.171,5.171,0,0,1-3.81-1.558l.667-2.225a4.855,4.855,0,0,0,2.445,1.144,1,1,0,0,0,1.048-.954v-.063c0-1.748-2.826-1.812-2.826-4.673,0-2.416,1.714-4.736,5.207-4.736A3.722,3.722,0,0,1,12,9.326Z" transform="translate(0 -0.392)" fill="#e9edf0"/>
    <path id="Path_83" data-name="Path 83" d="M34.8,30.862l1.365-7.184c.159-.89.286-1.717.381-2.321h.571L36.9,22.724h.032a2.938,2.938,0,0,1,2.349-1.494c1.27,0,1.746,1.113,1.746,2.193,0,2.289-1.556,4.832-3.715,4.832a3.246,3.246,0,0,1-1.333-.286h-.032l-.54,2.924Zm1.27-3.528a2.152,2.152,0,0,0,1.3.382c1.778,0,3.016-2.543,3.016-4.26,0-.795-.318-1.716-1.3-1.716-.952,0-2.222,1.24-2.572,3.274Z" transform="translate(-1.121 -0.787)"/>
    <path id="Path_84" data-name="Path 84" d="M45.881,28.1c.032-.6.1-1.208.159-1.812h-.032c-.762,1.494-1.619,1.971-2.508,1.971-1.016,0-1.651-.858-1.651-2.066C41.849,23.9,43.5,21.2,46.1,21.2a4.886,4.886,0,0,1,1.365.191l-.73,3.624a12.541,12.541,0,0,0-.286,3.083Zm.921-6.23a2.306,2.306,0,0,0-.794-.127c-1.968,0-3.461,2.162-3.492,4.323,0,.858.222,1.653,1.143,1.653,1.111,0,2.349-1.653,2.667-3.4Z" transform="translate(-1.337 -0.787)"/>
    <path id="Path_85" data-name="Path 85" d="M48.294,28.1l.857-4.546c.159-.858.254-1.621.317-2.225h.54c-.032.445-.1.89-.19,1.462h.032A2.331,2.331,0,0,1,51.787,21.2h.254l-.127.636a.541.541,0,0,0-.222-.032c-.889,0-1.873,1.335-2.159,2.829L48.9,28.065Z" transform="translate(-1.505 -0.787)"/>
    <path id="Path_86" data-name="Path 86" d="M54.866,19.577l-.349,1.78H56.1l-.127.509H54.39L53.66,25.9a4.774,4.774,0,0,0-.127,1.176.561.561,0,0,0,.6.636,1.232,1.232,0,0,0,.476-.064l.032.477a2.413,2.413,0,0,1-.667.1,1.007,1.007,0,0,1-1.111-.922v-.191a8.205,8.205,0,0,1,.127-1.24l.762-4.037h-.984l.1-.509h.984l.286-1.589Z" transform="translate(-1.636 -0.787)"/>
    <path id="Path_87" data-name="Path 87" d="M56.168,28.1l.889-4.768c.159-.795.254-1.462.317-1.971h.572l-.191,1.367h.032A2.793,2.793,0,0,1,60.136,21.2a1.512,1.512,0,0,1,1.492,1.717,3.951,3.951,0,0,1-.127,1.049l-.794,4.164h-.6l.794-4.164a5.181,5.181,0,0,0,.1-.985c0-.7-.286-1.208-1.111-1.208-.889,0-2.159,1.112-2.477,2.765l-.667,3.592Z" transform="translate(-1.791 -0.787)"/>
    <path id="Path_88" data-name="Path 88" d="M66.8,27.715a3.235,3.235,0,0,1-1.841.509c-1.588,0-2.127-1.24-2.127-2.543,0-1.939,1.365-4.482,3.3-4.482a1.442,1.442,0,0,1,1.587,1.494c0,1.717-1.968,2.193-4.191,2.193a4.307,4.307,0,0,0,.063,1.685,1.444,1.444,0,0,0,1.492,1.144,2.722,2.722,0,0,0,1.556-.477Zm-.794-5.976c-1.048,0-1.968,1.144-2.381,2.607,1.746,0,3.461-.286,3.461-1.621A.993.993,0,0,0,66.01,21.739Z" transform="translate(-1.988 -0.787)"/>
    <path id="Path_89" data-name="Path 89" d="M68.233,28.1l.857-4.546c.159-.858.254-1.621.318-2.225h.54c-.032.445-.1.89-.19,1.462h.032A2.331,2.331,0,0,1,71.725,21.2h.254l-.127.636a.541.541,0,0,0-.222-.032c-.889,0-1.873,1.335-2.159,2.829l-.635,3.433Z" transform="translate(-2.389 -0.787)"/>
    <path id="Path_90" data-name="Path 90" d="M31.019,9.2c-.667-.35-.984-.668-.984-1.049,0-.509.476-.858,1.206-.858a4.121,4.121,0,0,1,1.619.35l.6-1.812a3.837,3.837,0,0,0-2.159-.413c-2.222,0-3.778,1.272-3.778,3.083A2.843,2.843,0,0,0,29.21,10.85c.794.445,1.048.763,1.048,1.208,0,.477-.381.89-1.111.89a5.857,5.857,0,0,1-2.127-.572l-.635,1.812a4.687,4.687,0,0,0,2.508.636c2.286,0,3.969-1.144,3.969-3.179A3.08,3.08,0,0,0,31.019,9.2Zm9.144-3.846a3.382,3.382,0,0,0-2.7,1.367h-.032l.984-5.15h-2.54l-2.508,13.1h2.54l.857-4.482C37.083,8.5,37.972,7.449,38.8,7.449c.571,0,.794.381.794.954a4.688,4.688,0,0,1-.127,1.144l-.952,5.118h2.54l.984-5.277a9.779,9.779,0,0,0,.19-1.685C42.258,6.209,41.5,5.351,40.163,5.351Zm7.874,0c-3.08,0-5.112,2.766-5.112,5.881a3.349,3.349,0,0,0,3.524,3.592c3.016,0,5.048-2.7,5.048-5.881A3.293,3.293,0,0,0,48.037,5.351Zm-1.238,7.5c-.889,0-1.238-.731-1.238-1.685,0-1.462.762-3.846,2.159-3.846.889,0,1.207.795,1.207,1.558C48.926,10.437,48.132,12.853,46.8,12.853Zm11.271-7.5a3.5,3.5,0,0,0-2.7,1.526h-.032L55.5,5.51H53.212c-.127.922-.317,2.352-.508,3.4l-1.778,9.377h2.54l.73-3.783h.064a2.7,2.7,0,0,0,1.492.318c3.016,0,4.985-3.083,4.985-6.2C60.7,6.908,59.943,5.351,58.069,5.351Zm-2.445,7.534a1.577,1.577,0,0,1-1.048-.381l.413-2.384c.286-1.621,1.143-2.67,2.032-2.67.794,0,1.016.731,1.016,1.4C58.038,10.532,57.054,12.885,55.625,12.885ZM64.356,1.7A1.457,1.457,0,0,0,62.9,3.158v.032a1.159,1.159,0,0,0,1.079,1.272h.159a1.425,1.425,0,0,0,1.492-1.367V3a1.163,1.163,0,0,0-1.111-1.272A.286.286,0,0,0,64.356,1.7ZM60.768,14.633h2.54l1.714-9.091H62.451ZM71.563,5.542H69.785l.1-.413c.159-.89.667-1.653,1.524-1.653a2.484,2.484,0,0,1,.826.127l.508-2a3.486,3.486,0,0,0-1.4-.223,3.761,3.761,0,0,0-2.508.858A4.832,4.832,0,0,0,67.34,5.128l-.063.413H66.07l-.381,1.939H66.9l-1.365,7.152h2.54l1.365-7.152h1.778Zm6.159,0S76.135,9.579,75.4,11.8h-.032c-.064-.731-.635-6.262-.635-6.262h-2.7l1.556,8.328a.636.636,0,0,1-.064.413,4.7,4.7,0,0,1-1.4,1.558,5.247,5.247,0,0,1-1.461.731l.73,2.161a5.764,5.764,0,0,0,2.508-1.4,16.71,16.71,0,0,0,3.365-5.086L80.389,5.51Z" transform="translate(-2.389)"/>
  </g>
</svg>
