<svg xmlns="http://www.w3.org/2000/svg" xmlns:xlink="http://www.w3.org/1999/xlink" width="24" height="22" viewBox="0 0 24 22">
  <defs>
    <linearGradient id="linear-gradient" y1="0.426" x2="1" y2="0.577" gradientUnits="objectBoundingBox">
      <stop offset="0" stop-color="#975edc"/>
      <stop offset="1" stop-color="#3d4dcf"/>
    </linearGradient>
    <linearGradient id="linear-gradient-2" x1="0.685" y1="0.887" x2="0.848" y2="0.116" xlink:href="#linear-gradient"/>
    <linearGradient id="linear-gradient-3" y1="0.5" x2="1" y2="0.5" gradientUnits="objectBoundingBox">
      <stop offset="0" stop-color="#479fff"/>
      <stop offset="1" stop-color="#479fff"/>
    </linearGradient>
  </defs>
  <g id="shopware5-to-shopware6" transform="translate(-489 -5950.224)">
    <g id="shopware-6" transform="translate(499.588 5958.175)">
      <path id="Path_10767" data-name="Path 10767" d="M5.991.047C4-.377.527,2.068.031,5.969c-.431,3.389,3.758,7.379,6.223,7.98,1.258.307,2.9-.024,4.811-1.923,1.2-1.187,1.963-4.134-.67-6.995C8.483,2.954,7.629.4,5.991.047" transform="translate(-0.001 0.001)" fill="url(#linear-gradient)"/>
      <path id="Path_10768" data-name="Path 10768" d="M39.839,30.993a6.325,6.325,0,1,1-6.322-6.129,6.228,6.228,0,0,1,6.322,6.129" transform="translate(-26.428 -24.158)" opacity="0.767" fill="url(#linear-gradient-2)"/>
      <path id="Path_10769" data-name="Path 10769" d="M3.883,2.151,5.5,0H3.027L.613,3.227a3.028,3.028,0,1,0,3.27-1.076M3.027,6.077A1.028,1.028,0,1,1,4.057,5.05a1.029,1.029,0,0,1-1.03,1.028" transform="translate(3.469 2.725)" fill="#fff"/>
    </g>
    <g id="shopware-5" transform="translate(489 5953.662)">
      <circle id="Ellipse_105" data-name="Ellipse 105" cx="5.294" cy="5.294" r="5.294" transform="translate(0 0)" fill="#479fff"/>
      <g id="Group_6173" data-name="Group 6173" transform="translate(2.372 2.34)">
        <rect id="Rectangle_4819" data-name="Rectangle 4819" width="1.607" height="0.922" transform="translate(0.005 1.427)" fill="#fff"/>
        <path id="Path_10747" data-name="Path 10747" d="M.793,0,.283,1.368H5.417L5.926,0Z" transform="translate(-0.278 0)" fill="#fff"/>
        <path id="Path_10748" data-name="Path 10748" d="M3.115,136.531H0l.51,1.181H3.177c1.766.154.752,1.44.062,1.544a2.812,2.812,0,0,0,1.478-.663c.721-.7.752-1.988-1.6-2.062" transform="translate(0 -134.122)" fill="#fff"/>
        <path id="Path_10749" data-name="Path 10749" d="M5.426,181.818c.387,1.162-1.047,2.031-2.249,2.031H.793l-.51,1.181h3.36a2.035,2.035,0,0,0,2.088-1.67,2.281,2.281,0,0,0-.305-1.541" transform="translate(-0.278 -178.61)" fill="#fff"/>
      </g>
    </g>
    <path id="Path_10758" data-name="Path 10758" d="M9.722,3.843l-2.5.338A.53.53,0,1,1,7.078,3.13l.761-.1C5.052.691,1.684,1.2.144,3.172A.08.08,0,0,1,0,3.1C.888.5,4.148-1.123,7.83.927q.531.3,1.049.643L8.789.9A.533.533,0,0,1,9.845.756l.334,2.49a.532.532,0,0,1-.457.6h0Z" transform="matrix(0.966, 0.259, -0.259, 0.966, 497.782, 5950.225)" fill="url(#linear-gradient-3)"/>
  </g>
</svg>
