<svg width="573" height="574" viewBox="0 0 573 574" fill="none" xmlns="http://www.w3.org/2000/svg">
<g filter="url(#filter0_f_317_97)">
<path d="M294.5 503C417.936 503 518 402.712 518 279C518 155.288 417.936 55 294.5 55C171.064 55 71 155.288 71 279C71 402.712 171.064 503 294.5 503Z" fill="#A36FF6" fill-opacity="0.17"/>
</g>
<path d="M276.315 101.043C225.237 90.2314 135.83 152.638 123.081 252.204C112.004 338.712 219.699 440.558 283.081 455.896C315.425 463.723 357.545 455.283 406.781 406.814C437.561 376.514 457.244 301.287 389.55 228.276C340.388 175.255 318.413 109.953 276.315 101.043Z" fill="url(#paint0_linear_317_97)"/>
<path opacity="0.767" d="M467.121 274.291C467.121 360.691 394.351 430.742 304.584 430.742C214.817 430.742 142.051 360.696 142.051 274.291C142.051 187.886 214.817 117.84 304.584 117.84C394.351 117.84 467.121 187.886 467.121 274.291Z" fill="url(#paint1_linear_317_97)"/>
<path d="M311.3 224.707L352.973 169.366H289.3L227.235 252.366C217.213 265.596 211.681 281.682 211.447 298.277C211.213 314.872 216.29 331.107 225.935 344.614C235.581 358.12 249.291 368.19 265.064 373.354C280.837 378.517 297.847 378.505 313.613 373.318C329.378 368.131 343.073 358.04 352.698 344.52C362.324 331 367.376 314.757 367.118 298.162C366.86 281.567 361.304 265.489 351.263 252.275C341.221 239.06 327.219 229.401 311.3 224.707ZM289.3 325.648C284.077 325.638 278.974 324.08 274.637 321.17C270.299 318.261 266.921 314.131 264.93 309.303C262.938 304.475 262.422 299.165 263.448 294.043C264.473 288.922 266.993 284.22 270.69 280.53C274.387 276.841 279.094 274.33 284.217 273.314C289.341 272.299 294.65 272.825 299.474 274.826C304.299 276.827 308.422 280.213 311.322 284.557C314.223 288.9 315.771 294.006 315.772 299.228C315.768 302.701 315.081 306.14 313.749 309.347C312.416 312.554 310.466 315.468 308.007 317.921C305.549 320.374 302.632 322.319 299.422 323.645C296.212 324.971 292.773 325.652 289.3 325.648Z" fill="white"/>
<path d="M183.84 55.458C184.586 57.5242 185.732 59.4231 187.212 61.0463C188.802 62.5069 190.675 63.6257 192.715 64.3336C190.68 65.0957 188.811 66.2442 187.212 67.7157C185.743 69.3113 184.598 71.177 183.84 73.2092C183.101 71.175 181.966 69.3075 180.501 67.715C178.892 66.2398 177.011 65.0913 174.964 64.3336C177.016 63.6296 178.901 62.5103 180.501 61.0456C181.977 59.4258 183.113 57.5256 183.84 55.458Z" fill="#8C5CDA"/>
<path d="M444.272 467.385C445.019 469.451 446.164 471.35 447.645 472.973C449.235 474.434 451.108 475.552 453.148 476.26C451.113 477.022 449.244 478.171 447.645 479.642C446.176 481.238 445.03 483.104 444.272 485.136C443.534 483.102 442.399 481.234 440.934 479.642C439.324 478.167 437.444 477.018 435.397 476.26C437.449 475.556 439.333 474.437 440.934 472.972C442.41 471.353 443.545 469.452 444.272 467.385Z" fill="#4A4FD1"/>
<path d="M42.2505 253.437L34.8457 246.032L27.4409 253.437L34.8457 260.842L42.2505 253.437Z" fill="#5E58E5"/>
<path d="M543.29 260.843L535.885 253.438L528.48 260.843L535.885 268.248L543.29 260.843Z" fill="#2D3781"/>
<path d="M487.499 366C489.984 366 491.999 363.985 491.999 361.5C491.999 359.015 489.984 357 487.499 357C485.014 357 482.999 359.015 482.999 361.5C482.999 363.985 485.014 366 487.499 366Z" stroke="#654BC1" stroke-width="2"/>
<path d="M214.999 486C217.208 486 218.999 483.985 218.999 481.5C218.999 479.015 217.208 477 214.999 477C212.79 477 210.999 479.015 210.999 481.5C210.999 483.985 212.79 486 214.999 486Z" stroke="#6254D4" stroke-width="2"/>
<path d="M121.999 155C124.208 155 125.999 153.209 125.999 151C125.999 148.791 124.208 147 121.999 147C119.79 147 117.999 148.791 117.999 151C117.999 153.209 119.79 155 121.999 155Z" stroke="#935DDB" stroke-width="2"/>
<defs>
<filter id="filter0_f_317_97" x="16.1" y="0.0999985" width="556.8" height="557.8" filterUnits="userSpaceOnUse" color-interpolation-filters="sRGB">
<feFlood flood-opacity="0" result="BackgroundImageFix"/>
<feBlend mode="normal" in="SourceGraphic" in2="BackgroundImageFix" result="shape"/>
<feGaussianBlur stdDeviation="27.45" result="effect1_foregroundBlur_317_97"/>
</filter>
<linearGradient id="paint0_linear_317_97" x1="122.289" y1="252.605" x2="436.776" y2="294.026" gradientUnits="userSpaceOnUse">
<stop stop-color="#975EDC"/>
<stop offset="1" stop-color="#3D4DCF"/>
</linearGradient>
<linearGradient id="paint1_linear_317_97" x1="364.724" y1="395.384" x2="413.972" y2="153.376" gradientUnits="userSpaceOnUse">
<stop stop-color="#975EDC"/>
<stop offset="1" stop-color="#3D4DCF"/>
</linearGradient>
</defs>
</svg>
