<svg xmlns="http://www.w3.org/2000/svg" width="48" height="48" viewBox="0 0 48 48">
  <path id="Path_360" data-name="Path 360" d="M50.05,44.8a1.17,1.17,0,0,0-.683-.826L38.073,39.157a1.17,1.17,0,0,0-.952.016,9.312,9.312,0,0,0-4.472,4.463A26.6,26.6,0,0,1,15.863,26.875a9.4,9.4,0,0,0,4.482-4.447,1.17,1.17,0,0,0,.021-.962L15.512,10.123h0a1.224,1.224,0,0,0-.737-.676h0A9.382,9.382,0,0,0,2.5,18.375,38.381,38.381,0,0,0,40.027,56.964c.356.026.735.026,1.088.026s.733,0,1.147-.03A9.375,9.375,0,0,0,50.5,47.652,8.912,8.912,0,0,0,50.05,44.8Zm-8.008,9.829c-.3.021-.627.016-.936.021s-.625,0-.976-.023A36.069,36.069,0,0,1,4.841,18.375a7.051,7.051,0,0,1,7.044-7.044,7.126,7.126,0,0,1,1.685.2l4.416,10.351A7.077,7.077,0,0,1,14.05,25.08a1.17,1.17,0,0,0-.761,1.444,28.954,28.954,0,0,0,19.7,19.68,1.17,1.17,0,0,0,1.442-.761,6.983,6.983,0,0,1,3.216-3.915l10.3,4.39a6.7,6.7,0,0,1,.218,1.736,7.021,7.021,0,0,1-6.113,6.974Z" transform="translate(-2.5 -8.99)"/>
</svg>
