<svg xmlns="http://www.w3.org/2000/svg" xmlns:xlink="http://www.w3.org/1999/xlink" width="238" height="69" viewBox="0 0 238 69">
  <defs>
    <linearGradient id="linear-gradient" x1="0.5" x2="0.5" y2="1" gradientUnits="objectBoundingBox">
      <stop offset="0" stop-color="#4ea4f7"/>
      <stop offset="1" stop-color="#3c77e3"/>
    </linearGradient>
  </defs>
  <g id="Group_11464" data-name="Group 11464" transform="translate(-978 -592)">
    <rect id="Rectangle_6539" data-name="Rectangle 6539" width="238" height="69" transform="translate(978 592)" fill="#f8f9fc"/>
    <rect id="Rectangle_6543" data-name="Rectangle 6543" width="69" height="69" transform="translate(978 592)" fill="url(#linear-gradient)"/>
    <g id="Group_11443" data-name="Group 11443" transform="translate(880 -65.215)">
      <path id="Path_14368" data-name="Path 14368" d="M57.943,15.94c1.623,0,2.327.706,2.386,2.385V18.21c.012.172.013.438,0,.628-.063,1.4-.833,2.234-1.979,2.269a8.992,8.992,0,0,1-1.563-.084V22.8a.231.231,0,0,1-.257.236h-.5A.238.238,0,0,1,55.8,22.8V16.51c0-.117.124-.2.293-.276a6.863,6.863,0,0,1,1.846-.293ZM70.388,16c1.655,0,1.812.994,1.812,2.279v2.509a.267.267,0,0,1-.251.26l-.35.031c-.339.021-1.157.031-1.95.031-.974,0-1.655-.363-1.655-1.435,0-.95.739-1.664,2.069-1.664a3.974,3.974,0,0,1,1.041.157c.022-.815-.179-1.184-.828-1.184a5.343,5.343,0,0,0-1.443.245.239.239,0,0,1-.291-.212l-.1-.424a.234.234,0,0,1,.168-.3A5.562,5.562,0,0,1,70.388,16ZM46.105,14.011a.254.254,0,0,1,.236.235v2.207a2.393,2.393,0,0,1,1.435-.514c1.4,0,1.918.985,1.918,2.332v2.6a.245.245,0,0,1-.235.236h-.6a.238.238,0,0,1-.235-.236V18.251c0-.812-.343-1.294-.986-1.294a1.474,1.474,0,0,0-1.3.717v3.2a.228.228,0,0,1-.247.236h-.589a.238.238,0,0,1-.236-.236V14.247a.245.245,0,0,1,.235-.235ZM75.331,16c.472,0,1.061.128.9.46l-.257.42a.213.213,0,0,1-.3.118,1.526,1.526,0,0,0-.415-.093q-.068,0-.136,0a2.339,2.339,0,0,0-1,.124c-.025.016-.071.053-.071.081v3.765c0,.214-.14.236-.343.236h-.493a.238.238,0,0,1-.235-.236V16.341a.168.168,0,0,1,.046-.116.3.3,0,0,1,.2-.1c.14-.019.26-.029.26-.029.188-.022.451-.054.9-.073l.175-.008c.178-.008.365-.012.558-.012.045,0,.088,0,.132,0,.025,0,.05,0,.076,0ZM42.674,15.94a2.769,2.769,0,0,1,1.447.364.291.291,0,0,1,.107.364l-.171.342a.232.232,0,0,1-.322.1,2.567,2.567,0,0,0-1.061-.246c-.428,0-.683.214-.683.438,0,.321.405.514.9.728.91.386,1.6.717,1.6,1.637a1.571,1.571,0,0,1-1.768,1.445,2.872,2.872,0,0,1-1.629-.5A.2.2,0,0,1,41,20.349l.225-.46a.22.22,0,0,1,.321-.064,2.3,2.3,0,0,0,1.233.364c.418,0,.653-.2.653-.482,0-.331-.375-.545-1.061-.856-.761-.342-1.391-.749-1.391-1.562,0-.621.492-1.348,1.691-1.348Zm10.075,0a2.7,2.7,0,0,1,1,.185,2.077,2.077,0,0,1,.721.525,2.436,2.436,0,0,1,.469.819,3.437,3.437,0,0,1,0,2.116,2.474,2.474,0,0,1-.47.814,2.069,2.069,0,0,1-.721.525,2.818,2.818,0,0,1-2.006,0,2.069,2.069,0,0,1-.721-.525,2.434,2.434,0,0,1-.47-.815,3.442,3.442,0,0,1,0-2.115,2.438,2.438,0,0,1,.47-.819,2.063,2.063,0,0,1,.721-.525A2.682,2.682,0,0,1,52.749,15.94Zm25.973,0a2.2,2.2,0,0,1,2.261,2.268c0,.086-.01.258-.021.343a.231.231,0,0,1-.225.214H77.319A1.445,1.445,0,0,0,78.8,20.113a1.92,1.92,0,0,0,1.211-.417c.107-.074.2-.107.289.022l.289.449c.086.107.128.2-.021.331a2.837,2.837,0,0,1-1.832.611,2.462,2.462,0,0,1-2.476-2.589,2.464,2.464,0,0,1,2.466-2.579Zm-14.478,0a.209.209,0,0,1,.214.118l1.329,2.985h.022L66.6,16.2c.063-.15.246-.15.375-.15h.449c.172,0,.268.128.193.279l-1.414,4.654a.226.226,0,0,1-.225.129h-.043a.231.231,0,0,1-.214-.118l-1.511-3.359h-.021L62.669,20.99a.188.188,0,0,1-.193.118h-.064a.2.2,0,0,1-.2-.129l-1.447-4.654a.178.178,0,0,1,.172-.279h.642a.219.219,0,0,1,.215.151l.814,2.835h.021l1.34-2.974a.226.226,0,0,1,.2-.118Zm5.909,2.874c-.6,0-1.062.313-1.062.849,0,.458.268.646.8.657.48.01,1.04.074,1.2-.183V18.992A2.363,2.363,0,0,0,70.153,18.814Zm-12.21-1.936a5.084,5.084,0,0,0-1.1.142.058.058,0,0,0-.051.057V20.1c0,.036.027.053.066.065,0,0,.33.039.68.066l.132.009a4.877,4.877,0,0,0,.522.013c.8-.044,1.08-.466,1.1-1.417,0-.188,0-.416,0-.58-.032-1.235-.377-1.379-1.353-1.379Zm-5.221,0c-.894,0-1.345.756-1.345,1.688s.45,1.689,1.345,1.689,1.345-.756,1.345-1.689S53.616,16.879,52.722,16.879ZM78.7,16.85a1.256,1.256,0,0,0-1.329,1.123h2.55A1.169,1.169,0,0,0,78.7,16.85Zm1.694-2.079a.585.585,0,1,1-.588.585.586.586,0,0,1,.588-.585Zm0,.085a.5.5,0,1,0,.5.5.5.5,0,0,0-.5-.5Zm.031.2a.183.183,0,0,1,.185.181.188.188,0,0,1-.125.172l.116.215a.016.016,0,0,1-.014.025h-.063a.018.018,0,0,1-.018-.012l-.111-.22h-.128v.216a.017.017,0,0,1-.016.016H80.2a.016.016,0,0,1-.016-.016v-.56a.015.015,0,0,1,0-.011.016.016,0,0,1,.011,0h.231Zm-.007.082h-.151v.206h.151a.105.105,0,0,0,.1-.106.1.1,0,0,0-.1-.1Z" transform="translate(72.017 689.177)" fill="#fff"/>
      <path id="Path_14369" data-name="Path 14369" d="M25.284,10a14.254,14.254,0,0,1,9.544,3.653.2.2,0,0,1,.049.237.206.206,0,0,1-.213.117A24.459,24.459,0,0,0,31.4,13.8c-4.162,0-7.539.928-9.77,2.681a7.7,7.7,0,0,0-3.041,6.254,8.237,8.237,0,0,0,3.3,6.816,26.586,26.586,0,0,0,6.882,3.463A21.986,21.986,0,0,1,33.781,35.4a.2.2,0,0,1,0,.329A14.272,14.272,0,1,1,25.286,10Zm5.829,9.327c2.931,0,5.34,1.008,8.322,3.479a.205.205,0,0,1,.072.14,14.216,14.216,0,0,1-.918,6.517.207.207,0,0,1-.19.13.2.2,0,0,1-.1-.027,39.068,39.068,0,0,0-5.339-2.295c-3.472-1.293-6.47-2.41-6.47-4.859a2.629,2.629,0,0,1,1.059-2.153A5.79,5.79,0,0,1,31.113,19.327Z" transform="translate(107.376 662.215)" fill="#fff"/>
    </g>
    <text id="Certified" transform="translate(1063 624)" fill="#9daab7" font-size="16" font-family="Lato-Medium, Lato" font-weight="500" letter-spacing="0.024em"><tspan x="0" y="0">Certified</tspan></text>
    <text id="Template_Designer" data-name="Template Designer" transform="translate(1063 643)" font-size="16" font-family="Lato-Medium, Lato" font-weight="500" letter-spacing="0.024em"><tspan x="0" y="0">Template Designer</tspan></text>
    <g id="Group_11463" data-name="Group 11463" transform="translate(354 138)">
      <path id="Path_14372" data-name="Path 14372" d="M0,0H28V35L14.157,29.155,0,35Z" transform="translate(834 454)" fill="#3d4dcf"/>
      <path id="Path_14371" data-name="Path 14371" d="M5.772,3.2,8.182,0H4.5L.911,4.8A4.5,4.5,0,1,0,5.772,3.2M4.5,9.035A1.528,1.528,0,1,1,6.031,7.508,1.529,1.529,0,0,1,4.5,9.035" transform="translate(844 464.002)" fill="#fff"/>
    </g>
  </g>
</svg>
