<svg xmlns="http://www.w3.org/2000/svg" width="42" height="42" viewBox="0 0 42 42">
  <g id="trainees" transform="translate(-2 -2)">
    <path id="Path_238" data-name="Path 238" d="M16.24,18.97a6.3,6.3,0,1,0-6.3,6.3,6.3,6.3,0,0,0,6.3-6.3Zm-9.8,0a3.5,3.5,0,1,1,3.5,3.5,3.5,3.5,0,0,1-3.5-3.5Z" transform="translate(0.512 3.334)" fill="#0c0"/>
    <path id="Path_239" data-name="Path 239" d="M25.625,21.975a1.4,1.4,0,0,0-1.588-.735L13.813,23.786a7.061,7.061,0,0,1-1.706.21H7.6A5.6,5.6,0,0,0,2,29.6v7A1.4,1.4,0,0,0,3.4,38H17.4a1.4,1.4,0,0,0,1.4-1.4V32.5a1.391,1.391,0,0,1,.617-1.168l5.093-3.4a4.4,4.4,0,0,0,1.116-5.959ZM23,25.6,17.907,29a4.187,4.187,0,0,0-1.877,3.491v2.7H4.8V29.6a2.809,2.809,0,0,1,2.8-2.8h4.568a9.857,9.857,0,0,0,2.376-.289l9.03-2.257A1.4,1.4,0,0,1,23,25.61Z" transform="translate(0 6)" fill="#0c0"/>
    <path id="Path_240" data-name="Path 240" d="M15.87,9.47h11.2v2.8H15.87Z" transform="translate(4.334 2.334)" fill="#0c0"/>
    <path id="Path_241" data-name="Path 241" d="M15.87,14.8h16.8v2.8H15.87Z" transform="translate(4.334 4)" fill="#0c0"/>
    <path id="Path_242" data-name="Path 242" d="M44,2H2V4.8H3.4v9.8H6.2V4.8H39.8V34.2a1.4,1.4,0,0,1-1.4,1.4H29.563v2.8h8.9a4.2,4.2,0,0,0,4.2-4.2V4.8H44Z" fill="#0c0"/>
  </g>
</svg>
