<svg xmlns="http://www.w3.org/2000/svg" xmlns:xlink="http://www.w3.org/1999/xlink" width="154" height="36" viewBox="0 0 154 36">
  <defs>
    <clipPath id="clip-path">
      <rect id="Rectangle_8" data-name="Rectangle 8" width="154" height="36" transform="translate(0.5)" fill="#fff"/>
    </clipPath>
  </defs>
  <g id="Walmart_Logo" data-name="Walmart Logo" transform="translate(-0.5)" clip-path="url(#clip-path)">
    <path id="Path_32" data-name="Path 32" d="M55.3,10.631v2.04h.063a5.1,5.1,0,0,1,4.664-2.379,4.593,4.593,0,0,1,4.414,2.686h.063A6.538,6.538,0,0,1,66.535,11.1a6.083,6.083,0,0,1,3.159-.817c2.851,0,5.375,1.851,5.375,6.518v8.851H70.723V17.424c0-2.365-.856-3.733-2.635-3.733a2.73,2.73,0,0,0-2.611,1.833,3.888,3.888,0,0,0-.183,1.219v8.919H60.949V17.09c0-2.009-.822-3.4-2.577-3.4a2.915,2.915,0,0,0-2.644,1.927,3.317,3.317,0,0,0-.2,1.228v8.815H51.174V10.631Zm42.2,0v2.835h.12a4.684,4.684,0,0,1,4.356-3.173,4.619,4.619,0,0,1,.986.095v3.936a8.68,8.68,0,0,0-1.289-.108,3.327,3.327,0,0,0-3.529,2.641,5.249,5.249,0,0,0-.1,1.11v7.7H93.589V10.631Zm11.519-4.979v4.73h3.769V14.21h-3.769v5.647c0,1.828.5,2.713,1.966,2.713a6.91,6.91,0,0,0,1.644-.185l.058,3.173a10.89,10.89,0,0,1-3.13.433,4.971,4.971,0,0,1-3.524-1.255c-.875-.871-1.279-2.3-1.279-4.329V5.652Zm-60.877,20H43.819v-20h4.327ZM36.607,20.29a2.663,2.663,0,0,1-.106.812,3.027,3.027,0,0,1-2.918,1.923,1.921,1.921,0,0,1-2.149-1.986c0-2.063,2.423-2.636,5.178-2.622V20.29Zm4.322-3.6c0-3.408-1.548-6.4-6.784-6.4a13.034,13.034,0,0,0-5.986,1.341l.851,2.735a9.173,9.173,0,0,1,4.366-1.151c2.659,0,3.091,1.413,3.091,2.32v.217c-5.793-.009-9.452,1.873-9.452,5.71,0,2.343,1.861,4.536,5.1,4.536a5.965,5.965,0,0,0,4.659-1.941h.1s.664,2.6,4.308,1.6a20.572,20.572,0,0,1-.255-3.62V16.693ZM5.279,5.652C5.726,7.769,7,13.917,7,13.917c.534,2.528,1.024,5.177,1.394,7.272h.067c.361-2.225.928-4.333,1.534-6.942L12.13,5.652h4.736l2,8.815c.524,2.451.942,4.342,1.274,6.622H20.2c.361-2.3.832-4.27,1.346-6.789l1.923-8.648h4.543l-5.63,20c-3.587.736-4.962-.618-5.452-2.767s-1.452-6.247-1.452-6.247a55.653,55.653,0,0,1-1.149-6.125h-.067a61.285,61.285,0,0,1-1.385,6.121L10.52,25.661c-3.664.686-4.933-.33-5.635-3.087C4.279,20.213.5,5.657.5,5.657H5.279Zm81.1,14.638a2.658,2.658,0,0,1-.106.812,3.027,3.027,0,0,1-2.918,1.923A1.921,1.921,0,0,1,81.2,21.039c0-2.063,2.423-2.636,5.178-2.622V20.29Zm4.322-3.6c0-3.408-1.548-6.4-6.784-6.4a13.035,13.035,0,0,0-5.986,1.341l.851,2.735a9.172,9.172,0,0,1,4.366-1.151c2.654,0,3.091,1.413,3.091,2.32v.217c-5.789-.009-9.447,1.873-9.447,5.71,0,2.343,1.865,4.536,5.1,4.536a5.954,5.954,0,0,0,4.654-1.941h.1s.663,2.6,4.308,1.6a20.572,20.572,0,0,1-.255-3.62Z" transform="translate(0 2.174)" fill="#041e42"/>
    <path id="Path_33" data-name="Path 33" d="M97.186,20.941a1.526,1.526,0,0,1-.057,1.918L89.26,28.284c-.82.467-2.046-.1-2.741-1.282s-.575-2.512.244-2.979l8.713-3.988A1.558,1.558,0,0,1,97.186,20.941Zm10.357,0a1.577,1.577,0,0,1,1.711-.91l8.717,3.987c.82.467.939,1.791.244,2.979s-1.931,1.744-2.746,1.282L107.6,22.855A1.525,1.525,0,0,1,107.543,20.941Zm-5.181,2.941a1.564,1.564,0,0,1,1.658,1l.848,9.417c0,.933-1.107,1.7-2.5,1.7s-2.5-.764-2.5-1.7l.843-9.417A1.561,1.561,0,0,1,102.362,23.882ZM107.6,13.145l7.869-5.43c.814-.467,2.046.094,2.746,1.282s.576,2.512-.244,2.979l-8.717,3.992a1.574,1.574,0,0,1-1.711-.91A1.525,1.525,0,0,1,107.6,13.145ZM95.475,15.969l-8.713-3.992c-.815-.467-.939-1.791-.244-2.979s1.927-1.749,2.741-1.282l7.869,5.43a1.517,1.517,0,0,1,.057,1.914A1.574,1.574,0,0,1,95.475,15.969Zm5.233-4.855L99.865,1.7c0-.933,1.107-1.7,2.5-1.7s2.5.764,2.5,1.7l-.848,9.417a1.867,1.867,0,0,1-3.312,0Zm19.634,17.133v-.236h.216a.112.112,0,0,1,.119.118.115.115,0,0,1-.119.118Zm-.178.429a.048.048,0,0,0,.049.047h.092a.051.051,0,0,0,.047-.047v-.269h.148l.121.283a.049.049,0,0,0,.043.033h.11a.046.046,0,0,0,.043-.066c-.043-.085-.086-.174-.129-.264a.261.261,0,0,0,.182-.264.285.285,0,0,0-.3-.283h-.359a.052.052,0,0,0-.049.047Zm-.387-.391a.7.7,0,1,1,.7.693A.7.7,0,0,1,119.778,28.284Zm-.168,0a.872.872,0,1,0,.871-.858A.864.864,0,0,0,119.61,28.284Z" transform="translate(33.146 0)" fill="#ffc124"/>
  </g>
</svg>
