<svg xmlns="http://www.w3.org/2000/svg" width="24.002" height="23.999" viewBox="0 0 24.002 23.999">
  <g id="whatsapp_1_" data-name="whatsapp (1)" transform="translate(0.001 -0.001)">
    <path id="Subtraction_4" data-name="Subtraction 4" d="M-10546,6051a11.923,11.923,0,0,1-6.6-1.982l-4.613,1.473,1.494-4.457A11.885,11.885,0,0,1-10558,6039a12.011,12.011,0,0,1,12-12h.006a12.011,12.011,0,0,1,12,12A12.012,12.012,0,0,1-10546,6051Zm-4.521-18.511a1.742,1.742,0,0,0-1.227.429l-.031.032a3.84,3.84,0,0,0-1.2,2.891,6.723,6.723,0,0,0,1.417,3.607l.009.013c.013.017.037.052.072.1a14.216,14.216,0,0,0,5.9,5.172,10.242,10.242,0,0,0,3.519.983,3.184,3.184,0,0,0,.684-.08,3.39,3.39,0,0,0,2.355-1.693,3.034,3.034,0,0,0,.207-1.667c-.065-.115-.22-.189-.453-.3-.069-.033-.141-.067-.218-.106-.018-.009-2.041-1.014-2.393-1.137a.873.873,0,0,0-.3-.061.667.667,0,0,0-.556.323l-.161.225,0,.007a11.692,11.692,0,0,1-.771,1.011.683.683,0,0,1-.5.2.923.923,0,0,1-.346-.069l-.108-.044a8.827,8.827,0,0,1-2.705-1.691,10.584,10.584,0,0,1-1.947-2.419.552.552,0,0,1,.13-.731l.013-.016c.1-.125.2-.231.3-.334l.012-.012c.079-.083.146-.155.215-.234l.043-.05.006-.006a1.867,1.867,0,0,0,.338-.492.7.7,0,0,0-.051-.649c-.058-.126-.433-1.032-.752-1.808-.055-.131-.106-.258-.155-.376-.065-.158-.123-.3-.171-.413-.229-.547-.4-.577-.761-.593l-.069,0C-10550.282,6032.494-10550.394,6032.489-10550.518,6032.489Z" transform="translate(10558 -6027)"/>
  </g>
</svg>
