<svg xmlns="http://www.w3.org/2000/svg" width="42" height="42.001" viewBox="0 0 42 42.001">
  <g id="wordpress" transform="translate(-0.001)">
    <path id="Path_226" data-name="Path 226" d="M21,0A21,21,0,1,0,42,21,21.024,21.024,0,0,0,21,0ZM2.12,21a18.8,18.8,0,0,1,1.635-7.684l9.007,24.677A18.886,18.886,0,0,1,2.12,21ZM21,39.882a18.872,18.872,0,0,1-5.334-.769l5.665-16.461,5.8,15.9a1.588,1.588,0,0,0,.134.26A18.855,18.855,0,0,1,21,39.882Zm2.6-27.735c1.136-.06,2.162-.18,2.162-.18a.78.78,0,0,0-.121-1.555s-3.058.24-5.033.24c-1.855,0-4.973-.24-4.973-.24a.78.78,0,0,0-.119,1.555s.964.12,1.98.18l2.941,8.06L16.308,32.6,9.434,12.148c1.138-.059,2.161-.18,2.161-.18a.78.78,0,0,0-.121-1.555s-3.057.24-5.032.24c-.355,0-.772-.009-1.215-.023A18.876,18.876,0,0,1,33.752,7.076c-.082,0-.161-.015-.245-.015a3.269,3.269,0,0,0-3.17,3.351c0,1.555.9,2.873,1.854,4.428a9.942,9.942,0,0,1,1.557,5.207c0,1.617-.621,3.491-1.437,6.1l-1.883,6.294Zm6.89,25.174,5.767-16.675A17.8,17.8,0,0,0,37.7,13.883a14.353,14.353,0,0,0-.127-1.942,18.884,18.884,0,0,1-7.076,25.38Z" fill="#0c0"/>
  </g>
</svg>
