<?xml version="1.0" standalone="no"?>
<!DOCTYPE svg PUBLIC "-//W3C//DTD SVG 1.1//EN" "http://www.w3.org/Graphics/SVG/1.1/DTD/svg11.dtd" >
<svg xmlns="http://www.w3.org/2000/svg" xmlns:xlink="http://www.w3.org/1999/xlink" version="1.1">
<metadata></metadata>
<defs>
<font id="source_sans_problack_italic" horiz-adv-x="1064" >
<font-face units-per-em="2048" ascent="1536" descent="-512" />
<missing-glyph horiz-adv-x="409" />
<glyph horiz-adv-x="0" />
<glyph horiz-adv-x="682" />
<glyph unicode=" "  horiz-adv-x="409" />
<glyph unicode="&#x09;" horiz-adv-x="409" />
<glyph unicode="&#xa0;" horiz-adv-x="409" />
<glyph unicode="!" horiz-adv-x="716" d="M94 147q0 55 29 108.5t79 87.5t117 34q74 0 119 -49t45 -123q0 -57 -27.5 -109.5t-78.5 -86.5t-119 -34q-74 0 -119 48.5t-45 123.5zM246 487l119 885h327l-65 -287l-168 -598h-213z" />
<glyph unicode="&#x22;" horiz-adv-x="1126" d="M242 692l41 393l41 287h323l-65 -287l-127 -393h-213zM734 692l41 393l41 287h323l-65 -287l-127 -393h-213z" />
<glyph unicode="#" horiz-adv-x="1056" d="M33 373l49 209h168l65 209h-151l49 208h168l106 332h189l-107 -332h185l106 332h189l-107 -332h152l-50 -208h-167l-66 -209h152l-50 -209h-168l-118 -373h-189l119 373h-184l-119 -373h-188l118 373h-151zM438 582h185l65 209h-184z" />
<glyph unicode="$" d="M4 184l201 197q47 -57 109.5 -100t136.5 -43q147 0 147 122q0 59 -41 105.5t-101.5 91.5t-121 96.5t-101 118t-40.5 158.5q0 166 106.5 278.5t284.5 130.5l39 205h213l-41 -221q139 -43 249 -172l-204 -184q-39 53 -91.5 83.5t-105.5 30.5q-61 0 -94 -32.5t-33 -81.5 q0 -53 41 -96.5t101.5 -86.5t121 -95t101.5 -121.5t41 -166.5q0 -168 -106.5 -282.5t-289.5 -136.5l-43 -207h-213l43 217q-86 23 -165.5 71t-143.5 121z" />
<glyph unicode="%" horiz-adv-x="1728" d="M102 860q0 150 51.5 266.5t141.5 183t209 66.5q80 0 147.5 -40t107.5 -114.5t40 -176.5q0 -150 -51.5 -266.5t-141.5 -183.5t-209 -67q-80 0 -146.5 40t-107.5 115t-41 177zM295 -25l962 1401h185l-963 -1401h-184zM332 864q0 -68 21.5 -105.5t64.5 -37.5q61 0 106 85 t45 234q0 68 -21.5 106t-64.5 38q-61 0 -106 -84t-45 -236zM962 307q0 150 51.5 266.5t141.5 183t209 66.5q80 0 147.5 -40t107.5 -114.5t40 -176.5q0 -150 -51.5 -266.5t-141.5 -183.5t-209 -67q-80 0 -146.5 40t-107.5 115t-41 177zM1192 311q0 -68 21.5 -105.5 t64.5 -37.5q61 0 106 85t45 234q0 68 -21.5 106t-64.5 38q-61 0 -106 -84t-45 -236z" />
<glyph unicode="&#x26;" horiz-adv-x="1335" d="M29 315q0 109 42 187t110.5 134t146.5 99q-41 117 -41 219q0 109 56 200t152.5 146.5t217.5 55.5q141 0 218 -77t77 -210q0 -98 -49.5 -173t-127 -132t-161.5 -109q41 -57 90 -112.5t102 -102.5q63 72 110.5 152t84.5 170h295q-57 -121 -128 -236.5t-165 -224.5 q53 -27 102 -42t88 -26l-127 -258q-150 29 -291 121q-88 -57 -189 -89t-216 -32q-190 0 -293.5 95.5t-103.5 244.5zM344 348q0 -55 36 -91t103 -36q37 0 76 8.5t78 26.5q-115 115 -199 252q-43 -35 -68.5 -74t-25.5 -86zM557 963q0 -27 4 -52.5t10 -52.5q80 43 132.5 93 t52.5 124q0 68 -64 68q-51 0 -93 -47t-42 -133z" />
<glyph unicode="'" horiz-adv-x="634" d="M242 692l41 393l41 287h323l-65 -287l-127 -393h-213z" />
<glyph unicode="(" horiz-adv-x="704" d="M106 266q0 238 55.5 445t163 400.5t265.5 391.5l188 -94q-215 -291 -312 -582.5t-97 -580.5q0 -84 7 -179.5t22.5 -186.5t39.5 -163l-209 -86q-45 129 -84 299t-39 336z" />
<glyph unicode=")" horiz-adv-x="708" d="M-57 -274q215 293 312 583.5t97 579.5q0 84 -7 179t-22.5 186.5t-39.5 162.5l209 86q47 -129 84.5 -299t37.5 -336q0 -238 -55 -444.5t-162.5 -400t-265.5 -392.5z" />
<glyph unicode="*" horiz-adv-x="925" d="M188 1139l74 151l225 -69l70 241l168 -12l-16 -250l241 29l25 -164l-234 -82l78 -225l-151 -86l-131 196l-185 -172l-123 115l160 209z" />
<glyph unicode="+" d="M98 561v230h340v372h238v-372h340v-230h-344v-373h-238v373h-336z" />
<glyph unicode="," horiz-adv-x="634" d="M-53 -225q127 35 193.5 97t86.5 132q-76 4 -125 46t-49 118q0 84 57.5 146.5t155.5 62.5q92 0 142.5 -58.5t50.5 -162.5q0 -141 -57.5 -257t-164.5 -193.5t-257 -106.5z" />
<glyph unicode="-" horiz-adv-x="671" d="M66 406l49 229h491l-49 -229h-491z" />
<glyph unicode="&#xad;" horiz-adv-x="671" d="M66 406l49 229h491l-49 -229h-491z" />
<glyph unicode="." horiz-adv-x="634" d="M49 147q0 55 28.5 108.5t79 87.5t117.5 34q74 0 119 -49t45 -123q0 -57 -27.5 -109.5t-78.5 -86.5t-119 -34q-74 0 -119 48.5t-45 123.5z" />
<glyph unicode="/" horiz-adv-x="663" d="M-139 -328l712 1782h213l-716 -1782h-209z" />
<glyph unicode="0" d="M74 451q0 229 52 394t138 270.5t189.5 156.5t205.5 51q106 0 192.5 -51t137.5 -156.5t51 -271.5q0 -229 -51 -393t-136 -269.5t-188.5 -156t-205.5 -50.5q-106 0 -193.5 50.5t-139.5 156t-52 269.5zM377 414q0 -113 28.5 -151t73.5 -38q61 0 122 83t100.5 230.5 t39.5 342.5q0 115 -27.5 153.5t-74.5 38.5q-61 0 -121.5 -84t-100.5 -232.5t-40 -342.5z" />
<glyph unicode="1" d="M33 0l53 262h262l144 709h-238l41 205q115 18 193.5 47.5t154.5 74.5h242l-209 -1036h229l-53 -262h-819z" />
<glyph unicode="2" d="M-29 0l37 184q193 156 345.5 284t241.5 240.5t89 221.5q0 61 -35 98t-100 37q-51 0 -95 -26.5t-98 -67.5l-155 188q96 80 193.5 122t195.5 42q190 0 302 -98.5t112 -261.5q0 -127 -62.5 -237t-170 -218.5t-243.5 -233.5h394l-54 -274h-897z" />
<glyph unicode="3" d="M-37 213l205 168q53 -70 122.5 -106.5t127.5 -36.5q92 0 144 38.5t52 108.5q0 51 -24.5 87t-89 54.5t-185.5 18.5l45 229q127 0 197 22.5t96.5 62.5t26.5 91q0 53 -37 84t-102 31q-43 0 -85 -18.5t-104 -55.5l-155 209q104 72 202.5 97.5t202.5 25.5q121 0 214 -40 t146.5 -111.5t53.5 -167.5q0 -123 -58.5 -207t-212.5 -138v-8q104 -43 150.5 -114.5t46.5 -155.5q0 -133 -68.5 -223t-185.5 -136.5t-262 -46.5q-117 0 -242 53.5t-221 184.5z" />
<glyph unicode="4" d="M12 299l45 229l602 770h398l-150 -749h142l-50 -250h-141l-59 -299h-299l59 299h-547zM377 549h231l35 176q16 74 35.5 149.5t34.5 149.5h-8q-37 -61 -76 -122.5t-84 -123.5z" />
<glyph unicode="5" d="M-8 213l205 168q106 -143 241 -143q80 0 140.5 53t60.5 151q0 78 -41 117t-115 39q-45 0 -78.5 -10t-101.5 -47l-119 98l160 659h733l-53 -274h-451l-57 -205q29 12 54.5 16.5t52.5 4.5q147 0 247.5 -87t100.5 -257q0 -121 -45 -217.5t-122 -164t-172.5 -103.5 t-197.5 -36q-117 0 -231.5 53.5t-210.5 184.5z" />
<glyph unicode="6" d="M102 446q0 266 86 463t236.5 305.5t345.5 108.5q86 0 150.5 -29.5t110.5 -72.5t75 -82l-205 -172q-27 41 -62.5 67.5t-88.5 26.5q-102 0 -188.5 -86t-127.5 -268q53 53 122 82.5t116 29.5q90 0 163.5 -34.5t116.5 -109.5t43 -196q0 -94 -33.5 -184t-97 -162t-150 -115 t-190.5 -43q-129 0 -223 59.5t-146.5 166t-52.5 245.5zM406 412q0 -96 38.5 -145.5t96.5 -49.5q55 0 90 39t50 94.5t15 102.5q0 70 -29.5 107.5t-84.5 37.5q-37 0 -80 -24.5t-94 -88.5q-2 -18 -2 -36.5v-36.5z" />
<glyph unicode="7" d="M184 1024l54 274h909l-41 -204q-150 -133 -249 -270.5t-161.5 -276.5t-102.5 -276.5t-69 -270.5h-336q92 330 217 580.5t324 443.5h-545z" />
<glyph unicode="8" d="M66 311q0 131 80.5 221.5t197.5 135.5v8q-57 59 -88 124.5t-31 141.5q0 119 61.5 204t165 131t224.5 46q92 0 178 -30.5t142.5 -97.5t56.5 -175q0 -119 -62.5 -206t-171.5 -142v-8q78 -51 121 -126t43 -173q0 -119 -68.5 -206t-181.5 -135.5t-246 -48.5 q-72 0 -145.5 18.5t-136 59.5t-101 104.5t-38.5 153.5zM356 348q0 -57 38 -102t118 -45q68 0 120 41t52 123q0 66 -56.5 108.5t-152.5 99.5q-47 -39 -83 -96t-36 -129zM512 954q0 -63 42 -105t122 -87q39 39 68.5 89t29.5 120q0 51 -25.5 87t-97.5 36q-57 0 -98 -36 t-41 -104z" />
<glyph unicode="9" d="M16 160l205 172q29 -39 65 -66.5t87 -27.5q102 0 189 86t126 268q-51 -53 -120.5 -83t-116.5 -30q-90 0 -164 35t-117 110.5t-43 194.5q0 94 34 184.5t97.5 162t149.5 114.5t190 43q129 0 224.5 -59.5t146.5 -165t51 -246.5q0 -266 -86 -462.5t-236.5 -305.5t-345.5 -109 q-86 0 -150.5 30t-110.5 73t-75 82zM426 846q0 -70 29.5 -108t85.5 -38q37 0 80 25t94 88q2 18 2 36.5v37.5q0 96 -38 145t-97 49q-55 0 -89 -38.5t-50.5 -93t-16.5 -103.5z" />
<glyph unicode=":" horiz-adv-x="634" d="M49 147q0 55 28.5 108.5t79 87.5t117.5 34q74 0 119 -49t45 -123q0 -57 -27.5 -109.5t-78.5 -86.5t-119 -34q-74 0 -119 48.5t-45 123.5zM160 802q0 55 28.5 108.5t79 87.5t117.5 34q74 0 119 -49t45 -123q0 -57 -27.5 -109.5t-78.5 -86.5t-119 -34q-74 0 -119 48.5 t-45 123.5z" />
<glyph unicode=";" horiz-adv-x="634" d="M-53 -225q127 35 193.5 97t86.5 132q-76 4 -125 46t-49 118q0 84 57.5 146.5t155.5 62.5q92 0 142.5 -58.5t50.5 -162.5q0 -141 -57.5 -257t-164.5 -193.5t-257 -106.5zM160 802q0 55 28.5 108.5t79 87.5t117.5 34q74 0 119 -49t45 -123q0 -57 -27.5 -109.5t-78.5 -86.5 t-119 -34q-74 0 -119 48.5t-45 123.5z" />
<glyph unicode="&#x3c;" d="M94 565v226l922 364v-266l-324 -111l-266 -94v-8l266 -94l324 -111v-270z" />
<glyph unicode="=" d="M98 315v230h918v-230h-918zM98 807v230h918v-230h-918z" />
<glyph unicode="&#x3e;" d="M98 201v270l324 111l266 94v8l-266 94l-324 111v266l922 -364v-226z" />
<glyph unicode="?" horiz-adv-x="937" d="M180 147q0 55 29 108.5t79 87.5t118 34q74 0 118.5 -49t44.5 -123q0 -57 -27.5 -109.5t-78.5 -86.5t-119 -34q-74 0 -119 48.5t-45 123.5zM233 1249q154 147 340 148q176 0 285 -84t109 -236q0 -94 -35 -158.5t-88 -112.5t-109.5 -94t-99.5 -101.5t-57 -135.5l-279 25 q10 96 49 161.5t89 112.5t98.5 85t80 78t31.5 91q0 49 -30.5 78t-84.5 29q-66 0 -135 -70z" />
<glyph unicode="@" horiz-adv-x="1814" d="M86 332q0 221 78 411.5t212 334t307 223t366 79.5q219 0 373.5 -86t236.5 -231t82 -322q0 -223 -69.5 -371.5t-186.5 -222t-256 -73.5q-70 0 -129.5 38t-79.5 113h-8q-37 -57 -102.5 -94t-127.5 -37q-113 0 -187.5 84t-74.5 219q0 98 33 190.5t92.5 164t135 114.5 t161.5 43q47 0 81 -22.5t58 -75.5h4l33 82h197l-107 -459q-18 -82 1.5 -121t80.5 -39q51 0 108.5 48.5t97.5 144.5t40 242q0 90 -26.5 176t-86 155.5t-160 110.5t-247.5 41q-125 0 -250 -62.5t-229.5 -174t-167 -261t-62.5 -325.5q0 -137 45 -237.5t121 -166t168 -97.5 t186 -32q49 0 115 19.5t115 50.5l86 -176q-88 -43 -172 -66.5t-172 -23.5q-139 0 -267.5 43t-228.5 128t-158.5 216t-58.5 305zM762 414q0 -55 22.5 -87t67.5 -32q29 0 55.5 20.5t59.5 69.5l61 266q-25 53 -78 54q-53 0 -96 -47.5t-67.5 -115t-24.5 -128.5z" />
<glyph unicode="A" horiz-adv-x="1150" d="M-135 0l696 1331h393l127 -1331h-344l-8 303h-367l-137 -303h-360zM475 549h246l-4 156q-2 96 -5 188t-3 192h-9q-39 -98 -75.5 -191t-79.5 -189z" />
<glyph unicode="B" horiz-adv-x="1253" d="M53 0l266 1331h426q135 0 240 -31.5t164 -99t59 -176.5q0 -106 -73.5 -197.5t-212.5 -134.5l-4 -8q225 -55 225 -242q0 -160 -82 -257t-215 -141t-289 -44h-504zM430 250h152q123 0 184 49t61 131q0 147 -180 148h-151zM541 799h110q121 0 171 46t50 122q0 114 -177 114 h-3h-94z" />
<glyph unicode="C" horiz-adv-x="1175" d="M115 541q0 178 56 327.5t154.5 258t228.5 169t277 60.5q117 0 212.5 -56.5t152.5 -160.5l-221 -172q-72 106 -160 106q-96 0 -179 -68.5t-134 -184t-51 -259.5q0 -143 59 -223t195 -80q53 0 106 27.5t98 66.5l135 -209q-37 -35 -97 -73.5t-139 -66.5t-173 -28 q-156 0 -272.5 67t-182 192.5t-65.5 306.5z" />
<glyph unicode="D" horiz-adv-x="1282" d="M53 0l266 1331h312q281 0 439.5 -127t158.5 -397t-97.5 -449.5t-264.5 -268.5t-375 -89h-439zM434 262h49q111 0 204 51.5t149.5 166t56.5 306.5q0 158 -77 220.5t-193 62.5h-29z" />
<glyph unicode="E" horiz-adv-x="1097" d="M53 0l266 1331h811l-53 -274h-487l-45 -234h413l-53 -274h-413l-58 -275h504l-53 -274h-832z" />
<glyph unicode="F" horiz-adv-x="1056" d="M53 0l266 1331h811l-53 -274h-487l-53 -275h413l-53 -274h-414l-102 -508h-328z" />
<glyph unicode="G" horiz-adv-x="1269" d="M115 541q0 178 56 327.5t156.5 258t234.5 169t290 60.5q133 0 230.5 -56.5t154.5 -160.5l-221 -172q-72 106 -180 106q-106 0 -193.5 -68.5t-139.5 -184t-52 -259.5q0 -143 60 -225t202 -82q66 0 114 33l50 221h-197l49 266h483l-127 -659q-76 -57 -188.5 -98.5 t-241.5 -41.5q-248 0 -394 147.5t-146 418.5z" />
<glyph unicode="H" horiz-adv-x="1359" d="M53 0l266 1331h328l-102 -500h397l98 500h328l-266 -1331h-328l111 545h-398l-106 -545h-328z" />
<glyph unicode="I" horiz-adv-x="634" d="M53 0l266 1331h328l-266 -1331h-328z" />
<glyph unicode="J" horiz-adv-x="1032" d="M-20 176l196 201q31 -43 82 -81t115 -38q72 0 115.5 55.5t68.5 175.5l168 842h328l-181 -899q-25 -121 -84 -225.5t-161 -168t-254 -63.5q-113 0 -220.5 51.5t-172.5 149.5z" />
<glyph unicode="K" horiz-adv-x="1273" d="M53 0l266 1331h328l-100 -504h8l436 504h357l-480 -561l295 -770h-340l-196 565l-172 -196l-74 -369h-328z" />
<glyph unicode="L" horiz-adv-x="1052" d="M53 0l266 1331h328l-213 -1057h484l-54 -274h-811z" />
<glyph unicode="M" horiz-adv-x="1544" d="M53 0l266 1331h340l86 -573l31 -226h8l117 226l311 573h340l-266 -1331h-307l94 442q14 70 37 153t47.5 165t46.5 149h-6l-166 -311l-282 -483h-123l-86 483l-41 311h-6q-4 -68 -11.5 -150.5t-16.5 -165.5t-24 -151l-90 -442h-299z" />
<glyph unicode="N" horiz-adv-x="1335" d="M53 0l266 1331h316l184 -631l66 -299h8q10 109 19.5 247t33.5 257l86 426h311l-266 -1331h-315l-184 631l-62 299h-8q-8 -113 -20.5 -246t-36.5 -254l-86 -430h-312z" />
<glyph unicode="O" horiz-adv-x="1372" d="M115 541q0 186 57 335.5t154.5 257t221.5 165t255 57.5q154 0 270.5 -66.5t181 -192.5t64.5 -306q0 -186 -57.5 -336t-154.5 -257.5t-220 -165t-256 -57.5q-154 0 -269.5 67t-181 192.5t-65.5 306.5zM451 561q0 -143 52 -223t144 -80q76 0 154 64.5t130 179t52 268.5 q0 145 -52 224t-145 79q-76 0 -153.5 -64.5t-129.5 -179t-52 -268.5z" />
<glyph unicode="P" horiz-adv-x="1220" d="M53 0l266 1331h439q133 0 239.5 -35.5t169 -115.5t62.5 -213q0 -145 -50.5 -248t-138.5 -165t-200.5 -91t-237.5 -29h-135l-86 -434h-328zM520 692h121q127 0 195.5 57.5t68.5 168.5q0 80 -51 117.5t-141 37.5h-119z" />
<glyph unicode="Q" horiz-adv-x="1372" d="M115 541q0 186 57 335.5t154.5 257t221.5 165t255 57.5q154 0 270.5 -66.5t181 -192.5t64.5 -306q0 -215 -76 -382t-202 -274.5t-275 -142.5q43 -53 114.5 -78t147.5 -25q43 0 77 6.5t66 14.5l13 -246q-37 -14 -88 -25.5t-88 -11.5q-436 0 -592 387q-139 57 -220 191.5 t-81 335.5zM451 561q0 -156 52 -235.5t144 -79.5q76 0 154 63.5t130 181t52 279.5q0 145 -52 224t-145 79q-76 0 -153.5 -64.5t-129.5 -179t-52 -268.5z" />
<glyph unicode="R" horiz-adv-x="1253" d="M53 0l266 1331h439q133 0 239.5 -33.5t169 -111.5t62.5 -207q0 -186 -91 -301t-231 -168l199 -510h-344l-154 459h-137l-90 -459h-328zM524 717h119q133 0 197.5 59.5t64.5 153.5q0 74 -50 108.5t-142 34.5h-119z" />
<glyph unicode="S" horiz-adv-x="1101" d="M4 231l234 185q53 -72 127.5 -117t150.5 -45q72 0 114 30.5t42 86.5q0 45 -41 72.5t-111 70.5l-114 72q-92 59 -144.5 137t-52.5 203q0 121 65.5 218t177 154.5t246.5 57.5q117 0 224.5 -55.5t189.5 -151.5l-205 -193q-51 51 -103 84t-118 33q-70 0 -105.5 -33.5 t-35.5 -81.5q0 -41 42 -68.5t122 -78.5l122 -76q96 -57 138.5 -128.5t42.5 -188.5q0 -121 -63.5 -222.5t-180 -161t-276.5 -59.5q-127 0 -255 58.5t-233 197.5z" />
<glyph unicode="T" horiz-adv-x="1105" d="M164 1057l53 274h1000l-54 -274h-336l-209 -1057h-327l209 1057h-336z" />
<glyph unicode="U" horiz-adv-x="1339" d="M152 455q0 47 10 110.5t18 114.5l131 651h328l-143 -717q-6 -39 -11.5 -76.5t-5.5 -74.5q0 -100 38 -152.5t138 -52.5q90 0 143.5 74t86.5 246l151 753h320l-152 -745q-61 -313 -195.5 -462t-361.5 -149q-248 0 -371.5 117t-123.5 363z" />
<glyph unicode="V" horiz-adv-x="1179" d="M160 1331h344l24 -622q4 -104 6.5 -210t2.5 -212h8q45 106 88 210.5t88 211.5l270 622h361l-684 -1331h-398z" />
<glyph unicode="W" horiz-adv-x="1654" d="M143 0l58 1331h336l-54 -602q-10 -104 -21 -211.5t-28 -214.5h8q41 106 85 215t83 211l252 602h273v-602q-2 -100 -8.5 -208.5t-12.5 -217.5h8q35 109 72 216.5t68 209.5l200 602h312l-504 -1331h-414l16 569q0 59 7.5 146.5t15.5 163.5h-8q-27 -74 -57.5 -153 t-59.5 -157l-221 -569h-406z" />
<glyph unicode="X" horiz-adv-x="1179" d="M-74 0l488 684l-201 647h365l49 -233q10 -45 20 -99.5t25 -117.5h8q35 63 65.5 117.5t57.5 99.5l131 233h348l-463 -659l217 -672h-364l-58 258q-12 53 -24 105.5t-25 111.5h-8q-33 -59 -64.5 -111.5t-62.5 -105.5l-156 -258h-348z" />
<glyph unicode="Y" horiz-adv-x="1081" d="M162 1331h340l43 -295q12 -76 22.5 -145.5t22.5 -149.5h8q41 80 77 152t79 147l159 291h353l-566 -864l-94 -467h-325l92 467z" />
<glyph unicode="Z" horiz-adv-x="1085" d="M-12 0l41 197l676 860h-492l53 274h885l-41 -196l-668 -861h541l-57 -274h-938z" />
<glyph unicode="[" horiz-adv-x="704" d="M-16 -311l352 1761h434l-33 -172h-192l-283 -1417h193l-37 -172h-434z" />
<glyph unicode="\" horiz-adv-x="663" d="M172 1454h209l127 -1782h-213z" />
<glyph unicode="]" horiz-adv-x="704" d="M-45 -311l37 172h188l283 1417h-189l33 172h434l-352 -1761h-434z" />
<glyph unicode="^" horiz-adv-x="1056" d="M139 557l307 815h259l307 -815h-267l-77 242l-86 278h-9l-90 -278l-77 -242h-267z" />
<glyph unicode="_" horiz-adv-x="983" d="M-106 -295l36 180h934l-37 -180h-933z" />
<glyph unicode="`" horiz-adv-x="1105" d="M418 1520l279 209l254 -408l-201 -156z" />
<glyph unicode="a" horiz-adv-x="1142" d="M57 352q0 145 45 272.5t122 222.5t174.5 148.5t203.5 53.5q66 0 126 -34t87 -93h4l45 102h262l-204 -1024h-267v127h-4q-68 -70 -150.5 -111t-156.5 -41q-135 0 -211 98.5t-76 278.5zM397 393q0 -80 26 -115.5t69 -35.5q41 0 91 26.5t89 108.5l65 328q-18 41 -50 59 t-60 18q-59 0 -111.5 -49t-85.5 -137t-33 -203z" />
<glyph unicode="b" horiz-adv-x="1146" d="M16 0l287 1425h328l-62 -299l-53 -188h4q66 53 137.5 82t141.5 29q135 0 210.5 -97.5t75.5 -279.5q0 -145 -45 -272.5t-121.5 -222.5t-174 -148.5t-203.5 -53.5q-63 0 -119.5 35t-85.5 92h-4l-45 -102h-271zM410 319q16 -39 45.5 -58t60.5 -19q59 0 111.5 49t85 137 t32.5 203q0 80 -25.5 115.5t-68.5 35.5q-39 0 -87 -23.5t-85 -90.5z" />
<glyph unicode="c" horiz-adv-x="913" d="M53 401q0 129 46 246t129 207t196 142.5t244 52.5q98 0 169.5 -40t108.5 -87l-180 -193q-27 29 -54.5 43t-64.5 14q-74 0 -132 -51t-92 -138t-34 -191q0 -76 37 -122t111 -46q47 0 79.5 18t59.5 39l135 -201q-57 -43 -141 -81t-207 -38q-115 0 -208 50.5t-147.5 145.5 t-54.5 230z" />
<glyph unicode="d" horiz-adv-x="1126" d="M57 352q0 145 45 272.5t122 222.5t174.5 148.5t203.5 53.5q66 0 118 -31t79 -84h4l20 192l58 299h327l-286 -1425h-267v127h-4q-68 -70 -150.5 -111t-156.5 -41q-135 0 -211 98.5t-76 278.5zM397 393q0 -80 26 -115.5t69 -35.5q41 0 89 26.5t91 108.5l65 328 q-18 41 -50 59t-60 18q-59 0 -111.5 -49t-85.5 -137t-33 -203z" />
<glyph unicode="e" horiz-adv-x="1028" d="M53 418q0 141 51.5 257t135.5 199.5t186 129t205 45.5q125 0 199.5 -53.5t107.5 -141.5t33 -195q0 -74 -20.5 -144.5t-32.5 -92.5h-558q0 -106 62.5 -153.5t150.5 -47.5q43 0 91.5 20.5t80.5 45.5l115 -205q-61 -43 -157.5 -75t-223.5 -32q-125 0 -221 53.5t-150.5 153 t-54.5 236.5zM385 618h311q4 10 6.5 27t2.5 31q0 53 -25 88t-90 35q-57 0 -113.5 -42.5t-91.5 -138.5z" />
<glyph unicode="f" horiz-adv-x="704" d="M70 0l155 770h-131l49 242l136 12l4 29q20 106 70 196t136 145.5t216 55.5q125 0 233 -57l-102 -230q-14 10 -42 19.5t-53 9.5q-51 0 -82.5 -21.5t-48.5 -105.5l-8 -41h168l-49 -254h-172l-152 -770h-327z" />
<glyph unicode="g" horiz-adv-x="1130" d="M-16 -258l139 217q59 -43 122.5 -72.5t131.5 -29.5q84 0 142.5 40t82.5 115l53 168q-133 -139 -299 -139q-129 0 -214 88t-85 268q0 137 43 255t118 207t170 139.5t202 50.5q66 0 124 -34t85 -93h4l45 102h266l-196 -983q-45 -229 -187.5 -335.5t-361.5 -106.5 q-86 0 -189.5 34.5t-195.5 108.5zM397 438q0 -68 25.5 -99.5t64.5 -31.5q43 0 92.5 22.5t88.5 92.5l53 283q-18 41 -48 59t-59 18q-88 0 -152.5 -95t-64.5 -249z" />
<glyph unicode="h" horiz-adv-x="1138" d="M16 0l287 1425h328l-70 -331l-49 -181h8q61 55 140 95.5t171 40.5q127 0 184.5 -67t57.5 -200q0 -33 -3 -71.5t-13 -75.5l-127 -635h-328l119 594q6 29 11 50.5t5 39.5q0 86 -86 86q-43 0 -84 -27.5t-96 -87.5l-127 -655h-328z" />
<glyph unicode="i" horiz-adv-x="565" d="M16 0l205 1024h328l-205 -1024h-328zM258 1307q0 74 57 129t139 55q66 0 119 -39t53 -113q0 -80 -56 -132t-140 -52q-63 0 -117.5 38t-54.5 114z" />
<glyph unicode="j" horiz-adv-x="569" d="M-274 -336l98 234q43 -25 86 -25q49 0 72.5 34t42.5 113l200 1004h328l-205 -1020q-23 -106 -70 -194.5t-129.5 -141.5t-209.5 -53q-55 0 -106.5 11.5t-106.5 37.5zM258 1307q0 74 57 129t139 55q66 0 119 -39t53 -113q0 -80 -56 -132t-140 -52q-63 0 -117.5 38 t-54.5 114z" />
<glyph unicode="k" horiz-adv-x="1114" d="M16 0l287 1425h328l-156 -770h8l336 369h361l-422 -455l241 -569h-327l-140 381l-139 -139l-49 -242h-328z" />
<glyph unicode="l" horiz-adv-x="585" d="M70 201q0 31 4 63.5t12 75.5l217 1085h328l-221 -1097q-2 -14 -3 -22.5t-1 -16.5q0 -29 13 -40t27 -11q10 0 17.5 1t19.5 3l-12 -242q-27 -8 -70 -16.5t-98 -8.5q-125 0 -179 60.5t-54 165.5z" />
<glyph unicode="m" horiz-adv-x="1716" d="M16 0l205 1024h266v-131h9q72 61 153.5 108.5t169.5 47.5q111 0 162 -46.5t76 -125.5q80 74 166 123t174 49q127 0 184 -67t57 -200q0 -70 -16 -147l-127 -635h-328l119 594q6 29 11.5 50.5t5.5 39.5q0 86 -86 86q-59 0 -168 -115l-131 -655h-328l119 594q6 29 11 50.5 t5 39.5q0 43 -22.5 64.5t-59.5 21.5q-63 0 -172 -115l-127 -655h-328z" />
<glyph unicode="n" horiz-adv-x="1150" d="M16 0l205 1024h266v-131h9q72 61 154.5 108.5t180.5 47.5q127 0 184.5 -67t57.5 -200q0 -70 -16 -147l-127 -635h-328l119 594q6 29 11 50.5t5 39.5q0 86 -86 86q-43 0 -84 -27.5t-96 -87.5l-127 -655h-328z" />
<glyph unicode="o" horiz-adv-x="1105" d="M53 401q0 150 50.5 268.5t134.5 203.5t187 130.5t210 45.5q123 0 215 -53.5t143 -149.5t51 -223q0 -150 -50 -268.5t-134 -203.5t-187.5 -130.5t-209.5 -45.5q-123 0 -215 53.5t-143.5 149.5t-51.5 223zM385 406q0 -76 29 -122t86 -46q59 0 107 49t77 135t29 196 q0 78 -28 123t-87 45t-107.5 -49t-77 -135t-28.5 -196z" />
<glyph unicode="p" horiz-adv-x="1146" d="M-57 -360l278 1384h266l9 -111h4q68 61 146.5 98.5t152.5 37.5q135 0 210.5 -97.5t75.5 -279.5q0 -145 -45 -272.5t-121.5 -222.5t-174 -148.5t-203.5 -53.5q-57 0 -109.5 30t-83.5 81h-4l-25 -192l-49 -254h-327zM410 319q16 -39 45.5 -58t60.5 -19q59 0 111.5 49 t85 137t32.5 203q0 80 -25.5 115.5t-68.5 35.5q-39 0 -87 -23.5t-85 -90.5z" />
<glyph unicode="q" horiz-adv-x="1142" d="M57 352q0 145 45 272.5t122 222.5t174.5 148.5t203.5 53.5q66 0 126 -34t87 -93h4l45 102h262l-278 -1384h-328l53 254l82 233h-4q-68 -70 -150.5 -111t-156.5 -41q-135 0 -211 98.5t-76 278.5zM397 393q0 -80 26 -115.5t69 -35.5q41 0 89 26.5t91 108.5l65 328 q-18 41 -50 59t-60 18q-59 0 -111.5 -49t-85.5 -137t-33 -203z" />
<glyph unicode="r" horiz-adv-x="819" d="M16 0l205 1024h266l-8 -201h8q59 98 140.5 162t167.5 64q43 0 69.5 -5.5t40.5 -15.5l-106 -283q-20 12 -51 14.5t-56 2.5q-63 0 -120.5 -43t-116.5 -146l-111 -573h-328z" />
<glyph unicode="s" horiz-adv-x="884" d="M-20 176l188 156q55 -63 107.5 -91t97.5 -28q47 0 80.5 19.5t33.5 50.5q0 41 -46 65.5t-126 69.5q-76 43 -136 114.5t-60 172.5q0 98 55 175.5t149.5 123t208.5 45.5q111 0 198 -48.5t151 -115.5l-176 -168q-37 37 -80 63.5t-93 26.5q-49 0 -77.5 -21.5t-28.5 -52.5 q0 -43 53 -67.5t111 -59.5q49 -27 96 -64.5t78 -92t31 -130.5q0 -102 -56.5 -180t-157 -121t-229.5 -43q-59 0 -128.5 22.5t-134 67t-109.5 111.5z" />
<glyph unicode="t" horiz-adv-x="786" d="M86 770l49 242l148 12l90 262h274l-49 -262h221l-49 -254h-229l-78 -385q-2 -18 -3 -33.5t-1 -32.5q0 -90 98 -90q18 0 36.5 6.5t37.5 14.5l57 -230q-43 -14 -107.5 -29.5t-150.5 -15.5q-162 0 -234.5 81t-72.5 206q0 35 5 69t11 66l78 373h-131z" />
<glyph unicode="u" horiz-adv-x="1130" d="M66 242q0 70 16 147l127 635h328l-119 -594q-6 -27 -11.5 -49.5t-5.5 -40.5q0 -86 86 -86q41 0 80 28.5t88 86.5l127 655h328l-201 -1024h-266v131h-8q-63 -61 -149.5 -108.5t-178.5 -47.5q-125 0 -183 68t-58 199z" />
<glyph unicode="v" horiz-adv-x="1060" d="M123 1024h328l20 -467q4 -76 4 -154.5v-160.5h8q35 80 67 157.5t64 157.5l201 467h320l-512 -1024h-377z" />
<glyph unicode="w" horiz-adv-x="1564" d="M150 1024h323l-10 -455q-2 -76 -9.5 -152.5t-11.5 -154.5h9q29 78 55 156t59 151l187 455h278l10 -455q1 -30 1 -61q0 -46 -2 -92q-3 -76 -3 -154h8q29 78 52.5 155t50.5 152l164 455h303l-426 -1024h-381v381q4 72 4 144.5t4 154.5h-8q-29 -82 -52.5 -154.5 t-49.5 -144.5l-148 -381h-369z" />
<glyph unicode="x" horiz-adv-x="1052" d="M-78 0l422 549l-172 475h332l51 -160q10 -43 22.5 -86t22.5 -86h8q23 43 49.5 86t47.5 86l77 160h348l-393 -549l185 -475h-336l-54 156q-14 43 -26 88t-27 88h-8q-25 -43 -51.5 -87t-52.5 -89l-95 -156h-350z" />
<glyph unicode="y" horiz-adv-x="1060" d="M-49 -340l98 234q35 -20 78 -21q47 0 93 32t73 85l20 41l-180 993h326l37 -420q6 -66 9 -150.5t3 -158.5h8q31 72 65.5 156t65.5 153l184 420h316l-535 -1022q-115 -199 -228.5 -293t-277.5 -94q-31 0 -77.5 13.5t-77.5 31.5z" />
<glyph unicode="z" horiz-adv-x="933" d="M-20 0l36 184l492 586h-336l49 254h746l-37 -188l-492 -582h389l-49 -254h-798z" />
<glyph unicode="{" horiz-adv-x="700" d="M49 475l41 189q102 4 146.5 54t54.5 101q12 63 16 111.5t9.5 98.5t19.5 122q23 113 58.5 178.5t96 93t154.5 27.5h143l-36 -172h-33q-57 0 -82 -29.5t-41 -109.5q-14 -78 -26.5 -154t-28.5 -166q-25 -123 -77 -179t-136 -75l-2 -8q61 -14 93 -47t32 -104 q0 -51 -13.5 -116t-32 -131.5t-32 -127t-13.5 -101.5q0 -39 16.5 -54t61.5 -15h29l-33 -172h-139q-113 0 -159 48t-46 136q0 61 15.5 130t36 136.5t36 122.5t15.5 90q0 47 -30 84t-114 39z" />
<glyph unicode="|" horiz-adv-x="540" d="M176 -512v2048h201v-2048h-201z" />
<glyph unicode="}" horiz-adv-x="708" d="M-66 -311l37 172h33q57 0 83 29.5t40 109.5q16 78 27.5 154.5t27.5 164.5q25 123 77 179.5t136 74.5l2 9q-61 14 -93 48t-32 103q0 51 13.5 115.5t32 131.5t31.5 127t13 101q0 39 -15 54.5t-62 15.5h-29l33 172h139q115 0 160 -47t45 -137q0 -61 -15.5 -130t-36 -136.5 t-36 -123t-15.5 -90.5q0 -45 31 -81.5t113 -40.5l-41 -189q-100 -2 -145.5 -52t-55.5 -104q-12 -63 -16 -111t-9.5 -98.5t-19.5 -121.5q-23 -113 -58.5 -178.5t-96 -93t-154.5 -27.5h-144z" />
<glyph unicode="~" d="M74 643q72 123 153.5 172t157.5 49q59 0 104.5 -22.5t82 -53t73.5 -53t76 -22.5q80 0 135 110l164 -110q-70 -123 -151.5 -172t-159.5 -49q-57 0 -103.5 22.5t-83.5 53t-72.5 53t-76.5 22.5q-80 0 -135 -111z" />
<glyph unicode="&#xa1;" horiz-adv-x="716" d="M33 -348l65 287l168 598h213l-119 -885h-327zM242 819q0 57 28.5 109.5t78.5 86.5t118 34q74 0 119 -47.5t45 -124.5q0 -55 -28 -107.5t-78.5 -87.5t-118.5 -35q-74 0 -119 49t-45 123z" />
<glyph unicode="&#xa2;" d="M143 586q0 174 78 304t203 208t264 98l37 193h176l-39 -193q74 -14 128 -55t100 -92l-189 -177q-23 23 -45 37.5t-45 22.5l-102 -522q72 12 139 61l98 -209q-70 -45 -141.5 -73.5t-149.5 -38.5l-37 -191h-176l37 191q-152 27 -244 139t-92 297zM463 635q0 -133 76 -193 l94 478q-80 -33 -125 -110t-45 -175z" />
<glyph unicode="&#xa3;" d="M-8 0l41 201q119 49 193.5 134t82.5 202h-194l41 221l135 10q-2 18 -3 35.5t-1 32.5q0 145 67.5 254.5t182 171t254.5 61.5q111 0 192.5 -46t142.5 -130l-208 -172q-33 43 -65 64.5t-79 21.5q-74 0 -129 -63.5t-55 -211.5v-8v-8h295l-45 -233h-238q-14 -141 -110 -254v-9 h462l-49 -274h-913z" />
<glyph unicode="&#xa4;" d="M12 340l129 111q-35 70 -35 155q0 92 32 169t85 136l-92 113l172 147l105 -129q106 47 219 48q57 0 108 -11.5t94 -31.5l146 124l139 -163l-131 -113q16 -33 24.5 -71t8.5 -79q0 -92 -32 -168.5t-85 -136.5l96 -116l-172 -148l-108 131q-51 -23 -107.5 -34t-111.5 -11 t-104.5 10.5t-92.5 30.5l-147 -127zM406 631q0 -63 34.5 -101t91.5 -38q72 0 128.5 64.5t56.5 164.5q0 68 -34 103.5t-93 35.5q-70 0 -127 -63.5t-57 -165.5z" />
<glyph unicode="&#xa5;" d="M29 297l30 152h297l21 108h-297l31 154h229l-162 589h334l33 -260q8 -68 17 -135t22 -133h6q37 68 73.5 135.5t73.5 132.5l135 260h326l-397 -589h229l-31 -154h-297l-22 -108h297l-31 -152h-297l-59 -297h-324l60 297h-297z" />
<glyph unicode="&#xa6;" horiz-adv-x="540" d="M176 414h201v-926h-201v926zM176 647v889h201v-889h-201z" />
<glyph unicode="&#xa7;" horiz-adv-x="1056" d="M-8 0l160 201q49 -49 120.5 -94.5t145.5 -45.5q98 0 98 78q0 37 -43 70t-105.5 68.5t-125 84t-105.5 116t-43 161.5q0 102 59.5 179t149.5 122q-14 29 -23.5 59.5t-9.5 65.5q0 100 47.5 180t133.5 126t200 46q98 0 193.5 -44t171.5 -124l-164 -180q-39 37 -90 69.5 t-111 32.5q-37 0 -61.5 -18t-24.5 -55q0 -35 44 -68t109.5 -70.5t131 -87t110 -117t44.5 -157.5q0 -113 -57.5 -191.5t-153.5 -132.5q18 -43 18 -98q0 -162 -113 -259t-297 -97q-100 0 -211.5 47t-197.5 133zM373 676q0 -47 44 -85t108.5 -75t125.5 -82q33 20 51.5 51 t18.5 76q0 47 -43 84t-106.5 73t-127.5 79q-31 -18 -51 -48t-20 -73z" />
<glyph unicode="&#xa8;" horiz-adv-x="1105" d="M328 1294q0 66 49 117t123 51q57 0 96 -35.5t39 -99.5q0 -70 -49 -119t-123 -49q-57 0 -96 35t-39 100zM779 1294q0 66 49 117t123 51q57 0 96 -35.5t39 -99.5q0 -70 -49 -119t-123 -49q-57 0 -96 35t-39 100z" />
<glyph unicode="&#xa9;" horiz-adv-x="1380" d="M57 553q0 166 57.5 309.5t161 252t246 168.5t309.5 60q160 0 285 -73.5t196.5 -202.5t71.5 -293q0 -166 -57 -309t-160.5 -252t-245 -169t-311.5 -60q-160 0 -284.5 73.5t-196.5 202.5t-72 293zM205 565q0 -117 46 -218t139.5 -162.5t232.5 -61.5q129 0 240.5 49 t195.5 136t131 204t47 250q0 117 -46 218t-139.5 162.5t-232.5 61.5q-129 0 -240.5 -49t-195.5 -136t-131 -204t-47 -250zM352 582q0 109 41 196.5t108.5 150t149.5 95.5t164 33q72 0 127 -35t86 -72l-135 -131q-25 29 -51.5 39t-55.5 10q-47 0 -93 -32.5t-76.5 -91 t-30.5 -134.5q0 -74 39 -116.5t108 -42.5q37 0 64.5 11t66.5 38l90 -140q-63 -51 -133.5 -74.5t-140.5 -23.5q-147 0 -237.5 86t-90.5 234z" />
<glyph unicode="&#xaa;" horiz-adv-x="755" d="M152 987q0 129 52 234.5t135 167t177 61.5q43 0 78 -24.5t53 -61.5h8l33 70h184l-135 -680h-184v82h-8q-43 -45 -97.5 -72t-103.5 -27q-88 0 -140 65.5t-52 184.5zM385 1016q0 -49 16 -71.5t41 -22.5q29 0 61 17t58 69l37 209q-8 25 -27.5 37t-38.5 12q-55 0 -101 -70 t-46 -180z" />
<glyph unicode="&#xab;" horiz-adv-x="983" d="M82 410l41 229l311 279l98 -107l-266 -307l156 -311l-127 -82zM492 410l41 229l311 279l98 -107l-266 -307l156 -311l-127 -82z" />
<glyph unicode="&#xac;" d="M98 561v230h918v-603h-234v373h-684z" />
<glyph unicode="&#xae;" horiz-adv-x="937" d="M172 999q0 119 54.5 225.5t151.5 174t228 67.5q96 0 178 -48t133.5 -131t53.5 -189q0 -119 -54.5 -225.5t-152.5 -174t-227 -67.5q-98 0 -181.5 48t-133.5 131t-50 189zM287 1008q0 -113 70.5 -192t187.5 -79q92 0 162.5 49.5t109.5 129t39 174.5q0 115 -70.5 192.5 t-187.5 77.5q-92 0 -161.5 -49t-109.5 -129t-40 -174zM369 852l82 397h180q61 0 100 -31.5t39 -87.5q0 -39 -24.5 -75.5t-73.5 -55.5l49 -147h-123l-33 119h-49l-24 -119h-123zM532 1057h29q37 0 55.5 18.5t18.5 42.5q0 41 -49 41h-33z" />
<glyph unicode="&#xaf;" horiz-adv-x="1105" d="M385 1208l41 205h603l-41 -205h-603z" />
<glyph unicode="&#xb0;" horiz-adv-x="741" d="M188 1073q0 92 46.5 168t121 120t160.5 44q121 0 195.5 -74t74.5 -196q0 -92 -46 -167t-120.5 -120t-160.5 -45q-119 0 -195 73.5t-76 196.5zM360 1073q0 -45 28 -80t83 -35q66 0 104.5 53.5t38.5 123.5q0 47 -27.5 80.5t-82.5 33.5q-63 0 -103.5 -52t-40.5 -124z" />
<glyph unicode="&#xb1;" d="M98 0v229h918v-229h-918zM98 635v229h340v299h238v-299h340v-229h-344v-299h-238v299h-336z" />
<glyph unicode="&#xb2;" horiz-adv-x="753" d="M119 754l24 127q201 127 305.5 230.5t104.5 183.5q0 35 -21.5 56t-64.5 21q-27 0 -53.5 -18t-57.5 -47l-131 139q74 66 137.5 98.5t149.5 32.5q129 0 203.5 -63.5t74.5 -173.5q0 -104 -71.5 -197.5t-182.5 -187.5h205l-41 -201h-581z" />
<glyph unicode="&#xb3;" horiz-adv-x="745" d="M127 893l151 111q55 -86 138 -86q53 0 82.5 25.5t29.5 56.5q0 43 -29.5 66.5t-130.5 23.5l29 141q106 0 137 32t31 71q0 27 -19.5 43t-54.5 16q-33 0 -57.5 -8t-65.5 -37l-98 156q74 43 137.5 58t139.5 15q113 0 184.5 -55t71.5 -145q0 -76 -36 -129.5t-120 -87.5 q111 -66 111 -173q0 -82 -43 -139t-116 -88t-161 -31q-113 0 -188.5 45.5t-122.5 118.5z" />
<glyph unicode="&#xb4;" horiz-adv-x="1105" d="M506 1368l391 352l195 -250l-444 -286z" />
<glyph unicode="&#xb5;" horiz-adv-x="1134" d="M-57 -360l274 1384h328l-119 -594l-11 -49.5t-5 -40.5q0 -86 86 -86q41 0 79.5 27.5t88.5 85.5l127 657h323l-196 -1024h-267v131h-8q-37 -57 -91 -98t-110 -41q-33 0 -61.5 8t-44.5 29l-12 -107l-56 -282h-325z" />
<glyph unicode="&#xb6;" horiz-adv-x="1302" d="M139 770q0 150 50.5 256.5t136.5 174t196.5 99t231.5 31.5h86l-189 -942h-73q-117 0 -216.5 44t-161 129t-61.5 208zM655 -164l295 1495h328l-295 -1495h-328z" />
<glyph unicode="&#xb7;" horiz-adv-x="634" d="M151 639q0 55 28.5 108.5t79 87.5t117.5 34q74 0 119 -49t45 -123q0 -57 -27.5 -109.5t-78.5 -86.5t-119 -34q-74 0 -119 48.5t-45 123.5z" />
<glyph unicode="&#xb8;" horiz-adv-x="1105" d="M144 -365q117 6 165 24.5t56 61.5q4 29 -23.5 49.5t-119.5 32.5l139 205h201l-82 -131q78 -18 111.5 -54t23.5 -102q-20 -111 -142 -163t-329 -58v135z" />
<glyph unicode="&#xb9;" horiz-adv-x="786" d="M311 1315l29 148q86 12 137 32.5t109 57.5h184l-156 -799h-241l114 561h-176z" />
<glyph unicode="&#xba;" horiz-adv-x="741" d="M156 1022q0 131 56 226t145 148.5t188 53.5q117 0 197.5 -75t80.5 -210q0 -131 -56 -226t-145.5 -148.5t-187.5 -53.5q-117 0 -197.5 75t-80.5 210zM385 1024q0 -49 16.5 -77.5t53.5 -28.5q66 0 102.5 70.5t36.5 174.5q0 49 -16.5 78t-53.5 29q-63 0 -101 -71t-38 -175z " />
<glyph unicode="&#xbb;" horiz-adv-x="983" d="M57 217l267 307l-156 312l127 82l213 -300l-41 -229l-311 -278zM467 217l267 307l-156 312l127 82l213 -300l-41 -229l-311 -278z" />
<glyph unicode="&#xbc;" horiz-adv-x="1613" d="M205 1114l29 148q86 12 137 32.5t109 57.5h184l-156 -799h-241l114 561h-176zM254 -25l962 1401h185l-963 -1401h-184zM835 168l25 123l385 508h299l-92 -475h117l-33 -156h-115l-33 -168h-204l34 168h-383zM1077 324h172l17 77l57 254h-8l-119 -176z" />
<glyph unicode="&#xbd;" horiz-adv-x="1695" d="M196 1114l29 148q86 12 137 32.5t109 57.5h184l-156 -799h-241l114 561h-176zM234 -25l962 1401h185l-963 -1401h-184zM926 0l24 127q201 127 305.5 230.5t104.5 183.5q0 35 -21.5 56t-64.5 21q-27 0 -53.5 -18t-57.5 -47l-131 139q74 66 137.5 98.5t149.5 32.5 q129 0 203.5 -63.5t74.5 -173.5q0 -104 -71.5 -197.5t-182.5 -187.5h205l-41 -201h-581z" />
<glyph unicode="&#xbe;" horiz-adv-x="1634" d="M74 692l151 111q55 -86 138 -86q53 0 82.5 25.5t29.5 56.5q0 43 -29.5 66.5t-130.5 23.5l29 141q106 0 137 32t31 71q0 27 -19.5 43t-54.5 16q-33 0 -57.5 -8t-65.5 -37l-98 156q74 43 137.5 58t139.5 15q113 0 184.5 -55t71.5 -145q0 -76 -36 -129.5t-120 -87.5 q111 -66 111 -173q0 -82 -43 -139t-116 -88t-161 -31q-113 0 -188.5 45.5t-122.5 118.5zM295 -25l962 1401h185l-963 -1401h-184zM856 168l25 123l385 508h299l-92 -475h117l-33 -156h-115l-33 -168h-204l34 168h-383zM1098 324h172l17 77l57 254h-8l-119 -176z" />
<glyph unicode="&#xbf;" horiz-adv-x="937" d="M0 -53q0 94 35 158.5t88 112.5t109.5 94t99.5 101.5t57 135.5l279 -25q-10 -96 -49 -161.5t-89.5 -112.5t-98.5 -85t-80 -78t-32 -91q0 -49 32 -78t83 -29q66 0 135 70l164 -184q-154 -148 -340 -148q-174 0 -283.5 85t-109.5 235zM397 819q0 57 29 109.5t79 86.5t118 34 q74 0 118.5 -47.5t44.5 -124.5q0 -55 -27.5 -107.5t-78.5 -87.5t-119 -35q-74 0 -119 49t-45 123z" />
<glyph unicode="&#xc0;" horiz-adv-x="1150" d="M-135 0l696 1331h393l127 -1331h-344l-8 303h-367l-137 -303h-360zM457 1651l223 207l320 -326l-184 -160zM475 549h246l-4 156q-2 96 -5 188t-3 192h-9q-39 -98 -75.5 -191t-79.5 -189z" />
<glyph unicode="&#xc1;" horiz-adv-x="1150" d="M-135 0l696 1331h393l127 -1331h-344l-8 303h-367l-137 -303h-360zM475 549h246l-4 156q-2 96 -5 188t-3 192h-9q-39 -98 -75.5 -191t-79.5 -189zM555 1581l424 260l144 -239l-443 -209z" />
<glyph unicode="&#xc2;" horiz-adv-x="1150" d="M-135 0l696 1331h393l127 -1331h-344l-8 303h-367l-137 -303h-360zM406 1495l213 213h385l131 -225l-160 -90l-172 163h-8l-254 -163zM475 549h246l-4 156q-2 96 -5 188t-3 192h-9q-39 -98 -75.5 -191t-79.5 -189z" />
<glyph unicode="&#xc3;" horiz-adv-x="1150" d="M-135 0l696 1331h393l127 -1331h-344l-8 303h-367l-137 -303h-360zM353 1442q41 170 130 240.5t202 70.5q72 0 117.5 -26.5t78.5 -53t62 -26.5q25 0 46 17t35 69l222 -17q-39 -168 -129 -239.5t-203 -71.5q-72 0 -118 26.5t-78.5 53t-61.5 26.5q-25 0 -45.5 -16 t-36.5 -70zM475 549h246l-4 156q-2 96 -5 188t-3 192h-9q-39 -98 -75.5 -191t-79.5 -189z" />
<glyph unicode="&#xc4;" horiz-adv-x="1150" d="M-135 0l696 1331h393l127 -1331h-344l-8 303h-367l-137 -303h-360zM422 1556q0 61 47.5 117t120.5 56q53 0 92 -35t39 -97q0 -61 -47 -116.5t-121 -55.5q-55 0 -93 35t-38 96zM475 549h246l-4 156q-2 96 -5 188t-3 192h-9q-39 -98 -75.5 -191t-79.5 -189zM873 1556 q0 61 47 117t121 56q53 0 92 -35t39 -97q0 -61 -47 -116.5t-121 -55.5q-55 0 -93 35t-38 96z" />
<glyph unicode="&#xc5;" horiz-adv-x="1150" d="M-135 0l696 1331h393l127 -1331h-344l-8 303h-367l-137 -303h-360zM475 549h246l-4 156q-2 96 -5 188t-3 192h-9q-39 -98 -75.5 -191t-79.5 -189zM558 1606q0 63 35.5 116.5t97 85t133.5 31.5q90 0 161.5 -44t71.5 -136q0 -66 -35.5 -119t-96 -84t-134.5 -31 q-94 0 -163.5 43t-69.5 138zM730 1618q0 -27 16 -48.5t49 -21.5q35 0 62.5 30t27.5 69q0 29 -16.5 49t-48.5 20q-39 0 -64.5 -30.5t-25.5 -67.5z" />
<glyph unicode="&#xc6;" horiz-adv-x="1744" d="M-74 0l836 1331h1016l-54 -274h-471l-45 -234h398l-54 -274h-397l-57 -275h487l-53 -274h-815l57 287h-315l-164 -287h-369zM604 541h221l111 557h-6q-55 -94 -107.5 -181.5t-105.5 -179.5z" />
<glyph unicode="&#xc7;" horiz-adv-x="1175" d="M115 541q0 178 56 327.5t154.5 258t228.5 169t277 60.5q117 0 212.5 -56.5t152.5 -160.5l-221 -172q-72 106 -160 106q-96 0 -179 -68.5t-134 -184t-51 -259.5q0 -143 59 -223t195 -80q53 0 106 27.5t98 66.5l135 -209q-37 -35 -97 -73.5t-139 -66.5t-173 -28 q-156 0 -272.5 67t-182 192.5t-65.5 306.5zM266 -365q117 6 165 24.5t56 61.5q4 29 -23.5 49.5t-119.5 32.5l139 205h201l-82 -131q78 -18 111.5 -54t23.5 -102q-20 -111 -142 -163t-329 -58v135z" />
<glyph unicode="&#xc8;" horiz-adv-x="1097" d="M53 0l266 1331h811l-53 -274h-487l-45 -234h413l-53 -274h-413l-58 -275h504l-53 -274h-832zM436 1651l223 207l320 -326l-184 -160z" />
<glyph unicode="&#xc9;" horiz-adv-x="1097" d="M53 0l266 1331h811l-53 -274h-487l-45 -234h413l-53 -274h-413l-58 -275h504l-53 -274h-832zM534 1581l424 260l144 -239l-443 -209z" />
<glyph unicode="&#xca;" horiz-adv-x="1097" d="M53 0l266 1331h811l-53 -274h-487l-45 -234h413l-53 -274h-413l-58 -275h504l-53 -274h-832zM385 1495l213 213h385l131 -225l-160 -90l-172 163h-8l-254 -163z" />
<glyph unicode="&#xcb;" horiz-adv-x="1097" d="M53 0l266 1331h811l-53 -274h-487l-45 -234h413l-53 -274h-413l-58 -275h504l-53 -274h-832zM401 1556q0 61 47.5 117t120.5 56q53 0 92 -35t39 -97q0 -61 -47 -116.5t-121 -55.5q-55 0 -93 35t-38 96zM852 1556q0 61 47 117t121 56q53 0 92 -35t39 -97q0 -61 -47 -116.5 t-121 -55.5q-55 0 -93 35t-38 96z" />
<glyph unicode="&#xcc;" horiz-adv-x="634" d="M53 0l266 1331h328l-266 -1331h-328zM190 1651l223 207l320 -326l-184 -160z" />
<glyph unicode="&#xcd;" horiz-adv-x="634" d="M53 0l266 1331h328l-266 -1331h-328zM288 1581l424 260l144 -239l-443 -209z" />
<glyph unicode="&#xce;" horiz-adv-x="634" d="M53 0l266 1331h328l-266 -1331h-328zM139 1495l213 213h385l131 -225l-160 -90l-172 163h-8l-254 -163z" />
<glyph unicode="&#xcf;" horiz-adv-x="634" d="M53 0l266 1331h328l-266 -1331h-328zM155 1556q0 61 47.5 117t120.5 56q53 0 92 -35t39 -97q0 -61 -47 -116.5t-121 -55.5q-55 0 -93 35t-38 96zM606 1556q0 61 47 117t121 56q53 0 92 -35t39 -97q0 -61 -47 -116.5t-121 -55.5q-55 0 -93 35t-38 96z" />
<glyph unicode="&#xd0;" horiz-adv-x="1318" d="M70 614l28 144l146 12l112 561h312q281 0 439.5 -127t158.5 -397t-97.5 -449.5t-264.5 -268.5t-376 -89h-438l123 614h-143zM471 262h49q111 0 204 51.5t149.5 166t56.5 306.5q0 158 -77 220.5t-194 62.5h-28l-60 -299h236l-33 -156h-233z" />
<glyph unicode="&#xd1;" horiz-adv-x="1335" d="M53 0l266 1331h316l184 -631l66 -299h8q10 109 19.5 247t33.5 257l86 426h311l-266 -1331h-315l-184 631l-62 299h-8q-8 -113 -20.5 -246t-36.5 -254l-86 -430h-312zM434 1442q41 170 130 240.5t202 70.5q72 0 117.5 -26.5t78.5 -53t62 -26.5q25 0 46 17t35 69l222 -17 q-39 -168 -129 -239.5t-203 -71.5q-72 0 -118 26.5t-78.5 53t-61.5 26.5q-25 0 -45.5 -16t-36.5 -70z" />
<glyph unicode="&#xd2;" horiz-adv-x="1372" d="M115 541q0 186 57 335.5t154.5 257t221.5 165t255 57.5q154 0 270.5 -66.5t181 -192.5t64.5 -306q0 -186 -57.5 -336t-154.5 -257.5t-220 -165t-256 -57.5q-154 0 -269.5 67t-181 192.5t-65.5 306.5zM451 561q0 -143 52 -223t144 -80q76 0 154 64.5t130 179t52 268.5 q0 145 -52 224t-145 79q-76 0 -153.5 -64.5t-129.5 -179t-52 -268.5zM538 1651l223 207l320 -326l-184 -160z" />
<glyph unicode="&#xd3;" horiz-adv-x="1372" d="M115 541q0 186 57 335.5t154.5 257t221.5 165t255 57.5q154 0 270.5 -66.5t181 -192.5t64.5 -306q0 -186 -57.5 -336t-154.5 -257.5t-220 -165t-256 -57.5q-154 0 -269.5 67t-181 192.5t-65.5 306.5zM451 561q0 -143 52 -223t144 -80q76 0 154 64.5t130 179t52 268.5 q0 145 -52 224t-145 79q-76 0 -153.5 -64.5t-129.5 -179t-52 -268.5zM636 1581l424 260l144 -239l-443 -209z" />
<glyph unicode="&#xd4;" horiz-adv-x="1372" d="M115 541q0 186 57 335.5t154.5 257t221.5 165t255 57.5q154 0 270.5 -66.5t181 -192.5t64.5 -306q0 -186 -57.5 -336t-154.5 -257.5t-220 -165t-256 -57.5q-154 0 -269.5 67t-181 192.5t-65.5 306.5zM451 561q0 -143 52 -223t144 -80q76 0 154 64.5t130 179t52 268.5 q0 145 -52 224t-145 79q-76 0 -153.5 -64.5t-129.5 -179t-52 -268.5zM487 1495l213 213h385l131 -225l-160 -90l-172 163h-8l-254 -163z" />
<glyph unicode="&#xd5;" horiz-adv-x="1372" d="M115 541q0 186 57 335.5t154.5 257t221.5 165t255 57.5q154 0 270.5 -66.5t181 -192.5t64.5 -306q0 -186 -57.5 -336t-154.5 -257.5t-220 -165t-256 -57.5q-154 0 -269.5 67t-181 192.5t-65.5 306.5zM434 1442q41 170 130 240.5t202 70.5q72 0 117.5 -26.5t78.5 -53 t62 -26.5q25 0 46 17t35 69l222 -17q-39 -168 -129 -239.5t-203 -71.5q-72 0 -118 26.5t-78.5 53t-61.5 26.5q-25 0 -45.5 -16t-36.5 -70zM451 561q0 -143 52 -223t144 -80q76 0 154 64.5t130 179t52 268.5q0 145 -52 224t-145 79q-76 0 -153.5 -64.5t-129.5 -179 t-52 -268.5z" />
<glyph unicode="&#xd6;" horiz-adv-x="1372" d="M115 541q0 186 57 335.5t154.5 257t221.5 165t255 57.5q154 0 270.5 -66.5t181 -192.5t64.5 -306q0 -186 -57.5 -336t-154.5 -257.5t-220 -165t-256 -57.5q-154 0 -269.5 67t-181 192.5t-65.5 306.5zM451 561q0 -143 52 -223t144 -80q76 0 154 64.5t130 179t52 268.5 q0 145 -52 224t-145 79q-76 0 -153.5 -64.5t-129.5 -179t-52 -268.5zM503 1556q0 61 47.5 117t120.5 56q53 0 92 -35t39 -97q0 -61 -47 -116.5t-121 -55.5q-55 0 -93 35t-38 96zM954 1556q0 61 47 117t121 56q53 0 92 -35t39 -97q0 -61 -47 -116.5t-121 -55.5q-55 0 -93 35 t-38 96z" />
<glyph unicode="&#xd7;" d="M127 393l270 283l-270 282l160 160l270 -282l270 282l160 -160l-270 -282l270 -283l-160 -160l-270 283l-270 -283z" />
<glyph unicode="&#xd8;" horiz-adv-x="1372" d="M-25 41l199 203q-59 125 -59 297q0 186 57 335.5t154.5 257t221.5 165t255 57.5q209 0 344 -119l196 201l144 -131l-223 -230q27 -59 41 -131t14 -155q0 -186 -57.5 -336t-154.5 -257.5t-220 -165t-256 -57.5q-203 0 -338 113l-174 -178zM451 526l471 482q-49 66 -136 65 q-76 0 -153.5 -64.5t-129.5 -179t-52 -268.5v-16v-19zM518 317q49 -59 129 -59q76 0 154 64.5t130 179t52 268.5v11v12z" />
<glyph unicode="&#xd9;" horiz-adv-x="1339" d="M152 455q0 47 10 110.5t18 114.5l131 651h328l-143 -717q-6 -39 -11.5 -76.5t-5.5 -74.5q0 -100 38 -152.5t138 -52.5q90 0 143.5 74t86.5 246l151 753h320l-152 -745q-61 -313 -195.5 -462t-361.5 -149q-248 0 -371.5 117t-123.5 363zM559 1651l223 207l320 -326 l-184 -160z" />
<glyph unicode="&#xda;" horiz-adv-x="1339" d="M152 455q0 47 10 110.5t18 114.5l131 651h328l-143 -717q-6 -39 -11.5 -76.5t-5.5 -74.5q0 -100 38 -152.5t138 -52.5q90 0 143.5 74t86.5 246l151 753h320l-152 -745q-61 -313 -195.5 -462t-361.5 -149q-248 0 -371.5 117t-123.5 363zM657 1581l424 260l144 -239 l-443 -209z" />
<glyph unicode="&#xdb;" horiz-adv-x="1339" d="M152 455q0 47 10 110.5t18 114.5l131 651h328l-143 -717q-6 -39 -11.5 -76.5t-5.5 -74.5q0 -100 38 -152.5t138 -52.5q90 0 143.5 74t86.5 246l151 753h320l-152 -745q-61 -313 -195.5 -462t-361.5 -149q-248 0 -371.5 117t-123.5 363zM508 1495l213 213h385l131 -225 l-160 -90l-172 163h-8l-254 -163z" />
<glyph unicode="&#xdc;" horiz-adv-x="1339" d="M152 455q0 47 10 110.5t18 114.5l131 651h328l-143 -717q-6 -39 -11.5 -76.5t-5.5 -74.5q0 -100 38 -152.5t138 -52.5q90 0 143.5 74t86.5 246l151 753h320l-152 -745q-61 -313 -195.5 -462t-361.5 -149q-248 0 -371.5 117t-123.5 363zM524 1556q0 61 47.5 117t120.5 56 q53 0 92 -35t39 -97q0 -61 -47 -116.5t-121 -55.5q-55 0 -93 35t-38 96zM975 1556q0 61 47 117t121 56q53 0 92 -35t39 -97q0 -61 -47 -116.5t-121 -55.5q-55 0 -93 35t-38 96z" />
<glyph unicode="&#xdd;" horiz-adv-x="1081" d="M162 1331h340l43 -295q12 -76 22.5 -145.5t22.5 -149.5h8q41 80 77 152t79 147l159 291h353l-566 -864l-94 -467h-325l92 467zM514 1581l424 260l144 -239l-443 -209z" />
<glyph unicode="&#xde;" horiz-adv-x="1245" d="M53 0l266 1352h328l-41 -205h160q121 0 219 -36t156.5 -116t58.5 -213q0 -145 -51 -247.5t-139 -165t-202 -91t-239 -28.5h-143l-49 -250h-324zM479 508h127q129 0 200 57.5t71 167.5q0 80 -46.5 118t-130.5 38h-147z" />
<glyph unicode="&#xdf;" horiz-adv-x="1290" d="M16 0l205 1020q25 123 92.5 220t176 153.5t255.5 56.5q102 0 197.5 -33t156 -103.5t60.5 -183.5q0 -84 -32.5 -143t-75.5 -101t-76 -77t-33 -72q0 -33 38 -65.5t87 -74.5t87 -101.5t38 -147.5q0 -104 -53.5 -188t-143 -134.5t-200.5 -50.5q-80 0 -158 20.5t-150 65.5 l131 218q37 -25 80 -43.5t93 -18.5q47 0 72.5 27.5t25.5 70.5q0 35 -26.5 64t-66.5 58.5t-80 64.5t-66.5 81t-26.5 109q0 66 33.5 113t76.5 87t77 84t34 105q0 53 -25.5 82t-85.5 29q-76 0 -125 -68.5t-71 -165.5l-193 -958h-328z" />
<glyph unicode="&#xe0;" horiz-adv-x="1142" d="M57 352q0 145 45 272.5t122 222.5t174.5 148.5t203.5 53.5q66 0 126 -34t87 -93h4l45 102h262l-204 -1024h-267v127h-4q-68 -70 -150.5 -111t-156.5 -41q-135 0 -211 98.5t-76 278.5zM397 393q0 -80 26 -115.5t69 -35.5q41 0 91 26.5t89 108.5l65 328q-18 41 -50 59 t-60 18q-59 0 -111.5 -49t-85.5 -137t-33 -203zM418 1520l279 209l254 -408l-201 -156z" />
<glyph unicode="&#xe1;" horiz-adv-x="1142" d="M57 352q0 145 45 272.5t122 222.5t174.5 148.5t203.5 53.5q66 0 126 -34t87 -93h4l45 102h262l-204 -1024h-267v127h-4q-68 -70 -150.5 -111t-156.5 -41q-135 0 -211 98.5t-76 278.5zM397 393q0 -80 26 -115.5t69 -35.5q41 0 91 26.5t89 108.5l65 328q-18 41 -50 59 t-60 18q-59 0 -111.5 -49t-85.5 -137t-33 -203zM506 1368l391 352l195 -250l-444 -286z" />
<glyph unicode="&#xe2;" horiz-adv-x="1142" d="M57 352q0 145 45 272.5t122 222.5t174.5 148.5t203.5 53.5q66 0 126 -34t87 -93h4l45 102h262l-204 -1024h-267v127h-4q-68 -70 -150.5 -111t-156.5 -41q-135 0 -211 98.5t-76 278.5zM291 1274l262 254h361l172 -262l-143 -123l-226 180h-8l-307 -180zM397 393 q0 -80 26 -115.5t69 -35.5q41 0 91 26.5t89 108.5l65 328q-18 41 -50 59t-60 18q-59 0 -111.5 -49t-85.5 -137t-33 -203z" />
<glyph unicode="&#xe3;" horiz-adv-x="1142" d="M57 352q0 145 45 272.5t122 222.5t174.5 148.5t203.5 53.5q66 0 126 -34t87 -93h4l45 102h262l-204 -1024h-267v127h-4q-68 -70 -150.5 -111t-156.5 -41q-135 0 -211 98.5t-76 278.5zM287 1204q29 174 111 249t196 75q68 0 109 -29t73.5 -57.5t71.5 -28.5q25 0 47.5 19.5 t30.5 74.5l213 -12q-27 -174 -109.5 -249t-197.5 -75q-66 0 -108 29t-74.5 57.5t-71.5 28.5q-25 0 -46.5 -19.5t-31.5 -74.5zM397 393q0 -80 26 -115.5t69 -35.5q41 0 91 26.5t89 108.5l65 328q-18 41 -50 59t-60 18q-59 0 -111.5 -49t-85.5 -137t-33 -203z" />
<glyph unicode="&#xe4;" horiz-adv-x="1142" d="M57 352q0 145 45 272.5t122 222.5t174.5 148.5t203.5 53.5q66 0 126 -34t87 -93h4l45 102h262l-204 -1024h-267v127h-4q-68 -70 -150.5 -111t-156.5 -41q-135 0 -211 98.5t-76 278.5zM328 1294q0 66 49 117t123 51q57 0 96 -35.5t39 -99.5q0 -70 -49 -119t-123 -49 q-57 0 -96 35t-39 100zM397 393q0 -80 26 -115.5t69 -35.5q41 0 91 26.5t89 108.5l65 328q-18 41 -50 59t-60 18q-59 0 -111.5 -49t-85.5 -137t-33 -203zM779 1294q0 66 49 117t123 51q57 0 96 -35.5t39 -99.5q0 -70 -49 -119t-123 -49q-57 0 -96 35t-39 100z" />
<glyph unicode="&#xe5;" horiz-adv-x="1142" d="M57 352q0 145 45 272.5t122 222.5t174.5 148.5t203.5 53.5q66 0 126 -34t87 -93h4l45 102h262l-204 -1024h-267v127h-4q-68 -70 -150.5 -111t-156.5 -41q-135 0 -211 98.5t-76 278.5zM397 393q0 -80 26 -115.5t69 -35.5q41 0 91 26.5t89 108.5l65 328q-18 41 -50 59 t-60 18q-59 0 -111.5 -49t-85.5 -137t-33 -203zM439 1356q0 102 89 169.5t226 67.5q111 0 180.5 -49t69.5 -139q0 -100 -89 -169t-226 -69q-109 0 -179.5 50.5t-70.5 138.5zM644 1364q0 -31 16 -52.5t49 -21.5q37 0 63.5 32t26.5 75q0 29 -15.5 51t-49.5 22 q-37 0 -63.5 -31.5t-26.5 -74.5z" />
<glyph unicode="&#xe6;" horiz-adv-x="1540" d="M37 233q0 152 83 240t222 127t305 43v25q0 68 -31.5 97.5t-91.5 29.5q-55 0 -117.5 -19.5t-136.5 -54.5l-69 225q96 47 198.5 75t206.5 28q174 0 250 -115q137 115 287 115q125 0 199.5 -53.5t107.5 -141.5t33 -195q0 -74 -20.5 -144.5t-32.5 -92.5h-537 q-2 -113 54.5 -157t142.5 -44q41 0 88 20.5t79 45.5l115 -205q-57 -43 -148 -75t-208 -32q-106 0 -193.5 45.5t-132.5 108.5q-88 -72 -176 -113t-199 -41q-119 0 -198.5 71t-79.5 187zM356 299q0 -33 26 -53.5t69 -20.5q80 0 159 99q-2 29 -4 57.5t0 64.5 q-135 -2 -192.5 -45t-57.5 -102zM918 618h290q4 16 6.5 30t2.5 28q0 53 -25 88t-90 35q-51 0 -102 -42.5t-82 -138.5z" />
<glyph unicode="&#xe7;" horiz-adv-x="913" d="M53 401q0 129 46 246t129 207t196 142.5t244 52.5q98 0 169.5 -40t108.5 -87l-180 -193q-27 29 -54.5 43t-64.5 14q-74 0 -132 -51t-92 -138t-34 -191q0 -76 37 -122t111 -46q47 0 79.5 18t59.5 39l135 -201q-57 -43 -141 -81t-207 -38q-115 0 -208 50.5t-147.5 145.5 t-54.5 230zM123 -365q117 6 165 24.5t56 61.5q4 29 -23.5 49.5t-119.5 32.5l139 205h201l-82 -131q78 -18 111.5 -54t23.5 -102q-20 -111 -142 -163t-329 -58v135z" />
<glyph unicode="&#xe8;" horiz-adv-x="1028" d="M53 418q0 141 51.5 257t135.5 199.5t186 129t205 45.5q125 0 199.5 -53.5t107.5 -141.5t33 -195q0 -74 -20.5 -144.5t-32.5 -92.5h-558q0 -106 62.5 -153.5t150.5 -47.5q43 0 91.5 20.5t80.5 45.5l115 -205q-61 -43 -157.5 -75t-223.5 -32q-125 0 -221 53.5t-150.5 153 t-54.5 236.5zM385 618h311q4 10 6.5 27t2.5 31q0 53 -25 88t-90 35q-57 0 -113.5 -42.5t-91.5 -138.5zM418 1520l279 209l254 -408l-201 -156z" />
<glyph unicode="&#xe9;" horiz-adv-x="1028" d="M53 418q0 141 51.5 257t135.5 199.5t186 129t205 45.5q125 0 199.5 -53.5t107.5 -141.5t33 -195q0 -74 -20.5 -144.5t-32.5 -92.5h-558q0 -106 62.5 -153.5t150.5 -47.5q43 0 91.5 20.5t80.5 45.5l115 -205q-61 -43 -157.5 -75t-223.5 -32q-125 0 -221 53.5t-150.5 153 t-54.5 236.5zM385 618h311q4 10 6.5 27t2.5 31q0 53 -25 88t-90 35q-57 0 -113.5 -42.5t-91.5 -138.5zM506 1368l391 352l195 -250l-444 -286z" />
<glyph unicode="&#xea;" horiz-adv-x="1028" d="M53 418q0 141 51.5 257t135.5 199.5t186 129t205 45.5q125 0 199.5 -53.5t107.5 -141.5t33 -195q0 -74 -20.5 -144.5t-32.5 -92.5h-558q0 -106 62.5 -153.5t150.5 -47.5q43 0 91.5 20.5t80.5 45.5l115 -205q-61 -43 -157.5 -75t-223.5 -32q-125 0 -221 53.5t-150.5 153 t-54.5 236.5zM291 1274l262 254h361l172 -262l-143 -123l-226 180h-8l-307 -180zM385 618h311q4 10 6.5 27t2.5 31q0 53 -25 88t-90 35q-57 0 -113.5 -42.5t-91.5 -138.5z" />
<glyph unicode="&#xeb;" horiz-adv-x="1028" d="M53 418q0 141 51.5 257t135.5 199.5t186 129t205 45.5q125 0 199.5 -53.5t107.5 -141.5t33 -195q0 -74 -20.5 -144.5t-32.5 -92.5h-558q0 -106 62.5 -153.5t150.5 -47.5q43 0 91.5 20.5t80.5 45.5l115 -205q-61 -43 -157.5 -75t-223.5 -32q-125 0 -221 53.5t-150.5 153 t-54.5 236.5zM328 1294q0 66 49 117t123 51q57 0 96 -35.5t39 -99.5q0 -70 -49 -119t-123 -49q-57 0 -96 35t-39 100zM385 618h311q4 10 6.5 27t2.5 31q0 53 -25 88t-90 35q-57 0 -113.5 -42.5t-91.5 -138.5zM779 1294q0 66 49 117t123 51q57 0 96 -35.5t39 -99.5 q0 -70 -49 -119t-123 -49q-57 0 -96 35t-39 100z" />
<glyph unicode="&#xec;" horiz-adv-x="565" d="M16 0l205 1024h328l-205 -1024h-328zM151 1520l279 209l254 -408l-201 -156z" />
<glyph unicode="&#xed;" horiz-adv-x="565" d="M16 0l205 1024h328l-205 -1024h-328zM239 1368l391 352l195 -250l-444 -286z" />
<glyph unicode="&#xee;" horiz-adv-x="565" d="M16 0l205 1024h328l-205 -1024h-328zM24 1274l262 254h361l172 -262l-143 -123l-226 180h-8l-307 -180z" />
<glyph unicode="&#xef;" horiz-adv-x="565" d="M16 0l205 1024h328l-205 -1024h-328zM61 1294q0 66 49 117t123 51q57 0 96 -35.5t39 -99.5q0 -70 -49 -119t-123 -49q-57 0 -96 35t-39 100zM512 1294q0 66 49 117t123 51q57 0 96 -35.5t39 -99.5q0 -70 -49 -119t-123 -49q-57 0 -96 35t-39 100z" />
<glyph unicode="&#xf0;" horiz-adv-x="1110" d="M61 381q0 100 31 198.5t90.5 179.5t146.5 130t199 49q59 0 110.5 -23.5t84.5 -70.5q-18 141 -84 248l-295 -117l-61 151l245 97q-33 29 -70.5 57.5t-80.5 54.5l147 189q154 -78 271 -195l295 117l61 -152l-250 -98q63 -96 97 -211t34 -248q0 -137 -33.5 -273 t-103.5 -245.5t-177.5 -176.5t-254.5 -67q-109 0 -201 48.5t-146.5 139.5t-54.5 218zM356 406q0 -70 34 -119t102 -49q94 0 154.5 102t76.5 264q-23 37 -61.5 62.5t-88.5 25.5q-74 0 -122 -43t-71.5 -109t-23.5 -134z" />
<glyph unicode="&#xf1;" horiz-adv-x="1150" d="M16 0l205 1024h266v-131h9q72 61 154.5 108.5t180.5 47.5q127 0 184.5 -67t57.5 -200q0 -70 -16 -147l-127 -635h-328l119 594q6 29 11 50.5t5 39.5q0 86 -86 86q-43 0 -84 -27.5t-96 -87.5l-127 -655h-328zM368 1204q29 174 111 249t196 75q68 0 109 -29t73.5 -57.5 t71.5 -28.5q25 0 47.5 19.5t30.5 74.5l213 -12q-27 -174 -109.5 -249t-197.5 -75q-66 0 -108 29t-74.5 57.5t-71.5 28.5q-25 0 -46.5 -19.5t-31.5 -74.5z" />
<glyph unicode="&#xf2;" horiz-adv-x="1105" d="M53 401q0 150 50.5 268.5t134.5 203.5t187 130.5t210 45.5q123 0 215 -53.5t143 -149.5t51 -223q0 -150 -50 -268.5t-134 -203.5t-187.5 -130.5t-209.5 -45.5q-123 0 -215 53.5t-143.5 149.5t-51.5 223zM385 406q0 -76 29 -122t86 -46q59 0 107 49t77 135t29 196 q0 78 -28 123t-87 45t-107.5 -49t-77 -135t-28.5 -196zM418 1520l279 209l254 -408l-201 -156z" />
<glyph unicode="&#xf3;" horiz-adv-x="1105" d="M53 401q0 150 50.5 268.5t134.5 203.5t187 130.5t210 45.5q123 0 215 -53.5t143 -149.5t51 -223q0 -150 -50 -268.5t-134 -203.5t-187.5 -130.5t-209.5 -45.5q-123 0 -215 53.5t-143.5 149.5t-51.5 223zM385 406q0 -76 29 -122t86 -46q59 0 107 49t77 135t29 196 q0 78 -28 123t-87 45t-107.5 -49t-77 -135t-28.5 -196zM506 1368l391 352l195 -250l-444 -286z" />
<glyph unicode="&#xf4;" horiz-adv-x="1105" d="M53 401q0 150 50.5 268.5t134.5 203.5t187 130.5t210 45.5q123 0 215 -53.5t143 -149.5t51 -223q0 -150 -50 -268.5t-134 -203.5t-187.5 -130.5t-209.5 -45.5q-123 0 -215 53.5t-143.5 149.5t-51.5 223zM291 1274l262 254h361l172 -262l-143 -123l-226 180h-8l-307 -180z M385 406q0 -76 29 -122t86 -46q59 0 107 49t77 135t29 196q0 78 -28 123t-87 45t-107.5 -49t-77 -135t-28.5 -196z" />
<glyph unicode="&#xf5;" horiz-adv-x="1105" d="M53 401q0 150 50.5 268.5t134.5 203.5t187 130.5t210 45.5q123 0 215 -53.5t143 -149.5t51 -223q0 -150 -50 -268.5t-134 -203.5t-187.5 -130.5t-209.5 -45.5q-123 0 -215 53.5t-143.5 149.5t-51.5 223zM287 1204q29 174 111 249t196 75q68 0 109 -29t73.5 -57.5 t71.5 -28.5q25 0 47.5 19.5t30.5 74.5l213 -12q-27 -174 -109.5 -249t-197.5 -75q-66 0 -108 29t-74.5 57.5t-71.5 28.5q-25 0 -46.5 -19.5t-31.5 -74.5zM385 406q0 -76 29 -122t86 -46q59 0 107 49t77 135t29 196q0 78 -28 123t-87 45t-107.5 -49t-77 -135t-28.5 -196z" />
<glyph unicode="&#xf6;" horiz-adv-x="1105" d="M53 401q0 150 50.5 268.5t134.5 203.5t187 130.5t210 45.5q123 0 215 -53.5t143 -149.5t51 -223q0 -150 -50 -268.5t-134 -203.5t-187.5 -130.5t-209.5 -45.5q-123 0 -215 53.5t-143.5 149.5t-51.5 223zM328 1294q0 66 49 117t123 51q57 0 96 -35.5t39 -99.5 q0 -70 -49 -119t-123 -49q-57 0 -96 35t-39 100zM385 406q0 -76 29 -122t86 -46q59 0 107 49t77 135t29 196q0 78 -28 123t-87 45t-107.5 -49t-77 -135t-28.5 -196zM779 1294q0 66 49 117t123 51q57 0 96 -35.5t39 -99.5q0 -70 -49 -119t-123 -49q-57 0 -96 35t-39 100z" />
<glyph unicode="&#xf7;" d="M98 561v230h918v-230h-918zM381 303q0 72 51 120t125 48t125 -48t51 -120q0 -74 -51 -119t-125 -45t-125 45t-51 119zM381 1049q0 72 51 117.5t125 45.5t125 -46t51 -117q0 -74 -51 -121t-125 -47t-125 47t-51 121z" />
<glyph unicode="&#xf8;" horiz-adv-x="1105" d="M0 41l115 119q-29 49 -45.5 109.5t-16.5 131.5q0 150 50.5 268.5t134.5 203.5t187 130.5t210 45.5q156 0 262 -86l107 110l102 -90l-121 -123q59 -100 59 -237q0 -150 -50 -270t-134 -205t-187.5 -129t-209.5 -44q-150 0 -256 82l-109 -110zM360 412l334 344 q-33 39 -84 39q-66 0 -112.5 -37t-77.5 -94.5t-45.5 -124t-14.5 -127.5zM406 262q28 -33 81 -33q68 0 115 36t78 92.5t44 122t13 124.5z" />
<glyph unicode="&#xf9;" horiz-adv-x="1130" d="M66 242q0 70 16 147l127 635h328l-119 -594q-6 -27 -11.5 -49.5t-5.5 -40.5q0 -86 86 -86q41 0 80 28.5t88 86.5l127 655h328l-201 -1024h-266v131h-8q-63 -61 -149.5 -108.5t-178.5 -47.5q-125 0 -183 68t-58 199zM418 1520l279 209l254 -408l-201 -156z" />
<glyph unicode="&#xfa;" horiz-adv-x="1130" d="M66 242q0 70 16 147l127 635h328l-119 -594q-6 -27 -11.5 -49.5t-5.5 -40.5q0 -86 86 -86q41 0 80 28.5t88 86.5l127 655h328l-201 -1024h-266v131h-8q-63 -61 -149.5 -108.5t-178.5 -47.5q-125 0 -183 68t-58 199zM506 1368l391 352l195 -250l-444 -286z" />
<glyph unicode="&#xfb;" horiz-adv-x="1130" d="M66 242q0 70 16 147l127 635h328l-119 -594q-6 -27 -11.5 -49.5t-5.5 -40.5q0 -86 86 -86q41 0 80 28.5t88 86.5l127 655h328l-201 -1024h-266v131h-8q-63 -61 -149.5 -108.5t-178.5 -47.5q-125 0 -183 68t-58 199zM291 1274l262 254h361l172 -262l-143 -123l-226 180h-8 l-307 -180z" />
<glyph unicode="&#xfc;" horiz-adv-x="1130" d="M66 242q0 70 16 147l127 635h328l-119 -594q-6 -27 -11.5 -49.5t-5.5 -40.5q0 -86 86 -86q41 0 80 28.5t88 86.5l127 655h328l-201 -1024h-266v131h-8q-63 -61 -149.5 -108.5t-178.5 -47.5q-125 0 -183 68t-58 199zM328 1294q0 66 49 117t123 51q57 0 96 -35.5t39 -99.5 q0 -70 -49 -119t-123 -49q-57 0 -96 35t-39 100zM779 1294q0 66 49 117t123 51q57 0 96 -35.5t39 -99.5q0 -70 -49 -119t-123 -49q-57 0 -96 35t-39 100z" />
<glyph unicode="&#xfd;" horiz-adv-x="1060" d="M-49 -340l98 234q35 -20 78 -21q47 0 93 32t73 85l20 41l-180 993h326l37 -420q6 -66 9 -150.5t3 -158.5h8q31 72 65.5 156t65.5 153l184 420h316l-535 -1022q-115 -199 -228.5 -293t-277.5 -94q-31 0 -77.5 13.5t-77.5 31.5zM485 1368l391 352l195 -250l-444 -286z" />
<glyph unicode="&#xfe;" horiz-adv-x="1146" d="M-57 -360l360 1785h328l-62 -299l-53 -188h4q66 53 137.5 82t141.5 29q135 0 210.5 -97.5t75.5 -279.5q0 -145 -45 -272.5t-121.5 -222.5t-174 -148.5t-203.5 -53.5q-57 0 -109.5 30t-83.5 81h-4l-25 -192l-49 -254h-327zM410 319q16 -39 45.5 -58t60.5 -19 q59 0 111.5 49t85 137t32.5 203q0 80 -25.5 115.5t-68.5 35.5q-39 0 -87 -23.5t-85 -90.5z" />
<glyph unicode="&#xff;" horiz-adv-x="1060" d="M-49 -340l98 234q35 -20 78 -21q47 0 93 32t73 85l20 41l-180 993h326l37 -420q6 -66 9 -150.5t3 -158.5h8q31 72 65.5 156t65.5 153l184 420h316l-535 -1022q-115 -199 -228.5 -293t-277.5 -94q-31 0 -77.5 13.5t-77.5 31.5zM307 1294q0 66 49 117t123 51q57 0 96 -35.5 t39 -99.5q0 -70 -49 -119t-123 -49q-57 0 -96 35t-39 100zM758 1294q0 66 49 117t123 51q57 0 96 -35.5t39 -99.5q0 -70 -49 -119t-123 -49q-57 0 -96 35t-39 100z" />
<glyph unicode="&#x152;" horiz-adv-x="1720" d="M115 524q0 270 97 449.5t264 268.5t376 89h901l-53 -274h-467l-45 -234h393l-53 -274h-393l-58 -275h484l-54 -274h-794q-279 0 -438.5 127t-159.5 397zM451 545q0 -156 76.5 -219.5t193.5 -63.5h29l159 807h-49q-111 0 -204 -51t-149 -166t-56 -307z" />
<glyph unicode="&#x153;" horiz-adv-x="1622" d="M53 401q0 150 49.5 268.5t131 203.5t181 130.5t199.5 45.5q109 0 173.5 -44t109.5 -128q72 84 159 128t169 44q125 0 199.5 -53.5t107.5 -141.5t33 -195q0 -74 -20.5 -143.5t-33.5 -93.5h-536q4 -113 58 -157t134 -44q43 0 91.5 20.5t80.5 45.5l115 -205 q-57 -39 -143 -73t-197 -34q-104 0 -190 44t-133 133q-74 -86 -165.5 -131.5t-183.5 -45.5q-117 0 -203.5 53.5t-136 149.5t-49.5 223zM385 406q0 -76 29 -122t86 -46q53 0 97 49t69.5 135t25.5 196q0 78 -27.5 123t-86.5 45q-49 0 -93.5 -49t-72 -135t-27.5 -196zM999 618 h291q4 12 6 28t2 30q0 53 -24.5 88t-89.5 35q-51 0 -102.5 -42.5t-82.5 -138.5z" />
<glyph unicode="&#x178;" horiz-adv-x="1081" d="M162 1331h340l43 -295q12 -76 22.5 -145.5t22.5 -149.5h8q41 80 77 152t79 147l159 291h353l-566 -864l-94 -467h-325l92 467zM381 1556q0 61 47.5 117t120.5 56q53 0 92 -35t39 -97q0 -61 -47 -116.5t-121 -55.5q-55 0 -93 35t-38 96zM832 1556q0 61 47 117t121 56 q53 0 92 -35t39 -97q0 -61 -47 -116.5t-121 -55.5q-55 0 -93 35t-38 96z" />
<glyph unicode="&#x2c6;" horiz-adv-x="1105" d="M291 1274l262 254h361l172 -262l-143 -123l-226 180h-8l-307 -180z" />
<glyph unicode="&#x2dc;" horiz-adv-x="1105" d="M287 1204q29 174 111 249t196 75q68 0 109 -29t73.5 -57.5t71.5 -28.5q25 0 47.5 19.5t30.5 74.5l213 -12q-27 -174 -109.5 -249t-197.5 -75q-66 0 -108 29t-74.5 57.5t-71.5 28.5q-25 0 -46.5 -19.5t-31.5 -74.5z" />
<glyph unicode="&#x2000;" horiz-adv-x="929" />
<glyph unicode="&#x2001;" horiz-adv-x="1858" />
<glyph unicode="&#x2002;" horiz-adv-x="929" />
<glyph unicode="&#x2003;" horiz-adv-x="1858" />
<glyph unicode="&#x2004;" horiz-adv-x="619" />
<glyph unicode="&#x2005;" horiz-adv-x="464" />
<glyph unicode="&#x2006;" horiz-adv-x="309" />
<glyph unicode="&#x2007;" horiz-adv-x="309" />
<glyph unicode="&#x2008;" horiz-adv-x="232" />
<glyph unicode="&#x2009;" horiz-adv-x="371" />
<glyph unicode="&#x200a;" horiz-adv-x="103" />
<glyph unicode="&#x2010;" horiz-adv-x="671" d="M66 406l49 229h491l-49 -229h-491z" />
<glyph unicode="&#x2011;" horiz-adv-x="671" d="M66 406l49 229h491l-49 -229h-491z" />
<glyph unicode="&#x2012;" horiz-adv-x="671" d="M66 406l49 229h491l-49 -229h-491z" />
<glyph unicode="&#x2013;" horiz-adv-x="950" d="M70 414l41 209h770l-41 -209h-770z" />
<glyph unicode="&#x2014;" horiz-adv-x="1581" d="M70 414l41 209h1400l-41 -209h-1400z" />
<glyph unicode="&#x2018;" horiz-adv-x="634" d="M188 885q0 133 53.5 233.5t141.5 165t190 92.5l50 -139q-80 -27 -136.5 -74t-85 -93t-28.5 -75h7h5q72 0 118 -37.5t46 -105.5q0 -74 -51.5 -131t-141.5 -57q-76 0 -122 58t-46 163z" />
<glyph unicode="&#x2019;" horiz-adv-x="634" d="M217 852q82 29 137.5 75t84 92t28.5 75h-5h-7q-70 0 -117 37.5t-47 105.5q0 74 52 131t140 57q78 0 123 -58t45 -163q0 -133 -53 -233.5t-141.5 -164.5t-190.5 -93z" />
<glyph unicode="&#x201a;" horiz-adv-x="634" d="M12 -192q82 29 137.5 75t84 92t28.5 75h-5h-7q-70 0 -117 37.5t-47 105.5q0 74 52 131t140 57q78 0 123 -58t45 -163q0 -133 -53 -233.5t-141.5 -164.5t-190.5 -93z" />
<glyph unicode="&#x201c;" horiz-adv-x="1126" d="M188 885q0 133 53.5 233.5t141.5 165t190 92.5l50 -139q-80 -27 -136.5 -74t-85 -93t-28.5 -75h7h5q72 0 118 -37.5t46 -105.5q0 -74 -51.5 -131t-141.5 -57q-76 0 -122 58t-46 163zM680 885q0 133 53.5 233.5t141.5 165t190 92.5l50 -139q-80 -27 -136.5 -74t-85 -93 t-28.5 -75h7h5q72 0 118 -37.5t46 -105.5q0 -74 -51.5 -131t-141.5 -57q-76 0 -122 58t-46 163z" />
<glyph unicode="&#x201d;" horiz-adv-x="1126" d="M217 852q82 29 137.5 75t84 92t28.5 75h-5h-7q-70 0 -117 37.5t-47 105.5q0 74 52 131t140 57q78 0 123 -58t45 -163q0 -133 -53 -233.5t-141.5 -164.5t-190.5 -93zM709 852q82 29 137.5 75t84 92t28.5 75h-5h-7q-70 0 -117 37.5t-47 105.5q0 74 52 131t140 57 q78 0 123 -58t45 -163q0 -133 -53 -233.5t-141.5 -164.5t-190.5 -93z" />
<glyph unicode="&#x201e;" horiz-adv-x="1126" d="M12 -192q82 29 137.5 75t84 92t28.5 75h-5h-7q-70 0 -117 37.5t-47 105.5q0 74 52 131t140 57q78 0 123 -58t45 -163q0 -133 -53 -233.5t-141.5 -164.5t-190.5 -93zM504 -192q82 29 137.5 75t84 92t28.5 75h-5h-7q-70 0 -117 37.5t-47 105.5q0 74 52 131t140 57 q78 0 123 -58t45 -163q0 -133 -53 -233.5t-141.5 -164.5t-190.5 -93z" />
<glyph unicode="&#x2022;" horiz-adv-x="704" d="M78 504q0 78 37 152.5t104.5 122.5t157.5 48q109 0 179.5 -71.5t70.5 -186.5q0 -78 -37 -152.5t-104.5 -122.5t-157.5 -48q-106 0 -178 72.5t-72 185.5z" />
<glyph unicode="&#x2026;" horiz-adv-x="2011" d="M131 147q0 55 28.5 108.5t79 87.5t117.5 34q74 0 119 -49t45 -123q0 -57 -27.5 -109.5t-78.5 -86.5t-119 -34q-74 0 -119 48.5t-45 123.5zM778 147q0 55 28.5 108.5t79 87.5t117.5 34q74 0 119 -49t45 -123q0 -57 -27.5 -109.5t-78.5 -86.5t-119 -34q-74 0 -119 48.5 t-45 123.5zM1425 147q0 55 28.5 108.5t79 87.5t117.5 34q74 0 119 -49t45 -123q0 -57 -27.5 -109.5t-78.5 -86.5t-119 -34q-74 0 -119 48.5t-45 123.5z" />
<glyph unicode="&#x202f;" horiz-adv-x="371" />
<glyph unicode="&#x2039;" horiz-adv-x="573" d="M82 410l41 229l311 279l98 -107l-266 -307l156 -311l-127 -82z" />
<glyph unicode="&#x203a;" horiz-adv-x="573" d="M57 217l267 307l-156 312l127 82l213 -300l-41 -229l-311 -278z" />
<glyph unicode="&#x205f;" horiz-adv-x="464" />
<glyph unicode="&#x20ac;" d="M29 446l32 152l99 8q4 27 7 52.5t7 50.5h-92l33 151l104 8q55 147 147.5 254t212 164t252.5 57q115 0 190 -55t126 -145l-234 -156q-20 47 -46.5 70.5t-67.5 23.5q-88 0 -150.5 -57t-103.5 -152h397l-33 -163h-409q-8 -45 -13 -99h324l-33 -164h-291q10 -100 56.5 -154 t128.5 -54q43 0 86 25.5t82 64.5l151 -193q-106 -92 -205.5 -126t-183.5 -34q-199 0 -316.5 121t-127.5 350h-129z" />
<glyph unicode="&#x2122;" horiz-adv-x="1368" d="M143 1196l37 188h537l-37 -188h-160l-90 -459h-209l90 459h-168zM672 737l123 647h233l41 -176l12 -139h9l57 139l110 176h238l-123 -647h-205l37 181l90 262h-8l-201 -349h-98l-65 349h-9l-8 -262l-37 -181h-196z" />
<glyph unicode="&#x25fc;" horiz-adv-x="1024" d="M0 0v1024h1024v-1024h-1024z" />
<glyph unicode="&#xfb01;" horiz-adv-x="1269" d="M70 0l155 770h-131l49 242l136 12l4 29q20 106 70 196t136 145.5t216 55.5q125 0 233 -57l-102 -230q-14 10 -42 19.5t-53 9.5q-51 0 -82.5 -21.5t-48.5 -105.5l-8 -41h168l-49 -254h-172l-152 -770h-327zM721 0l205 1024h328l-205 -1024h-328zM963 1307q0 74 57 129 t139 55q66 0 119 -39t53 -113q0 -80 -56 -132t-140 -52q-63 0 -117.5 38t-54.5 114z" />
<glyph unicode="&#xfb02;" horiz-adv-x="1290" d="M70 0l155 770h-131l49 242l136 12l4 29q20 106 70 196t136 145.5t216 55.5q125 0 233 -57l-102 -230q-14 10 -42 19.5t-53 9.5q-51 0 -82.5 -21.5t-48.5 -105.5l-8 -41h168l-49 -254h-172l-152 -770h-327zM775 201q0 31 4 63.5t12 75.5l217 1085h328l-221 -1097 q-2 -14 -3 -22.5t-1 -16.5q0 -29 13 -40t27 -11q10 0 17.5 1t19.5 3l-12 -242q-27 -8 -70 -16.5t-98 -8.5q-125 0 -179 60.5t-54 165.5z" />
<glyph unicode="&#xfb03;" horiz-adv-x="1908" d="M70 0l155 770h-131l49 242l133 10l3 10q20 106 70 196.5t136 146t215 55.5q125 0 234 -58l-103 -229q-14 10 -41.5 19t-52.5 9q-51 0 -82.5 -21.5t-48.5 -105.5l-4 -20h313l7 29q20 106 70 196t136 145.5t215 55.5q125 0 234 -57l-102 -230q-14 10 -42 19.5t-53 9.5 q-51 0 -82.5 -21.5t-48.5 -105.5l-8 -41h168l-49 -254h-170l-154 -770h-327l155 770h-313l-154 -770h-327zM1359 0l205 1024h328l-205 -1024h-328zM1601 1307q0 74 57 129t139 55q66 0 119 -39t53 -113q0 -80 -56 -132t-140 -52q-63 0 -117.5 38t-54.5 114z" />
<glyph unicode="&#xfb04;" horiz-adv-x="1929" d="M70 0l155 770h-131l49 242l133 10l3 10q20 106 70 196.5t136 146t215 55.5q125 0 234 -58l-103 -229q-14 10 -41.5 19t-52.5 9q-51 0 -82.5 -21.5t-48.5 -105.5l-4 -20h313l7 29q20 106 70 196t136 145.5t215 55.5q125 0 234 -57l-102 -230q-14 10 -42 19.5t-53 9.5 q-51 0 -82.5 -21.5t-48.5 -105.5l-8 -41h168l-49 -254h-170l-154 -770h-327l155 770h-313l-154 -770h-327zM1413 201q0 31 4 63.5t12 75.5l217 1085h328l-221 -1097q-2 -14 -3 -22.5t-1 -16.5q0 -29 13 -40t27 -11q10 0 17.5 1t19.5 3l-12 -242q-27 -8 -70 -16.5t-98 -8.5 q-125 0 -179 60.5t-54 165.5z" />
</font>
</defs>
</svg>
