<?xml version="1.0" standalone="no"?>
<!DOCTYPE svg PUBLIC "-//W3C//DTD SVG 1.1//EN" "http://www.w3.org/Graphics/SVG/1.1/DTD/svg11.dtd" >
<svg xmlns="http://www.w3.org/2000/svg" xmlns:xlink="http://www.w3.org/1999/xlink" version="1.1">
<metadata></metadata>
<defs>
<font id="source_sans_proXLtIt" horiz-adv-x="933" >
<font-face units-per-em="2048" ascent="1536" descent="-512" />
<missing-glyph horiz-adv-x="409" />
<glyph horiz-adv-x="0" />
<glyph horiz-adv-x="682" />
<glyph unicode=" "  horiz-adv-x="409" />
<glyph unicode="&#x09;" horiz-adv-x="409" />
<glyph unicode="&#xa0;" horiz-adv-x="409" />
<glyph unicode="!" horiz-adv-x="495" d="M86 37q0 35 26.5 64.5t59.5 29.5q29 0 41 -18.5t12 -46.5q0 -33 -23.5 -62t-58.5 -29q-27 0 -42 18.5t-15 43.5zM188 352l197 1024h57l-24 -131l-180 -893h-50z" />
<glyph unicode="&#x22;" horiz-adv-x="663" d="M274 979l50 266l24 131h58l-25 -131l-62 -266h-45zM524 979l50 266l24 131h58l-25 -131l-62 -266h-45z" />
<glyph unicode="#" horiz-adv-x="937" d="M57 446l17 58h168l110 364h-172l17 58h176l127 405h57l-127 -405h299l127 405h57l-127 -405h168l-16 -58h-168l-111 -364h172l-16 -58h-176l-139 -446h-58l140 446h-299l-140 -446h-57l139 446h-168zM299 504h303l111 364h-303z" />
<glyph unicode="$" d="M51 160l43 41q47 -63 125 -117.5t178 -54.5q90 0 163 38.5t115 108.5t42 160q0 88 -33 150.5t-85 110.5t-109.5 89t-109.5 85t-85 101.5t-33 135.5q0 94 45 167.5t122 116.5t175 43l41 201h57l-43 -207q74 -14 137.5 -61t100.5 -105l-45 -37q-43 66 -106.5 111t-143.5 45 q-119 0 -201 -72.5t-82 -189.5q0 -74 33 -127t85 -96t109.5 -84t110 -90.5t85 -115t32.5 -159.5q0 -102 -47 -187t-131 -135.5t-197 -50.5l-39 -200h-57l41 205q-96 16 -172 69t-121 111z" />
<glyph unicode="%" horiz-adv-x="1556" d="M139 827q0 86 22.5 181.5t66.5 179.5t111.5 136t155.5 52q117 0 171 -88t54 -211q0 -86 -22.5 -181t-66.5 -179t-110.5 -136.5t-156.5 -52.5q-117 0 -171 88.5t-54 210.5zM196 840q0 -109 39 -185.5t133 -76.5q74 0 129.5 48t92 123.5t55 159.5t18.5 156q0 109 -39 185.5 t-133 76.5q-74 0 -129 -48t-92 -124t-55.5 -160t-18.5 -155zM266 -25l1008 1401h61l-1008 -1401h-61zM889 274q0 86 22.5 181.5t66.5 179.5t111.5 136t155.5 52q117 0 171 -88t54 -211q0 -86 -22.5 -181t-66.5 -179t-110.5 -136.5t-156.5 -52.5q-117 0 -171 88.5t-54 210.5z M946 287q0 -109 39 -185.5t133 -76.5q74 0 129.5 48t92 123.5t55 159.5t18.5 156q0 109 -39 185.5t-133 76.5q-74 0 -129 -48t-92 -124t-55.5 -160t-18.5 -155z" />
<glyph unicode="&#x26;" horiz-adv-x="1110" d="M33 274q0 113 52 197t135 150.5t175 126.5q-35 127 -35 239q0 119 45.5 206t116 135t150.5 48q92 0 134 -54t42 -126q0 -106 -57.5 -187t-146.5 -147.5t-185 -130.5q41 -137 112.5 -269t159.5 -233q96 96 169 214t136 255h58q-68 -143 -150 -273t-178 -232 q55 -57 108.5 -101.5t104.5 -66.5l-29 -50q-51 23 -109.5 67t-117.5 108q-86 -80 -183 -127.5t-206 -47.5q-129 0 -215 81t-86 218zM94 287q0 -117 73 -187.5t181 -70.5q90 0 177 45t163 114q-86 102 -160.5 235.5t-117.5 274.5q-82 -55 -155 -115.5t-117 -132t-44 -163.5z M418 995q0 -102 28 -213q88 57 167 115.5t128.5 127.5t49.5 157q0 53 -29 97t-94 44q-72 0 -129.5 -43t-89 -117t-31.5 -168z" />
<glyph unicode="'" horiz-adv-x="413" d="M274 979l50 266l24 131h58l-25 -131l-62 -266h-45z" />
<glyph unicode="(" horiz-adv-x="532" d="M147 274q0 240 57.5 447t164 396.5t254.5 377.5l36 -29q-217 -264 -335.5 -563t-118.5 -641q0 -154 24.5 -318.5t73.5 -287.5l-41 -12q-51 133 -83 297.5t-32 332.5z" />
<glyph unicode=")" horiz-adv-x="536" d="M-111 -328q219 264 337 564.5t118 640.5q0 154 -24.5 318.5t-73.5 287.5l41 12q53 -131 83.5 -296t30.5 -335q0 -240 -57 -446.5t-164 -396t-254 -377.5z" />
<glyph unicode="*" horiz-adv-x="765" d="M295 1282l16 41l189 -66l41 201l45 -4l-17 -201l193 29l8 -45l-197 -53l78 -185l-41 -24l-94 172l-151 -148l-33 29l131 164z" />
<glyph unicode="+" d="M98 651v54h369v413h57v-413h369v-54h-369v-426h-57v426h-369z" />
<glyph unicode="," horiz-adv-x="413" d="M-70 -250q80 37 134.5 98.5t62.5 135.5h-5h-7q-27 0 -44.5 17t-17.5 44q0 31 22.5 58.5t59.5 27.5q33 0 49.5 -24.5t16.5 -61.5q0 -113 -72.5 -207t-181.5 -137z" />
<glyph unicode="-" horiz-adv-x="577" d="M74 483l12 58h422l-12 -58h-422z" />
<glyph unicode="&#xad;" horiz-adv-x="577" d="M74 483l12 58h422l-12 -58h-422z" />
<glyph unicode="." horiz-adv-x="413" d="M45 37q0 35 26.5 64.5t59.5 29.5q29 0 41 -18.5t12 -46.5q0 -33 -23.5 -62t-58.5 -29q-27 0 -42 18.5t-15 43.5z" />
<glyph unicode="/" horiz-adv-x="716" d="M-152 -328l992 1782h57l-991 -1782h-58z" />
<glyph unicode="0" d="M94 401q0 125 24.5 256t69.5 253t108.5 217.5t141.5 151.5t168 56q100 0 164 -64.5t93.5 -162.5t29.5 -203q0 -125 -24.5 -256t-69.5 -252t-108.5 -216t-141.5 -150.5t-168 -55.5q-102 0 -165.5 62.5t-92.5 160t-29 203.5zM152 414q0 -98 23.5 -186.5t73.5 -143.5 t132 -55q78 0 147.5 54t126 145t97.5 205t62.5 232.5t21.5 227.5q0 100 -25 189t-76 144.5t-133 55.5q-78 0 -146.5 -55.5t-125 -147.5t-96 -205.5t-61 -233.5t-21.5 -226z" />
<glyph unicode="1" d="M66 0l12 53h295l229 1139h-229l8 41q74 10 141.5 30.5t112.5 47.5h49l-254 -1258h287l-8 -53h-643z" />
<glyph unicode="2" d="M-16 0l4 41q225 195 384.5 335t259 248.5t145.5 203t46 196.5q0 104 -62.5 181t-195.5 77q-74 0 -153.5 -37t-157.5 -115l-37 46q86 74 170 116.5t182 42.5q154 0 233 -86t79 -213q0 -115 -46.5 -217t-143.5 -210.5t-247.5 -243t-357.5 -312.5h664l-9 -53h-757z" />
<glyph unicode="3" d="M-8 193l45 32q31 -45 75 -90t106.5 -75.5t146.5 -30.5q113 0 200.5 46t138 123.5t50.5 174.5q0 121 -100.5 203.5t-325.5 82.5l12 54q137 0 231.5 30.5t151.5 79.5t82.5 105.5t25.5 107.5q0 109 -58 177.5t-187 68.5q-70 0 -155 -34t-140 -89l-37 45q72 59 160 95t176 36 q154 0 226.5 -78.5t72.5 -207.5q0 -125 -86 -226.5t-238 -138.5v-8q109 -31 177.5 -105.5t68.5 -185.5q0 -121 -58.5 -213t-161 -144.5t-235.5 -52.5q-94 0 -165.5 36t-121 86t-77.5 96z" />
<glyph unicode="4" d="M41 397l4 33l782 881h41l-172 -860h189l-13 -54h-186l-80 -397h-57l80 397h-588zM135 451h504l102 512q10 47 26.5 110.5t31.5 126.5h-8q-43 -55 -84 -104t-80 -92z" />
<glyph unicode="5" d="M4 188l45 33q27 -43 66 -87t99 -74.5t155 -30.5q104 0 195 55t146.5 152.5t55.5 226.5q0 154 -78 228.5t-205 74.5q-74 0 -127 -19.5t-114 -54.5l-37 29l164 590h544l-12 -54h-491l-136 -491q41 23 93.5 38t115.5 15q147 0 243.5 -86t96.5 -258q0 -152 -64.5 -264.5 t-171 -174t-231.5 -61.5q-96 0 -164.5 34t-114.5 83t-73 96z" />
<glyph unicode="6" d="M106 401q0 201 44.5 371t122 296t183 196.5t228.5 70.5q96 0 159.5 -42t102.5 -113l-49 -33q-72 135 -217 135q-121 0 -226.5 -89t-178 -242.5t-99.5 -346.5q78 88 172 129t172 41q152 0 234 -96t82 -244q0 -129 -54.5 -233.5t-145.5 -165t-202 -60.5q-102 0 -176 55.5 t-113 152t-39 218.5zM164 414q0 -111 32.5 -198t94 -137t147.5 -50q88 0 166 53t126 141t48 191q0 139 -66.5 221t-195.5 82q-37 0 -97.5 -16.5t-126 -58.5t-124.5 -120q-2 -27 -3 -53t-1 -55z" />
<glyph unicode="7" d="M233 1257l13 54h762l-9 -41q-156 -150 -263 -296.5t-181 -300t-123 -319.5t-88 -354h-65q57 260 135 475t198.5 405.5t309.5 376.5h-689z" />
<glyph unicode="8" d="M70 315q0 106 47 185.5t120.5 136.5t155.5 96v8q-57 55 -88 113.5t-31 140.5q0 106 49.5 182t128 117t171.5 41q80 0 147.5 -33.5t109.5 -100t42 -165.5q0 -137 -76 -227t-191 -158v-8q33 -23 77 -63.5t78 -98t34 -129.5q0 -117 -56.5 -201.5t-149.5 -130t-204 -45.5 q-94 0 -177 38t-135 114t-52 188zM127 319q0 -96 44 -160.5t114.5 -97t148.5 -32.5q88 0 169 36.5t132 106.5t51 168q0 94 -51 157.5t-132 111.5t-169 96q-135 -70 -221 -158t-86 -228zM332 999q0 -125 74.5 -194.5t199.5 -128.5q66 37 125.5 89t96 118.5t36.5 148.5 t-34.5 137.5t-91 84t-120.5 28.5q-74 0 -139 -34t-106 -97.5t-41 -151.5z" />
<glyph unicode="9" d="M41 131l49 33q72 -135 217 -135q123 0 227.5 89t177 242.5t99.5 344.5q-76 -88 -171 -128t-173 -40q-150 0 -232.5 96t-82.5 244q0 129 54 233t145 164.5t202 60.5q102 0 176 -55t113 -151.5t39 -219.5q0 -199 -44 -369.5t-122 -296.5t-183.5 -197t-228.5 -71 q-94 0 -157.5 42t-104.5 114zM209 897q0 -137 66.5 -220t195.5 -83q39 0 98.5 16.5t126 58.5t123.5 119q2 27 3 54.5t1 54.5q0 111 -32.5 198t-94 137t-147.5 50q-88 0 -166 -53t-126 -141.5t-48 -190.5z" />
<glyph unicode=":" horiz-adv-x="413" d="M45 37q0 35 26.5 64.5t59.5 29.5q29 0 41 -18.5t12 -46.5q0 -33 -23.5 -62t-58.5 -29q-27 0 -42 18.5t-15 43.5zM188 852q0 35 26.5 64.5t59.5 29.5q29 0 41 -18.5t12 -46.5q0 -33 -23.5 -62t-58.5 -29q-27 0 -42 18.5t-15 43.5z" />
<glyph unicode=";" horiz-adv-x="413" d="M-70 -250q80 37 134.5 98.5t62.5 135.5h-5h-7q-27 0 -44.5 17t-17.5 44q0 31 22.5 58.5t59.5 27.5q33 0 49.5 -24.5t16.5 -61.5q0 -113 -72.5 -207t-181.5 -137zM188 852q0 35 26.5 64.5t59.5 29.5q29 0 41 -18.5t12 -46.5q0 -33 -23.5 -62t-58.5 -29q-27 0 -42 18.5 t-15 43.5z" />
<glyph unicode="&#x3c;" d="M94 647v58l799 327v-57l-471 -193l-250 -102v-8l250 -103l471 -192v-58z" />
<glyph unicode="=" d="M98 446v54h795v-54h-795zM98 852v54h795v-54h-795z" />
<glyph unicode="&#x3e;" d="M98 319v58l471 192l250 103v8l-250 102l-471 193v57l799 -327v-58z" />
<glyph unicode="?" horiz-adv-x="778" d="M201 37q0 35 26.5 64.5t59.5 29.5q29 0 41 -18.5t12 -46.5q0 -33 -23.5 -62t-58.5 -29q-27 0 -42 18.5t-15 43.5zM225 1257q49 55 130 97.5t173 42.5q123 0 193 -70t70 -192q0 -102 -43 -180t-108 -145t-130.5 -132.5t-111.5 -143t-50 -178.5l-53 4q4 109 49 190 t109.5 148.5t129 130t107.5 133t43 160.5q0 104 -55 162.5t-154 58.5q-74 0 -143.5 -35.5t-118.5 -90.5z" />
<glyph unicode="@" horiz-adv-x="1581" d="M94 336q0 205 72 377t193.5 300t273 198.5t313.5 70.5q178 0 303 -73.5t189.5 -206t64.5 -306.5q0 -186 -56 -317t-143 -199.5t-182 -68.5q-74 0 -116.5 44t-55.5 111h-4q-51 -57 -108.5 -98t-128.5 -41q-55 0 -105.5 28.5t-83.5 87t-33 146.5q0 86 30 170t83 151.5 t124 108.5t153 41q49 0 89 -28.5t66 -77.5h4l25 90h49l-98 -434q-25 -104 0.5 -175t117.5 -71q76 0 149 61.5t120 178t47 280.5q0 246 -129 395.5t-375 149.5q-150 0 -291 -66.5t-253.5 -186.5t-179 -279.5t-66.5 -348.5q0 -182 67.5 -313t186 -202t274.5 -71q172 0 303 78 l25 -45q-80 -45 -164 -65.5t-168 -20.5q-170 0 -301 77t-206 217t-75 333zM545 401q0 -113 50 -167t118 -54q115 0 225 148l82 364q-37 68 -74 91.5t-74 23.5q-72 0 -132 -37t-104 -98.5t-67.5 -132t-23.5 -138.5z" />
<glyph unicode="A" horiz-adv-x="983" d="M-94 0l749 1352h62l172 -1352h-62l-59 487h-526l-267 -487h-69zM270 541h492l-33 270q-12 115 -26.5 231.5t-26.5 239.5h-8q-61 -125 -122.5 -237.5t-127.5 -233.5z" />
<glyph unicode="B" horiz-adv-x="1159" d="M82 0l270 1352h320q188 0 288.5 -78t100.5 -213q0 -102 -50 -175t-122 -114t-135 -51v-8q66 -14 125 -50t96 -95.5t37 -145.5q0 -143 -67.5 -236.5t-189.5 -139.5t-284 -46h-389zM152 53h282q154 0 270.5 36t181 116t64.5 211q0 119 -99 197.5t-282 78.5h-286zM291 745 h241q233 0 350 88.5t117 223.5q0 115 -86 178t-274 63h-238z" />
<glyph unicode="C" horiz-adv-x="1097" d="M119 504q0 119 29.5 241.5t86 235.5t139.5 202t189.5 141t235.5 52q115 0 190.5 -57t120.5 -131l-49 -33q-39 72 -104.5 120t-161.5 48q-119 0 -215.5 -49t-171 -134t-126 -189.5t-77 -217t-25.5 -217.5q0 -137 41 -247.5t128 -175t224 -64.5q98 0 177 35.5t155 99.5 l37 -41q-86 -70 -174 -109t-199 -39q-152 0 -252 70t-149 189.5t-49 269.5z" />
<glyph unicode="D" horiz-adv-x="1171" d="M82 0l270 1352h213q186 0 309 -66.5t183.5 -184.5t60.5 -274q0 -172 -46 -322.5t-136 -263t-225.5 -177t-313.5 -64.5h-315zM152 53h249q158 0 280 61.5t206 170t127 247t43 291.5q0 139 -54.5 247t-164 168t-277.5 60h-160z" />
<glyph unicode="E" horiz-adv-x="991" d="M82 0l270 1352h701l-13 -54h-639l-110 -553h540l-12 -53h-536l-131 -639h659l-12 -53h-717z" />
<glyph unicode="F" horiz-adv-x="917" d="M82 0l270 1352h701l-13 -54h-639l-114 -577h540l-12 -53h-536l-136 -668h-61z" />
<glyph unicode="G" horiz-adv-x="1167" d="M119 504q0 150 45 303.5t134 282.5t220 207.5t301 78.5q115 0 190.5 -57t120.5 -131l-49 -33q-39 72 -104.5 120t-161.5 48q-123 0 -223 -49t-177 -134t-129.5 -189.5t-79 -217t-26.5 -217.5q0 -133 41 -243.5t132 -177t241 -66.5q98 0 172 32.5t123 77.5l90 455h-324 l13 53h385l-111 -536q-70 -61 -156.5 -98.5t-195.5 -37.5q-160 0 -264.5 69t-155.5 187.5t-51 272.5z" />
<glyph unicode="H" horiz-adv-x="1224" d="M82 0l270 1352h62l-123 -607h729l123 607h61l-270 -1352h-62l140 692h-729l-140 -692h-61z" />
<glyph unicode="I" horiz-adv-x="446" d="M82 0l270 1352h62l-271 -1352h-61z" />
<glyph unicode="J" horiz-adv-x="876" d="M4 184l53 25q53 -180 246 -180q121 0 196.5 89t102.5 230l201 1004h61l-200 -1008q-31 -168 -125.5 -268.5t-239.5 -100.5q-123 0 -193.5 60.5t-101.5 148.5z" />
<glyph unicode="K" horiz-adv-x="1069" d="M82 0l270 1352h62l-152 -758h4l811 758h78l-516 -492l311 -860h-65l-295 819l-344 -319l-103 -500h-61z" />
<glyph unicode="L" horiz-adv-x="884" d="M82 0l270 1352h62l-258 -1299h614l-12 -53h-676z" />
<glyph unicode="M" horiz-adv-x="1384" d="M82 0l270 1352h103l135 -815l53 -308h8l160 308l451 815h102l-270 -1352h-62l189 942q18 84 38.5 178t38.5 174h-8l-160 -290l-462 -848h-70l-147 848l-50 290h-8q-14 -82 -29.5 -175t-31.5 -177l-189 -942h-61z" />
<glyph unicode="N" horiz-adv-x="1228" d="M82 0l270 1352h70l377 -996l98 -270h8q16 96 31.5 193.5t34.5 191.5l176 881h61l-270 -1352h-66l-372 991l-103 283h-8q-14 -98 -32.5 -193.5t-37.5 -187.5l-176 -893h-61z" />
<glyph unicode="O" horiz-adv-x="1253" d="M127 537q0 109 26.5 225.5t80 226t130 196.5t177 139t221.5 52q147 0 243.5 -71.5t143.5 -198.5t47 -291q0 -109 -26.5 -225.5t-80 -226t-130 -196.5t-177 -139.5t-221.5 -52.5q-147 0 -243.5 72t-143.5 199t-47 291zM188 545q0 -152 39 -268.5t122 -182t216 -65.5 q111 0 201 49t158.5 132t115.5 185.5t71 209t24 202.5q0 152 -39 268.5t-122 182t-216 65.5q-111 0 -201 -49t-158.5 -132t-115.5 -185.5t-71 -209t-24 -202.5z" />
<glyph unicode="P" horiz-adv-x="1073" d="M82 0l270 1352h344q184 0 289 -74t105 -234q0 -221 -152 -331.5t-414 -110.5h-262l-119 -602h-61zM274 655h238q516 0 516 385q0 139 -93 198.5t-276 59.5h-258z" />
<glyph unicode="Q" horiz-adv-x="1253" d="M127 537q0 109 26.5 225.5t80 226t130 196.5t177 139t221.5 52q147 0 243.5 -71.5t143.5 -198.5t47 -291q0 -109 -26.5 -225.5t-80 -226t-130 -196.5t-176 -139.5t-220.5 -52.5q29 -113 121 -169t221 -56q45 0 94 12l9 -57q-27 -6 -51.5 -9t-55.5 -3q-143 0 -253.5 68.5 t-145.5 218.5q-127 14 -210 88.5t-124 195.5t-41 273zM188 545q0 -152 39 -268.5t122 -182t216 -65.5q111 0 201 49t158.5 132t115.5 185.5t71 209t24 202.5q0 152 -39 268.5t-122 182t-216 65.5q-111 0 -201 -49t-158.5 -132t-115.5 -185.5t-71 -209t-24 -202.5z" />
<glyph unicode="R" horiz-adv-x="1069" d="M82 0l270 1352h328q182 0 285.5 -69t103.5 -222q0 -121 -57.5 -212t-157.5 -145.5t-229 -66.5l264 -637h-70l-260 635h-289l-127 -635h-61zM283 688h249q227 0 351.5 98.5t124.5 270.5q0 133 -91.5 187t-273.5 54h-242z" />
<glyph unicode="S" horiz-adv-x="999" d="M37 201l49 32q66 -98 160 -151t225 -53q102 0 185 41t131.5 115.5t48.5 174.5q0 92 -48.5 157t-128.5 110l-180 106q-82 49 -147.5 123t-65.5 180q0 90 47 168t132 125t198 47q123 0 216 -53t145 -127l-46 -37q-51 68 -134 116t-193 48q-92 0 -160 -41t-105.5 -105.5 t-37.5 -132.5q0 -98 55 -157.5t125 -100.5l176 -102q96 -55 154.5 -130t58.5 -185q0 -119 -57.5 -207t-155.5 -137.5t-221 -49.5q-143 0 -251 59.5t-175 166.5z" />
<glyph unicode="T" horiz-adv-x="1007" d="M205 1294l12 58h905l-12 -58h-422l-258 -1294h-61l258 1294h-422z" />
<glyph unicode="U" horiz-adv-x="1216" d="M168 369q0 41 4 79.5t12 88.5l164 815h62l-160 -799q-12 -49 -16.5 -90t-4.5 -78q0 -168 83 -262t245 -94q88 0 169 45t144.5 146.5t96.5 266.5l172 865h61l-176 -881q-37 -184 -109.5 -292.5t-168 -156t-197.5 -47.5q-178 0 -279.5 103.5t-101.5 290.5z" />
<glyph unicode="V" horiz-adv-x="921" d="M172 1352h57l74 -820q12 -111 24.5 -225t20.5 -229h8q55 111 115.5 229.5t118.5 224.5l430 820h61l-712 -1352h-70z" />
<glyph unicode="W" horiz-adv-x="1486" d="M221 1352h62v-820q-1 -74 -1 -148v-73v-44q0 -88 -3 -177h8q53 111 104 221.5t101 220.5l385 820h69l29 -820q6 -111 10 -221t6 -221h8q47 111 93.5 221.5t95.5 220.5l344 820h65l-581 -1352h-78l-33 967q0 84 -2 160.5t-2 158.5h-8q-31 -82 -66.5 -158.5t-72.5 -160.5 l-451 -967h-78z" />
<glyph unicode="X" horiz-adv-x="913" d="M-74 0l533 705l-234 647h62l151 -430q16 -45 29.5 -85t32.5 -87h4q37 43 73.5 91t69.5 93l311 418h66l-500 -660l254 -692h-61l-160 446q-18 49 -36.5 101.5t-37.5 103.5h-4q-43 -51 -85 -109.5t-79 -107.5l-323 -434h-66z" />
<glyph unicode="Y" horiz-adv-x="864" d="M176 1352h62l120 -441q20 -74 40 -145.5t40 -147.5h4q51 72 101.5 147t101.5 146l309 441h66l-559 -793l-113 -559h-61l112 559z" />
<glyph unicode="Z" horiz-adv-x="1028" d="M4 0l8 37l983 1261h-684l13 54h757l-8 -37l-979 -1262h758l-12 -53h-836z" />
<glyph unicode="[" horiz-adv-x="536" d="M37 -311l352 1761h295l-4 -45h-254l-332 -1671h250l-12 -45h-295z" />
<glyph unicode="\" horiz-adv-x="716" d="M184 1454h49l304 -1782h-50z" />
<glyph unicode="]" horiz-adv-x="536" d="M-131 -311l8 45h250l340 1671h-254l8 45h299l-352 -1761h-299z" />
<glyph unicode="^" horiz-adv-x="937" d="M188 594l295 778h49l295 -778h-53l-164 434l-98 270h-4l-98 -270l-164 -434h-58z" />
<glyph unicode="_" horiz-adv-x="991" d="M-53 -229l12 57h938l-12 -57h-938z" />
<glyph unicode="`" horiz-adv-x="1032" d="M512 1495l53 37l221 -336l-41 -29z" />
<glyph unicode="a" horiz-adv-x="1073" d="M94 328q0 141 44 264t121 215t172 144.5t196 52.5q90 0 154.5 -45.5t103.5 -118.5h8l37 139h49l-197 -979h-49l25 160h-8q-76 -80 -170.5 -132.5t-198.5 -52.5q-129 0 -208 90.5t-79 262.5zM152 340q0 -156 63.5 -233.5t169.5 -77.5q102 0 199.5 58t189.5 163l107 512 q-57 102 -121 145t-137 43q-92 0 -177.5 -52t-151 -139t-104 -195.5t-38.5 -223.5z" />
<glyph unicode="b" horiz-adv-x="1069" d="M90 0l295 1479h57l-90 -443l-41 -200h4q80 66 174.5 117t198.5 51q129 0 208 -90.5t79 -262.5q0 -141 -44 -264t-121 -215t-171.5 -144.5t-196.5 -52.5q-88 0 -152.5 45.5t-105.5 118.5h-8l-37 -139h-49zM188 217q59 -100 121.5 -144t136.5 -44q92 0 177.5 52t151 139 t104.5 196.5t39 222.5q0 156 -62.5 233.5t-171.5 77.5q-86 0 -190.5 -54t-194.5 -134z" />
<glyph unicode="c" horiz-adv-x="876" d="M90 360q0 145 45 263t120 203t168 131.5t187 46.5q84 0 140.5 -32t105.5 -87l-41 -41q-45 55 -91 80.5t-118 25.5q-86 0 -168 -46t-147.5 -126t-104.5 -184.5t-39 -220.5q0 -344 287 -344q78 0 144.5 31.5t121.5 74.5l33 -45q-51 -39 -126 -77t-177 -38 q-156 0 -248 100.5t-92 284.5z" />
<glyph unicode="d" horiz-adv-x="1077" d="M94 328q0 141 44 264t121 215t172 144.5t196 52.5q90 0 154.5 -45.5t103.5 -118.5h8l41 196l90 443h57l-299 -1479h-49l25 160h-8q-76 -80 -170.5 -132.5t-198.5 -52.5q-129 0 -208 90.5t-79 262.5zM152 340q0 -156 63.5 -233.5t169.5 -77.5q102 0 199.5 58t189.5 163 l107 512q-57 102 -121 145t-137 43q-92 0 -177.5 -52t-151 -139t-104 -195.5t-38.5 -223.5z" />
<glyph unicode="e" horiz-adv-x="958" d="M90 377q0 139 43 255t116 198.5t162 128t183 45.5q158 0 224.5 -96.5t66.5 -248.5q0 -49 -7.5 -91t-17.5 -72h-700q-14 -76 -14 -139q0 -73 19 -129q36 -104 115.5 -151.5t182.5 -47.5q68 0 133.5 29.5t120.5 68.5l28 -45q-57 -43 -131.5 -75t-154.5 -32 q-168 0 -268.5 102.5t-100.5 299.5zM172 549h643q12 61 12 123q0 70 -22.5 133t-74.5 104t-140 41q-92 0 -178 -52t-149.5 -142t-90.5 -207z" />
<glyph unicode="f" horiz-adv-x="503" d="M98 0l185 926h-127l8 45l131 8l49 246q31 145 99.5 211.5t154.5 66.5q49 0 83 -13t60 -32l-28 -45q-25 16 -51.5 26.5t-67.5 10.5q-76 0 -125 -67.5t-68 -157.5l-49 -246h221l-12 -53h-221l-184 -926h-58z" />
<glyph unicode="g" horiz-adv-x="1060" d="M12 -344l37 45q55 -51 129 -89t166 -38q152 0 238 101.5t118 263.5l50 237q-86 -82 -177.5 -133t-195.5 -51q-125 0 -204 90t-79 258q0 137 44 257t119 211t168 143.5t189 52.5q88 0 154 -45.5t104 -118.5h9l37 139h49l-217 -1077q-37 -174 -140.5 -277.5t-269.5 -103.5 q-106 0 -186 42t-142 93zM152 352q0 -154 61.5 -230.5t167.5 -76.5q86 0 189.5 57.5t191.5 151.5l106 508q-59 102 -121.5 145t-136.5 43q-88 0 -170 -51t-147.5 -138t-103 -193.5t-37.5 -215.5z" />
<glyph unicode="h" horiz-adv-x="1032" d="M90 0l295 1479h57l-114 -570l-25 -94h8q98 84 185.5 136.5t175.5 52.5q127 0 180 -67t53 -171q0 -37 -3 -62.5t-13 -68.5l-127 -635h-57l126 627q10 47 13.5 73.5t3.5 57.5q0 96 -43 144t-141 48q-68 0 -160 -51t-209 -166l-148 -733h-57z" />
<glyph unicode="i" horiz-adv-x="438" d="M90 0l197 979h57l-197 -979h-57zM315 1286q0 37 24 59.5t50 22.5q25 0 41 -16.5t16 -44.5q0 -33 -22 -55.5t-51 -22.5q-25 0 -41.5 16.5t-16.5 40.5z" />
<glyph unicode="j" horiz-adv-x="438" d="M-242 -446l25 49q18 -12 38.5 -20.5t59.5 -8.5q61 0 102.5 59.5t61.5 153.5l242 1192h57l-238 -1180q-27 -131 -82 -204.5t-147 -73.5q-43 0 -69.5 10t-49.5 23zM303 1286q0 37 24 59.5t50 22.5q25 0 41 -16.5t16 -44.5q0 -33 -22 -55.5t-51 -22.5q-25 0 -41.5 16.5 t-16.5 40.5z" />
<glyph unicode="k" horiz-adv-x="892" d="M90 0l295 1479h57l-221 -1119h4l611 619h73l-381 -393l238 -586h-61l-222 545l-282 -287l-54 -258h-57z" />
<glyph unicode="l" horiz-adv-x="462" d="M102 49q0 10 3.5 24.5t5.5 28.5l274 1377h57l-274 -1381q-2 -14 -3 -24.5t-1 -16.5q0 -29 29 -28q6 0 12 1t20 7l8 -49q-14 -6 -26.5 -9.5t-30.5 -3.5q-31 0 -52.5 18.5t-21.5 55.5z" />
<glyph unicode="m" horiz-adv-x="1589" d="M90 0l197 979h49l-25 -160h8q84 80 171.5 132.5t156.5 52.5q123 0 173 -62.5t52 -146.5q104 102 197.5 155.5t163.5 53.5q123 0 176 -67t53 -171q0 -37 -3 -62.5t-13 -68.5l-127 -635h-57l127 627q10 47 13 73.5t3 57.5q0 96 -42 144t-138 48q-49 0 -142.5 -51 t-201.5 -166l-148 -733h-57l127 627q10 47 13 73.5t3 57.5q0 96 -42 144t-138 48q-49 0 -142.5 -51t-201.5 -166l-148 -733h-57z" />
<glyph unicode="n" horiz-adv-x="1032" d="M90 0l197 979h49l-25 -160h8q92 80 178.5 132.5t174.5 52.5q127 0 180 -67t53 -171q0 -37 -3 -62.5t-13 -68.5l-127 -635h-57l126 627q10 47 13.5 73.5t3.5 57.5q0 96 -43 144t-141 48q-68 0 -160 -51t-209 -166l-148 -733h-57z" />
<glyph unicode="o" horiz-adv-x="1024" d="M94 360q0 137 42 254t115 204t164 136.5t191 49.5q147 0 235.5 -100.5t88.5 -285.5q0 -137 -42 -253.5t-115 -203.5t-164 -136.5t-191 -49.5q-147 0 -235.5 100.5t-88.5 284.5zM152 373q0 -168 70.5 -256t199.5 -88q84 0 164 46t144.5 126t103 184t38.5 221 q0 170 -70.5 257t-199.5 87q-82 0 -163 -46t-145.5 -126t-103 -184.5t-38.5 -220.5z" />
<glyph unicode="p" horiz-adv-x="1064" d="M0 -455l287 1434h49l-25 -143h8q80 66 172.5 117t196.5 51q129 0 208 -91.5t79 -261.5q0 -141 -44 -264t-121 -215t-171 -144.5t-197 -52.5q-88 0 -155.5 47.5t-110.5 116.5h-4l-45 -225l-70 -369h-57zM188 209q59 -98 121.5 -139t136.5 -41q92 0 177.5 52t151 139 t104.5 196.5t39 222.5q0 156 -62.5 233.5t-171.5 77.5q-86 0 -190.5 -54t-194.5 -138z" />
<glyph unicode="q" horiz-adv-x="1073" d="M94 328q0 141 44 264t121 215t172 144.5t196 52.5q90 0 154.5 -45.5t103.5 -118.5h8l37 139h49l-287 -1434h-57l74 369l49 250h-4q-80 -82 -174.5 -135.5t-198.5 -53.5q-129 0 -208 90.5t-79 262.5zM152 340q0 -156 63.5 -233.5t169.5 -77.5q102 0 199.5 58t189.5 163 l107 512q-57 102 -121 145t-137 43q-92 0 -177.5 -52t-151 -139t-104 -195.5t-38.5 -223.5z" />
<glyph unicode="r" horiz-adv-x="630" d="M90 0l197 979h49l-33 -184h8q61 86 137 147.5t170 61.5q18 0 40 -3.5t47 -13.5l-25 -57q-12 6 -28.5 11t-45.5 5q-80 0 -170 -75.5t-157 -211.5l-132 -659h-57z" />
<glyph unicode="s" horiz-adv-x="786" d="M0 156l45 32q41 -63 114.5 -111t172.5 -48q72 0 132 28.5t97 78.5t37 114q0 41 -15.5 74.5t-61.5 70.5t-136 88q-104 59 -162.5 117.5t-58.5 132.5q0 82 39 142.5t103.5 94.5t139.5 34q168 0 275 -119l-45 -33q-39 43 -97.5 70.5t-136.5 27.5q-94 0 -157.5 -60.5 t-63.5 -144.5q0 -70 57.5 -116.5t127.5 -87.5q104 -59 157 -102.5t72.5 -84.5t19.5 -92q0 -88 -44 -152.5t-119.5 -99.5t-167.5 -35q-106 0 -194.5 55.5t-129.5 125.5z" />
<glyph unicode="t" horiz-adv-x="593" d="M143 926l9 45l159 8l66 283h49l-57 -283h270l-12 -53h-271l-139 -676q-2 -18 -5 -36.5t-3 -41.5q0 -70 30.5 -106.5t112.5 -36.5q37 0 68 12t55 25l21 -46q-27 -14 -66 -29.5t-82 -15.5q-111 0 -153.5 55.5t-42.5 129.5q0 29 3 49t5 45l139 672h-156z" />
<glyph unicode="u" horiz-adv-x="1052" d="M143 213q0 37 4.5 62.5t12.5 68.5l127 635h57l-127 -627q-8 -45 -12 -72.5t-4 -58.5q0 -94 43 -143t141 -49q68 0 160 52t209 165l147 733h57l-196 -979h-49l24 164h-8q-92 -80 -177 -134.5t-175 -54.5q-125 0 -179.5 67t-54.5 171z" />
<glyph unicode="v" horiz-adv-x="835" d="M119 979h57l103 -639q12 -70 22 -144.5t23 -142.5h8q37 72 77 144.5t78 142.5l349 639h61l-541 -979h-77z" />
<glyph unicode="w" horiz-adv-x="1380" d="M139 979h58l57 -664q6 -68 12 -132t13 -130h8q31 66 59.5 130.5t59.5 131.5l307 664h82l49 -664q4 -68 9 -132t7 -130h8q31 66 60.5 130.5t62.5 131.5l316 664h57l-467 -979h-86l-45 639q-6 72 -8 147.5t-8 143.5h-9q-31 -68 -63.5 -143.5t-67.5 -147.5l-295 -639h-86z " />
<glyph unicode="x" horiz-adv-x="778" d="M-98 0l463 516l-197 463h61l107 -258q18 -45 32.5 -83t32.5 -81h9q37 41 73.5 81t73.5 83l229 258h66l-418 -475l213 -504h-61l-111 279q-18 47 -38.5 95t-43.5 93h-8q-37 -45 -77 -90t-87 -94l-250 -283h-69z" />
<glyph unicode="y" horiz-adv-x="835" d="M-172 -434l25 49q33 -16 69 -16q92 0 172 79.5t144 210.5l45 91l-164 999h57l103 -639q12 -70 24 -146.5t21 -144.5h8q37 72 77 144.5t78 146.5l349 639h61l-614 -1114q-39 -76 -90.5 -149.5t-119 -122t-155.5 -48.5q-14 0 -37.5 4.5t-52.5 16.5z" />
<glyph unicode="z" horiz-adv-x="786" d="M-20 0l4 37l761 889h-520l13 53h593l-4 -37l-761 -889h598l-13 -53h-671z" />
<glyph unicode="{" horiz-adv-x="532" d="M74 545l12 49q72 0 113 24.5t60.5 63.5t27.5 80q18 98 35.5 209.5t37.5 216.5q31 154 87.5 208t166.5 54h66l-8 -45h-66q-94 0 -136 -57.5t-64 -167.5q-18 -92 -33 -195.5t-33 -202.5q-18 -86 -50 -140t-97 -73v-8q43 -18 56 -49t13 -61q0 -55 -17.5 -135t-40 -167.5 t-40 -165t-17.5 -130.5q0 -57 28 -88t104 -31h61l-12 -45h-62q-86 0 -127 34.5t-41 116.5q0 53 18.5 133t41 167t41 165t18.5 129q0 41 -25.5 76t-117.5 35z" />
<glyph unicode="|" horiz-adv-x="434" d="M205 -512v2048h53v-2048h-53z" />
<glyph unicode="}" horiz-adv-x="536" d="M-131 -311l8 45h66q96 0 138 55t62 166q18 92 32.5 195.5t33.5 201.5q18 90 51 144.5t96 72.5v9q-45 18 -57 48.5t-12 61.5q0 53 17.5 132t40 166t39.5 166t17 130q0 61 -26.5 92t-104.5 31h-61l12 45h62q86 0 127 -36t41 -116q0 -53 -18.5 -134t-41 -168t-41 -165.5 t-18.5 -130.5q0 -37 25.5 -71.5t117.5 -34.5l-12 -49q-72 0 -113 -24.5t-60.5 -63.5t-27.5 -80q-18 -98 -34.5 -212t-39.5 -218q-31 -154 -88 -206t-166 -52h-65z" />
<glyph unicode="~" d="M102 639q41 80 95.5 120t109.5 40t102.5 -29t89.5 -65.5t83 -65.5t82 -29q47 0 84.5 31t74.5 100l45 -24q-39 -80 -94 -120t-110 -40t-102.5 28.5t-89.5 65.5t-83 65.5t-82 28.5q-45 0 -84 -29.5t-76 -101.5z" />
<glyph unicode="&#xa1;" horiz-adv-x="495" d="M49 -397l25 131l180 893h49l-197 -1024h-57zM266 913q0 35 24.5 63t57.5 28q29 0 43.5 -18.5t14.5 -43.5q0 -33 -26 -63.5t-61 -30.5q-27 0 -40 19.5t-13 45.5z" />
<glyph unicode="&#xa2;" d="M168 590q0 127 41 227.5t109.5 172t150.5 110.5t164 43l43 221h57l-45 -223q78 -8 132 -45t93 -84l-41 -41q-43 53 -86 81.5t-108 34.5l-164 -825q84 4 151.5 36t120.5 71l29 -50q-57 -37 -130 -73.5t-181 -36.5l-45 -229h-58l48 233q-131 16 -206 112.5t-75 264.5z M229 602q0 -143 57.5 -232t172.5 -106l162 826q-90 -6 -180.5 -69t-151 -170.5t-60.5 -248.5z" />
<glyph unicode="&#xa3;" d="M16 0l9 33q158 84 230.5 222t72.5 294v28.5t-2 28.5h-195l12 45l181 8q-4 61 -10.5 126t-6.5 120q0 203 101.5 316.5t267.5 113.5q98 0 161.5 -53t96.5 -115l-49 -32q-33 61 -87.5 104t-125.5 43q-90 0 -160 -47t-108.5 -129t-38.5 -188q0 -57 6 -124t10 -135h336 l-12 -53h-320v-22.5v-22.5q0 -162 -55.5 -282.5t-165.5 -217.5v-8h569l-8 -53h-709z" />
<glyph unicode="&#xa4;" d="M29 311l153 135q-12 33 -19 72t-7 84q0 94 34.5 178t92.5 148l-99 133l41 33l97 -129q53 45 114.5 70.5t128.5 25.5q131 0 205 -96l152 133l32 -41l-157 -139q31 -63 30 -160q0 -88 -30.5 -169t-83.5 -143l114 -151l-41 -33l-110 146q-53 -51 -120 -80t-138 -29 q-139 0 -209 100l-148 -129zM213 614q0 -127 54.5 -194.5t154.5 -67.5q86 0 166 52.5t131 141.5t51 199q0 127 -53 195t-156 68q-84 0 -165 -52.5t-132 -141.5t-51 -200z" />
<glyph unicode="&#xa5;" d="M74 348l12 49h332l28 160h-331l12 49h307l-201 705h58l115 -418q18 -68 36.5 -137.5t36.5 -149.5h8q53 80 98.5 149.5t94.5 137.5l270 418h62l-471 -705h307l-12 -49h-332l-29 -160h332l-12 -49h-332l-70 -348h-57l70 348h-332z" />
<glyph unicode="&#xa6;" horiz-adv-x="434" d="M205 451h53v-963h-53v963zM205 561v975h53v-975h-53z" />
<glyph unicode="&#xa7;" horiz-adv-x="929" d="M53 49l41 45q55 -61 124 -96t142 -35q92 0 161 60.5t69 152.5q0 68 -34 113t-86 77.5t-111.5 63.5t-111.5 66.5t-86 87t-34 125.5q0 115 65.5 190.5t165.5 114.5q-14 25 -24 54.5t-10 61.5q0 123 77.5 193t188.5 70q86 0 156.5 -42t121.5 -98l-45 -41q-45 55 -105.5 91 t-131.5 36q-76 0 -140.5 -52t-64.5 -144q0 -59 32.5 -103.5t85 -78t110 -67.5t109.5 -74t85 -93t33 -129q0 -121 -57.5 -183.5t-166.5 -105.5q35 -51 35 -121q0 -76 -39 -139t-104.5 -101t-147.5 -38q-86 0 -161.5 38t-141.5 101zM184 721q0 -78 43 -128t107.5 -87 t132.5 -73t115 -85q96 35 146 86t50 152q0 80 -42 133t-104.5 93t-128 78t-112.5 85q-94 -37 -150.5 -97.5t-56.5 -156.5z" />
<glyph unicode="&#xa8;" horiz-adv-x="1032" d="M467 1286q0 35 20.5 56.5t44.5 21.5q53 0 53 -57q0 -31 -20 -52.5t-45 -21.5q-53 0 -53 53zM807 1286q0 35 20.5 56.5t44.5 21.5q53 0 53 -57q0 -31 -20 -52.5t-45 -21.5q-53 0 -53 53z" />
<glyph unicode="&#xa9;" horiz-adv-x="1351" d="M82 541q0 143 51 283.5t145.5 256t228.5 185t300 69.5q158 0 276.5 -71.5t185 -198.5t66.5 -295q0 -143 -51 -283.5t-145.5 -256t-228.5 -185.5t-300 -70q-158 0 -276.5 72t-185 199t-66.5 295zM135 549q0 -160 59.5 -277.5t167 -182t252.5 -64.5q152 0 275 66.5t211 175 t135 238.5t47 257q0 160 -59.5 277.5t-167 182t-252.5 64.5q-152 0 -274.5 -66.5t-211 -175t-135.5 -238.5t-47 -257zM377 557q0 115 37 205t97 152.5t131 96t140 33.5q74 0 117 -27.5t76 -74.5l-41 -37q-31 41 -65.5 63.5t-90.5 22.5q-78 0 -157.5 -54t-133 -149.5 t-53.5 -218.5q0 -131 62.5 -196.5t167.5 -65.5q72 0 129 31t112 68l29 -46q-61 -43 -123 -74.5t-152 -31.5q-123 0 -202.5 74.5t-79.5 228.5z" />
<glyph unicode="&#xaa;" horiz-adv-x="708" d="M188 1061q0 123 52.5 223t134.5 159.5t174 59.5q49 0 93 -23.5t71 -78.5h8l24 86h41l-127 -647h-45l21 106h-8q-51 -55 -112.5 -89t-133.5 -34q-86 0 -139.5 60.5t-53.5 177.5zM242 1069q0 -100 41 -148.5t102 -48.5t131 44.5t127 107.5l62 311q-37 68 -77 93.5t-83 25.5 q-76 0 -145.5 -56.5t-113.5 -144.5t-44 -184z" />
<glyph unicode="&#xab;" horiz-adv-x="761" d="M82 492l12 65l324 320l33 -33l-304 -328l185 -340l-41 -24zM361 492l12 65l324 320l33 -33l-304 -328l185 -340l-41 -24z" />
<glyph unicode="&#xac;" d="M98 651v54h795v-480h-57v426h-738z" />
<glyph unicode="&#xae;" horiz-adv-x="770" d="M135 1012q0 113 52.5 211t141.5 160.5t199 62.5q86 0 158 -42t115 -117t43 -173q0 -113 -53.5 -212t-142 -160.5t-197.5 -61.5q-86 0 -158 41t-115 115.5t-43 175.5zM188 1020q0 -125 71 -208t196 -83q90 0 166.5 51t123 137.5t46.5 188.5q0 127 -72 209t-195 82 q-92 0 -167.5 -52.5t-122 -138.5t-46.5 -186zM332 856l86 422h110q123 0 123 -119q0 -49 -29.5 -84t-72.5 -51l61 -168h-57l-53 156h-82l-33 -156h-53zM430 1061h53q53 0 84 24.5t31 69.5q0 74 -78 74h-61z" />
<glyph unicode="&#xaf;" horiz-adv-x="1032" d="M446 1245l8 53h476l-9 -53h-475z" />
<glyph unicode="&#xb0;" horiz-adv-x="581" d="M217 1135q0 72 31 132t84 97t119 37q80 0 134 -55.5t54 -145.5q0 -72 -30.5 -132t-83.5 -97t-119 -37q-80 0 -134.5 56.5t-54.5 144.5zM270 1143q0 -68 38.5 -114t101.5 -46q53 0 93 30.5t61.5 79t21.5 99.5q0 68 -37 114t-103 46q-53 0 -93 -31t-61.5 -79t-21.5 -99z " />
<glyph unicode="&#xb1;" d="M98 0v53h795v-53h-795zM98 651v54h369v413h57v-413h369v-54h-369v-426h-57v426h-369z" />
<glyph unicode="&#xb2;" horiz-adv-x="704" d="M184 840l8 49q188 137 300 232.5t162 173t50 163.5q0 74 -38.5 115t-120.5 41q-51 0 -102.5 -32.5t-94.5 -82.5l-37 37q47 49 107.5 88t130.5 39q98 0 155.5 -54t57.5 -146q0 -94 -52.5 -179.5t-159 -179.5t-272.5 -215h410l-8 -49h-496z" />
<glyph unicode="&#xb3;" horiz-adv-x="704" d="M176 979l45 29q31 -57 81 -100t132 -43q84 0 146.5 48t62.5 136q0 72 -63.5 126t-190.5 54l12 49q104 0 169 30t93.5 74t28.5 89q0 66 -41 104.5t-114 38.5q-100 0 -197 -80l-29 43q104 86 230 86q92 0 150.5 -50t58.5 -142q0 -74 -56.5 -137.5t-148.5 -87.5 q80 -20 117.5 -76t37.5 -109q0 -78 -37.5 -133t-99 -84t-133.5 -29q-92 0 -157.5 51.5t-96.5 112.5z" />
<glyph unicode="&#xb4;" horiz-adv-x="1032" d="M577 1225l316 291l41 -50l-324 -278z" />
<glyph unicode="&#xb5;" horiz-adv-x="1044" d="M0 -410l279 1389h57l-127 -627q-8 -45 -12 -72.5t-4 -58.5q0 -94 43 -143t141 -49q68 0 160 52t208 165l148 733h57l-196 -979h-49l24 164h-8q-92 -80 -177 -134.5t-175 -54.5q-74 0 -131.5 33t-81.5 111l-37 -205l-62 -324h-57z" />
<glyph unicode="&#xb6;" horiz-adv-x="974" d="M156 856q0 164 76.5 274.5t197.5 166t254 55.5h107l-173 -844h-4q-125 0 -229 39t-166.5 116.5t-62.5 192.5zM590 -164l303 1516h57l-303 -1516h-57z" />
<glyph unicode="&#xb7;" horiz-adv-x="413" d="M168 660q0 35 26.5 64.5t59.5 29.5q29 0 41 -18.5t12 -46.5q0 -33 -23.5 -62t-58.5 -29q-27 0 -42 18.5t-15 43.5z" />
<glyph unicode="&#xb8;" horiz-adv-x="1032" d="M184 -393q127 4 190.5 37.5t63.5 85.5q0 47 -35 67.5t-104 26.5l114 180h58l-86 -143q72 -18 93 -45t21 -70q0 -88 -86 -136t-225 -52z" />
<glyph unicode="&#xb9;" horiz-adv-x="696" d="M369 1524l8 41q78 12 124 27.5t89 46.5h45l-160 -799h-53l135 684h-188z" />
<glyph unicode="&#xba;" horiz-adv-x="696" d="M188 1077q0 129 52.5 225.5t133.5 148.5t167 52q104 0 162.5 -66.5t58.5 -187.5q0 -129 -52.5 -225t-133 -148.5t-166.5 -52.5q-104 0 -163 67.5t-59 186.5zM242 1085q0 -100 45 -156.5t127 -56.5q76 0 143.5 51.5t109.5 135.5t42 182q0 102 -44 157.5t-128 55.5 q-76 0 -143.5 -51t-109.5 -135t-42 -183z" />
<glyph unicode="&#xbb;" horiz-adv-x="761" d="M41 184l303 328l-184 340l41 25l209 -340l-13 -66l-323 -319zM320 184l303 328l-184 340l41 25l209 -340l-13 -66l-323 -319z" />
<glyph unicode="&#xbc;" horiz-adv-x="1482" d="M246 -25l1008 1401h61l-1008 -1401h-61zM267 1237l8 41q78 12 124 27.5t89 46.5h45l-160 -799h-53l135 684h-188zM815 246l8 37l467 516h37l-100 -504h116l-12 -49h-115l-49 -246h-53l49 246h-348zM897 295h276l39 201l50 200h-9l-147 -168z" />
<glyph unicode="&#xbd;" horiz-adv-x="1515" d="M184 -25l1008 1401h61l-1008 -1401h-61zM258 1237l8 41q78 12 124 27.5t89 46.5h45l-160 -799h-53l135 684h-188zM823 0l8 49q188 137 300 232.5t162 173t50 163.5q0 74 -38.5 115t-120.5 41q-51 0 -102.5 -32.5t-94.5 -82.5l-37 37q47 49 107.5 88t130.5 39 q98 0 155.5 -54t57.5 -146q0 -94 -52.5 -179.5t-159 -179.5t-272.5 -215h410l-8 -49h-496z" />
<glyph unicode="&#xbe;" horiz-adv-x="1523" d="M106 692l45 29q31 -57 81 -100t132 -43q84 0 146.5 48t62.5 136q0 72 -63.5 126t-190.5 54l12 49q104 0 169 30t93.5 74t28.5 89q0 66 -41 104.5t-114 38.5q-100 0 -197 -80l-29 43q104 86 230 86q92 0 150.5 -50t58.5 -142q0 -74 -56.5 -137.5t-148.5 -87.5 q80 -20 117.5 -76t37.5 -109q0 -78 -37.5 -133t-99 -84t-133.5 -29q-92 0 -157.5 51.5t-96.5 112.5zM332 -25l1008 1401h61l-1008 -1401h-61zM860 246l8 37l467 516h37l-100 -504h116l-12 -49h-115l-49 -246h-53l49 246h-348zM942 295h276l39 201l50 200h-9l-147 -168z" />
<glyph unicode="&#xbf;" horiz-adv-x="778" d="M-12 -152q0 102 43 180t107.5 145t130 132.5t111.5 143t50 178.5l53 -4q-4 -109 -49 -190t-109.5 -148.5t-129 -130t-107.5 -133t-43 -160.5q0 -104 55.5 -162.5t153.5 -58.5q74 0 143.5 35.5t118.5 91.5l37 -41q-49 -55 -130 -97.5t-173 -42.5q-123 0 -192.5 70 t-69.5 192zM438 918q0 35 24.5 62.5t57.5 27.5q29 0 43.5 -18.5t14.5 -43.5q0 -33 -25.5 -63.5t-60.5 -30.5q-27 0 -40.5 19.5t-13.5 46.5z" />
<glyph unicode="&#xc0;" horiz-adv-x="983" d="M-94 0l749 1352h62l172 -1352h-62l-59 487h-526l-267 -487h-69zM270 541h492l-33 270q-12 115 -26.5 231.5t-26.5 239.5h-8q-61 -125 -122.5 -237.5t-127.5 -233.5zM520 1696l49 41l209 -262l-33 -29z" />
<glyph unicode="&#xc1;" horiz-adv-x="983" d="M-94 0l749 1352h62l172 -1352h-62l-59 487h-526l-267 -487h-69zM270 541h492l-33 270q-12 115 -26.5 231.5t-26.5 239.5h-8q-61 -125 -122.5 -237.5t-127.5 -233.5zM639 1499l287 225l37 -53l-299 -205z" />
<glyph unicode="&#xc2;" horiz-adv-x="983" d="M-94 0l749 1352h62l172 -1352h-62l-59 487h-526l-267 -487h-69zM270 541h492l-33 270q-12 115 -26.5 231.5t-26.5 239.5h-8q-61 -125 -122.5 -237.5t-127.5 -233.5zM446 1485l279 233h57l197 -233l-33 -29l-192 205h-9l-270 -209z" />
<glyph unicode="&#xc3;" horiz-adv-x="983" d="M-94 0l749 1352h62l172 -1352h-62l-59 487h-526l-267 -487h-69zM270 541h492l-33 270q-12 115 -26.5 231.5t-26.5 239.5h-8q-61 -125 -122.5 -237.5t-127.5 -233.5zM401 1487q16 92 70.5 154.5t134.5 62.5q53 0 87 -25.5t60.5 -60.5t55.5 -60.5t72 -25.5q47 0 85 46 t62 122l45 -4q-14 -92 -69.5 -154.5t-135.5 -62.5q-51 0 -85.5 25.5t-61.5 60t-56.5 60.5t-70.5 26q-47 0 -86 -46t-62 -122z" />
<glyph unicode="&#xc4;" horiz-adv-x="983" d="M-94 0l749 1352h62l172 -1352h-62l-59 487h-526l-267 -487h-69zM270 541h492l-33 270q-12 115 -26.5 231.5t-26.5 239.5h-8q-61 -125 -122.5 -237.5t-127.5 -233.5zM500 1540q0 35 20.5 56.5t44.5 21.5q53 0 54 -57q0 -31 -20.5 -52.5t-45.5 -21.5q-53 0 -53 53z M840 1540q0 35 20.5 56.5t44.5 21.5q53 0 53 -57q0 -31 -20 -52.5t-45 -21.5q-53 0 -53 53z" />
<glyph unicode="&#xc5;" horiz-adv-x="983" d="M-94 0l749 1352h62l172 -1352h-62l-59 487h-526l-267 -487h-69zM270 541h492l-33 270q-12 115 -26.5 231.5t-26.5 239.5h-8q-61 -125 -122.5 -237.5t-127.5 -233.5zM569 1589q0 78 54.5 131.5t134.5 53.5q59 0 103 -37t44 -115q0 -76 -54 -130t-134 -54 q-57 0 -102.5 37.5t-45.5 113.5zM619 1593q0 -51 27.5 -80.5t74.5 -29.5q53 0 94 39t41 96q0 111 -102 111q-53 0 -94 -38t-41 -98z" />
<glyph unicode="&#xc6;" horiz-adv-x="1585" d="M-66 0l1004 1352h709l-13 -54h-610l-111 -553h512l-12 -53h-508l-131 -639h631l-12 -53h-688l92 463h-449l-340 -463h-74zM387 516h420l156 778h-9l-356 -491z" />
<glyph unicode="&#xc7;" horiz-adv-x="1097" d="M119 504q0 119 29.5 241.5t86 235.5t139.5 202t189.5 141t235.5 52q115 0 190.5 -57t120.5 -131l-49 -33q-39 72 -104.5 120t-161.5 48q-119 0 -215.5 -49t-171 -134t-126 -189.5t-77 -217t-25.5 -217.5q0 -137 41 -247.5t128 -175t224 -64.5q98 0 177 35.5t155 99.5 l37 -41q-86 -70 -174 -109t-199 -39q-152 0 -252 70t-149 189.5t-49 269.5zM307 -393q127 4 190.5 37.5t63.5 85.5q0 47 -35 67.5t-104 26.5l114 180h58l-86 -143q72 -18 93 -45t21 -70q0 -88 -86 -136t-225 -52z" />
<glyph unicode="&#xc8;" horiz-adv-x="991" d="M82 0l270 1352h701l-13 -54h-639l-110 -553h540l-12 -53h-536l-131 -639h659l-12 -53h-717zM557 1696l49 41l209 -262l-33 -29z" />
<glyph unicode="&#xc9;" horiz-adv-x="991" d="M82 0l270 1352h701l-13 -54h-639l-110 -553h540l-12 -53h-536l-131 -639h659l-12 -53h-717zM676 1499l287 225l37 -53l-299 -205z" />
<glyph unicode="&#xca;" horiz-adv-x="991" d="M82 0l270 1352h701l-13 -54h-639l-110 -553h540l-12 -53h-536l-131 -639h659l-12 -53h-717zM483 1485l279 233h57l197 -233l-33 -29l-192 205h-9l-270 -209z" />
<glyph unicode="&#xcb;" horiz-adv-x="991" d="M82 0l270 1352h701l-13 -54h-639l-110 -553h540l-12 -53h-536l-131 -639h659l-12 -53h-717zM537 1540q0 35 20.5 56.5t44.5 21.5q53 0 54 -57q0 -31 -20.5 -52.5t-45.5 -21.5q-53 0 -53 53zM877 1540q0 35 20.5 56.5t44.5 21.5q53 0 53 -57q0 -31 -20 -52.5t-45 -21.5 q-53 0 -53 53z" />
<glyph unicode="&#xcc;" horiz-adv-x="446" d="M82 0l270 1352h62l-271 -1352h-61zM229 1696l49 41l209 -262l-33 -29z" />
<glyph unicode="&#xcd;" horiz-adv-x="446" d="M82 0l270 1352h62l-271 -1352h-61zM348 1499l287 225l37 -53l-299 -205z" />
<glyph unicode="&#xce;" horiz-adv-x="446" d="M82 0l270 1352h62l-271 -1352h-61zM155 1485l279 233h57l197 -233l-33 -29l-192 205h-9l-270 -209z" />
<glyph unicode="&#xcf;" horiz-adv-x="446" d="M82 0l270 1352h62l-271 -1352h-61zM209 1540q0 35 20.5 56.5t44.5 21.5q53 0 54 -57q0 -31 -20.5 -52.5t-45.5 -21.5q-53 0 -53 53zM549 1540q0 35 20.5 56.5t44.5 21.5q53 0 53 -57q0 -31 -20 -52.5t-45 -21.5q-53 0 -53 53z" />
<glyph unicode="&#xd0;" horiz-adv-x="1208" d="M111 692l12 49l145 4l121 607h213q186 0 309 -66.5t183.5 -184.5t60.5 -274q0 -172 -46 -322.5t-136 -263t-225.5 -177t-313.5 -64.5h-315l139 692h-147zM188 53h250q158 0 280 61.5t206 170t127 247t43 291.5q0 139 -54.5 247t-164 168t-277.5 60h-160l-110 -553h348 l-12 -53h-347z" />
<glyph unicode="&#xd1;" horiz-adv-x="1228" d="M82 0l270 1352h70l377 -996l98 -270h8q16 96 31.5 193.5t34.5 191.5l176 881h61l-270 -1352h-66l-372 991l-103 283h-8q-14 -98 -32.5 -193.5t-37.5 -187.5l-176 -893h-61zM507 1487q16 92 70.5 154.5t134.5 62.5q53 0 87 -25.5t60.5 -60.5t55.5 -60.5t72 -25.5 q47 0 85 46t62 122l45 -4q-14 -92 -69.5 -154.5t-135.5 -62.5q-51 0 -85.5 25.5t-61.5 60t-56.5 60.5t-70.5 26q-47 0 -86 -46t-62 -122z" />
<glyph unicode="&#xd2;" horiz-adv-x="1253" d="M127 537q0 109 26.5 225.5t80 226t130 196.5t177 139t221.5 52q147 0 243.5 -71.5t143.5 -198.5t47 -291q0 -109 -26.5 -225.5t-80 -226t-130 -196.5t-177 -139.5t-221.5 -52.5q-147 0 -243.5 72t-143.5 199t-47 291zM188 545q0 -152 39 -268.5t122 -182t216 -65.5 q111 0 201 49t158.5 132t115.5 185.5t71 209t24 202.5q0 152 -39 268.5t-122 182t-216 65.5q-111 0 -201 -49t-158.5 -132t-115.5 -185.5t-71 -209t-24 -202.5zM647 1696l49 41l209 -262l-33 -29z" />
<glyph unicode="&#xd3;" horiz-adv-x="1253" d="M127 537q0 109 26.5 225.5t80 226t130 196.5t177 139t221.5 52q147 0 243.5 -71.5t143.5 -198.5t47 -291q0 -109 -26.5 -225.5t-80 -226t-130 -196.5t-177 -139.5t-221.5 -52.5q-147 0 -243.5 72t-143.5 199t-47 291zM188 545q0 -152 39 -268.5t122 -182t216 -65.5 q111 0 201 49t158.5 132t115.5 185.5t71 209t24 202.5q0 152 -39 268.5t-122 182t-216 65.5q-111 0 -201 -49t-158.5 -132t-115.5 -185.5t-71 -209t-24 -202.5zM766 1499l287 225l37 -53l-299 -205z" />
<glyph unicode="&#xd4;" horiz-adv-x="1253" d="M127 537q0 109 26.5 225.5t80 226t130 196.5t177 139t221.5 52q147 0 243.5 -71.5t143.5 -198.5t47 -291q0 -109 -26.5 -225.5t-80 -226t-130 -196.5t-177 -139.5t-221.5 -52.5q-147 0 -243.5 72t-143.5 199t-47 291zM188 545q0 -152 39 -268.5t122 -182t216 -65.5 q111 0 201 49t158.5 132t115.5 185.5t71 209t24 202.5q0 152 -39 268.5t-122 182t-216 65.5q-111 0 -201 -49t-158.5 -132t-115.5 -185.5t-71 -209t-24 -202.5zM573 1485l279 233h57l197 -233l-33 -29l-192 205h-9l-270 -209z" />
<glyph unicode="&#xd5;" horiz-adv-x="1253" d="M127 537q0 109 26.5 225.5t80 226t130 196.5t177 139t221.5 52q147 0 243.5 -71.5t143.5 -198.5t47 -291q0 -109 -26.5 -225.5t-80 -226t-130 -196.5t-177 -139.5t-221.5 -52.5q-147 0 -243.5 72t-143.5 199t-47 291zM188 545q0 -152 39 -268.5t122 -182t216 -65.5 q111 0 201 49t158.5 132t115.5 185.5t71 209t24 202.5q0 152 -39 268.5t-122 182t-216 65.5q-111 0 -201 -49t-158.5 -132t-115.5 -185.5t-71 -209t-24 -202.5zM528 1487q16 92 70.5 154.5t134.5 62.5q53 0 87 -25.5t60.5 -60.5t55.5 -60.5t72 -25.5q47 0 85 46t62 122 l45 -4q-14 -92 -69.5 -154.5t-135.5 -62.5q-51 0 -85.5 25.5t-61.5 60t-56.5 60.5t-70.5 26q-47 0 -86 -46t-62 -122z" />
<glyph unicode="&#xd6;" horiz-adv-x="1253" d="M127 537q0 109 26.5 225.5t80 226t130 196.5t177 139t221.5 52q147 0 243.5 -71.5t143.5 -198.5t47 -291q0 -109 -26.5 -225.5t-80 -226t-130 -196.5t-177 -139.5t-221.5 -52.5q-147 0 -243.5 72t-143.5 199t-47 291zM188 545q0 -152 39 -268.5t122 -182t216 -65.5 q111 0 201 49t158.5 132t115.5 185.5t71 209t24 202.5q0 152 -39 268.5t-122 182t-216 65.5q-111 0 -201 -49t-158.5 -132t-115.5 -185.5t-71 -209t-24 -202.5zM627 1540q0 35 20.5 56.5t44.5 21.5q53 0 54 -57q0 -31 -20.5 -52.5t-45.5 -21.5q-53 0 -53 53zM967 1540 q0 35 20.5 56.5t44.5 21.5q53 0 53 -57q0 -31 -20 -52.5t-45 -21.5q-53 0 -53 53z" />
<glyph unicode="&#xd7;" d="M135 340l324 340l-324 336l37 37l324 -336l323 336l37 -37l-324 -336l324 -340l-37 -37l-323 340l-324 -340z" />
<glyph unicode="&#xd8;" horiz-adv-x="1253" d="M4 -8l191 207q-68 139 -68 338q0 109 26.5 225.5t80 226t130 196.5t177 139t221.5 52q119 0 205 -48t139 -132l176 193l33 -37l-185 -203q35 -70 50.5 -154t15.5 -180q0 -109 -26.5 -225.5t-80 -226t-130 -196.5t-177 -139.5t-221.5 -52.5q-115 0 -200 45.5t-138 126.5 l-174 -192zM188 545q0 -174 50 -297l825 901q-45 82 -120 128t-185 46q-111 0 -201 -49t-158.5 -132t-115.5 -185.5t-71 -209t-24 -202.5zM264 193q47 -76 121 -120t180 -44q111 0 201 49t158.5 132t115.5 185.5t71 209t24 202.5q0 84 -11.5 158.5t-36.5 134.5z" />
<glyph unicode="&#xd9;" horiz-adv-x="1216" d="M168 369q0 41 4 79.5t12 88.5l164 815h62l-160 -799q-12 -49 -16.5 -90t-4.5 -78q0 -168 83 -262t245 -94q88 0 169 45t144.5 146.5t96.5 266.5l172 865h61l-176 -881q-37 -184 -109.5 -292.5t-168 -156t-197.5 -47.5q-178 0 -279.5 103.5t-101.5 290.5zM622 1696l49 41 l209 -262l-33 -29z" />
<glyph unicode="&#xda;" horiz-adv-x="1216" d="M168 369q0 41 4 79.5t12 88.5l164 815h62l-160 -799q-12 -49 -16.5 -90t-4.5 -78q0 -168 83 -262t245 -94q88 0 169 45t144.5 146.5t96.5 266.5l172 865h61l-176 -881q-37 -184 -109.5 -292.5t-168 -156t-197.5 -47.5q-178 0 -279.5 103.5t-101.5 290.5zM741 1499 l287 225l37 -53l-299 -205z" />
<glyph unicode="&#xdb;" horiz-adv-x="1216" d="M168 369q0 41 4 79.5t12 88.5l164 815h62l-160 -799q-12 -49 -16.5 -90t-4.5 -78q0 -168 83 -262t245 -94q88 0 169 45t144.5 146.5t96.5 266.5l172 865h61l-176 -881q-37 -184 -109.5 -292.5t-168 -156t-197.5 -47.5q-178 0 -279.5 103.5t-101.5 290.5zM548 1485 l279 233h57l197 -233l-33 -29l-192 205h-9l-270 -209z" />
<glyph unicode="&#xdc;" horiz-adv-x="1216" d="M168 369q0 41 4 79.5t12 88.5l164 815h62l-160 -799q-12 -49 -16.5 -90t-4.5 -78q0 -168 83 -262t245 -94q88 0 169 45t144.5 146.5t96.5 266.5l172 865h61l-176 -881q-37 -184 -109.5 -292.5t-168 -156t-197.5 -47.5q-178 0 -279.5 103.5t-101.5 290.5zM602 1540 q0 35 20.5 56.5t44.5 21.5q53 0 54 -57q0 -31 -20.5 -52.5t-45.5 -21.5q-53 0 -53 53zM942 1540q0 35 20.5 56.5t44.5 21.5q53 0 53 -57q0 -31 -20 -52.5t-45 -21.5q-53 0 -53 53z" />
<glyph unicode="&#xdd;" horiz-adv-x="864" d="M176 1352h62l120 -441q20 -74 40 -145.5t40 -147.5h4q51 72 101.5 147t101.5 146l309 441h66l-559 -793l-113 -559h-61l112 559zM549 1499l287 225l37 -53l-299 -205z" />
<glyph unicode="&#xde;" horiz-adv-x="1097" d="M82 0l270 1352h62l-49 -254h278q184 0 288.5 -74t104.5 -233q0 -221 -151.5 -332t-413.5 -111h-258l-70 -348h-61zM225 401h234q516 0 516 385q0 139 -93.5 198.5t-275.5 59.5h-254z" />
<glyph unicode="&#xdf;" horiz-adv-x="1048" d="M90 0l221 1106q23 106 74 196.5t128 145.5t175 55q104 0 164.5 -62.5t60.5 -178.5q0 -82 -30.5 -141.5t-75.5 -105.5t-90 -86t-76 -85t-31 -103q0 -59 34 -100t83 -77t98 -74.5t83 -92t34 -131.5q0 -80 -39 -145.5t-108.5 -105.5t-159.5 -40q-70 0 -142.5 30t-132.5 81 l37 41q55 -45 113.5 -71.5t128.5 -26.5q66 0 122 28.5t90 79.5t34 117q0 72 -34 122t-83 89t-98 76t-83 81t-34 107q0 72 30.5 124t76 95t90.5 87t75.5 98.5t30.5 128.5q0 80 -40 134t-132 54q-80 0 -144.5 -49t-109.5 -132t-65 -184l-218 -1085h-57z" />
<glyph unicode="&#xe0;" horiz-adv-x="1073" d="M94 328q0 141 44 264t121 215t172 144.5t196 52.5q90 0 154.5 -45.5t103.5 -118.5h8l37 139h49l-197 -979h-49l25 160h-8q-76 -80 -170.5 -132.5t-198.5 -52.5q-129 0 -208 90.5t-79 262.5zM152 340q0 -156 63.5 -233.5t169.5 -77.5q102 0 199.5 58t189.5 163l107 512 q-57 102 -121 145t-137 43q-92 0 -177.5 -52t-151 -139t-104 -195.5t-38.5 -223.5zM504 1495l53 37l221 -336l-41 -29z" />
<glyph unicode="&#xe1;" horiz-adv-x="1073" d="M94 328q0 141 44 264t121 215t172 144.5t196 52.5q90 0 154.5 -45.5t103.5 -118.5h8l37 139h49l-197 -979h-49l25 160h-8q-76 -80 -170.5 -132.5t-198.5 -52.5q-129 0 -208 90.5t-79 262.5zM152 340q0 -156 63.5 -233.5t169.5 -77.5q102 0 199.5 58t189.5 163l107 512 q-57 102 -121 145t-137 43q-92 0 -177.5 -52t-151 -139t-104 -195.5t-38.5 -223.5zM569 1225l316 291l41 -50l-324 -278z" />
<glyph unicode="&#xe2;" horiz-adv-x="1073" d="M94 328q0 141 44 264t121 215t172 144.5t196 52.5q90 0 154.5 -45.5t103.5 -118.5h8l37 139h49l-197 -979h-49l25 160h-8q-76 -80 -170.5 -132.5t-198.5 -52.5q-129 0 -208 90.5t-79 262.5zM152 340q0 -156 63.5 -233.5t169.5 -77.5q102 0 199.5 58t189.5 163l107 512 q-57 102 -121 145t-137 43q-92 0 -177.5 -52t-151 -139t-104 -195.5t-38.5 -223.5zM397 1208l295 299h57l189 -303l-41 -28l-176 270h-8l-279 -270z" />
<glyph unicode="&#xe3;" horiz-adv-x="1073" d="M94 328q0 141 44 264t121 215t172 144.5t196 52.5q90 0 154.5 -45.5t103.5 -118.5h8l37 139h49l-197 -979h-49l25 160h-8q-76 -80 -170.5 -132.5t-198.5 -52.5q-129 0 -208 90.5t-79 262.5zM152 340q0 -156 63.5 -233.5t169.5 -77.5q102 0 199.5 58t189.5 163l107 512 q-57 102 -121 145t-137 43q-92 0 -177.5 -52t-151 -139t-104 -195.5t-38.5 -223.5zM364 1196q14 59 39 116.5t67 95.5t103 38q55 0 88 -32t56.5 -73t52.5 -72.5t74 -31.5q59 0 94 61.5t53 143.5l53 -4q-14 -57 -38.5 -114.5t-65.5 -96.5t-104 -39q-55 0 -88 31.5t-56.5 72.5 t-52.5 73t-74 32q-57 0 -93 -60.5t-54 -144.5z" />
<glyph unicode="&#xe4;" horiz-adv-x="1073" d="M94 328q0 141 44 264t121 215t172 144.5t196 52.5q90 0 154.5 -45.5t103.5 -118.5h8l37 139h49l-197 -979h-49l25 160h-8q-76 -80 -170.5 -132.5t-198.5 -52.5q-129 0 -208 90.5t-79 262.5zM152 340q0 -156 63.5 -233.5t169.5 -77.5q102 0 199.5 58t189.5 163l107 512 q-57 102 -121 145t-137 43q-92 0 -177.5 -52t-151 -139t-104 -195.5t-38.5 -223.5zM459 1286q0 35 20.5 56.5t44.5 21.5q53 0 53 -57q0 -31 -20 -52.5t-45 -21.5q-53 0 -53 53zM799 1286q0 35 20.5 56.5t44.5 21.5q53 0 53 -57q0 -31 -20 -52.5t-45 -21.5q-53 0 -53 53z" />
<glyph unicode="&#xe5;" horiz-adv-x="1073" d="M94 328q0 141 44 264t121 215t172 144.5t196 52.5q90 0 154.5 -45.5t103.5 -118.5h8l37 139h49l-197 -979h-49l25 160h-8q-76 -80 -170.5 -132.5t-198.5 -52.5q-129 0 -208 90.5t-79 262.5zM152 340q0 -156 63.5 -233.5t169.5 -77.5q102 0 199.5 58t189.5 163l107 512 q-57 102 -121 145t-137 43q-92 0 -177.5 -52t-151 -139t-104 -195.5t-38.5 -223.5zM508 1278q0 88 56 154.5t145 66.5q68 0 115.5 -39t47.5 -117q0 -88 -55 -154.5t-145 -66.5q-68 0 -116 40t-48 116zM557 1282q0 -51 32 -83t87 -32q59 0 103 51.5t44 120.5q0 53 -31.5 84 t-87.5 31q-59 0 -103 -50t-44 -122z" />
<glyph unicode="&#xe6;" horiz-adv-x="1568" d="M82 209q0 135 84 219t235.5 125t356.5 49q10 41 13 68.5t3 58.5q0 104 -45 162.5t-156 58.5q-70 0 -146.5 -27.5t-147.5 -70.5l-25 49q68 41 155 72t169 31q111 0 179 -59.5t74 -182.5q72 111 170.5 176.5t202.5 65.5q158 0 224.5 -96.5t66.5 -248.5q0 -49 -7 -91 t-18 -72h-671q-27 -135 0.5 -240.5t97.5 -166t172 -60.5q72 0 137.5 29.5t120.5 68.5l29 -45q-57 -43 -132 -75t-159 -32q-106 0 -191.5 63.5t-115.5 158.5q-104 -104 -213.5 -163t-220.5 -59q-94 0 -168 58.5t-74 175.5zM139 221q0 -94 57.5 -143t139.5 -49q80 0 187.5 54 t217.5 167q-12 86 -9 151.5t18 147.5q-182 -4 -319.5 -40t-214.5 -107.5t-77 -180.5zM811 549h614q12 61 13 123q0 70 -22.5 133t-75 104t-140.5 41q-80 0 -159.5 -52t-141 -142t-88.5 -207z" />
<glyph unicode="&#xe7;" horiz-adv-x="876" d="M90 360q0 145 45 263t120 203t168 131.5t187 46.5q84 0 140.5 -32t105.5 -87l-41 -41q-45 55 -91 80.5t-118 25.5q-86 0 -168 -46t-147.5 -126t-104.5 -184.5t-39 -220.5q0 -344 287 -344q78 0 144.5 31.5t121.5 74.5l33 -45q-51 -39 -126 -77t-177 -38 q-156 0 -248 100.5t-92 284.5zM164 -393q127 4 190.5 37.5t63.5 85.5q0 47 -35 67.5t-104 26.5l114 180h58l-86 -143q72 -18 93 -45t21 -70q0 -88 -86 -136t-225 -52z" />
<glyph unicode="&#xe8;" horiz-adv-x="958" d="M90 377q0 139 43 255t116 198.5t162 128t183 45.5q158 0 224.5 -96.5t66.5 -248.5q0 -49 -7.5 -91t-17.5 -72h-700q-31 -164 5 -267.5t115.5 -151.5t182.5 -48q68 0 133.5 29.5t120.5 68.5l28 -45q-57 -43 -131.5 -75t-154.5 -32q-168 0 -268.5 102.5t-100.5 299.5z M172 549h643q12 61 12 123q0 70 -22.5 133t-74.5 104t-140 41q-92 0 -178 -52t-149.5 -142t-90.5 -207zM463 1495l53 37l221 -336l-41 -29z" />
<glyph unicode="&#xe9;" horiz-adv-x="958" d="M90 377q0 139 43 255t116 198.5t162 128t183 45.5q158 0 224.5 -96.5t66.5 -248.5q0 -49 -7.5 -91t-17.5 -72h-700q-31 -164 5 -267.5t115.5 -151.5t182.5 -48q68 0 133.5 29.5t120.5 68.5l28 -45q-57 -43 -131.5 -75t-154.5 -32q-168 0 -268.5 102.5t-100.5 299.5z M172 549h643q12 61 12 123q0 70 -22.5 133t-74.5 104t-140 41q-92 0 -178 -52t-149.5 -142t-90.5 -207zM528 1225l316 291l41 -50l-324 -278z" />
<glyph unicode="&#xea;" horiz-adv-x="958" d="M90 377q0 139 43 255t116 198.5t162 128t183 45.5q158 0 224.5 -96.5t66.5 -248.5q0 -49 -7.5 -91t-17.5 -72h-700q-31 -164 5 -267.5t115.5 -151.5t182.5 -48q68 0 133.5 29.5t120.5 68.5l28 -45q-57 -43 -131.5 -75t-154.5 -32q-168 0 -268.5 102.5t-100.5 299.5z M172 549h643q12 61 12 123q0 70 -22.5 133t-74.5 104t-140 41q-92 0 -178 -52t-149.5 -142t-90.5 -207zM356 1208l295 299h57l189 -303l-41 -28l-176 270h-8l-279 -270z" />
<glyph unicode="&#xeb;" horiz-adv-x="958" d="M90 377q0 139 43 255t116 198.5t162 128t183 45.5q158 0 224.5 -96.5t66.5 -248.5q0 -49 -7.5 -91t-17.5 -72h-700q-31 -164 5 -267.5t115.5 -151.5t182.5 -48q68 0 133.5 29.5t120.5 68.5l28 -45q-57 -43 -131.5 -75t-154.5 -32q-168 0 -268.5 102.5t-100.5 299.5z M172 549h643q12 61 12 123q0 70 -22.5 133t-74.5 104t-140 41q-92 0 -178 -52t-149.5 -142t-90.5 -207zM418 1286q0 35 20.5 56.5t44.5 21.5q53 0 53 -57q0 -31 -20 -52.5t-45 -21.5q-53 0 -53 53zM758 1286q0 35 20.5 56.5t44.5 21.5q53 0 53 -57q0 -31 -20 -52.5 t-45 -21.5q-53 0 -53 53z" />
<glyph unicode="&#xec;" horiz-adv-x="438" d="M90 0l197 979h57l-197 -979h-57zM201 1495l53 37l221 -336l-41 -29z" />
<glyph unicode="&#xed;" horiz-adv-x="438" d="M90 0l197 979h57l-197 -979h-57zM266 1225l316 291l41 -50l-324 -278z" />
<glyph unicode="&#xee;" horiz-adv-x="438" d="M90 0l197 979h57l-197 -979h-57zM94 1208l295 299h57l189 -303l-41 -28l-176 270h-8l-279 -270z" />
<glyph unicode="&#xef;" horiz-adv-x="438" d="M90 0l197 979h57l-197 -979h-57zM156 1286q0 35 20.5 56.5t44.5 21.5q53 0 53 -57q0 -31 -20 -52.5t-45 -21.5q-53 0 -53 53zM496 1286q0 35 20.5 56.5t44.5 21.5q53 0 53 -57q0 -31 -20 -52.5t-45 -21.5q-53 0 -53 53z" />
<glyph unicode="&#xf0;" horiz-adv-x="1052" d="M102 336q0 109 34 210t97.5 181t151.5 127t197 47q82 0 152.5 -46t125.5 -120q-6 152 -45 267.5t-104 205.5l-305 -131l-17 45l293 125q-45 55 -100.5 102.5t-118.5 88.5l33 41q137 -88 237 -209l299 127l17 -45l-287 -123q72 -100 114 -231.5t42 -301.5 q0 -201 -61.5 -364.5t-171.5 -260t-255 -96.5q-96 0 -170 49.5t-116 131.5t-42 180zM160 344q0 -84 32.5 -155.5t96 -115.5t153.5 -44t165 50t130.5 137t87 198.5t35.5 234.5q-49 76 -117.5 137.5t-164.5 61.5q-125 0 -219.5 -73t-146.5 -188.5t-52 -242.5z" />
<glyph unicode="&#xf1;" horiz-adv-x="1032" d="M90 0l197 979h49l-25 -160h8q92 80 178.5 132.5t174.5 52.5q127 0 180 -67t53 -171q0 -37 -3 -62.5t-13 -68.5l-127 -635h-57l126 627q10 47 13.5 73.5t3.5 57.5q0 96 -43 144t-141 48q-68 0 -160 -51t-209 -166l-148 -733h-57zM376 1196q14 59 39 116.5t67 95.5t103 38 q55 0 88 -32t56.5 -73t52.5 -72.5t74 -31.5q59 0 94 61.5t53 143.5l53 -4q-14 -57 -38.5 -114.5t-65.5 -96.5t-104 -39q-55 0 -88 31.5t-56.5 72.5t-52.5 73t-74 32q-57 0 -93 -60.5t-54 -144.5z" />
<glyph unicode="&#xf2;" horiz-adv-x="1024" d="M94 360q0 137 42 254t115 204t164 136.5t191 49.5q147 0 235.5 -100.5t88.5 -285.5q0 -137 -42 -253.5t-115 -203.5t-164 -136.5t-191 -49.5q-147 0 -235.5 100.5t-88.5 284.5zM152 373q0 -168 70.5 -256t199.5 -88q84 0 164 46t144.5 126t103 184t38.5 221 q0 170 -70.5 257t-199.5 87q-82 0 -163 -46t-145.5 -126t-103 -184.5t-38.5 -220.5zM512 1495l53 37l221 -336l-41 -29z" />
<glyph unicode="&#xf3;" horiz-adv-x="1024" d="M94 360q0 137 42 254t115 204t164 136.5t191 49.5q147 0 235.5 -100.5t88.5 -285.5q0 -137 -42 -253.5t-115 -203.5t-164 -136.5t-191 -49.5q-147 0 -235.5 100.5t-88.5 284.5zM152 373q0 -168 70.5 -256t199.5 -88q84 0 164 46t144.5 126t103 184t38.5 221 q0 170 -70.5 257t-199.5 87q-82 0 -163 -46t-145.5 -126t-103 -184.5t-38.5 -220.5zM577 1225l316 291l41 -50l-324 -278z" />
<glyph unicode="&#xf4;" horiz-adv-x="1024" d="M94 360q0 137 42 254t115 204t164 136.5t191 49.5q147 0 235.5 -100.5t88.5 -285.5q0 -137 -42 -253.5t-115 -203.5t-164 -136.5t-191 -49.5q-147 0 -235.5 100.5t-88.5 284.5zM152 373q0 -168 70.5 -256t199.5 -88q84 0 164 46t144.5 126t103 184t38.5 221 q0 170 -70.5 257t-199.5 87q-82 0 -163 -46t-145.5 -126t-103 -184.5t-38.5 -220.5zM405 1208l295 299h57l189 -303l-41 -28l-176 270h-8l-279 -270z" />
<glyph unicode="&#xf5;" horiz-adv-x="1024" d="M94 360q0 137 42 254t115 204t164 136.5t191 49.5q147 0 235.5 -100.5t88.5 -285.5q0 -137 -42 -253.5t-115 -203.5t-164 -136.5t-191 -49.5q-147 0 -235.5 100.5t-88.5 284.5zM152 373q0 -168 70.5 -256t199.5 -88q84 0 164 46t144.5 126t103 184t38.5 221 q0 170 -70.5 257t-199.5 87q-82 0 -163 -46t-145.5 -126t-103 -184.5t-38.5 -220.5zM372 1196q14 59 39 116.5t67 95.5t103 38q55 0 88 -32t56.5 -73t52.5 -72.5t74 -31.5q59 0 94 61.5t53 143.5l53 -4q-14 -57 -38.5 -114.5t-65.5 -96.5t-104 -39q-55 0 -88 31.5 t-56.5 72.5t-52.5 73t-74 32q-57 0 -93 -60.5t-54 -144.5z" />
<glyph unicode="&#xf6;" horiz-adv-x="1024" d="M94 360q0 137 42 254t115 204t164 136.5t191 49.5q147 0 235.5 -100.5t88.5 -285.5q0 -137 -42 -253.5t-115 -203.5t-164 -136.5t-191 -49.5q-147 0 -235.5 100.5t-88.5 284.5zM152 373q0 -168 70.5 -256t199.5 -88q84 0 164 46t144.5 126t103 184t38.5 221 q0 170 -70.5 257t-199.5 87q-82 0 -163 -46t-145.5 -126t-103 -184.5t-38.5 -220.5zM467 1286q0 35 20.5 56.5t44.5 21.5q53 0 53 -57q0 -31 -20 -52.5t-45 -21.5q-53 0 -53 53zM807 1286q0 35 20.5 56.5t44.5 21.5q53 0 53 -57q0 -31 -20 -52.5t-45 -21.5q-53 0 -53 53z " />
<glyph unicode="&#xf7;" d="M98 651v54h795v-54h-795zM434 303q0 29 17.5 47.5t44.5 18.5q29 0 45 -18.5t16 -47.5q0 -27 -16 -48.5t-45 -21.5q-27 0 -44.5 21.5t-17.5 48.5zM434 1049q0 29 17.5 47t44.5 18q29 0 45 -18.5t16 -46.5q0 -27 -16 -48.5t-45 -21.5q-27 0 -44.5 21.5t-17.5 48.5z" />
<glyph unicode="&#xf8;" horiz-adv-x="1024" d="M0 -8l141 145q-47 90 -47 223q0 137 42 254t115 204t164 136.5t191 49.5q168 0 256 -125l137 141l37 -37l-147 -152q41 -92 41 -213q0 -137 -42 -253.5t-115 -203.5t-164 -136.5t-191 -49.5q-162 0 -248 117l-133 -137zM152 373q0 -117 32 -191l637 654q-72 115 -219 114 q-82 0 -163 -46t-145.5 -126t-103 -184t-38.5 -221zM211 133q68 -104 211 -104q84 0 164 46t144.5 126t103 184t38.5 221q0 104 -28 180z" />
<glyph unicode="&#xf9;" horiz-adv-x="1052" d="M143 213q0 37 4.5 62.5t12.5 68.5l127 635h57l-127 -627q-8 -45 -12 -72.5t-4 -58.5q0 -94 43 -143t141 -49q68 0 160 52t209 165l147 733h57l-196 -979h-49l24 164h-8q-92 -80 -177 -134.5t-175 -54.5q-125 0 -179.5 67t-54.5 171zM492 1495l53 37l221 -336l-41 -29z " />
<glyph unicode="&#xfa;" horiz-adv-x="1052" d="M143 213q0 37 4.5 62.5t12.5 68.5l127 635h57l-127 -627q-8 -45 -12 -72.5t-4 -58.5q0 -94 43 -143t141 -49q68 0 160 52t209 165l147 733h57l-196 -979h-49l24 164h-8q-92 -80 -177 -134.5t-175 -54.5q-125 0 -179.5 67t-54.5 171zM557 1225l316 291l41 -50l-324 -278z " />
<glyph unicode="&#xfb;" horiz-adv-x="1052" d="M143 213q0 37 4.5 62.5t12.5 68.5l127 635h57l-127 -627q-8 -45 -12 -72.5t-4 -58.5q0 -94 43 -143t141 -49q68 0 160 52t209 165l147 733h57l-196 -979h-49l24 164h-8q-92 -80 -177 -134.5t-175 -54.5q-125 0 -179.5 67t-54.5 171zM385 1208l295 299h57l189 -303 l-41 -28l-176 270h-8l-279 -270z" />
<glyph unicode="&#xfc;" horiz-adv-x="1052" d="M143 213q0 37 4.5 62.5t12.5 68.5l127 635h57l-127 -627q-8 -45 -12 -72.5t-4 -58.5q0 -94 43 -143t141 -49q68 0 160 52t209 165l147 733h57l-196 -979h-49l24 164h-8q-92 -80 -177 -134.5t-175 -54.5q-125 0 -179.5 67t-54.5 171zM447 1286q0 35 20.5 56.5t44.5 21.5 q53 0 53 -57q0 -31 -20 -52.5t-45 -21.5q-53 0 -53 53zM787 1286q0 35 20.5 56.5t44.5 21.5q53 0 53 -57q0 -31 -20 -52.5t-45 -21.5q-53 0 -53 53z" />
<glyph unicode="&#xfd;" horiz-adv-x="835" d="M-172 -434l25 49q33 -16 69 -16q92 0 172 79.5t144 210.5l45 91l-164 999h57l103 -639q12 -70 24 -146.5t21 -144.5h8q37 72 77 144.5t78 146.5l349 639h61l-614 -1114q-39 -76 -90.5 -149.5t-119 -122t-155.5 -48.5q-14 0 -37.5 4.5t-52.5 16.5zM434 1225l316 291 l41 -50l-324 -278z" />
<glyph unicode="&#xfe;" horiz-adv-x="1064" d="M0 -455l385 1934h57l-90 -443l-41 -200h4q80 66 174.5 117t198.5 51q129 0 208 -91.5t79 -261.5q0 -141 -44 -264t-121 -215t-171 -144.5t-197 -52.5q-88 0 -154.5 47.5t-111.5 116.5h-4l-45 -225l-70 -369h-57zM188 209q59 -98 121.5 -139t136.5 -41q92 0 177.5 52 t151 139t104.5 196.5t39 222.5q0 156 -62.5 233.5t-171.5 77.5q-86 0 -190.5 -54t-194.5 -134z" />
<glyph unicode="&#xff;" horiz-adv-x="835" d="M-172 -434l25 49q33 -16 69 -16q92 0 172 79.5t144 210.5l45 91l-164 999h57l103 -639q12 -70 24 -146.5t21 -144.5h8q37 72 77 144.5t78 146.5l349 639h61l-614 -1114q-39 -76 -90.5 -149.5t-119 -122t-155.5 -48.5q-14 0 -37.5 4.5t-52.5 16.5zM324 1286 q0 35 20.5 56.5t44.5 21.5q53 0 53 -57q0 -31 -20 -52.5t-45 -21.5q-53 0 -53 53zM664 1286q0 35 20.5 56.5t44.5 21.5q53 0 53 -57q0 -31 -20 -52.5t-45 -21.5q-53 0 -53 53z" />
<glyph unicode="&#x152;" horiz-adv-x="1642" d="M127 524q0 172 46 322.5t136 263.5t225.5 177.5t313.5 64.5h856l-12 -54h-590l-111 -553h492l-13 -53h-487l-131 -639h610l-12 -53h-770q-186 0 -309 66.5t-183.5 184.5t-60.5 273zM188 528q0 -139 54.5 -246.5t164 -168t277.5 -60.5h111l249 1245h-200q-158 0 -280 -61 t-206 -170t-127 -247t-43 -292z" />
<glyph unicode="&#x153;" horiz-adv-x="1687" d="M94 360q0 137 42 254t115 204t164 136.5t191 49.5q133 0 217 -80t103 -228q66 145 175 226.5t222 81.5q158 0 224.5 -96.5t66.5 -248.5q0 -49 -7.5 -91t-17.5 -72h-663q-25 -164 7 -267.5t101.5 -151.5t157.5 -48q68 0 133.5 29.5t120.5 68.5l29 -45q-57 -43 -132 -75 t-155 -32q-135 0 -222 84t-106 244q-68 -150 -187.5 -239t-254.5 -89q-147 0 -235.5 100.5t-88.5 284.5zM152 373q0 -168 70.5 -256t199.5 -88q84 0 164 46t144.5 126t103 184t38.5 221q0 170 -70.5 257t-199.5 87q-82 0 -163 -46t-145.5 -126t-103 -184.5t-38.5 -220.5z M938 549h606q12 61 12 123q0 70 -22.5 133t-74.5 104t-140 41q-84 0 -162 -52t-136 -142t-83 -207z" />
<glyph unicode="&#x178;" horiz-adv-x="864" d="M176 1352h62l120 -441q20 -74 40 -145.5t40 -147.5h4q51 72 101.5 147t101.5 146l309 441h66l-559 -793l-113 -559h-61l112 559zM410 1540q0 35 20.5 56.5t44.5 21.5q53 0 54 -57q0 -31 -20.5 -52.5t-45.5 -21.5q-53 0 -53 53zM750 1540q0 35 20.5 56.5t44.5 21.5 q53 0 53 -57q0 -31 -20 -52.5t-45 -21.5q-53 0 -53 53z" />
<glyph unicode="&#x2c6;" horiz-adv-x="1032" d="M405 1208l295 299h57l189 -303l-41 -28l-176 270h-8l-279 -270z" />
<glyph unicode="&#x2dc;" horiz-adv-x="1032" d="M372 1196q14 59 39 116.5t67 95.5t103 38q55 0 88 -32t56.5 -73t52.5 -72.5t74 -31.5q59 0 94 61.5t53 143.5l53 -4q-14 -57 -38.5 -114.5t-65.5 -96.5t-104 -39q-55 0 -88 31.5t-56.5 72.5t-52.5 73t-74 32q-57 0 -93 -60.5t-54 -144.5z" />
<glyph unicode="&#x2000;" horiz-adv-x="887" />
<glyph unicode="&#x2001;" horiz-adv-x="1774" />
<glyph unicode="&#x2002;" horiz-adv-x="887" />
<glyph unicode="&#x2003;" horiz-adv-x="1774" />
<glyph unicode="&#x2004;" horiz-adv-x="591" />
<glyph unicode="&#x2005;" horiz-adv-x="443" />
<glyph unicode="&#x2006;" horiz-adv-x="295" />
<glyph unicode="&#x2007;" horiz-adv-x="295" />
<glyph unicode="&#x2008;" horiz-adv-x="221" />
<glyph unicode="&#x2009;" horiz-adv-x="354" />
<glyph unicode="&#x200a;" horiz-adv-x="98" />
<glyph unicode="&#x2010;" horiz-adv-x="577" d="M74 483l12 58h422l-12 -58h-422z" />
<glyph unicode="&#x2011;" horiz-adv-x="577" d="M74 483l12 58h422l-12 -58h-422z" />
<glyph unicode="&#x2012;" horiz-adv-x="577" d="M74 483l12 58h422l-12 -58h-422z" />
<glyph unicode="&#x2013;" horiz-adv-x="946" d="M74 487l12 54h786l-16 -54h-782z" />
<glyph unicode="&#x2014;" horiz-adv-x="1572" d="M74 487l12 54h1413l-12 -54h-1413z" />
<glyph unicode="&#x2018;" horiz-adv-x="413" d="M246 1110q0 109 56 192.5t149 135.5l24 -41q-80 -49 -122 -112.5t-42 -129.5h4h4q29 0 47.5 -15.5t18.5 -45.5q0 -31 -18.5 -52.5t-47.5 -21.5q-31 0 -52 23.5t-21 66.5z" />
<glyph unicode="&#x2019;" horiz-adv-x="413" d="M233 1061q80 49 122 113.5t42 128.5h-4h-4q-27 0 -46 15t-19 46t19 52.5t46 21.5q31 0 52.5 -23.5t21.5 -66.5q0 -106 -56.5 -190.5t-148.5 -137.5z" />
<glyph unicode="&#x201a;" horiz-adv-x="413" d="M-37 -246q80 49 122 113.5t42 128.5h-4h-4q-27 0 -46 15t-19 46t19 52.5t46 21.5q31 0 52.5 -23.5t21.5 -66.5q0 -106 -56.5 -190.5t-148.5 -137.5z" />
<glyph unicode="&#x201c;" horiz-adv-x="663" d="M246 1110q0 109 56 192.5t149 135.5l24 -41q-80 -49 -122 -112.5t-42 -129.5h4h4q29 0 47.5 -15.5t18.5 -45.5q0 -31 -18.5 -52.5t-47.5 -21.5q-31 0 -52 23.5t-21 66.5zM496 1110q0 109 56 192.5t149 135.5l24 -41q-80 -49 -122 -112.5t-42 -129.5h4h4q29 0 47.5 -15.5 t18.5 -45.5q0 -31 -18.5 -52.5t-47.5 -21.5q-31 0 -52 23.5t-21 66.5z" />
<glyph unicode="&#x201d;" horiz-adv-x="663" d="M233 1061q80 49 122 113.5t42 128.5h-4h-4q-27 0 -46 15t-19 46t19 52.5t46 21.5q31 0 52.5 -23.5t21.5 -66.5q0 -106 -56.5 -190.5t-148.5 -137.5zM483 1061q80 49 122 113.5t42 128.5h-4h-4q-27 0 -46 15t-19 46t19 52.5t46 21.5q31 0 52.5 -23.5t21.5 -66.5 q0 -106 -56.5 -190.5t-148.5 -137.5z" />
<glyph unicode="&#x201e;" horiz-adv-x="663" d="M-37 -246q80 49 122 113.5t42 128.5h-4h-4q-27 0 -46 15t-19 46t19 52.5t46 21.5q31 0 52.5 -23.5t21.5 -66.5q0 -106 -56.5 -190.5t-148.5 -137.5zM213 -246q80 49 122 113.5t42 128.5h-4h-4q-27 0 -46 15t-19 46t19 52.5t46 21.5q31 0 52.5 -23.5t21.5 -66.5 q0 -106 -56.5 -190.5t-148.5 -137.5z" />
<glyph unicode="&#x2022;" horiz-adv-x="544" d="M86 516q0 59 25.5 114.5t75 91.5t116.5 36q72 0 120 -52.5t48 -136.5q0 -61 -25.5 -116.5t-73.5 -90t-114 -34.5q-74 0 -123 53t-49 135z" />
<glyph unicode="&#x2026;" horiz-adv-x="1937" d="M192 37q0 35 26.5 64.5t59.5 29.5q29 0 41 -18.5t12 -46.5q0 -33 -23.5 -62t-58.5 -29q-27 0 -42 18.5t-15 43.5zM881 37q0 35 26.5 64.5t59.5 29.5q29 0 41 -18.5t12 -46.5q0 -33 -23.5 -62t-58.5 -29q-27 0 -42 18.5t-15 43.5zM1569 37q0 35 26.5 64.5t59.5 29.5 q29 0 41 -18.5t12 -46.5q0 -33 -23.5 -62t-58.5 -29q-27 0 -42 18.5t-15 43.5z" />
<glyph unicode="&#x202f;" horiz-adv-x="354" />
<glyph unicode="&#x2039;" horiz-adv-x="483" d="M82 492l12 65l324 320l33 -33l-304 -328l185 -340l-41 -24z" />
<glyph unicode="&#x203a;" horiz-adv-x="483" d="M41 184l303 328l-184 340l41 25l209 -340l-13 -66l-323 -319z" />
<glyph unicode="&#x205f;" horiz-adv-x="443" />
<glyph unicode="&#x20ac;" d="M49 518l12 41l117 8q6 88 25 170h-113l12 41l113 8q43 162 122 285t183.5 193.5t216.5 70.5q111 0 176.5 -59t102.5 -137l-49 -29q-37 74 -89.5 123t-144.5 49q-96 0 -187 -63.5t-162 -175t-112 -257.5h580l-12 -49h-580q-8 -39 -14 -82t-10 -88h493l-12 -49h-484 q-8 -236 76 -362.5t223 -126.5q90 0 160 40t127 95l37 -41q-57 -57 -136 -102.5t-192 -45.5q-166 0 -263 140.5t-89 402.5h-127z" />
<glyph unicode="&#x2122;" horiz-adv-x="1183" d="M164 1331l12 53h496l-13 -53h-217l-114 -573h-58l115 573h-221zM647 758l127 626h86l49 -270l29 -180h8l98 180l164 270h86l-127 -626h-57l70 348l49 209h-8l-267 -459h-53l-86 459h-8l-33 -209l-69 -348h-58z" />
<glyph unicode="&#x25fc;" horiz-adv-x="983" d="M0 0v983h983v-983h-983z" />
<glyph unicode="&#xfb01;" horiz-adv-x="942" d="M98 0l185 926h-127l8 45l131 8l49 246q31 145 99.5 211.5t154.5 66.5q49 0 83 -13t60 -32l-28 -45q-25 16 -51.5 26.5t-67.5 10.5q-76 0 -125 -67.5t-68 -157.5l-49 -246h221l-12 -53h-221l-184 -926h-58zM594 0l197 979h57l-197 -979h-57zM819 1286q0 37 24 59.5 t50 22.5q25 0 41 -16.5t16 -44.5q0 -33 -22 -55.5t-51 -22.5q-25 0 -41.5 16.5t-16.5 40.5z" />
<glyph unicode="&#xfb02;" horiz-adv-x="966" d="M98 0l185 926h-127l8 45l131 8l49 246q31 145 99.5 211.5t154.5 66.5q49 0 83 -13t60 -32l-28 -45q-25 16 -51.5 26.5t-67.5 10.5q-76 0 -125 -67.5t-68 -157.5l-49 -246h221l-12 -53h-221l-184 -926h-58zM606 49q0 10 3.5 24.5t5.5 28.5l274 1377h57l-274 -1381 q-2 -14 -3 -24.5t-1 -16.5q0 -29 29 -28q6 0 12 1t20 7l8 -49q-14 -6 -26.5 -9.5t-30.5 -3.5q-31 0 -52.5 18.5t-21.5 55.5z" />
<glyph unicode="&#xfb03;" horiz-adv-x="1437" d="M98 0l187 926h-129l8 45l131 8l45 225q35 145 107.5 212t166.5 67q57 0 93 -12.5t71 -28.5l-28 -49q-29 16 -60 26.5t-80 10.5q-84 0 -138 -68t-75 -158l-45 -225h439l49 246q31 145 99.5 211.5t154.5 66.5q49 0 80.5 -12t62.5 -29l-29 -49q-25 16 -51.5 26.5t-66.5 10.5 q-76 0 -125.5 -67.5t-67.5 -157.5l-49 -246h221l-12 -53h-219l-187 -926h-57l186 926h-438l-186 -926h-58zM1089 0l197 979h57l-197 -979h-57zM1314 1286q0 37 24 59.5t50 22.5q25 0 41 -16.5t16 -44.5q0 -33 -22 -55.5t-51 -22.5q-25 0 -41.5 16.5t-16.5 40.5z" />
<glyph unicode="&#xfb04;" horiz-adv-x="1462" d="M98 0l187 926h-129l8 45l131 8l45 225q35 145 107.5 212t166.5 67q57 0 93 -12.5t71 -28.5l-28 -49q-29 16 -60 26.5t-80 10.5q-84 0 -138 -68t-75 -158l-45 -225h439l49 246q31 145 99.5 211.5t154.5 66.5q49 0 80.5 -12t62.5 -29l-29 -49q-25 16 -51.5 26.5t-66.5 10.5 q-76 0 -125.5 -67.5t-67.5 -157.5l-49 -246h221l-12 -53h-219l-187 -926h-57l186 926h-438l-186 -926h-58zM1101 49q0 10 3.5 24.5t5.5 28.5l274 1377h57l-274 -1381q-2 -14 -3 -24.5t-1 -16.5q0 -29 29 -28q6 0 12 1t20 7l8 -49q-14 -6 -26.5 -9.5t-30.5 -3.5 q-31 0 -52.5 18.5t-21.5 55.5z" />
</font>
</defs>
</svg>
